<svg width="95" height="108" viewBox="0 0 95 108" fill="none" xmlns="http://www.w3.org/2000/svg">
<g clip-path="url(#clip0_1118_6137)">
<rect width="1920" height="11022" transform="translate(-888 -3408)" fill="#ECECEC"/>
<g style="mix-blend-mode:exclusion" opacity="0.45">
<path d="M92.8895 3.41618L85.6934 -9.41957C82.7487 -14.6463 86.3956 -21.2373 93.8561 -24.1377C101.285 -27.0315 109.703 -25.1325 112.653 -19.8827L112.709 -19.7737L119.814 -7.20864L119.876 -7.07663C122.826 -1.82682 119.211 4.7575 111.755 7.68106C104.294 10.5815 95.8808 8.70557 92.8994 3.46247L92.8895 3.41618Z" fill="#474746"/>
<path d="M108.246 103.293L99.0939 90.7958C95.4271 85.7693 98.3169 78.9026 105.569 75.4903C112.821 72.0781 121.709 73.371 125.376 78.3975L125.381 78.4206L125.474 78.5459L134.413 90.8221L134.506 90.9474C138.173 95.9739 135.246 102.824 127.989 106.213C120.738 109.626 111.881 108.326 108.246 103.293Z" fill="#3F3F3E"/>
<path d="M74.2467 54.5499L66.0048 41.6441C62.6585 36.4053 66.0234 29.5836 73.5202 26.3855C81.0171 23.1875 89.7834 24.8442 93.1297 30.0831L93.1346 30.1062L93.2278 30.2316L101.256 42.9165L101.349 43.0419C104.659 48.2643 101.294 55.086 93.8242 58.2542C86.2905 61.4359 77.5612 59.7954 74.2467 54.5499Z" fill="#3F3F3E"/>
<path d="M43.939 4.22979L36.676 -9.07511C33.7703 -14.4308 37.5614 -21.1247 45.154 -24.0288C52.7516 -26.9097 61.2904 -24.9152 64.2279 -19.5662L64.2845 -19.4574L71.4561 -6.42315L71.5176 -6.29114C74.46 -0.919056 70.669 5.77481 63.0495 8.70874C55.425 11.6195 46.8863 9.62502 43.912 4.25964L43.939 4.22979Z" fill="#3F3F3E"/>
<path d="M60.1385 107.767L50.8238 94.8207C47.0956 89.6622 50.12 82.6464 57.5896 79.1641C65.0273 75.6885 74.0991 77.0636 77.8323 82.2452L77.8372 82.2683L77.9306 82.3936L87.0317 95.1187L87.125 95.244C90.8214 100.409 87.7604 107.409 80.3177 110.861C72.8383 114.297 63.8349 112.932 60.1385 107.767Z" fill="#383736"/>
<path d="M25.5962 57.2556L17.2825 43.8577C13.9434 38.4965 17.4795 31.5422 25.1404 28.3337C32.8012 25.1253 41.7242 26.894 45.0634 32.2551L45.1199 32.3641L53.3057 45.4748L53.3988 45.6002C56.738 50.9613 53.2388 57.9321 45.578 61.1405C37.8952 64.4019 28.9721 62.6332 25.5962 57.2556Z" fill="#383736"/>
<path d="M-4.94648 5.05426L-12.2493 -8.74943C-15.1528 -14.2505 -11.1808 -21.0308 -3.42416 -23.9453C4.3692 -26.8433 13.001 -24.7234 15.9314 -19.2522L15.9879 -19.1433L23.1948 -5.63351L23.2563 -5.50136C26.1916 -0.00700324 22.2612 6.81273 14.4679 9.71079C6.67449 12.6088 -2.01115 10.5486 -4.91463 5.04755L-4.94648 5.05426Z" fill="#383736"/>
<path d="M12.0358 112.263L2.55899 98.8686C-1.20378 93.5483 1.95968 86.4065 9.62015 82.884C17.2806 79.3615 26.5045 80.8253 30.2672 86.1456L30.2722 86.1688L30.3655 86.2941L39.5972 99.4749L39.6905 99.6002C43.4165 104.904 40.2528 112.046 32.5874 115.545C24.9489 119.015 15.7619 117.567 12.0358 112.263Z" fill="#2B2B2A"/>
<path d="M-22.9586 59.9411L-31.3391 46.0741C-34.6711 40.5907 -30.9957 33.5104 -23.1659 30.3147C-15.3411 27.0959 -6.26618 28.9534 -2.96599 34.4435L-2.90946 34.5524L5.37502 48.1255L5.46834 48.2508C8.80529 53.7574 5.16171 60.8311 -2.66311 64.0499C-10.5198 67.2754 -19.5898 65.4409 -22.9218 59.9575L-22.9586 59.9411Z" fill="#2B2B2A"/>
</g>
<g filter="url(#filter0_dd_1118_6137)">
<path d="M-798 -640.985C-798 -657.554 -784.569 -670.985 -768 -670.985H911C927.568 -670.985 941 -657.554 941 -640.985V984.015C941 1000.58 927.568 1014.01 911 1014.01H-768C-784.569 1014.01 -798 1000.58 -798 984.015V-640.985Z" fill="#ECECEC"/>
</g>
<g filter="url(#filter1_ii_1118_6137)">
<path d="M399.487 88.6916C399.487 63.5135 392.729 70.3374 392.729 70.3374C388.847 75.038 383.603 78.4279 377.715 80.0451C371.827 81.6623 365.581 81.427 359.832 79.3715C354.082 77.316 349.11 73.5406 345.595 68.5613C342.08 63.5821 340.194 57.6422 340.194 51.5537C340.194 45.4652 342.08 39.5253 345.595 34.5461C349.11 29.5669 354.082 25.7914 359.832 23.7359C365.581 21.6804 371.827 21.4452 377.715 23.0624C383.603 24.6796 388.847 28.0703 392.729 32.7709C392.729 32.7709 399.487 39.594 399.487 14.4159C399.457 12.8587 399.531 11.3013 399.71 9.75407V-183.671C399.71 -190.732 396.896 -197.504 391.887 -202.497C386.878 -207.49 380.085 -210.295 373.001 -210.295H45.7086C38.6251 -210.295 31.8316 -207.49 26.8227 -202.497C21.8139 -197.504 19 -190.732 19 -183.671V27.1923C20.8489 36.738 24.8272 32.77 24.8272 32.77C28.7091 28.0694 33.9527 24.6795 39.8411 23.0623C45.7295 21.4451 51.9754 21.6804 57.7246 23.7359C63.4738 25.7914 68.4457 29.5669 71.9608 34.5461C75.4758 39.5253 77.3623 45.4652 77.3623 51.5537C77.3623 57.6422 75.4758 63.5822 71.9608 68.5614C68.4457 73.5406 63.4738 77.316 57.7246 79.3716C51.9754 81.4271 45.7295 81.6623 39.8411 80.0451C33.9527 78.4279 28.7091 75.0372 24.8272 70.3366C24.8272 70.3366 20.8489 66.3694 19 75.9151V286.779C19 290.275 19.6908 293.737 21.033 296.967C22.3753 300.197 24.3426 303.132 26.8227 305.605C29.3029 308.077 32.2472 310.038 35.4877 311.376C38.7281 312.714 42.2012 313.403 45.7086 313.403H373.001C376.509 313.403 379.982 312.714 383.222 311.376C386.463 310.038 389.407 308.077 391.887 305.605C394.367 303.132 396.335 300.197 397.677 296.967C399.019 293.737 399.71 290.275 399.71 286.779V93.3525C399.532 91.8056 399.457 90.2484 399.487 88.6916Z" fill="#ECECEC"/>
</g>
<g filter="url(#filter2_ii_1118_6137)">
<path d="M48.619 22.0007C44.2422 21.9965 39.919 22.9603 35.9611 24.8227C32.0031 26.6851 28.509 29.3997 25.7306 32.7707C25.7306 32.7707 21.4479 37.0793 19.7022 26.1285V-183.671C19.7022 -190.732 16.8883 -197.504 11.8794 -202.497C6.87058 -207.49 0.0771604 -210.296 -7.00641 -210.296H-334.299C-341.382 -210.296 -348.176 -207.49 -353.185 -202.497C-358.194 -197.504 -361.008 -190.732 -361.008 -183.671V14.4158C-361.008 39.5939 -367.766 32.7699 -367.766 32.7699C-371.648 28.0693 -376.891 24.6794 -382.78 23.0622C-388.668 21.445 -394.914 21.6802 -400.663 23.7357C-406.412 25.7913 -411.384 29.5667 -414.899 34.5459C-418.414 39.5252 -420.301 45.4651 -420.301 51.5536C-420.301 57.6421 -418.414 63.582 -414.899 68.5613C-411.384 73.5405 -406.412 77.3159 -400.663 79.3714C-394.914 81.4269 -388.668 81.6622 -382.78 80.045C-376.891 78.4278 -371.648 75.0371 -367.766 70.3365C-367.766 70.3365 -361.008 63.5133 -361.008 88.6914V286.778C-361.008 290.275 -360.317 293.737 -358.974 296.967C-357.632 300.197 -355.665 303.132 -353.185 305.605C-350.705 308.077 -347.76 310.038 -344.52 311.376C-341.279 312.714 -337.806 313.403 -334.299 313.403H-7.00641C-3.49898 313.403 -0.025907 312.714 3.21454 311.376C6.45498 310.038 9.3993 308.077 11.8794 305.605C14.3596 303.132 16.3269 300.197 17.6691 296.967C19.0114 293.737 19.7022 290.275 19.7022 286.778V76.9788C21.4479 66.0279 25.7306 70.3374 25.7306 70.3374C28.9063 74.1828 33.0055 77.1649 37.6474 79.0083C42.2893 80.8516 47.3232 81.4955 52.2816 80.8801C57.24 80.2648 61.9619 78.4102 66.0087 75.4885C70.0555 72.5669 73.2959 68.6731 75.4288 64.1688C77.5617 59.6645 78.5179 54.6959 78.2086 49.7246C77.8994 44.7533 76.3347 39.9405 73.6599 35.7334C70.9851 31.5263 67.287 28.0614 62.9091 25.6606C58.5312 23.2597 53.6156 22.0007 48.619 22.0007Z" fill="#ECECEC"/>
</g>
</g>
<defs>
<filter id="filter0_dd_1118_6137" x="-831" y="-703.985" width="1807" height="1753" filterUnits="userSpaceOnUse" color-interpolation-filters="sRGB">
<feFlood flood-opacity="0" result="BackgroundImageFix"/>
<feColorMatrix in="SourceAlpha" type="matrix" values="0 0 0 0 0 0 0 0 0 0 0 0 0 0 0 0 0 0 127 0" result="hardAlpha"/>
<feOffset dx="10" dy="10"/>
<feGaussianBlur stdDeviation="12.5"/>
<feComposite in2="hardAlpha" operator="out"/>
<feColorMatrix type="matrix" values="0 0 0 0 0.0784314 0 0 0 0 0.121569 0 0 0 0 0.219608 0 0 0 0.2 0"/>
<feBlend mode="normal" in2="BackgroundImageFix" result="effect1_dropShadow_1118_6137"/>
<feColorMatrix in="SourceAlpha" type="matrix" values="0 0 0 0 0 0 0 0 0 0 0 0 0 0 0 0 0 0 127 0" result="hardAlpha"/>
<feOffset dx="-8" dy="-8"/>
<feGaussianBlur stdDeviation="12.5"/>
<feComposite in2="hardAlpha" operator="out"/>
<feColorMatrix type="matrix" values="0 0 0 0 1 0 0 0 0 1 0 0 0 0 1 0 0 0 1 0"/>
<feBlend mode="normal" in2="effect1_dropShadow_1118_6137" result="effect2_dropShadow_1118_6137"/>
<feBlend mode="normal" in="SourceGraphic" in2="effect2_dropShadow_1118_6137" result="shape"/>
</filter>
<filter id="filter1_ii_1118_6137" x="14" y="-215.295" width="389.71" height="532.698" filterUnits="userSpaceOnUse" color-interpolation-filters="sRGB">
<feFlood flood-opacity="0" result="BackgroundImageFix"/>
<feBlend mode="normal" in="SourceGraphic" in2="BackgroundImageFix" result="shape"/>
<feColorMatrix in="SourceAlpha" type="matrix" values="0 0 0 0 0 0 0 0 0 0 0 0 0 0 0 0 0 0 127 0" result="hardAlpha"/>
<feOffset dx="4" dy="4"/>
<feGaussianBlur stdDeviation="10"/>
<feComposite in2="hardAlpha" operator="arithmetic" k2="-1" k3="1"/>
<feColorMatrix type="matrix" values="0 0 0 0 0.0784314 0 0 0 0 0.121569 0 0 0 0 0.219608 0 0 0 0.2 0"/>
<feBlend mode="normal" in2="shape" result="effect1_innerShadow_1118_6137"/>
<feColorMatrix in="SourceAlpha" type="matrix" values="0 0 0 0 0 0 0 0 0 0 0 0 0 0 0 0 0 0 127 0" result="hardAlpha"/>
<feOffset dx="-5" dy="-5"/>
<feGaussianBlur stdDeviation="10"/>
<feComposite in2="hardAlpha" operator="arithmetic" k2="-1" k3="1"/>
<feColorMatrix type="matrix" values="0 0 0 0 1 0 0 0 0 1 0 0 0 0 1 0 0 0 1 0"/>
<feBlend mode="normal" in2="effect1_innerShadow_1118_6137" result="effect2_innerShadow_1118_6137"/>
</filter>
<filter id="filter2_ii_1118_6137" x="-425.301" y="-215.296" width="507.566" height="532.698" filterUnits="userSpaceOnUse" color-interpolation-filters="sRGB">
<feFlood flood-opacity="0" result="BackgroundImageFix"/>
<feBlend mode="normal" in="SourceGraphic" in2="BackgroundImageFix" result="shape"/>
<feColorMatrix in="SourceAlpha" type="matrix" values="0 0 0 0 0 0 0 0 0 0 0 0 0 0 0 0 0 0 127 0" result="hardAlpha"/>
<feOffset dx="4" dy="4"/>
<feGaussianBlur stdDeviation="10"/>
<feComposite in2="hardAlpha" operator="arithmetic" k2="-1" k3="1"/>
<feColorMatrix type="matrix" values="0 0 0 0 0.0784314 0 0 0 0 0.121569 0 0 0 0 0.219608 0 0 0 0.15 0"/>
<feBlend mode="normal" in2="shape" result="effect1_innerShadow_1118_6137"/>
<feColorMatrix in="SourceAlpha" type="matrix" values="0 0 0 0 0 0 0 0 0 0 0 0 0 0 0 0 0 0 127 0" result="hardAlpha"/>
<feOffset dx="-5" dy="-5"/>
<feGaussianBlur stdDeviation="10"/>
<feComposite in2="hardAlpha" operator="arithmetic" k2="-1" k3="1"/>
<feColorMatrix type="matrix" values="0 0 0 0 1 0 0 0 0 1 0 0 0 0 1 0 0 0 1 0"/>
<feBlend mode="normal" in2="effect1_innerShadow_1118_6137" result="effect2_innerShadow_1118_6137"/>
</filter>
<clipPath id="clip0_1118_6137">
<rect width="1920" height="11022" fill="white" transform="translate(-888 -3408)"/>
</clipPath>
</defs>
</svg>
