<svg width="82" height="90" viewBox="0 0 82 90" fill="none" xmlns="http://www.w3.org/2000/svg">
<g clip-path="url(#clip0_1118_6137)">
<rect width="1920" height="11022" transform="translate(-1340 -3416)" fill="#ECECEC"/>
<g style="mix-blend-mode:exclusion" opacity="0.45">
<path d="M89.4729 57.026L82.0315 48.4933C78.7315 44.7183 80.522 39.2427 86.0389 36.2682C91.5557 33.2938 98.7095 33.9373 102.009 37.7123L102.014 37.7355L102.061 37.7981L109.378 46.2121L109.424 46.2748C112.692 50.0565 110.897 55.509 105.38 58.4834C99.8631 61.4579 92.7411 60.8077 89.4729 57.026Z" fill="#7E7E7E"/>
<path d="M61.4413 23.8221L54.4794 15.0437C51.3825 11.1293 53.4742 5.66283 59.1479 2.80039C64.8215 -0.0620546 71.9292 0.832772 75.0579 4.74044L75.0629 4.76359L75.1095 4.82624L81.9144 13.4927L81.9611 13.5554C85.058 17.4698 82.9345 22.9429 77.2509 25.7591C71.6042 28.5918 64.5064 27.7432 61.4413 23.8221Z" fill="#7E7E7E"/>
<path d="M72.0768 94.9336L63.9076 86.2641C60.3432 82.4964 61.9719 76.8856 67.513 73.7128C73.054 70.5399 80.4109 71.044 83.9754 74.8117L83.9803 74.8349L84.0588 74.8908L92.071 83.4483L92.1495 83.5043C95.6822 87.2787 94.0534 92.8895 88.5074 96.0392C82.9614 99.1889 75.6094 98.708 72.0768 94.9336Z" fill="#787777"/>
<path d="M41.2822 61.1073L33.6148 52.1391C30.2534 48.2321 32.1783 42.6073 37.8811 39.5696C43.5839 36.5318 50.9214 37.2574 54.2828 41.1645L54.2878 41.1876L54.3394 41.2734L61.845 50.1066L61.8965 50.1924C65.2261 54.1061 63.3013 59.7308 57.5935 62.7454C51.9494 65.7466 44.6118 65.021 41.2822 61.1073Z" fill="#787777"/>
<path d="M12.5276 26.222L5.40344 16.9946C2.27693 12.9415 4.49803 7.30272 10.3675 4.42321C16.237 1.54369 23.5553 2.49082 26.6818 6.54391L26.6868 6.56699L26.7383 6.65281L33.7325 15.7385L33.784 15.8243C36.9105 19.8774 34.6526 25.4997 28.7832 28.3792C22.9038 31.2125 15.6223 30.2818 12.5276 26.222Z" fill="#787777"/>
<path d="M24.804 100.679L16.377 91.5805C12.7511 87.6808 14.4775 81.9045 20.2045 78.6683C25.9315 75.4321 33.499 75.9886 37.1249 79.8883L37.1299 79.9114L37.2133 79.9905L45.4466 88.9605L45.53 89.0396C49.124 92.946 47.3928 98.6992 41.6608 101.912C35.9289 105.125 28.3981 104.585 24.804 100.679Z" fill="#717170"/>
<path d="M-6.86838 65.2276L-14.7251 55.8402C-18.1161 51.7944 -16.0936 46.0041 -10.1681 42.9195C-4.27445 39.8416 3.27382 40.6195 6.66976 44.6884L6.6747 44.7115L6.72629 44.7972L14.4212 54.0496L14.4727 54.1354C17.8319 58.1879 15.8044 63.955 9.91074 67.0329C4.01706 70.1109 -3.47738 69.2733 -6.86838 65.2276Z" fill="#717170"/>
<path d="M-22.4569 106.471L-31.105 96.9602C-34.7605 92.9218 -32.9683 86.9866 -27.0504 83.7103C-21.1325 80.4339 -13.3591 81.0194 -9.70365 85.0579L-9.69872 85.081L-9.61536 85.1601L-1.12915 94.5359L-1.04579 94.615C2.60971 98.6535 0.780837 104.572 -5.13708 107.849C-11.055 111.125 -18.8332 110.516 -22.4569 106.471Z" fill="#6A6A69"/>
</g>
<g filter="url(#filter0_dd_1118_6137)">
<path d="M-1205 -648C-1205 -664.569 -1191.57 -678 -1175 -678H504C520.568 -678 534 -664.569 534 -648V977C534 993.569 520.568 1007 504 1007H-1175C-1191.57 1007 -1205 993.568 -1205 977V-648Z" fill="#ECECEC"/>
</g>
<g filter="url(#filter1_ii_1118_6137)">
<path d="M421.486 -216.803L94.2181 -216.959C90.711 -216.961 87.2385 -216.274 83.9989 -214.937C80.7593 -213.6 77.8161 -211.641 75.3374 -209.169C72.8586 -206.698 70.8928 -203.764 69.5522 -200.534C68.2116 -197.304 67.5225 -193.842 67.5242 -190.345L67.6167 3.09422C67.4391 4.64152 67.3656 6.19899 67.3964 7.75627C67.4084 32.9362 60.6474 26.1085 60.6474 26.1085C56.7635 21.4057 51.5187 18.0131 45.6299 16.393C39.7412 14.7729 33.4959 15.0051 27.7481 17.0581C22.0003 19.111 17.0306 22.8844 13.5182 27.8623C10.0058 32.8402 8.12226 38.7796 8.12517 44.8686C8.12808 50.9576 10.0173 56.8988 13.5344 61.8801C17.0516 66.8614 22.025 70.6395 27.7747 72.6979C33.5245 74.7563 39.77 74.9945 45.6572 73.38C51.5444 71.7655 56.786 68.377 60.6654 63.6779C60.6654 63.6779 67.4198 56.8575 67.4319 82.0375C67.4025 83.5945 67.4776 85.1517 67.6566 86.6989L67.7491 280.139C67.7508 283.636 68.4432 287.099 69.7868 290.33C71.1305 293.561 73.0991 296.497 75.5802 298.971C78.0614 301.444 81.0065 303.407 84.2473 304.747C87.4882 306.086 90.9613 306.777 94.4685 306.778L421.737 306.934C425.244 306.936 428.716 306.249 431.956 304.912C435.195 303.576 438.139 301.616 440.617 299.145C443.096 296.673 445.062 293.739 446.403 290.509C447.743 287.279 448.432 283.817 448.431 280.321L448.206 -190.164C448.202 -197.226 445.385 -203.999 440.375 -208.995C435.364 -213.991 428.569 -216.8 421.486 -216.803Z" fill="#ECECEC"/>
</g>
</g>
<defs>
<filter id="filter0_dd_1118_6137" x="-1238" y="-711" width="1807" height="1753" filterUnits="userSpaceOnUse" color-interpolation-filters="sRGB">
<feFlood flood-opacity="0" result="BackgroundImageFix"/>
<feColorMatrix in="SourceAlpha" type="matrix" values="0 0 0 0 0 0 0 0 0 0 0 0 0 0 0 0 0 0 127 0" result="hardAlpha"/>
<feOffset dx="10" dy="10"/>
<feGaussianBlur stdDeviation="12.5"/>
<feComposite in2="hardAlpha" operator="out"/>
<feColorMatrix type="matrix" values="0 0 0 0 0.0784314 0 0 0 0 0.121569 0 0 0 0 0.219608 0 0 0 0.2 0"/>
<feBlend mode="normal" in2="BackgroundImageFix" result="effect1_dropShadow_1118_6137"/>
<feColorMatrix in="SourceAlpha" type="matrix" values="0 0 0 0 0 0 0 0 0 0 0 0 0 0 0 0 0 0 127 0" result="hardAlpha"/>
<feOffset dx="-8" dy="-8"/>
<feGaussianBlur stdDeviation="12.5"/>
<feComposite in2="hardAlpha" operator="out"/>
<feColorMatrix type="matrix" values="0 0 0 0 1 0 0 0 0 1 0 0 0 0 1 0 0 0 1 0"/>
<feBlend mode="normal" in2="effect1_dropShadow_1118_6137" result="effect2_dropShadow_1118_6137"/>
<feBlend mode="normal" in="SourceGraphic" in2="effect2_dropShadow_1118_6137" result="shape"/>
</filter>
<filter id="filter1_ii_1118_6137" x="3.12515" y="-221.959" width="449.305" height="532.893" filterUnits="userSpaceOnUse" color-interpolation-filters="sRGB">
<feFlood flood-opacity="0" result="BackgroundImageFix"/>
<feBlend mode="normal" in="SourceGraphic" in2="BackgroundImageFix" result="shape"/>
<feColorMatrix in="SourceAlpha" type="matrix" values="0 0 0 0 0 0 0 0 0 0 0 0 0 0 0 0 0 0 127 0" result="hardAlpha"/>
<feOffset dx="-5" dy="-5"/>
<feGaussianBlur stdDeviation="10"/>
<feComposite in2="hardAlpha" operator="arithmetic" k2="-1" k3="1"/>
<feColorMatrix type="matrix" values="0 0 0 0 1 0 0 0 0 1 0 0 0 0 1 0 0 0 1 0"/>
<feBlend mode="normal" in2="shape" result="effect1_innerShadow_1118_6137"/>
<feColorMatrix in="SourceAlpha" type="matrix" values="0 0 0 0 0 0 0 0 0 0 0 0 0 0 0 0 0 0 127 0" result="hardAlpha"/>
<feOffset dx="4" dy="4"/>
<feGaussianBlur stdDeviation="10"/>
<feComposite in2="hardAlpha" operator="arithmetic" k2="-1" k3="1"/>
<feColorMatrix type="matrix" values="0 0 0 0 0.0784314 0 0 0 0 0.121569 0 0 0 0 0.219608 0 0 0 0.2 0"/>
<feBlend mode="normal" in2="effect1_innerShadow_1118_6137" result="effect2_innerShadow_1118_6137"/>
</filter>
<clipPath id="clip0_1118_6137">
<rect width="1920" height="11022" fill="white" transform="translate(-1340 -3416)"/>
</clipPath>
</defs>
</svg>
