<svg width="82" height="90" viewBox="0 0 82 90" fill="none" xmlns="http://www.w3.org/2000/svg">
<g clip-path="url(#clip0_1118_6137)">
<rect width="1920" height="11022" transform="translate(-1256 -3415)" fill="#ECECEC"/>
<g style="mix-blend-mode:exclusion" opacity="0.45">
<path d="M77.1316 66.2276L69.2749 56.8402C65.8839 52.7944 67.9064 47.0041 73.8319 43.9195C79.7255 40.8416 87.2738 41.6195 90.6698 45.6884L90.6747 45.7115L90.7263 45.7972L98.4212 55.0496L98.4727 55.1354C101.832 59.1879 99.8044 64.955 93.9107 68.0329C88.0171 71.1109 80.5226 70.2733 77.1316 66.2276Z" fill="#717170"/>
<path d="M47.6159 29.6448L40.3295 19.9684C37.1684 15.7535 39.5289 9.98876 45.5843 7.04592C51.6397 4.10309 59.1466 5.15544 62.3346 9.34054L62.3395 9.36368L62.3911 9.44948L69.5477 18.9841L69.5992 19.0699C72.7553 23.2617 70.363 29.0331 64.3027 31.9528C58.2056 34.8561 50.772 33.8366 47.6159 29.6448Z" fill="#717170"/>
<path d="M20.2969 -8.03048L13.5855 -17.9728C10.6643 -22.3106 13.321 -28.0893 19.5798 -30.8575C25.8387 -33.6256 33.2577 -32.3615 36.1838 -28.0006L36.1887 -27.9775L36.2404 -27.8917L42.8218 -18.0911L42.8733 -18.0053C45.7945 -13.6674 43.1011 -7.90525 36.8423 -5.13706C30.5835 -2.36887 23.2182 -3.69264 20.2969 -8.03048Z" fill="#717170"/>
<path d="M61.5431 107.471L52.895 97.9602C49.2395 93.9218 51.0317 87.9866 56.9496 84.7103C62.8675 81.4339 70.6409 82.0194 74.2964 86.0579L74.3013 86.081L74.3846 86.1601L82.8708 95.5359L82.9542 95.615C86.6097 99.6535 84.7808 105.572 78.8629 108.849C72.945 112.125 65.1668 111.516 61.5431 107.471Z" fill="#6A6A69"/>
<path d="M28.9872 70.3718L20.9044 60.5487C17.452 56.371 19.609 50.4316 25.7205 47.2837C31.8001 44.1424 39.5321 45.0024 42.9895 49.2033L42.9944 49.2264L43.0459 49.3122L50.935 59.0069L51.0184 59.086C54.4391 63.2705 52.2821 69.2098 46.1657 72.3346C40.108 75.4229 32.4127 74.5794 28.9872 70.3718Z" fill="#6A6A69"/>
<path d="M-1.25747 32.0839L-8.70634 21.9585C-11.897 17.6049 -9.40705 11.668 -3.124 8.70135C3.15906 5.73474 10.8448 6.84604 14.0354 11.1997L14.0404 11.2228L14.092 11.3086L21.379 21.299L21.4306 21.3848C24.6212 25.7384 22.0945 31.6589 15.8384 34.5956C9.5822 37.5324 1.93319 36.4376 -1.25747 32.0839Z" fill="#6A6A69"/>
<path d="M14.2282 113.322L5.32239 103.382C1.60546 99.2113 3.50021 93.1338 9.60409 89.7941C15.708 86.4544 23.6601 87.0989 27.377 91.2694L27.382 91.2925L27.4653 91.3717L36.1725 101.16L36.2559 101.239C39.9729 105.409 38.0413 111.471 31.9375 114.81C25.8336 118.15 17.9451 117.492 14.2282 113.322Z" fill="#646363"/>
<path d="M-19.1735 74.5908L-27.4503 64.3255C-30.9373 59.9859 -28.6778 53.9041 -22.3755 50.716C-16.0731 47.5278 -8.16232 48.4467 -4.67535 52.7864L-4.67041 52.8095L-4.58695 52.8886L3.49124 63.0025L3.57469 63.0816C7.02491 67.4048 4.73361 73.4932 -1.54186 76.6515C-7.8124 79.833 -15.6915 78.9074 -19.1735 74.5908Z" fill="#646363"/>
</g>
<g filter="url(#filter0_dd_1118_6137)">
<path d="M-1121 -647C-1121 -663.569 -1107.57 -677 -1091 -677H588C604.568 -677 618 -663.569 618 -647V978C618 994.569 604.568 1008 588 1008H-1091C-1107.57 1008 -1121 994.568 -1121 978V-647Z" fill="#ECECEC"/>
</g>
<g filter="url(#filter1_ii_1118_6137)">
<path d="M454.574 -274.012L131.194 -223.716C127.728 -223.177 124.403 -221.963 121.409 -220.143C118.414 -218.323 115.808 -215.933 113.74 -213.109C111.671 -210.285 110.181 -207.083 109.355 -203.685C108.528 -200.287 108.381 -196.761 108.922 -193.306L138.832 -2.19288C138.895 -0.636707 139.063 0.913491 139.333 2.4474C143.227 27.3245 135.494 21.6207 135.494 21.6207C130.932 17.5728 125.227 15.0292 119.158 14.3362C113.09 13.6433 106.956 14.8355 101.593 17.7499C96.2303 20.6643 91.9016 25.1587 89.1986 30.6186C86.4955 36.0784 85.5501 42.2373 86.4916 48.253C87.4331 54.2687 90.2156 59.8478 94.4586 64.2273C98.7016 68.6068 104.198 71.5731 110.196 72.7206C116.195 73.868 122.402 73.1406 127.97 70.6379C133.538 68.1351 138.195 63.9792 141.303 58.7382C141.303 58.7382 146.926 50.9581 150.819 75.8352C151.03 77.3781 151.344 78.9052 151.76 80.4064L181.671 271.52C182.211 274.975 183.429 278.289 185.255 281.275C187.081 284.26 189.478 286.858 192.311 288.919C195.144 290.981 198.356 292.466 201.765 293.29C205.174 294.114 208.712 294.261 212.177 293.722L535.558 243.427C539.023 242.888 542.348 241.673 545.343 239.853C548.338 238.033 550.944 235.643 553.012 232.819C555.08 229.996 556.57 226.793 557.397 223.395C558.223 219.998 558.37 216.471 557.83 213.016L485.081 -251.81C483.989 -258.787 480.161 -265.046 474.44 -269.209C468.719 -273.373 461.573 -275.1 454.574 -274.012Z" fill="#ECECEC"/>
</g>
<g filter="url(#filter2_ii_1118_6137)">
<path d="M76.4872 82.6769C76.4872 57.4988 69.729 64.3228 69.729 64.3228C65.8471 69.0234 60.6034 72.4132 54.715 74.0304C48.8266 75.6476 42.5809 75.4124 36.8317 73.3569C31.0825 71.3014 26.1104 67.5259 22.5954 62.5467C19.0804 57.5675 17.194 51.6276 17.194 45.5391C17.194 39.4505 19.0804 33.5106 22.5954 28.5314C26.1104 23.5522 31.0825 19.7768 36.8317 17.7213C42.5809 15.6657 48.8266 15.4305 54.715 17.0477C60.6034 18.6649 65.8471 22.0556 69.729 26.7562C69.729 26.7562 76.4872 33.5793 76.4872 8.40125C76.4571 6.84409 76.5314 5.2867 76.7097 3.73943V-189.686C76.7097 -196.747 73.8957 -203.519 68.8869 -208.512C63.8781 -213.505 57.0847 -216.31 50.0011 -216.31H-277.291C-284.375 -216.31 -291.168 -213.505 -296.177 -208.512C-301.186 -203.519 -304 -196.747 -304 -189.686V21.1776C-302.151 30.7233 -298.173 26.7554 -298.173 26.7554C-294.291 22.0547 -289.047 18.6649 -283.159 17.0477C-277.27 15.4305 -271.025 15.6657 -265.275 17.7212C-259.526 19.7767 -254.554 23.5522 -251.039 28.5314C-247.524 33.5106 -245.638 39.4505 -245.638 45.5391C-245.638 51.6276 -247.524 57.5675 -251.039 62.5467C-254.554 67.5259 -259.526 71.3014 -265.275 73.3569C-271.025 75.4124 -277.27 75.6476 -283.159 74.0304C-289.047 72.4132 -294.291 69.0226 -298.173 64.3219C-298.173 64.3219 -302.151 60.3548 -304 69.9005V280.764C-304 284.26 -303.309 287.722 -301.967 290.953C-300.625 294.183 -298.657 297.118 -296.177 299.59C-293.697 302.062 -290.753 304.024 -287.512 305.362C-284.272 306.7 -280.799 307.388 -277.291 307.388H50.0013C53.5087 307.388 56.9818 306.7 60.2222 305.362C63.4626 304.024 66.4069 302.062 68.887 299.59C71.3672 297.118 73.3345 294.183 74.6767 290.953C76.019 287.722 76.7099 284.26 76.7099 280.764V87.3379C76.5316 85.7909 76.4572 84.2338 76.4872 82.6769Z" fill="#ECECEC"/>
</g>
</g>
<defs>
<filter id="filter0_dd_1118_6137" x="-1154" y="-710" width="1807" height="1753" filterUnits="userSpaceOnUse" color-interpolation-filters="sRGB">
<feFlood flood-opacity="0" result="BackgroundImageFix"/>
<feColorMatrix in="SourceAlpha" type="matrix" values="0 0 0 0 0 0 0 0 0 0 0 0 0 0 0 0 0 0 127 0" result="hardAlpha"/>
<feOffset dx="10" dy="10"/>
<feGaussianBlur stdDeviation="12.5"/>
<feComposite in2="hardAlpha" operator="out"/>
<feColorMatrix type="matrix" values="0 0 0 0 0.0784314 0 0 0 0 0.121569 0 0 0 0 0.219608 0 0 0 0.2 0"/>
<feBlend mode="normal" in2="BackgroundImageFix" result="effect1_dropShadow_1118_6137"/>
<feColorMatrix in="SourceAlpha" type="matrix" values="0 0 0 0 0 0 0 0 0 0 0 0 0 0 0 0 0 0 127 0" result="hardAlpha"/>
<feOffset dx="-8" dy="-8"/>
<feGaussianBlur stdDeviation="12.5"/>
<feComposite in2="hardAlpha" operator="out"/>
<feColorMatrix type="matrix" values="0 0 0 0 1 0 0 0 0 1 0 0 0 0 1 0 0 0 1 0"/>
<feBlend mode="normal" in2="effect1_dropShadow_1118_6137" result="effect2_dropShadow_1118_6137"/>
<feBlend mode="normal" in="SourceGraphic" in2="effect2_dropShadow_1118_6137" result="shape"/>
</filter>
<filter id="filter1_ii_1118_6137" x="81.1372" y="-279.33" width="481.012" height="577.371" filterUnits="userSpaceOnUse" color-interpolation-filters="sRGB">
<feFlood flood-opacity="0" result="BackgroundImageFix"/>
<feBlend mode="normal" in="SourceGraphic" in2="BackgroundImageFix" result="shape"/>
<feColorMatrix in="SourceAlpha" type="matrix" values="0 0 0 0 0 0 0 0 0 0 0 0 0 0 0 0 0 0 127 0" result="hardAlpha"/>
<feOffset dx="-5" dy="-5"/>
<feGaussianBlur stdDeviation="10"/>
<feComposite in2="hardAlpha" operator="arithmetic" k2="-1" k3="1"/>
<feColorMatrix type="matrix" values="0 0 0 0 1 0 0 0 0 1 0 0 0 0 1 0 0 0 1 0"/>
<feBlend mode="normal" in2="shape" result="effect1_innerShadow_1118_6137"/>
<feColorMatrix in="SourceAlpha" type="matrix" values="0 0 0 0 0 0 0 0 0 0 0 0 0 0 0 0 0 0 127 0" result="hardAlpha"/>
<feOffset dx="4" dy="4"/>
<feGaussianBlur stdDeviation="10"/>
<feComposite in2="hardAlpha" operator="arithmetic" k2="-1" k3="1"/>
<feColorMatrix type="matrix" values="0 0 0 0 0.0784314 0 0 0 0 0.121569 0 0 0 0 0.219608 0 0 0 0.2 0"/>
<feBlend mode="normal" in2="effect1_innerShadow_1118_6137" result="effect2_innerShadow_1118_6137"/>
</filter>
<filter id="filter2_ii_1118_6137" x="-309" y="-221.31" width="389.71" height="532.698" filterUnits="userSpaceOnUse" color-interpolation-filters="sRGB">
<feFlood flood-opacity="0" result="BackgroundImageFix"/>
<feBlend mode="normal" in="SourceGraphic" in2="BackgroundImageFix" result="shape"/>
<feColorMatrix in="SourceAlpha" type="matrix" values="0 0 0 0 0 0 0 0 0 0 0 0 0 0 0 0 0 0 127 0" result="hardAlpha"/>
<feOffset dx="4" dy="4"/>
<feGaussianBlur stdDeviation="10"/>
<feComposite in2="hardAlpha" operator="arithmetic" k2="-1" k3="1"/>
<feColorMatrix type="matrix" values="0 0 0 0 0.0784314 0 0 0 0 0.121569 0 0 0 0 0.219608 0 0 0 0.2 0"/>
<feBlend mode="normal" in2="shape" result="effect1_innerShadow_1118_6137"/>
<feColorMatrix in="SourceAlpha" type="matrix" values="0 0 0 0 0 0 0 0 0 0 0 0 0 0 0 0 0 0 127 0" result="hardAlpha"/>
<feOffset dx="-5" dy="-5"/>
<feGaussianBlur stdDeviation="10"/>
<feComposite in2="hardAlpha" operator="arithmetic" k2="-1" k3="1"/>
<feColorMatrix type="matrix" values="0 0 0 0 1 0 0 0 0 1 0 0 0 0 1 0 0 0 1 0"/>
<feBlend mode="normal" in2="effect1_innerShadow_1118_6137" result="effect2_innerShadow_1118_6137"/>
</filter>
<clipPath id="clip0_1118_6137">
<rect width="1920" height="11022" fill="white" transform="translate(-1256 -3415)"/>
</clipPath>
</defs>
</svg>
