<svg width="98" height="98" viewBox="0 0 98 98" fill="none" xmlns="http://www.w3.org/2000/svg">
<g clip-path="url(#clip0_1421_17717)">
<rect width="1920" height="11022" transform="translate(-448 -3411)" fill="#232A34"/>
<g filter="url(#filter0_dd_1421_17717)">
<path d="M-358 -643.984C-358 -660.553 -344.569 -673.984 -328 -673.984H1351C1367.57 -673.984 1381 -660.553 1381 -643.984V981.016C1381 997.584 1367.57 1011.02 1351 1011.02H-328C-344.569 1011.02 -358 997.584 -358 981.016V-643.984Z" fill="#232A34"/>
</g>
<g filter="url(#filter1_ii_1421_17717)">
<path d="M488.619 18.9993C484.242 18.9951 479.919 19.959 475.961 21.8214C472.003 23.6838 468.509 26.3983 465.731 29.7694C465.731 29.7694 461.448 34.078 459.702 23.1271V-186.673C459.702 -193.734 456.888 -200.506 451.879 -205.499C446.871 -210.492 440.077 -213.297 432.994 -213.297H105.701C98.6175 -213.297 91.8241 -210.492 86.8153 -205.499C81.8064 -200.506 78.9925 -193.734 78.9925 -186.673V11.4144C78.9925 36.5925 72.2343 29.7685 72.2343 29.7685C68.3524 25.0679 63.1087 21.6781 57.2203 20.0609C51.3319 18.4436 45.0861 18.6789 39.3369 20.7344C33.5877 22.7899 28.6157 26.5654 25.1007 31.5446C21.5857 36.5238 19.6992 42.4637 19.6992 48.5522C19.6992 54.6408 21.5857 60.5807 25.1007 65.5599C28.6157 70.5391 33.5877 74.3145 39.3369 76.3701C45.0861 78.4256 51.3319 78.6608 57.2203 77.0436C63.1087 75.4264 68.3524 72.0358 72.2343 67.3351C72.2343 67.3351 78.9925 60.512 78.9925 85.6901V283.777C78.9925 287.273 79.6833 290.736 81.0256 293.966C82.3678 297.196 84.3351 300.131 86.8153 302.603C89.2954 305.076 92.2397 307.037 95.4802 308.375C98.7206 309.713 102.194 310.401 105.701 310.401H432.994C436.501 310.401 439.974 309.713 443.215 308.375C446.455 307.037 449.399 305.076 451.879 302.603C454.36 300.131 456.327 297.196 457.669 293.966C459.011 290.736 459.702 287.273 459.702 283.777V73.9774C461.448 63.0266 465.731 67.336 465.731 67.336C468.906 71.1815 473.006 74.1636 477.647 76.0069C482.289 77.8503 487.323 78.4941 492.282 77.8788C497.24 77.2634 501.962 75.4088 506.009 72.4872C510.056 69.5656 513.296 65.6718 515.429 61.1675C517.562 56.6632 518.518 51.6946 518.209 46.7233C517.899 41.7519 516.335 36.9392 513.66 32.7321C510.985 28.525 507.287 25.0601 502.909 22.6592C498.531 20.2584 493.616 18.9993 488.619 18.9993Z" fill="#232A34"/>
</g>
<g filter="url(#filter2_ii_1421_17717)">
<path d="M73.0298 67.3359C69.1479 72.0366 63.9042 75.4264 58.0158 77.0436C52.1274 78.6608 45.8817 78.4255 40.1325 76.37C34.3833 74.3145 29.4113 70.5391 25.8963 65.5599C22.3813 60.5807 20.4948 54.6407 20.4948 48.5522C20.4948 42.4637 22.3813 36.5238 25.8963 31.5446C29.4113 26.5654 34.3833 22.7899 40.1325 20.7344C45.8817 18.6789 52.1274 18.4437 58.0158 20.0609C63.9042 21.6781 69.1479 25.0688 73.0298 29.7694C73.0298 29.7694 78.9592 35.754 79.7098 15.8179V-186.673C79.7098 -193.734 76.8958 -200.506 71.887 -205.499C66.8782 -210.492 60.0847 -213.297 53.0012 -213.297H-274.291C-281.375 -213.297 -288.168 -210.492 -293.177 -205.499C-298.186 -200.506 -301 -193.734 -301 -186.673V283.777C-301 290.838 -298.186 297.61 -293.177 302.603C-288.168 307.596 -281.375 310.401 -274.291 310.401H53.0012C60.0847 310.401 66.8782 307.596 71.887 302.603C76.8958 297.61 79.7097 290.838 79.7097 283.777V81.2866C78.9592 61.3505 73.0298 67.3359 73.0298 67.3359Z" fill="#232A34"/>
</g>
</g>
<defs>
<filter id="filter0_dd_1421_17717" x="-391" y="-706.984" width="1807" height="1753" filterUnits="userSpaceOnUse" color-interpolation-filters="sRGB">
<feFlood flood-opacity="0" result="BackgroundImageFix"/>
<feColorMatrix in="SourceAlpha" type="matrix" values="0 0 0 0 0 0 0 0 0 0 0 0 0 0 0 0 0 0 127 0" result="hardAlpha"/>
<feOffset dx="10" dy="10"/>
<feGaussianBlur stdDeviation="12.5"/>
<feComposite in2="hardAlpha" operator="out"/>
<feColorMatrix type="matrix" values="0 0 0 0 0.0784314 0 0 0 0 0.0784314 0 0 0 0 0.0784314 0 0 0 1 0"/>
<feBlend mode="normal" in2="BackgroundImageFix" result="effect1_dropShadow_1421_17717"/>
<feColorMatrix in="SourceAlpha" type="matrix" values="0 0 0 0 0 0 0 0 0 0 0 0 0 0 0 0 0 0 127 0" result="hardAlpha"/>
<feOffset dx="-8" dy="-8"/>
<feGaussianBlur stdDeviation="12.5"/>
<feComposite in2="hardAlpha" operator="out"/>
<feColorMatrix type="matrix" values="0 0 0 0 0.207843 0 0 0 0 0.254902 0 0 0 0 0.32549 0 0 0 1 0"/>
<feBlend mode="normal" in2="effect1_dropShadow_1421_17717" result="effect2_dropShadow_1421_17717"/>
<feBlend mode="normal" in="SourceGraphic" in2="effect2_dropShadow_1421_17717" result="shape"/>
</filter>
<filter id="filter1_ii_1421_17717" x="14.6992" y="-218.297" width="507.566" height="532.699" filterUnits="userSpaceOnUse" color-interpolation-filters="sRGB">
<feFlood flood-opacity="0" result="BackgroundImageFix"/>
<feBlend mode="normal" in="SourceGraphic" in2="BackgroundImageFix" result="shape"/>
<feColorMatrix in="SourceAlpha" type="matrix" values="0 0 0 0 0 0 0 0 0 0 0 0 0 0 0 0 0 0 127 0" result="hardAlpha"/>
<feOffset dx="4" dy="4"/>
<feGaussianBlur stdDeviation="10"/>
<feComposite in2="hardAlpha" operator="arithmetic" k2="-1" k3="1"/>
<feColorMatrix type="matrix" values="0 0 0 0 0.0784314 0 0 0 0 0.0784314 0 0 0 0 0.0784314 0 0 0 1 0"/>
<feBlend mode="normal" in2="shape" result="effect1_innerShadow_1421_17717"/>
<feColorMatrix in="SourceAlpha" type="matrix" values="0 0 0 0 0 0 0 0 0 0 0 0 0 0 0 0 0 0 127 0" result="hardAlpha"/>
<feOffset dx="-5" dy="-5"/>
<feGaussianBlur stdDeviation="10"/>
<feComposite in2="hardAlpha" operator="arithmetic" k2="-1" k3="1"/>
<feColorMatrix type="matrix" values="0 0 0 0 0.207843 0 0 0 0 0.254902 0 0 0 0 0.32549 0 0 0 1 0"/>
<feBlend mode="normal" in2="effect1_innerShadow_1421_17717" result="effect2_innerShadow_1421_17717"/>
</filter>
<filter id="filter2_ii_1421_17717" x="-306" y="-218.297" width="389.71" height="532.699" filterUnits="userSpaceOnUse" color-interpolation-filters="sRGB">
<feFlood flood-opacity="0" result="BackgroundImageFix"/>
<feBlend mode="normal" in="SourceGraphic" in2="BackgroundImageFix" result="shape"/>
<feColorMatrix in="SourceAlpha" type="matrix" values="0 0 0 0 0 0 0 0 0 0 0 0 0 0 0 0 0 0 127 0" result="hardAlpha"/>
<feOffset dx="4" dy="4"/>
<feGaussianBlur stdDeviation="10"/>
<feComposite in2="hardAlpha" operator="arithmetic" k2="-1" k3="1"/>
<feColorMatrix type="matrix" values="0 0 0 0 0.0784314 0 0 0 0 0.0784314 0 0 0 0 0.0784314 0 0 0 1 0"/>
<feBlend mode="normal" in2="shape" result="effect1_innerShadow_1421_17717"/>
<feColorMatrix in="SourceAlpha" type="matrix" values="0 0 0 0 0 0 0 0 0 0 0 0 0 0 0 0 0 0 127 0" result="hardAlpha"/>
<feOffset dx="-5" dy="-5"/>
<feGaussianBlur stdDeviation="10"/>
<feComposite in2="hardAlpha" operator="arithmetic" k2="-1" k3="1"/>
<feColorMatrix type="matrix" values="0 0 0 0 0.207843 0 0 0 0 0.254902 0 0 0 0 0.32549 0 0 0 1 0"/>
<feBlend mode="normal" in2="effect1_innerShadow_1421_17717" result="effect2_innerShadow_1421_17717"/>
</filter>
<clipPath id="clip0_1421_17717">
<rect width="1920" height="11022" fill="white" transform="translate(-448 -3411)"/>
</clipPath>
</defs>
</svg>
