<svg width="115" height="135" viewBox="0 0 115 135" fill="none" xmlns="http://www.w3.org/2000/svg">
<g clip-path="url(#clip0_1435_17301)">
<rect width="1920" height="11022" transform="translate(-1274 -3359)" fill="#232A34"/>
<g style="mix-blend-mode:exclusion" opacity="0.45">
<path d="M101.302 46.6635L94.8518 37.6326C91.9579 33.5789 94.319 28.1282 100.159 25.424C106 22.7198 113.046 23.7966 115.94 27.8503L115.945 27.8734L115.997 27.9592L122.317 36.8484L122.369 36.9341C125.257 40.9647 122.87 46.4453 117.024 49.1264C111.238 51.7709 104.191 50.6941 101.302 46.6635Z" fill="#7E7E7E"/>
<path d="M77.1264 11.5588L71.1924 2.29849C68.5065 -1.87144 71.1687 -7.313 77.1389 -9.87543C83.1092 -12.4379 90.1046 -11.1329 92.7905 -6.96294L92.7954 -6.9398L92.847 -6.85407L98.651 2.26454L98.7026 2.35034C101.357 6.52697 98.6944 11.9685 92.7193 14.5078C86.7759 17.0404 79.8123 15.7287 77.1264 11.5588Z" fill="#7E7E7E"/>
<path d="M107.282 118.107L99.6149 109.139C96.2535 105.232 98.1784 99.6073 103.881 96.5696C109.584 93.5318 116.922 94.2574 120.283 98.1645L120.288 98.1876L120.339 98.2734L127.845 107.107L127.897 107.192C131.226 111.106 129.301 116.731 123.594 119.745C117.95 122.747 110.612 122.021 107.282 118.107Z" fill="#787777"/>
<path d="M78.5278 83.222L71.4036 73.9946C68.2771 69.9415 70.4982 64.3027 76.3677 61.4232C82.2371 58.5437 89.5555 59.4908 92.682 63.5439L92.6869 63.567L92.7384 63.6528L99.7327 72.7385L99.7842 72.8243C102.911 76.8774 100.653 82.4997 94.7833 85.3792C88.904 88.2125 81.6225 87.2818 78.5278 83.222Z" fill="#787777"/>
<path d="M51.7827 47.3085L45.2018 37.8219C42.2784 33.6295 44.8007 27.9999 50.8368 25.2786C56.868 22.5342 64.135 23.7095 67.0267 27.9086L67.0316 27.9317L67.0832 28.0175L73.5341 37.3624L73.5857 37.4482C76.4773 41.6473 73.9501 47.2537 67.9139 49.975C61.9047 52.6665 54.6694 51.4845 51.7827 47.3085Z" fill="#787777"/>
<path d="M27.1603 10.4152L21.1275 0.692395C18.4439 -3.62294 21.2674 -9.24337 27.4702 -11.8064C33.6363 -14.3859 40.8522 -12.9825 43.5089 -8.63733L43.5139 -8.61418L43.5654 -8.52836L49.4681 1.05259L49.5197 1.13839C52.1715 5.46043 49.3431 11.0578 43.1403 13.6208C36.9962 16.1474 29.8439 14.7305 27.1603 10.4152Z" fill="#787777"/>
<path d="M90.8039 157.679L82.3768 148.581C78.751 144.681 80.4773 138.905 86.2043 135.668C91.9314 132.432 99.4989 132.989 103.125 136.888L103.13 136.912L103.213 136.991L111.446 145.961L111.53 146.04C115.124 149.946 113.393 155.699 107.661 158.912C101.929 162.125 94.3979 161.585 90.8039 157.679Z" fill="#717170"/>
<path d="M59.1314 122.228L51.2747 112.84C47.8837 108.795 49.9062 103.004 55.8317 99.9198C61.7254 96.8418 69.2736 97.6197 72.6696 101.689L72.6745 101.712L72.7261 101.797L80.421 111.05L80.4725 111.136C83.8317 115.188 81.8042 120.955 75.9106 124.033C70.0169 127.111 62.5224 126.274 59.1314 122.228Z" fill="#717170"/>
<path d="M29.6158 85.6448L22.3293 75.9684C19.1683 71.7535 21.5287 65.9888 27.5842 63.0459C33.6396 60.1031 41.1465 61.1554 44.3344 65.3405L44.3394 65.3637L44.391 65.4495L51.5475 74.9841L51.599 75.0699C54.7551 79.2617 52.3629 85.0331 46.3025 87.9528C40.2054 90.8561 32.7719 89.8366 29.6158 85.6448Z" fill="#717170"/>
<path d="M2.29686 47.9695L-4.41459 38.0272C-7.33582 33.6894 -4.67911 27.9107 1.57973 25.1425C7.83856 22.3744 15.2576 23.6385 18.1837 27.9994L18.1887 28.0225L18.2403 28.1083L24.8217 37.9089L24.8732 37.9947C27.7944 42.3326 25.101 48.0947 18.8422 50.8629C12.5834 53.6311 5.21809 52.3074 2.29686 47.9695Z" fill="#717170"/>
<path d="M-22.7152 9.25165L-28.8197 -0.963312C-31.5061 -5.44717 -28.5115 -11.2003 -22.1129 -13.7804C-15.7192 -16.3837 -8.34647 -14.8683 -5.69193 -10.3777L-5.68699 -10.3546L-5.63539 -10.2688L0.334163 -0.218726L0.385764 -0.13293C3.04031 4.35764 0.0407581 10.0876 -6.35784 12.6677C-12.7564 15.2479 -20.0607 13.7422 -22.7152 9.25165Z" fill="#717170"/>
<path d="M43.5432 163.471L34.8951 153.96C31.2396 149.922 33.0318 143.987 38.9497 140.71C44.8676 137.434 52.6409 138.019 56.2964 142.058L56.3014 142.081L56.3847 142.16L64.8709 151.536L64.9543 151.615C68.6098 155.653 66.7809 161.572 60.863 164.849C54.9451 168.125 47.1669 167.516 43.5432 163.471Z" fill="#6A6A69"/>
<path d="M10.9873 126.372L2.90453 116.549C-0.547897 112.371 1.60914 106.432 7.72061 103.284C13.8002 100.142 21.5322 101.002 24.9896 105.203L24.9946 105.226L25.046 105.312L32.9351 115.007L33.0186 115.086C36.4392 119.27 34.2822 125.21 28.1658 128.335C22.1081 131.423 14.4129 130.579 10.9873 126.372Z" fill="#6A6A69"/>
<path d="M-19.2574 88.0838L-26.7062 77.9584C-29.8969 73.6047 -27.407 67.6678 -21.1239 64.7012C-14.8408 61.7346 -7.15512 62.8459 -3.96446 67.1996L-3.95952 67.2227L-3.90793 67.3084L3.37908 77.2989L3.43069 77.3847C6.62134 81.7383 4.09463 87.6587 -2.16154 90.5955C-8.41771 93.5323 -16.0667 92.4374 -19.2574 88.0838Z" fill="#6A6A69"/>
</g>
<g filter="url(#filter0_dd_1435_17301)">
<path d="M-1184 -591.985C-1184 -608.554 -1170.57 -621.985 -1154 -621.985H525C541.568 -621.985 555 -608.554 555 -591.985V1033.01C555 1049.58 541.568 1063.01 525 1063.01H-1154C-1170.57 1063.01 -1184 1049.58 -1184 1033.01V-591.985Z" fill="#232A34"/>
</g>
<g filter="url(#filter1_ii_1435_17301)">
<path d="M434.238 -192.334L106.97 -192.49C103.463 -192.492 99.9903 -191.805 96.7507 -190.468C93.5112 -189.131 90.568 -187.172 88.0892 -184.7C85.6104 -182.229 83.6446 -179.295 82.304 -176.065C80.9634 -172.835 80.2744 -169.373 80.276 -165.876L80.3685 27.5632C80.1909 29.1105 80.1174 30.668 80.1482 32.2253C80.1603 57.4052 73.3992 50.5775 73.3992 50.5775C69.5154 45.8747 64.2705 42.4821 58.3818 40.862C52.493 39.2419 46.2477 39.4741 40.4999 41.527C34.7522 43.58 29.7824 47.3534 26.27 52.3313C22.7576 57.3092 20.8741 63.2486 20.877 69.3376C20.8799 75.4266 22.7691 81.3678 26.2863 86.3491C29.8034 91.3304 34.7768 95.1085 40.5265 97.1669C46.2763 99.2253 52.5218 99.4635 58.409 97.849C64.2962 96.2345 69.5378 92.846 73.4172 88.1469C73.4172 88.1469 80.1716 81.3265 80.1837 106.506C80.1544 108.063 80.2295 109.621 80.4085 111.168L80.5009 304.608C80.5026 308.105 81.195 311.568 82.5387 314.799C83.8823 318.03 85.8509 320.966 88.3321 323.44C90.8132 325.913 93.7583 327.876 96.9991 329.216C100.24 330.555 103.713 331.246 107.22 331.247L434.488 331.403C437.996 331.405 441.468 330.718 444.708 329.381C447.947 328.045 450.89 326.085 453.369 323.614C455.848 321.142 457.814 318.208 459.154 314.978C460.495 311.748 461.184 308.286 461.182 304.79L460.957 -165.695C460.954 -172.757 458.137 -179.53 453.126 -184.526C448.116 -189.522 441.321 -192.331 434.238 -192.334Z" fill="#232A34"/>
</g>
</g>
<defs>
<filter id="filter0_dd_1435_17301" x="-1217" y="-654.985" width="1807" height="1753" filterUnits="userSpaceOnUse" color-interpolation-filters="sRGB">
<feFlood flood-opacity="0" result="BackgroundImageFix"/>
<feColorMatrix in="SourceAlpha" type="matrix" values="0 0 0 0 0 0 0 0 0 0 0 0 0 0 0 0 0 0 127 0" result="hardAlpha"/>
<feOffset dx="10" dy="10"/>
<feGaussianBlur stdDeviation="12.5"/>
<feComposite in2="hardAlpha" operator="out"/>
<feColorMatrix type="matrix" values="0 0 0 0 0.0784314 0 0 0 0 0.0784314 0 0 0 0 0.0784314 0 0 0 1 0"/>
<feBlend mode="normal" in2="BackgroundImageFix" result="effect1_dropShadow_1435_17301"/>
<feColorMatrix in="SourceAlpha" type="matrix" values="0 0 0 0 0 0 0 0 0 0 0 0 0 0 0 0 0 0 127 0" result="hardAlpha"/>
<feOffset dx="-8" dy="-8"/>
<feGaussianBlur stdDeviation="12.5"/>
<feComposite in2="hardAlpha" operator="out"/>
<feColorMatrix type="matrix" values="0 0 0 0 0.207843 0 0 0 0 0.254902 0 0 0 0 0.32549 0 0 0 1 0"/>
<feBlend mode="normal" in2="effect1_dropShadow_1435_17301" result="effect2_dropShadow_1435_17301"/>
<feBlend mode="normal" in="SourceGraphic" in2="effect2_dropShadow_1435_17301" result="shape"/>
</filter>
<filter id="filter1_ii_1435_17301" x="15.877" y="-197.49" width="449.305" height="532.893" filterUnits="userSpaceOnUse" color-interpolation-filters="sRGB">
<feFlood flood-opacity="0" result="BackgroundImageFix"/>
<feBlend mode="normal" in="SourceGraphic" in2="BackgroundImageFix" result="shape"/>
<feColorMatrix in="SourceAlpha" type="matrix" values="0 0 0 0 0 0 0 0 0 0 0 0 0 0 0 0 0 0 127 0" result="hardAlpha"/>
<feOffset dx="-5" dy="-5"/>
<feGaussianBlur stdDeviation="10"/>
<feComposite in2="hardAlpha" operator="arithmetic" k2="-1" k3="1"/>
<feColorMatrix type="matrix" values="0 0 0 0 0.207843 0 0 0 0 0.254902 0 0 0 0 0.32549 0 0 0 1 0"/>
<feBlend mode="normal" in2="shape" result="effect1_innerShadow_1435_17301"/>
<feColorMatrix in="SourceAlpha" type="matrix" values="0 0 0 0 0 0 0 0 0 0 0 0 0 0 0 0 0 0 127 0" result="hardAlpha"/>
<feOffset dx="4" dy="4"/>
<feGaussianBlur stdDeviation="10"/>
<feComposite in2="hardAlpha" operator="arithmetic" k2="-1" k3="1"/>
<feColorMatrix type="matrix" values="0 0 0 0 0.0784314 0 0 0 0 0.0784314 0 0 0 0 0.0784314 0 0 0 1 0"/>
<feBlend mode="normal" in2="effect1_innerShadow_1435_17301" result="effect2_innerShadow_1435_17301"/>
</filter>
<clipPath id="clip0_1435_17301">
<rect width="1920" height="11022" fill="white" transform="translate(-1274 -3359)"/>
</clipPath>
</defs>
</svg>
