<svg width="95" height="108" viewBox="0 0 95 108" fill="none" xmlns="http://www.w3.org/2000/svg">
<g clip-path="url(#clip0_1421_17717)">
<rect width="1920" height="11022" transform="translate(-887 -3406)" fill="#232A34"/>
<g style="mix-blend-mode:exclusion" opacity="0.45">
<path d="M93.8895 5.41557L86.6934 -7.42018C83.7488 -12.6469 87.3956 -19.2379 94.8561 -22.1384C102.285 -25.0321 110.704 -23.1331 113.653 -17.8833L113.709 -17.7743L120.814 -5.20925L120.876 -5.07724C123.826 0.172567 120.211 6.75689 112.755 9.68045C105.295 12.5809 96.8809 10.705 93.8994 5.46186L93.8895 5.41557Z" fill="#474746"/>
<path d="M109.247 105.293L100.094 92.7958C96.4275 87.7693 99.3173 80.9026 106.569 77.4903C113.821 74.0781 122.709 75.371 126.376 80.3975L126.381 80.4206L126.474 80.5459L135.413 92.8221L135.506 92.9474C139.173 97.9739 136.247 104.824 128.99 108.213C121.738 111.626 112.882 110.326 109.247 105.293Z" fill="#3F3F3E"/>
<path d="M75.2467 56.5479L67.0048 43.6422C63.6585 38.4033 67.0233 31.5816 74.5202 28.3836C82.017 25.1855 90.7833 26.8423 94.1296 32.0811L94.1346 32.1043L94.2277 32.2296L102.256 44.9146L102.349 45.0399C105.659 50.2624 102.294 57.084 94.8241 60.2523C87.2905 63.4339 78.5612 61.7935 75.2467 56.5479Z" fill="#3F3F3E"/>
<path d="M44.9397 6.2265L37.6768 -7.0784C34.7711 -12.4341 38.5621 -19.128 46.1548 -22.0321C53.7524 -24.913 62.2912 -22.9185 65.2287 -17.5695L65.2852 -17.4607L72.4569 -4.42644L72.5184 -4.29443C75.4608 1.07765 71.6698 7.77152 64.0502 10.7054C56.4258 13.6162 47.8871 11.6217 44.9128 6.25635L44.9397 6.2265Z" fill="#3F3F3E"/>
<path d="M61.1381 109.765L51.8234 96.8188C48.0952 91.6603 51.1196 84.6444 58.5892 81.1621C66.027 77.6865 75.0988 79.0616 78.8319 84.2433L78.8369 84.2663L78.9302 84.3916L88.0313 97.1167L88.1246 97.242C91.821 102.407 88.7601 109.407 81.3173 112.859C73.8379 116.295 64.8345 114.93 61.1381 109.765Z" fill="#383736"/>
<path d="M26.5966 59.2557L18.2829 45.8578C14.9438 40.4967 18.4799 33.5423 26.1408 30.3339C33.8016 27.1254 42.7246 28.8941 46.0638 34.2553L46.1203 34.3642L54.3061 47.475L54.3992 47.6003C57.7384 52.9614 54.2392 59.9322 46.5784 63.1407C38.8956 66.402 29.9725 64.6333 26.5966 59.2557Z" fill="#383736"/>
<path d="M-3.94681 7.05304L-11.2497 -6.75065C-14.1531 -12.2517 -10.1811 -19.032 -2.4245 -21.9465C5.36887 -24.8446 14.0007 -22.7246 16.9311 -17.2534L16.9876 -17.1445L24.1944 -3.63473L24.2559 -3.50258C27.1912 1.99178 23.2609 8.81151 15.4675 11.7096C7.67415 14.6076 -1.01148 12.5474 -3.91496 7.04633L-3.94681 7.05304Z" fill="#383736"/>
<path d="M13.036 114.262L3.55918 100.867C-0.2036 95.5463 2.95986 88.4045 10.6203 84.882C18.2808 81.3595 27.5047 82.8233 31.2674 88.1437L31.2724 88.1668L31.3657 88.2921L40.5973 101.473L40.6907 101.598C44.4167 106.902 41.253 114.044 33.5876 117.543C25.9491 121.013 16.7621 119.565 13.036 114.262Z" fill="#2B2B2A"/>
<path d="M-21.9578 61.9399L-30.3383 48.0729C-33.6703 42.5895 -29.9949 35.5091 -22.1651 32.3135C-14.3403 29.0947 -5.26539 30.9522 -1.9652 36.4423L-1.90867 36.5512L6.37582 50.1243L6.46914 50.2496C9.80608 55.7562 6.16251 62.8298 -1.66232 66.0486C-9.51896 69.2741 -18.589 67.4397 -21.921 61.9563L-21.9578 61.9399Z" fill="#2B2B2A"/>
</g>
<g filter="url(#filter0_dd_1421_17717)">
<path d="M-797 -638.984C-797 -655.553 -783.569 -668.984 -767 -668.984H912C928.568 -668.984 942 -655.553 942 -638.984V986.016C942 1002.58 928.568 1016.02 912 1016.02H-767C-783.569 1016.02 -797 1002.58 -797 986.016V-638.984Z" fill="#232A34"/>
</g>
<g filter="url(#filter1_ii_1421_17717)">
<path d="M400.487 90.6901C400.487 65.512 393.729 72.3359 393.729 72.3359C389.847 77.0366 384.603 80.4264 378.715 82.0436C372.827 83.6608 366.581 83.4256 360.832 81.3701C355.082 79.3145 350.11 75.5391 346.595 70.5599C343.08 65.5807 341.194 59.6407 341.194 53.5522C341.194 47.4637 343.08 41.5238 346.595 36.5446C350.11 31.5654 355.082 27.7899 360.832 25.7344C366.581 23.6789 372.827 23.4437 378.715 25.0609C384.603 26.6781 389.847 30.0688 393.729 34.7694C393.729 34.7694 400.487 41.5925 400.487 16.4144C400.457 14.8573 400.531 13.2999 400.71 11.7526V-181.673C400.71 -188.734 397.896 -195.506 392.887 -200.499C387.878 -205.492 381.085 -208.297 374.001 -208.297H46.7086C39.6251 -208.297 32.8316 -205.492 27.8227 -200.499C22.8139 -195.506 20 -188.734 20 -181.673V29.1908C21.8489 38.7365 25.8272 34.7685 25.8272 34.7685C29.7091 30.0679 34.9527 26.6781 40.8411 25.0609C46.7295 23.4437 52.9754 23.6789 58.7246 25.7344C64.4738 27.7899 69.4457 31.5654 72.9608 36.5446C76.4758 41.5238 78.3623 47.4637 78.3623 53.5522C78.3623 59.6407 76.4758 65.5807 72.9608 70.5599C69.4457 75.5391 64.4738 79.3146 58.7246 81.3701C52.9754 83.4256 46.7295 83.6608 40.8411 82.0436C34.9527 80.4264 29.7091 77.0357 25.8272 72.3351C25.8272 72.3351 21.8489 68.368 20 77.9137V288.777C20 292.273 20.6908 295.736 22.033 298.966C23.3753 302.196 25.3426 305.131 27.8227 307.603C30.3029 310.076 33.2472 312.037 36.4877 313.375C39.7281 314.713 43.2012 315.401 46.7086 315.401H374.001C377.509 315.401 380.982 314.713 384.222 313.375C387.463 312.037 390.407 310.076 392.887 307.603C395.367 305.131 397.335 302.196 398.677 298.966C400.019 295.736 400.71 292.273 400.71 288.777V95.3511C400.532 93.8041 400.457 92.247 400.487 90.6901Z" fill="#232A34"/>
</g>
<g filter="url(#filter2_ii_1421_17717)">
<path d="M49.619 23.9993C45.2422 23.9951 40.919 24.959 36.9611 26.8214C33.0031 28.6838 29.509 31.3983 26.7306 34.7694C26.7306 34.7694 22.4479 39.078 20.7022 28.1271V-181.673C20.7022 -188.734 17.8883 -195.506 12.8794 -200.499C7.87057 -205.492 1.07715 -208.297 -6.00641 -208.297H-333.299C-340.382 -208.297 -347.176 -205.492 -352.185 -200.499C-357.194 -195.506 -360.008 -188.734 -360.008 -181.673V16.4144C-360.008 41.5925 -366.766 34.7685 -366.766 34.7685C-370.648 30.0679 -375.891 26.6781 -381.78 25.0609C-387.668 23.4436 -393.914 23.6789 -399.663 25.7344C-405.412 27.7899 -410.384 31.5654 -413.899 36.5446C-417.414 41.5238 -419.301 47.4637 -419.301 53.5522C-419.301 59.6408 -417.414 65.5807 -413.899 70.5599C-410.384 75.5391 -405.412 79.3145 -399.663 81.3701C-393.914 83.4256 -387.668 83.6608 -381.78 82.0436C-375.891 80.4264 -370.648 77.0358 -366.766 72.3351C-366.766 72.3351 -360.008 65.512 -360.008 90.6901V288.777C-360.008 292.273 -359.317 295.736 -357.974 298.966C-356.632 302.196 -354.665 305.131 -352.185 307.603C-349.705 310.076 -346.76 312.037 -343.52 313.375C-340.279 314.713 -336.806 315.401 -333.299 315.401H-6.00641C-2.49896 315.401 0.974091 314.713 4.21454 313.375C7.45499 312.037 10.3993 310.076 12.8794 307.603C15.3596 305.131 17.3269 302.196 18.6691 298.966C20.0114 295.736 20.7022 292.273 20.7022 288.777V78.9774C22.4479 68.0266 26.7306 72.336 26.7306 72.336C29.9063 76.1815 34.0056 79.1636 38.6474 81.0069C43.2893 82.8503 48.3232 83.4941 53.2816 82.8788C58.24 82.2634 62.9619 80.4088 67.0087 77.4872C71.0555 74.5656 74.2959 70.6718 76.4288 66.1675C78.5617 61.6632 79.5179 56.6946 79.2086 51.7233C78.8994 46.7519 77.3347 41.9392 74.6599 37.7321C71.9851 33.525 68.287 30.0601 63.9091 27.6592C59.5312 25.2584 54.6156 23.9993 49.619 23.9993Z" fill="#232A34"/>
</g>
</g>
<defs>
<filter id="filter0_dd_1421_17717" x="-830" y="-701.984" width="1807" height="1753" filterUnits="userSpaceOnUse" color-interpolation-filters="sRGB">
<feFlood flood-opacity="0" result="BackgroundImageFix"/>
<feColorMatrix in="SourceAlpha" type="matrix" values="0 0 0 0 0 0 0 0 0 0 0 0 0 0 0 0 0 0 127 0" result="hardAlpha"/>
<feOffset dx="10" dy="10"/>
<feGaussianBlur stdDeviation="12.5"/>
<feComposite in2="hardAlpha" operator="out"/>
<feColorMatrix type="matrix" values="0 0 0 0 0.0784314 0 0 0 0 0.0784314 0 0 0 0 0.0784314 0 0 0 1 0"/>
<feBlend mode="normal" in2="BackgroundImageFix" result="effect1_dropShadow_1421_17717"/>
<feColorMatrix in="SourceAlpha" type="matrix" values="0 0 0 0 0 0 0 0 0 0 0 0 0 0 0 0 0 0 127 0" result="hardAlpha"/>
<feOffset dx="-8" dy="-8"/>
<feGaussianBlur stdDeviation="12.5"/>
<feComposite in2="hardAlpha" operator="out"/>
<feColorMatrix type="matrix" values="0 0 0 0 0.207843 0 0 0 0 0.254902 0 0 0 0 0.32549 0 0 0 1 0"/>
<feBlend mode="normal" in2="effect1_dropShadow_1421_17717" result="effect2_dropShadow_1421_17717"/>
<feBlend mode="normal" in="SourceGraphic" in2="effect2_dropShadow_1421_17717" result="shape"/>
</filter>
<filter id="filter1_ii_1421_17717" x="15" y="-213.297" width="389.71" height="532.699" filterUnits="userSpaceOnUse" color-interpolation-filters="sRGB">
<feFlood flood-opacity="0" result="BackgroundImageFix"/>
<feBlend mode="normal" in="SourceGraphic" in2="BackgroundImageFix" result="shape"/>
<feColorMatrix in="SourceAlpha" type="matrix" values="0 0 0 0 0 0 0 0 0 0 0 0 0 0 0 0 0 0 127 0" result="hardAlpha"/>
<feOffset dx="4" dy="4"/>
<feGaussianBlur stdDeviation="10"/>
<feComposite in2="hardAlpha" operator="arithmetic" k2="-1" k3="1"/>
<feColorMatrix type="matrix" values="0 0 0 0 0.0784314 0 0 0 0 0.0784314 0 0 0 0 0.0784314 0 0 0 1 0"/>
<feBlend mode="normal" in2="shape" result="effect1_innerShadow_1421_17717"/>
<feColorMatrix in="SourceAlpha" type="matrix" values="0 0 0 0 0 0 0 0 0 0 0 0 0 0 0 0 0 0 127 0" result="hardAlpha"/>
<feOffset dx="-5" dy="-5"/>
<feGaussianBlur stdDeviation="10"/>
<feComposite in2="hardAlpha" operator="arithmetic" k2="-1" k3="1"/>
<feColorMatrix type="matrix" values="0 0 0 0 0.207843 0 0 0 0 0.254902 0 0 0 0 0.32549 0 0 0 1 0"/>
<feBlend mode="normal" in2="effect1_innerShadow_1421_17717" result="effect2_innerShadow_1421_17717"/>
</filter>
<filter id="filter2_ii_1421_17717" x="-424.301" y="-213.297" width="507.566" height="532.699" filterUnits="userSpaceOnUse" color-interpolation-filters="sRGB">
<feFlood flood-opacity="0" result="BackgroundImageFix"/>
<feBlend mode="normal" in="SourceGraphic" in2="BackgroundImageFix" result="shape"/>
<feColorMatrix in="SourceAlpha" type="matrix" values="0 0 0 0 0 0 0 0 0 0 0 0 0 0 0 0 0 0 127 0" result="hardAlpha"/>
<feOffset dx="4" dy="4"/>
<feGaussianBlur stdDeviation="10"/>
<feComposite in2="hardAlpha" operator="arithmetic" k2="-1" k3="1"/>
<feColorMatrix type="matrix" values="0 0 0 0 0.0784314 0 0 0 0 0.0784314 0 0 0 0 0.0784314 0 0 0 1 0"/>
<feBlend mode="normal" in2="shape" result="effect1_innerShadow_1421_17717"/>
<feColorMatrix in="SourceAlpha" type="matrix" values="0 0 0 0 0 0 0 0 0 0 0 0 0 0 0 0 0 0 127 0" result="hardAlpha"/>
<feOffset dx="-5" dy="-5"/>
<feGaussianBlur stdDeviation="10"/>
<feComposite in2="hardAlpha" operator="arithmetic" k2="-1" k3="1"/>
<feColorMatrix type="matrix" values="0 0 0 0 0.207843 0 0 0 0 0.254902 0 0 0 0 0.32549 0 0 0 1 0"/>
<feBlend mode="normal" in2="effect1_innerShadow_1421_17717" result="effect2_innerShadow_1421_17717"/>
</filter>
<clipPath id="clip0_1421_17717">
<rect width="1920" height="11022" fill="white" transform="translate(-887 -3406)"/>
</clipPath>
</defs>
</svg>
