<svg width="82" height="90" viewBox="0 0 82 90" fill="none" xmlns="http://www.w3.org/2000/svg">
<g clip-path="url(#clip0_1421_17717)">
<rect width="1920" height="11022" transform="translate(-1212 -3414)" fill="#232A34"/>
<g style="mix-blend-mode:exclusion" opacity="0.45">
<path d="M91.617 30.6446L84.3305 20.9682C81.1695 16.7532 83.53 10.9885 89.5854 8.04568C95.6408 5.10285 103.148 6.15519 106.336 10.3403L106.341 10.3634L106.392 10.4492L113.549 19.9839L113.6 20.0697C116.756 24.2615 114.364 30.0329 108.304 32.9526C102.207 35.8559 94.7731 34.8364 91.617 30.6446Z" fill="#717170"/>
<path d="M64.2973 -7.02706L57.5859 -16.9694C54.6647 -21.3072 57.3214 -27.0858 63.5802 -29.854C69.8391 -32.6222 77.258 -31.3581 80.1842 -26.9972L80.1891 -26.9741L80.2407 -26.8883L86.8222 -17.0877L86.8737 -17.0019C89.7949 -12.664 87.1015 -6.90183 80.8427 -4.13364C74.5838 -1.36545 67.2186 -2.68922 64.2973 -7.02706Z" fill="#717170"/>
<path d="M72.9872 71.3719L64.9044 61.5489C61.452 57.3711 63.609 51.4318 69.7205 48.2838C75.8001 45.1425 83.5321 46.0025 86.9895 50.2034L86.9944 50.2266L87.0459 50.3123L94.935 60.007L95.0184 60.0861C98.4391 64.2706 96.2821 70.2099 90.1657 73.3348C84.108 76.4231 76.4127 75.5795 72.9872 71.3719Z" fill="#6A6A69"/>
<path d="M42.7429 33.0826L35.294 22.9571C32.1033 18.6035 34.5933 12.6666 40.8763 9.70001C47.1594 6.7334 54.8451 7.8447 58.0358 12.1983L58.0407 12.2215L58.0923 12.3072L65.3793 22.2977L65.4309 22.3835C68.6216 26.7371 66.0949 32.6575 59.8387 35.5943C53.5825 38.5311 45.9335 37.4362 42.7429 33.0826Z" fill="#6A6A69"/>
<path d="M14.8804 -6.36172L8.06528 -16.7896C5.10951 -21.2892 7.96918 -27.2072 14.3871 -30.0089C20.8368 -32.8173 28.4494 -31.4249 31.4002 -26.9483L31.4052 -26.9252L31.4568 -26.8394L38.1369 -16.5765L38.1884 -16.4907C41.1124 -11.9843 38.2478 -6.08944 31.825 -3.31088C25.4071 -0.509201 17.8043 -1.85535 14.8804 -6.36172Z" fill="#6A6A69"/>
<path d="M58.2283 114.32L49.3225 104.38C45.6056 100.21 47.5004 94.1323 53.6042 90.7926C59.7081 87.4529 67.6602 88.0975 71.3772 92.2679L71.3821 92.2911L71.4655 92.3702L80.1727 102.159L80.2561 102.238C83.973 106.408 82.0415 112.469 75.9376 115.809C69.8337 119.149 61.9452 118.491 58.2283 114.32Z" fill="#646363"/>
<path d="M24.8263 75.5896L16.5496 65.3243C13.0626 60.9846 15.322 54.9029 21.6244 51.7147C27.9267 48.5266 35.8375 49.4455 39.3245 53.7852L39.3294 53.8083L39.4129 53.8874L47.4911 64.0012L47.5745 64.0803C51.0248 68.4035 48.7335 74.4919 42.458 77.6503C36.1875 80.8317 28.3083 79.9061 24.8263 75.5896Z" fill="#646363"/>
<path d="M-6.08833 35.562L-13.7044 24.9645C-16.9247 20.4722 -14.3005 14.3862 -7.82657 11.3794C-1.35264 8.37257 6.51698 9.56597 9.73723 14.0583L9.74216 14.0814L9.79376 14.1672L17.238 24.5835L17.2896 24.6693C20.5099 29.1616 17.8489 35.2312 11.375 38.238C4.93781 41.2612 -2.89989 40.0611 -6.08833 35.562Z" fill="#646363"/>
<path d="M10.9214 120.22L1.79451 109.868C-1.98385 105.565 0.0403654 99.3153 6.29838 95.919C12.5882 92.5159 20.7559 93.2359 24.5293 97.5152L24.5343 97.5384L24.6177 97.6174L33.5459 107.818L33.6294 107.897C37.4077 112.2 35.3467 118.433 29.0838 121.806C22.7989 125.233 14.6998 124.522 10.9214 120.22Z" fill="#5D5D5C"/>
<path d="M-23.2982 79.8256L-31.7374 69.1112C-35.2539 64.6328 -32.86 58.402 -26.4035 55.1572C-19.947 51.9124 -11.8157 52.9299 -8.27228 57.3785L-8.26734 57.4016L-8.17915 57.5038L0.0883513 68.0368L0.176749 68.139C3.69332 72.6174 1.26259 78.8319 -5.19883 82.0535C-11.6602 85.2752 -19.8134 84.3106 -23.2982 79.8256Z" fill="#5D5D5C"/>
</g>
<g filter="url(#filter0_dd_1421_17717)">
<path d="M-1122 -646.984C-1122 -663.553 -1108.57 -676.984 -1092 -676.984H587C603.568 -676.984 617 -663.553 617 -646.984V978.016C617 994.584 603.568 1008.02 587 1008.02H-1092C-1108.57 1008.02 -1122 994.584 -1122 978.016V-646.984Z" fill="#232A34"/>
</g>
<g filter="url(#filter1_ii_1421_17717)">
<path d="M75.4872 82.694C75.4872 57.5159 68.729 64.3398 68.729 64.3398C64.8471 69.0405 59.6034 72.4303 53.715 74.0475C47.8266 75.6647 41.5809 75.4295 35.8317 73.374C30.0825 71.3185 25.1104 67.543 21.5954 62.5638C18.0804 57.5846 16.194 51.6447 16.194 45.5562C16.194 39.4676 18.0804 33.5277 21.5954 28.5485C25.1104 23.5693 30.0825 19.7939 35.8317 17.7383C41.5809 15.6828 47.8266 15.4476 53.715 17.0648C59.6034 18.682 64.8471 22.0727 68.729 26.7733C68.729 26.7733 75.4872 33.5964 75.4872 8.41833C75.4571 6.86118 75.5314 5.30379 75.7097 3.75652V-189.669C75.7097 -196.73 72.8957 -203.502 67.8869 -208.495C62.8781 -213.488 56.0847 -216.293 49.0011 -216.293H-278.291C-285.375 -216.293 -292.168 -213.488 -297.177 -208.495C-302.186 -203.502 -305 -196.73 -305 -189.669V21.1947C-303.151 30.7404 -299.173 26.7724 -299.173 26.7724C-295.291 22.0718 -290.047 18.682 -284.159 17.0648C-278.27 15.4476 -272.025 15.6828 -266.275 17.7383C-260.526 19.7938 -255.554 23.5693 -252.039 28.5485C-248.524 33.5277 -246.638 39.4676 -246.638 45.5562C-246.638 51.6447 -248.524 57.5846 -252.039 62.5638C-255.554 67.543 -260.526 71.3185 -266.275 73.374C-272.025 75.4295 -278.27 75.6647 -284.159 74.0475C-290.047 72.4303 -295.291 69.0396 -299.173 64.339C-299.173 64.339 -303.151 60.3719 -305 69.9176V280.781C-305 284.277 -304.309 287.739 -302.967 290.97C-301.625 294.2 -299.657 297.135 -297.177 299.607C-294.697 302.079 -291.753 304.041 -288.512 305.379C-285.272 306.717 -281.799 307.405 -278.291 307.405H49.0013C52.5087 307.405 55.9818 306.717 59.2222 305.379C62.4626 304.041 65.4069 302.079 67.887 299.607C70.3672 297.135 72.3345 294.2 73.6767 290.97C75.019 287.739 75.7099 284.277 75.7099 280.781V87.355C75.5316 85.808 75.4572 84.2509 75.4872 82.694Z" fill="#232A34"/>
</g>
</g>
<defs>
<filter id="filter0_dd_1421_17717" x="-1155" y="-709.984" width="1807" height="1753" filterUnits="userSpaceOnUse" color-interpolation-filters="sRGB">
<feFlood flood-opacity="0" result="BackgroundImageFix"/>
<feColorMatrix in="SourceAlpha" type="matrix" values="0 0 0 0 0 0 0 0 0 0 0 0 0 0 0 0 0 0 127 0" result="hardAlpha"/>
<feOffset dx="10" dy="10"/>
<feGaussianBlur stdDeviation="12.5"/>
<feComposite in2="hardAlpha" operator="out"/>
<feColorMatrix type="matrix" values="0 0 0 0 0.0784314 0 0 0 0 0.0784314 0 0 0 0 0.0784314 0 0 0 1 0"/>
<feBlend mode="normal" in2="BackgroundImageFix" result="effect1_dropShadow_1421_17717"/>
<feColorMatrix in="SourceAlpha" type="matrix" values="0 0 0 0 0 0 0 0 0 0 0 0 0 0 0 0 0 0 127 0" result="hardAlpha"/>
<feOffset dx="-8" dy="-8"/>
<feGaussianBlur stdDeviation="12.5"/>
<feComposite in2="hardAlpha" operator="out"/>
<feColorMatrix type="matrix" values="0 0 0 0 0.207843 0 0 0 0 0.254902 0 0 0 0 0.32549 0 0 0 1 0"/>
<feBlend mode="normal" in2="effect1_dropShadow_1421_17717" result="effect2_dropShadow_1421_17717"/>
<feBlend mode="normal" in="SourceGraphic" in2="effect2_dropShadow_1421_17717" result="shape"/>
</filter>
<filter id="filter1_ii_1421_17717" x="-310" y="-221.293" width="389.71" height="532.699" filterUnits="userSpaceOnUse" color-interpolation-filters="sRGB">
<feFlood flood-opacity="0" result="BackgroundImageFix"/>
<feBlend mode="normal" in="SourceGraphic" in2="BackgroundImageFix" result="shape"/>
<feColorMatrix in="SourceAlpha" type="matrix" values="0 0 0 0 0 0 0 0 0 0 0 0 0 0 0 0 0 0 127 0" result="hardAlpha"/>
<feOffset dx="4" dy="4"/>
<feGaussianBlur stdDeviation="10"/>
<feComposite in2="hardAlpha" operator="arithmetic" k2="-1" k3="1"/>
<feColorMatrix type="matrix" values="0 0 0 0 0.0784314 0 0 0 0 0.0784314 0 0 0 0 0.0784314 0 0 0 1 0"/>
<feBlend mode="normal" in2="shape" result="effect1_innerShadow_1421_17717"/>
<feColorMatrix in="SourceAlpha" type="matrix" values="0 0 0 0 0 0 0 0 0 0 0 0 0 0 0 0 0 0 127 0" result="hardAlpha"/>
<feOffset dx="-5" dy="-5"/>
<feGaussianBlur stdDeviation="10"/>
<feComposite in2="hardAlpha" operator="arithmetic" k2="-1" k3="1"/>
<feColorMatrix type="matrix" values="0 0 0 0 0.207843 0 0 0 0 0.254902 0 0 0 0 0.32549 0 0 0 1 0"/>
<feBlend mode="normal" in2="effect1_innerShadow_1421_17717" result="effect2_innerShadow_1421_17717"/>
</filter>
<clipPath id="clip0_1421_17717">
<rect width="1920" height="11022" fill="white" transform="translate(-1212 -3414)"/>
</clipPath>
</defs>
</svg>
