<svg width="98" height="98" viewBox="0 0 98 98" fill="none" xmlns="http://www.w3.org/2000/svg">
<g clip-path="url(#clip0_1118_6137)">
<rect width="1920" height="11022" transform="translate(-1385 -3380)" fill="#ECECEC"/>
<g style="mix-blend-mode:exclusion" opacity="0.45">
<path d="M89.5882 24.4187L83.4356 16.3155C80.5741 12.5691 82.6613 7.39349 88.0881 4.77635C93.5099 2.1361 100.221 3.04191 103.051 6.79508L103.056 6.81822L103.102 6.8809L109.135 14.8885L109.181 14.9512C112.011 18.7044 109.919 23.8569 104.492 26.474C99.0921 29.0613 92.4179 28.1719 89.5882 24.4187Z" fill="#8B8B8A"/>
<path d="M66.4438 -7.08991L60.7122 -15.4024C58.0586 -19.2651 60.3834 -24.4182 65.9352 -26.9166C71.487 -29.4151 78.1369 -28.3273 80.7905 -24.4646L80.7954 -24.4414L80.842 -24.3788L86.4486 -16.1849L86.4953 -16.1223C89.1488 -12.2596 86.7872 -7.12294 81.2355 -4.62447C75.6837 -2.126 69.0606 -3.24364 66.4438 -7.08991Z" fill="#8B8B8A"/>
<path d="M92.6415 88.9979L85.4259 80.9009C82.1874 77.2579 83.8484 71.9545 89.1743 69.0203C94.5052 66.1092 101.444 66.6773 104.714 70.3136L104.719 70.3367L104.765 70.3994L111.856 78.3778L111.903 78.4404C115.141 82.0834 113.448 87.3935 108.117 90.3046C102.786 93.2157 95.88 92.6409 92.6415 88.9979Z" fill="#858584"/>
<path d="M65.3981 57.4622L58.6304 49.1261C55.5631 45.3505 57.5204 40.0331 63.0081 37.2339C68.4958 34.4348 75.4148 35.2244 78.4821 39L78.487 39.0232L78.5336 39.0858L85.1762 47.3034L85.2229 47.366C88.2584 51.1484 86.2962 56.4427 80.8085 59.2418C75.3476 62.0111 68.4654 61.2378 65.3981 57.4622Z" fill="#858584"/>
<path d="M39.9252 25.0216L33.6053 16.4463C30.746 12.5544 32.9677 7.22968 38.5854 4.57235C44.203 1.91503 51.0978 2.90301 53.9571 6.79489L53.962 6.81804L54.0086 6.88072L60.1985 15.3142L60.2451 15.3769C63.1045 19.2688 60.8459 24.577 55.2283 27.2344C49.6474 29.9081 42.7846 28.9134 39.9252 25.0216Z" fill="#858584"/>
<path d="M74.3192 125.218L66.403 116.955C62.9 113.319 64.426 107.851 69.7861 104.764C75.1411 101.655 82.3193 102.1 85.7905 105.742L85.7954 105.765L85.8421 105.828L93.6014 113.98L93.648 114.042C97.1192 117.685 95.5882 123.13 90.2282 126.216C84.9367 129.312 77.7904 128.861 74.3192 125.218Z" fill="#7E7E7E"/>
<path d="M44.4729 93.026L37.0315 84.4933C33.7315 80.7183 35.522 75.2427 41.0389 72.2682C46.5557 69.2938 53.7095 69.9373 57.0095 73.7123L57.0144 73.7355L57.0611 73.7981L64.3776 82.2121L64.4241 82.2748C67.6923 86.0565 65.8968 91.509 60.38 94.4834C54.8631 97.4579 47.7411 96.8077 44.4729 93.026Z" fill="#7E7E7E"/>
<path d="M16.4413 59.8221L9.47942 51.0437C6.38251 47.1293 8.4742 41.6628 14.1479 38.8004C19.8215 35.9379 26.9292 36.8328 30.0579 40.7404L30.0629 40.7636L30.1095 40.8262L36.9144 49.4927L36.9611 49.5554C40.058 53.4698 37.9345 58.9429 32.2509 61.7591C26.6042 64.5918 19.5064 63.7432 16.4413 59.8221Z" fill="#7E7E7E"/>
<path d="M-9.69766 25.6635L-16.1481 16.6326C-19.042 12.5789 -16.6809 7.12823 -10.8406 4.42401C-5.00025 1.71978 2.04634 2.79657 4.9402 6.85028L4.94512 6.87336L4.99673 6.95916L11.3171 15.8484L11.3687 15.9341C14.2576 19.9647 11.8696 25.4453 6.02436 28.1264C0.237791 30.7709 -6.80875 29.6941 -9.69766 25.6635Z" fill="#7E7E7E"/>
<path d="M-3.7178 97.1073L-11.3852 88.1391C-14.7466 84.2321 -12.8217 78.6073 -7.11893 75.5696C-1.41614 72.5318 5.92142 73.2574 9.28281 77.1645L9.28775 77.1876L9.33936 77.2734L16.845 86.1066L16.8965 86.1924C20.2261 90.1061 18.3013 95.7308 12.5935 98.7454C6.94943 101.747 -0.388226 101.021 -3.7178 97.1073Z" fill="#787777"/>
</g>
<g filter="url(#filter0_dd_1118_6137)">
<path d="M-1250 -612C-1250 -628.569 -1236.57 -642 -1220 -642H459C475.568 -642 489 -628.569 489 -612V1013C489 1029.57 475.568 1043 459 1043H-1220C-1236.57 1043 -1250 1029.57 -1250 1013V-612Z" fill="#ECECEC"/>
</g>
<g filter="url(#filter1_ii_1118_6137)">
<path d="M428.486 -212.803L101.218 -212.959C97.711 -212.961 94.2385 -212.274 90.9989 -210.937C87.7593 -209.6 84.8161 -207.641 82.3374 -205.169C79.8586 -202.698 77.8928 -199.764 76.5522 -196.534C75.2116 -193.304 74.5225 -189.842 74.5242 -186.345L74.6167 7.09422C74.4391 8.64152 74.3656 10.199 74.3964 11.7563C74.4084 36.9362 67.6474 30.1085 67.6474 30.1085C63.7635 25.4057 58.5187 22.0131 52.6299 20.393C46.7412 18.7729 40.4959 19.0051 34.7481 21.0581C29.0003 23.111 24.0306 26.8844 20.5182 31.8623C17.0058 36.8402 15.1223 42.7796 15.1252 48.8686C15.1281 54.9576 17.0173 60.8988 20.5344 65.8801C24.0516 70.8614 29.025 74.6395 34.7747 76.6979C40.5245 78.7563 46.77 78.9945 52.6572 77.38C58.5444 75.7655 63.786 72.377 67.6654 67.6779C67.6654 67.6779 74.4198 60.8575 74.4319 86.0375C74.4025 87.5945 74.4776 89.1517 74.6566 90.6989L74.7491 284.139C74.7508 287.636 75.4432 291.099 76.7868 294.33C78.1305 297.561 80.0991 300.497 82.5802 302.971C85.0614 305.444 88.0065 307.407 91.2473 308.747C94.4882 310.086 97.9613 310.777 101.468 310.778L428.737 310.934C432.244 310.936 435.716 310.249 438.956 308.912C442.195 307.576 445.139 305.616 447.617 303.145C450.096 300.673 452.062 297.739 453.403 294.509C454.743 291.279 455.432 287.817 455.431 284.321L455.206 -186.164C455.202 -193.226 452.385 -199.999 447.375 -204.995C442.364 -209.991 435.569 -212.8 428.486 -212.803Z" fill="#ECECEC"/>
</g>
</g>
<defs>
<filter id="filter0_dd_1118_6137" x="-1283" y="-675" width="1807" height="1753" filterUnits="userSpaceOnUse" color-interpolation-filters="sRGB">
<feFlood flood-opacity="0" result="BackgroundImageFix"/>
<feColorMatrix in="SourceAlpha" type="matrix" values="0 0 0 0 0 0 0 0 0 0 0 0 0 0 0 0 0 0 127 0" result="hardAlpha"/>
<feOffset dx="10" dy="10"/>
<feGaussianBlur stdDeviation="12.5"/>
<feComposite in2="hardAlpha" operator="out"/>
<feColorMatrix type="matrix" values="0 0 0 0 0.0784314 0 0 0 0 0.121569 0 0 0 0 0.219608 0 0 0 0.2 0"/>
<feBlend mode="normal" in2="BackgroundImageFix" result="effect1_dropShadow_1118_6137"/>
<feColorMatrix in="SourceAlpha" type="matrix" values="0 0 0 0 0 0 0 0 0 0 0 0 0 0 0 0 0 0 127 0" result="hardAlpha"/>
<feOffset dx="-8" dy="-8"/>
<feGaussianBlur stdDeviation="12.5"/>
<feComposite in2="hardAlpha" operator="out"/>
<feColorMatrix type="matrix" values="0 0 0 0 1 0 0 0 0 1 0 0 0 0 1 0 0 0 1 0"/>
<feBlend mode="normal" in2="effect1_dropShadow_1118_6137" result="effect2_dropShadow_1118_6137"/>
<feBlend mode="normal" in="SourceGraphic" in2="effect2_dropShadow_1118_6137" result="shape"/>
</filter>
<filter id="filter1_ii_1118_6137" x="10.1252" y="-217.959" width="449.305" height="532.893" filterUnits="userSpaceOnUse" color-interpolation-filters="sRGB">
<feFlood flood-opacity="0" result="BackgroundImageFix"/>
<feBlend mode="normal" in="SourceGraphic" in2="BackgroundImageFix" result="shape"/>
<feColorMatrix in="SourceAlpha" type="matrix" values="0 0 0 0 0 0 0 0 0 0 0 0 0 0 0 0 0 0 127 0" result="hardAlpha"/>
<feOffset dx="-5" dy="-5"/>
<feGaussianBlur stdDeviation="10"/>
<feComposite in2="hardAlpha" operator="arithmetic" k2="-1" k3="1"/>
<feColorMatrix type="matrix" values="0 0 0 0 1 0 0 0 0 1 0 0 0 0 1 0 0 0 1 0"/>
<feBlend mode="normal" in2="shape" result="effect1_innerShadow_1118_6137"/>
<feColorMatrix in="SourceAlpha" type="matrix" values="0 0 0 0 0 0 0 0 0 0 0 0 0 0 0 0 0 0 127 0" result="hardAlpha"/>
<feOffset dx="4" dy="4"/>
<feGaussianBlur stdDeviation="10"/>
<feComposite in2="hardAlpha" operator="arithmetic" k2="-1" k3="1"/>
<feColorMatrix type="matrix" values="0 0 0 0 0.0784314 0 0 0 0 0.121569 0 0 0 0 0.219608 0 0 0 0.2 0"/>
<feBlend mode="normal" in2="effect1_innerShadow_1118_6137" result="effect2_innerShadow_1118_6137"/>
</filter>
<clipPath id="clip0_1118_6137">
<rect width="1920" height="11022" fill="white" transform="translate(-1385 -3380)"/>
</clipPath>
</defs>
</svg>
