<svg width="98" height="98" viewBox="0 0 98 98" fill="none" xmlns="http://www.w3.org/2000/svg">
<g clip-path="url(#clip0_1421_17717)">
<rect width="1920" height="11022" transform="translate(-1277 -3380)" fill="#232A34"/>
<g style="mix-blend-mode:exclusion" opacity="0.45">
<path d="M98.3027 25.6623L91.8522 16.6314C88.9584 12.5777 91.3194 7.12701 97.1598 4.42279C103 1.71856 110.047 2.79535 112.941 6.84906L112.945 6.87214L112.997 6.95794L119.317 15.8472L119.369 15.9329C122.258 19.9635 119.87 25.444 114.025 28.1251C108.238 30.7697 101.192 29.6929 98.3027 25.6623Z" fill="#7E7E7E"/>
<path d="M104.283 97.1075L96.6155 88.1393C93.2541 84.2323 95.179 78.6075 100.882 75.5698C106.585 72.5321 113.922 73.2577 117.284 77.1647L117.288 77.1879L117.34 77.2737L124.846 86.1068L124.897 86.1926C128.227 90.1064 126.302 95.731 120.594 98.7456C114.95 101.747 107.613 101.021 104.283 97.1075Z" fill="#787777"/>
<path d="M75.5281 62.2235L68.404 52.996C65.2774 48.9429 67.4985 43.3042 73.368 40.4247C79.2375 37.5452 86.5558 38.4923 89.6824 42.5454L89.6873 42.5684L89.7388 42.6543L96.733 51.7399L96.7845 51.8258C99.9111 55.8788 97.6532 61.5012 91.7837 64.3807C85.9043 67.2139 78.6228 66.2833 75.5281 62.2235Z" fill="#787777"/>
<path d="M48.7833 26.3076L42.2024 16.8209C39.279 12.6285 41.8013 6.99889 47.8374 4.2776C53.8686 1.53319 61.1357 2.70849 64.0273 6.90762L64.0322 6.93076L64.0838 7.01649L70.5347 16.3615L70.5863 16.4472C73.4779 20.6463 70.9507 26.2528 64.9145 28.9741C58.9053 31.6655 51.67 30.4836 48.7833 26.3076Z" fill="#787777"/>
<path d="M56.1324 101.23L48.2757 91.8424C44.8847 87.7966 46.9072 82.0063 52.8327 78.9217C58.7263 75.8438 66.2746 76.6217 69.6706 80.6906L69.6755 80.7137L69.7271 80.7994L77.422 90.0518L77.4735 90.1376C80.8327 94.1901 78.8052 99.9572 72.9115 103.035C67.0178 106.113 59.5234 105.276 56.1324 101.23Z" fill="#717170"/>
<path d="M26.617 64.6446L19.3305 54.9682C16.1695 50.7532 18.53 44.9885 24.5854 42.0457C30.6408 39.1028 38.1477 40.1552 41.3356 44.3403L41.3406 44.3634L41.3922 44.4492L48.5487 53.9839L48.6002 54.0697C51.7564 58.2615 49.3641 64.0329 43.3037 66.9526C37.2066 69.8559 29.7731 68.8364 26.617 64.6446Z" fill="#717170"/>
<path d="M-0.702655 26.9729L-7.4141 17.0306C-10.3353 12.6928 -7.67862 6.91416 -1.41978 4.14597C4.83905 1.37777 12.258 2.64188 15.1842 7.00284L15.1891 7.02591L15.2407 7.11171L21.8222 16.9123L21.8737 16.9981C24.7949 21.336 22.1015 27.0982 15.8427 29.8664C9.58385 32.6345 2.21858 31.3108 -0.702655 26.9729Z" fill="#717170"/>
<path d="M7.98721 105.372L-0.0955901 95.5489C-3.54802 91.3711 -1.39098 85.4318 4.72049 82.2838C10.8001 79.1425 18.5321 80.0025 21.9895 84.2034L21.9944 84.2266L22.0459 84.3123L29.935 94.007L30.0184 94.0861C33.4391 98.2706 31.2821 104.21 25.1657 107.335C19.108 110.423 11.4127 109.58 7.98721 105.372Z" fill="#6A6A69"/>
<path d="M-22.2571 67.0826L-29.706 56.9571C-32.8967 52.6035 -30.4067 46.6666 -24.1237 43.7C-17.8406 40.7334 -10.1549 41.8447 -6.96422 46.1983L-6.95928 46.2215L-6.90769 46.3072L0.379328 56.2977L0.430931 56.3835C3.62158 60.7371 1.09488 66.6575 -5.1613 69.5943C-11.4175 72.5311 -19.0665 71.4362 -22.2571 67.0826Z" fill="#6A6A69"/>
</g>
<g filter="url(#filter0_dd_1421_17717)">
<path d="M-1187 -612.984C-1187 -629.553 -1173.57 -642.984 -1157 -642.984H522C538.568 -642.984 552 -629.553 552 -612.984V1012.02C552 1028.58 538.568 1042.02 522 1042.02H-1157C-1173.57 1042.02 -1187 1028.58 -1187 1012.02V-612.984Z" fill="#232A34"/>
</g>
<g filter="url(#filter1_ii_1421_17717)">
<path d="M431.238 -213.334L103.97 -213.49C100.463 -213.492 96.9904 -212.805 93.7509 -211.468C90.5113 -210.132 87.5681 -208.172 85.0893 -205.701C82.6105 -203.229 80.6448 -200.295 79.3042 -197.065C77.9636 -193.835 77.2745 -190.373 77.2762 -186.877L77.3686 6.56297C77.1911 8.11027 77.1175 9.66774 77.1484 11.225C77.1604 36.405 70.3994 29.5773 70.3994 29.5773C66.5155 24.8745 61.2706 21.4819 55.3819 19.8617C49.4931 18.2416 43.2479 18.4739 37.5001 20.5268C31.7523 22.5797 26.7825 26.3531 23.2701 31.331C19.7577 36.3089 17.8742 42.2484 17.8771 48.3373C17.88 54.4263 19.7692 60.3676 23.2864 65.3489C26.8035 70.3301 31.7769 74.1082 37.5267 76.1666C43.2764 78.225 49.5219 78.4633 55.4091 76.8487C61.2963 75.2342 66.5379 71.8458 70.4173 67.1467C70.4173 67.1467 77.1717 60.3262 77.1839 85.5062C77.1545 87.0632 77.2296 88.6205 77.4086 90.1677L77.501 283.608C77.5027 287.105 78.1951 290.567 79.5388 293.798C80.8825 297.03 82.8511 299.966 85.3322 302.439C87.8133 304.913 90.7584 306.876 93.9993 308.215C97.2401 309.555 100.713 310.245 104.22 310.247L431.489 310.403C434.996 310.405 438.468 309.718 441.708 308.381C444.947 307.045 447.891 305.085 450.369 302.613C452.848 300.142 454.814 297.208 456.155 293.978C457.495 290.748 458.184 287.286 458.183 283.789L457.958 -186.695C457.954 -193.757 455.137 -200.531 450.126 -205.526C445.116 -210.522 438.321 -213.331 431.238 -213.334Z" fill="#232A34"/>
</g>
</g>
<defs>
<filter id="filter0_dd_1421_17717" x="-1220" y="-675.984" width="1807" height="1753" filterUnits="userSpaceOnUse" color-interpolation-filters="sRGB">
<feFlood flood-opacity="0" result="BackgroundImageFix"/>
<feColorMatrix in="SourceAlpha" type="matrix" values="0 0 0 0 0 0 0 0 0 0 0 0 0 0 0 0 0 0 127 0" result="hardAlpha"/>
<feOffset dx="10" dy="10"/>
<feGaussianBlur stdDeviation="12.5"/>
<feComposite in2="hardAlpha" operator="out"/>
<feColorMatrix type="matrix" values="0 0 0 0 0.0784314 0 0 0 0 0.0784314 0 0 0 0 0.0784314 0 0 0 1 0"/>
<feBlend mode="normal" in2="BackgroundImageFix" result="effect1_dropShadow_1421_17717"/>
<feColorMatrix in="SourceAlpha" type="matrix" values="0 0 0 0 0 0 0 0 0 0 0 0 0 0 0 0 0 0 127 0" result="hardAlpha"/>
<feOffset dx="-8" dy="-8"/>
<feGaussianBlur stdDeviation="12.5"/>
<feComposite in2="hardAlpha" operator="out"/>
<feColorMatrix type="matrix" values="0 0 0 0 0.207843 0 0 0 0 0.254902 0 0 0 0 0.32549 0 0 0 1 0"/>
<feBlend mode="normal" in2="effect1_dropShadow_1421_17717" result="effect2_dropShadow_1421_17717"/>
<feBlend mode="normal" in="SourceGraphic" in2="effect2_dropShadow_1421_17717" result="shape"/>
</filter>
<filter id="filter1_ii_1421_17717" x="12.877" y="-218.488" width="449.306" height="532.891" filterUnits="userSpaceOnUse" color-interpolation-filters="sRGB">
<feFlood flood-opacity="0" result="BackgroundImageFix"/>
<feBlend mode="normal" in="SourceGraphic" in2="BackgroundImageFix" result="shape"/>
<feColorMatrix in="SourceAlpha" type="matrix" values="0 0 0 0 0 0 0 0 0 0 0 0 0 0 0 0 0 0 127 0" result="hardAlpha"/>
<feOffset dx="-5" dy="-5"/>
<feGaussianBlur stdDeviation="10"/>
<feComposite in2="hardAlpha" operator="arithmetic" k2="-1" k3="1"/>
<feColorMatrix type="matrix" values="0 0 0 0 0.207843 0 0 0 0 0.254902 0 0 0 0 0.32549 0 0 0 1 0"/>
<feBlend mode="normal" in2="shape" result="effect1_innerShadow_1421_17717"/>
<feColorMatrix in="SourceAlpha" type="matrix" values="0 0 0 0 0 0 0 0 0 0 0 0 0 0 0 0 0 0 127 0" result="hardAlpha"/>
<feOffset dx="4" dy="4"/>
<feGaussianBlur stdDeviation="10"/>
<feComposite in2="hardAlpha" operator="arithmetic" k2="-1" k3="1"/>
<feColorMatrix type="matrix" values="0 0 0 0 0.0784314 0 0 0 0 0.0784314 0 0 0 0 0.0784314 0 0 0 1 0"/>
<feBlend mode="normal" in2="effect1_innerShadow_1421_17717" result="effect2_innerShadow_1421_17717"/>
</filter>
<clipPath id="clip0_1421_17717">
<rect width="1920" height="11022" fill="white" transform="translate(-1277 -3380)"/>
</clipPath>
</defs>
</svg>
