<svg width="482" height="878" viewBox="0 0 482 878" fill="none" xmlns="http://www.w3.org/2000/svg">
<g filter="url(#filter0_i_468_1757)">
<circle cx="390.362" cy="785.761" r="91.2121" transform="rotate(90 390.362 785.761)" fill="#0C869D"/>
</g>
<mask id="path-2-outside-1_468_1757" maskUnits="userSpaceOnUse" x="-14.6868" y="486.588" width="499.4" height="406.284" fill="black">
<rect fill="white" x="-14.6868" y="486.588" width="499.4" height="406.284"/>
<path fill-rule="evenodd" clip-rule="evenodd" d="M332.414 759.472C336.236 761.924 337.641 766.763 336.477 771.152C330.544 793.53 339.288 818.123 359.788 831.362C385.271 847.818 419.268 840.5 435.724 815.018C452.18 789.536 444.863 755.538 419.381 739.082C398.682 725.715 372.364 728.034 354.394 743.033C350.888 745.959 345.874 746.722 342.031 744.257L163.921 630.015C159.992 627.495 158.61 622.468 160.074 618.036C169.585 589.25 158.933 556.585 132.279 539.373C100.631 518.935 58.4072 528.023 37.9696 559.671C17.532 591.319 26.6198 633.543 58.2679 653.98C85.0453 671.272 119.394 667.428 141.711 646.665C145.129 643.486 150.274 642.646 154.202 645.166L332.414 759.472Z"/>
</mask>
<path fill-rule="evenodd" clip-rule="evenodd" d="M332.414 759.472C336.236 761.924 337.641 766.763 336.477 771.152C330.544 793.53 339.288 818.123 359.788 831.362C385.271 847.818 419.268 840.5 435.724 815.018C452.18 789.536 444.863 755.538 419.381 739.082C398.682 725.715 372.364 728.034 354.394 743.033C350.888 745.959 345.874 746.722 342.031 744.257L163.921 630.015C159.992 627.495 158.61 622.468 160.074 618.036C169.585 589.25 158.933 556.585 132.279 539.373C100.631 518.935 58.4072 528.023 37.9696 559.671C17.532 591.319 26.6198 633.543 58.2679 653.98C85.0453 671.272 119.394 667.428 141.711 646.665C145.129 643.486 150.274 642.646 154.202 645.166L332.414 759.472Z" fill="#372C4E"/>
<path d="M359.788 831.362L365.507 822.506L359.788 831.362ZM435.724 815.018L444.58 820.737L435.724 815.018ZM419.381 739.082L413.662 747.938L419.381 739.082ZM132.279 539.373L137.998 530.516L132.279 539.373ZM37.9696 559.671L46.8257 565.39L46.8257 565.39L37.9696 559.671ZM58.2679 653.98L63.9869 645.124L58.2679 653.98ZM141.711 646.665L134.531 638.947L141.711 646.665ZM154.202 645.166L148.511 654.04L154.202 645.166ZM354.394 743.033L347.639 734.939L354.394 743.033ZM342.031 744.257L347.723 735.383L342.031 744.257ZM163.921 630.015L158.229 638.889L163.921 630.015ZM160.074 618.036L170.084 621.344L160.074 618.036ZM326.287 768.45C319.218 795.112 329.62 824.429 354.069 840.218L365.507 822.506C348.955 811.816 341.87 791.948 346.667 773.854L326.287 768.45ZM354.069 840.218C384.443 859.832 424.966 851.11 444.58 820.737L426.868 809.299C413.571 829.89 386.099 835.803 365.507 822.506L354.069 840.218ZM444.58 820.737C464.195 790.364 455.473 749.84 425.1 730.226L413.662 747.938C434.253 761.235 440.166 788.708 426.868 809.299L444.58 820.737ZM425.1 730.226C400.414 714.285 369.051 717.068 347.639 734.939L361.149 751.126C375.678 739 396.949 737.145 413.662 747.938L425.1 730.226ZM158.229 638.889L336.339 753.13L347.723 735.383L169.613 621.141L158.229 638.889ZM170.084 621.344C181.064 588.111 168.783 550.397 137.998 530.516L126.56 548.229C149.082 562.773 158.106 590.389 150.064 614.729L170.084 621.344ZM137.998 530.516C101.459 506.92 52.7097 517.413 29.1136 553.952L46.8257 565.39C64.1047 538.633 99.803 530.949 126.56 548.229L137.998 530.516ZM29.1136 553.952C5.5174 590.491 16.0097 639.24 52.5488 662.836L63.9869 645.124C37.23 627.845 29.5466 592.147 46.8257 565.39L29.1136 553.952ZM52.5488 662.836C83.4766 682.809 123.127 678.354 148.892 654.384L134.531 638.947C115.661 656.502 86.614 659.736 63.9869 645.124L52.5488 662.836ZM338.105 750.599L159.894 636.292L148.511 654.04L326.722 768.346L338.105 750.599ZM148.892 654.384C148.952 654.328 149.016 654.286 149.075 654.258C149.135 654.23 149.165 654.227 149.151 654.229C149.136 654.231 149.059 654.239 148.931 654.212C148.795 654.184 148.645 654.126 148.511 654.04L159.894 636.292C151.297 630.778 140.905 633.017 134.531 638.947L148.892 654.384ZM347.639 734.939C347.535 735.026 347.425 735.092 347.323 735.136C347.221 735.18 347.155 735.191 347.141 735.192C347.131 735.194 347.191 735.185 347.31 735.211C347.438 735.238 347.586 735.295 347.723 735.383L336.339 753.13C344.782 758.546 354.819 756.409 361.149 751.126L347.639 734.939ZM169.613 621.141C169.747 621.227 169.862 621.339 169.944 621.451C170.022 621.556 170.047 621.629 170.052 621.644C170.056 621.657 170.046 621.629 170.046 621.563C170.047 621.498 170.059 621.421 170.084 621.344L150.064 614.729C147.333 622.996 149.632 633.374 158.229 638.889L169.613 621.141ZM346.667 773.854C348.77 765.924 346.501 755.984 338.105 750.599L326.722 768.346C326.586 768.259 326.473 768.149 326.395 768.045C326.322 767.948 326.304 767.889 326.307 767.899C326.311 767.911 326.329 767.974 326.332 768.084C326.335 768.194 326.322 768.321 326.287 768.45L346.667 773.854Z" fill="#F9F9F9" mask="url(#path-2-outside-1_468_1757)"/>
<g filter="url(#filter1_i_468_1757)">
<path fill-rule="evenodd" clip-rule="evenodd" d="M332.414 759.474C336.236 761.926 337.642 766.765 336.478 771.154C330.544 793.532 339.288 818.125 359.789 831.364C385.271 847.819 419.269 840.502 435.725 815.02C452.181 789.538 444.863 755.54 419.381 739.084C398.682 725.717 372.365 728.036 354.394 743.035C350.889 745.961 345.875 746.724 342.031 744.258L163.921 630.017C159.993 627.497 158.611 622.47 160.075 618.038C169.585 589.252 158.933 556.587 132.28 539.374C100.631 518.937 58.4077 528.025 37.9701 559.673C17.5325 591.321 26.6203 633.545 58.2684 653.982C85.0458 671.274 119.394 667.43 141.712 646.667C145.129 643.488 150.274 642.648 154.203 645.168L332.414 759.474Z" fill="#372C4E"/>
</g>
<mask id="path-5-outside-2_468_1757" maskUnits="userSpaceOnUse" x="45.1507" y="338.891" width="409.741" height="312.646" fill="black">
<rect fill="white" x="45.1507" y="338.891" width="409.741" height="312.646"/>
<path fill-rule="evenodd" clip-rule="evenodd" d="M129.907 564.377C126.203 566.575 121.534 565.835 118.004 563.367C105.929 554.923 89.5432 553.787 76.0475 561.796C57.6643 572.705 51.6053 596.45 62.5142 614.834C73.4231 633.217 97.1691 639.276 115.552 628.367C129.048 620.359 135.901 605.432 134.276 590.787C133.801 586.507 135.388 582.055 139.092 579.857L292.038 489.096C296.078 486.698 301.233 487.737 304.474 491.139C329.612 517.527 370.487 524.08 403.162 504.69C441.149 482.148 453.669 433.079 431.127 395.093C408.585 357.106 359.517 344.585 321.53 367.127C288.392 386.792 274.634 426.643 286.626 461.714C288.171 466.232 286.637 471.37 282.531 473.807L129.907 564.377Z"/>
</mask>
<path fill-rule="evenodd" clip-rule="evenodd" d="M129.907 564.377C126.203 566.575 121.534 565.835 118.004 563.367C105.929 554.923 89.5432 553.787 76.0475 561.796C57.6643 572.705 51.6053 596.45 62.5142 614.834C73.4231 633.217 97.1691 639.276 115.552 628.367C129.048 620.359 135.901 605.432 134.276 590.787C133.801 586.507 135.388 582.055 139.092 579.857L292.038 489.096C296.078 486.698 301.233 487.737 304.474 491.139C329.612 517.527 370.487 524.08 403.162 504.69C441.149 482.148 453.669 433.079 431.127 395.093C408.585 357.106 359.517 344.585 321.53 367.127C288.392 386.792 274.634 426.643 286.626 461.714C288.171 466.232 286.637 471.37 282.531 473.807L129.907 564.377Z" fill="#702F8A"/>
<path d="M76.0475 561.796L81.4275 570.862L76.0475 561.796ZM62.5142 614.834L71.5802 609.454L62.5142 614.834ZM115.552 628.367L120.932 637.433L115.552 628.367ZM403.162 504.69L397.782 495.624L403.162 504.69ZM431.127 395.093L440.193 389.713L431.127 395.093ZM321.53 367.127L326.91 376.193L321.53 367.127ZM286.626 461.714L296.601 458.303L286.626 461.714ZM282.531 473.807L277.151 464.741L282.531 473.807ZM134.276 590.787L123.798 591.95L134.276 590.787ZM139.092 579.857L144.472 588.923L139.092 579.857ZM292.038 489.096L286.658 480.03L292.038 489.096ZM304.474 491.139L312.106 483.868L304.474 491.139ZM118.004 563.367L111.963 572.007L118.004 563.367ZM129.907 564.377L135.287 573.443L129.907 564.377ZM124.046 554.728C108.702 543.999 87.853 542.531 70.6676 552.73L81.4275 570.862C91.2334 565.043 103.156 565.848 111.963 572.007L124.046 554.728ZM70.6676 552.73C47.2773 566.61 39.5679 596.823 53.4481 620.214L71.5802 609.454C63.6426 596.078 68.0513 578.799 81.4275 570.862L70.6676 552.73ZM53.4481 620.214C67.3284 643.604 97.542 651.313 120.932 637.433L110.172 619.301C96.7962 627.239 79.5179 622.83 71.5802 609.454L53.4481 620.214ZM120.932 637.433C138.117 627.235 146.819 608.232 144.754 589.624L123.798 591.95C124.984 602.631 119.978 613.482 110.172 619.301L120.932 637.433ZM286.658 480.03L133.712 570.791L144.472 588.923L297.418 498.162L286.658 480.03ZM296.841 498.411C325.293 528.278 371.548 535.709 408.542 513.756L397.782 495.624C369.425 512.451 333.931 506.777 312.106 483.868L296.841 498.411ZM408.542 513.756C451.536 488.242 465.707 432.706 440.193 389.713L422.061 400.472C441.632 433.452 430.762 476.053 397.782 495.624L408.542 513.756ZM440.193 389.713C414.68 346.719 359.144 332.548 316.15 358.061L326.91 376.193C359.89 356.623 402.49 367.493 422.061 400.472L440.193 389.713ZM316.15 358.061C278.634 380.324 263.077 425.427 276.651 465.125L296.601 458.303C286.191 427.858 298.151 393.26 326.91 376.193L316.15 358.061ZM135.287 573.443L287.911 482.873L277.151 464.741L124.527 555.311L135.287 573.443ZM276.651 465.125C276.667 465.171 276.674 465.216 276.674 465.252C276.674 465.289 276.668 465.296 276.677 465.267C276.687 465.236 276.719 465.154 276.804 465.046C276.893 464.932 277.015 464.821 277.151 464.741L287.911 482.873C296.874 477.554 299.539 466.894 296.601 458.303L276.651 465.125ZM144.754 589.624C144.727 589.387 144.732 589.163 144.758 588.97C144.783 588.777 144.825 588.651 144.849 588.593C144.873 588.537 144.869 588.566 144.803 588.646C144.731 588.732 144.618 588.836 144.472 588.923L133.712 570.791C125.524 575.65 122.998 584.741 123.798 591.95L144.754 589.624ZM297.418 498.162C297.283 498.242 297.131 498.296 296.99 498.319C296.856 498.342 296.769 498.332 296.736 498.327C296.705 498.321 296.711 498.318 296.743 498.334C296.772 498.35 296.807 498.376 296.841 498.411L312.106 483.868C305.938 477.393 295.474 474.798 286.658 480.03L297.418 498.162ZM111.963 572.007C117.908 576.163 127.098 578.302 135.287 573.443L124.527 555.311C124.672 555.224 124.818 555.175 124.928 555.153C125.03 555.133 125.058 555.144 124.997 555.138C124.934 555.131 124.804 555.108 124.622 555.038C124.44 554.968 124.241 554.864 124.046 554.728L111.963 572.007Z" fill="#F9F9F9" mask="url(#path-5-outside-2_468_1757)"/>
<g filter="url(#filter2_i_468_1757)">
<path fill-rule="evenodd" clip-rule="evenodd" d="M129.907 564.377C126.203 566.575 121.534 565.835 118.004 563.367C105.929 554.923 89.5432 553.787 76.0475 561.796C57.6643 572.705 51.6053 596.45 62.5142 614.834C73.4231 633.217 97.1691 639.276 115.552 628.367C129.048 620.359 135.901 605.432 134.276 590.787C133.801 586.507 135.388 582.055 139.092 579.857L292.038 489.096C296.078 486.698 301.233 487.737 304.474 491.139C329.612 517.527 370.487 524.08 403.162 504.69C441.149 482.148 453.669 433.079 431.127 395.093C408.585 357.106 359.517 344.585 321.53 367.127C288.392 386.792 274.634 426.643 286.626 461.714C288.171 466.232 286.637 471.37 282.531 473.807L129.907 564.377Z" fill="#702F8A"/>
</g>
<mask id="path-8-outside-3_468_1757" maskUnits="userSpaceOnUse" x="23.1382" y="168.525" width="428.189" height="362.889" fill="black">
<rect fill="white" x="23.1382" y="168.525" width="428.189" height="362.889"/>
<path fill-rule="evenodd" clip-rule="evenodd" d="M311.56 413.715C315.068 416.171 316.346 420.691 315.438 424.875C311.539 442.845 318.434 462.214 334.44 473.423C355.729 488.332 385.073 483.159 399.982 461.87C414.891 440.581 409.719 411.237 388.43 396.328C371.307 384.337 348.973 385.337 333.13 397.264C329.433 400.048 324.319 400.675 320.528 398.02L191.912 307.95C188.085 305.271 186.914 300.187 188.533 295.805C198.444 268.972 189.52 237.813 164.989 220.634C135.8 200.193 95.5674 207.284 75.1265 236.473C54.6856 265.662 61.7772 305.895 90.966 326.336C115.216 343.318 147.09 341.297 168.903 323.388C172.466 320.463 177.566 319.879 181.342 322.523L311.56 413.715Z"/>
</mask>
<path fill-rule="evenodd" clip-rule="evenodd" d="M311.56 413.715C315.068 416.171 316.346 420.691 315.438 424.875C311.539 442.845 318.434 462.214 334.44 473.423C355.729 488.332 385.073 483.159 399.982 461.87C414.891 440.581 409.719 411.237 388.43 396.328C371.307 384.337 348.973 385.337 333.13 397.264C329.433 400.048 324.319 400.675 320.528 398.02L191.912 307.95C188.085 305.271 186.914 300.187 188.533 295.805C198.444 268.972 189.52 237.813 164.989 220.634C135.8 200.193 95.5674 207.284 75.1265 236.473C54.6856 265.662 61.7772 305.895 90.966 326.336C115.216 343.318 147.09 341.297 168.903 323.388C172.466 320.463 177.566 319.879 181.342 322.523L311.56 413.715Z" fill="#9A3BA3"/>
<path d="M168.903 323.388L162.213 315.24L168.903 323.388ZM181.342 322.523L175.295 331.159L181.342 322.523ZM333.13 397.264L326.79 388.842L333.13 397.264ZM188.533 295.805L198.422 299.458L188.533 295.805ZM315.438 424.875L325.74 427.11L315.438 424.875ZM311.56 413.715L317.608 405.08L311.56 413.715ZM305.135 422.64C300.368 444.614 308.788 468.329 328.393 482.058L340.488 464.788C328.081 456.099 322.71 441.077 325.74 427.11L305.135 422.64ZM328.393 482.058C354.451 500.307 390.369 493.976 408.617 467.918L391.347 455.823C379.778 472.343 357.007 476.357 340.488 464.788L328.393 482.058ZM408.617 467.918C426.866 441.859 420.535 405.942 394.477 387.693L382.382 404.964C398.902 416.533 402.916 439.303 391.347 455.823L408.617 467.918ZM394.477 387.693C373.505 373.007 346.172 374.249 326.79 388.842L339.471 405.686C351.774 396.424 369.108 395.668 382.382 404.964L394.477 387.693ZM185.864 316.585L314.481 406.655L326.575 389.385L197.959 299.315L185.864 316.585ZM198.422 299.458C209.951 268.243 199.588 231.993 171.036 211.998L158.942 229.269C179.453 243.633 186.936 269.7 178.643 292.153L198.422 299.458ZM171.036 211.998C137.078 188.218 90.272 196.468 66.4912 230.426L83.7617 242.52C100.863 218.101 134.522 212.168 158.942 229.269L171.036 211.998ZM66.4912 230.426C42.7105 264.384 50.9608 311.19 84.9187 334.971L97.0132 317.7C72.5935 300.599 66.6606 266.94 83.7617 242.52L66.4912 230.426ZM84.9187 334.971C113.144 354.737 150.219 352.367 175.592 331.536L162.213 315.24C143.96 330.226 117.289 331.9 97.0132 317.7L84.9187 334.971ZM317.608 405.08L187.39 313.888L175.295 331.159L305.513 422.35L317.608 405.08ZM175.592 331.536C175.665 331.476 175.741 331.432 175.81 331.404C175.88 331.375 175.918 331.373 175.91 331.373C175.9 331.374 175.827 331.379 175.703 331.347C175.572 331.314 175.425 331.25 175.295 331.159L187.39 313.888C179.12 308.097 168.812 309.822 162.213 315.24L175.592 331.536ZM326.79 388.842C326.642 388.953 326.484 389.038 326.337 389.095C326.188 389.153 326.085 389.168 326.043 389.171C326.004 389.174 326.05 389.165 326.164 389.194C326.288 389.225 326.438 389.288 326.575 389.385L314.481 406.655C322.84 412.509 333.004 410.555 339.471 405.686L326.79 388.842ZM197.959 299.315C198.09 299.407 198.201 299.524 198.278 299.638C198.351 299.745 198.371 299.816 198.373 299.824C198.375 299.83 198.364 299.791 198.368 299.713C198.372 299.636 198.389 299.547 198.422 299.458L178.643 292.153C175.649 300.26 177.482 310.715 185.864 316.585L197.959 299.315ZM325.74 427.11C327.342 419.729 325.327 410.486 317.608 405.08L305.513 422.35C305.381 422.258 305.277 422.148 305.208 422.053C305.144 421.963 305.132 421.916 305.14 421.94C305.149 421.966 305.17 422.047 305.176 422.182C305.182 422.317 305.171 422.474 305.135 422.64L325.74 427.11Z" fill="#F9F9F9" mask="url(#path-8-outside-3_468_1757)"/>
<g filter="url(#filter3_i_468_1757)">
<path fill-rule="evenodd" clip-rule="evenodd" d="M311.56 413.713C315.067 416.169 316.345 420.689 315.437 424.873C311.538 442.843 318.434 462.212 334.44 473.421C355.729 488.33 385.073 483.157 399.982 461.868C414.89 440.579 409.718 411.235 388.429 396.326C371.306 384.335 348.972 385.335 333.13 397.262C329.432 400.046 324.319 400.673 320.528 398.018L191.911 307.948C188.085 305.269 186.914 300.185 188.532 295.803C198.443 268.97 189.52 237.811 164.989 220.632C135.8 200.191 95.5669 207.282 75.126 236.471C54.6851 265.66 61.7767 305.893 90.9655 326.334C115.216 343.316 147.089 341.295 168.902 323.386C172.465 320.461 177.566 319.877 181.342 322.521L311.56 413.713Z" fill="#9A3BA3"/>
</g>
<mask id="path-11-outside-4_468_1757" maskUnits="userSpaceOnUse" x="65.8185" y="-14.1684" width="387.445" height="426.163" fill="black">
<rect fill="white" x="65.8185" y="-14.1684" width="387.445" height="426.163"/>
<path fill-rule="evenodd" clip-rule="evenodd" d="M317.067 81.0025C346.989 62.4454 386.289 71.6581 404.846 101.58C423.403 131.501 414.19 170.801 384.269 189.358C359.322 204.83 327.856 200.999 307.328 181.956C303.93 178.804 298.841 177.913 294.902 180.355L167.725 259.229C164.145 261.45 162.639 265.8 163.006 269.997C164.116 282.658 158.221 295.468 146.682 302.624C130.355 312.75 108.91 307.723 98.7845 291.396C88.6586 275.069 93.6857 253.625 110.013 243.499C121.552 236.342 135.647 236.755 146.496 243.375C150.092 245.57 154.658 246.153 158.238 243.933L285.416 165.058C289.354 162.616 290.818 157.66 289.504 153.216C281.569 126.364 292.121 96.4741 317.067 81.0025Z"/>
</mask>
<path fill-rule="evenodd" clip-rule="evenodd" d="M317.067 81.0025C346.989 62.4454 386.289 71.6581 404.846 101.58C423.403 131.501 414.19 170.801 384.269 189.358C359.322 204.83 327.856 200.999 307.328 181.956C303.93 178.804 298.841 177.913 294.902 180.355L167.725 259.229C164.145 261.45 162.639 265.8 163.006 269.997C164.116 282.658 158.221 295.468 146.682 302.624C130.355 312.75 108.91 307.723 98.7845 291.396C88.6586 275.069 93.6857 253.625 110.013 243.499C121.552 236.342 135.647 236.755 146.496 243.375C150.092 245.57 154.658 246.153 158.238 243.933L285.416 165.058C289.354 162.616 290.818 157.66 289.504 153.216C281.569 126.364 292.121 96.4741 317.067 81.0025Z" fill="#CC03DF"/>
<path d="M404.846 101.58L413.805 96.0234L404.846 101.58ZM317.067 81.0025L322.624 89.9615L317.067 81.0025ZM384.269 189.358L378.712 180.399L378.712 180.399L384.269 189.358ZM146.682 302.624L152.238 311.583L152.238 311.583L146.682 302.624ZM98.7845 291.396L89.8255 296.952L89.8255 296.952L98.7845 291.396ZM110.013 243.499L115.569 252.458L115.569 252.458L110.013 243.499ZM289.504 153.216L299.614 150.228L289.504 153.216ZM167.725 259.229L162.169 250.27L167.725 259.229ZM163.006 269.997L152.504 270.917L163.006 269.997ZM146.496 243.375L141.004 252.374L146.496 243.375ZM158.238 243.933L152.682 234.974L158.238 243.933ZM307.328 181.956L300.159 189.685L307.328 181.956ZM413.805 96.0234C392.179 61.1538 346.381 50.4177 311.511 72.0435L322.624 89.9615C347.597 74.4731 380.398 82.1624 395.887 107.136L413.805 96.0234ZM389.825 198.317C424.695 176.692 435.431 130.893 413.805 96.0234L395.887 107.136C411.375 132.11 403.686 164.911 378.712 180.399L389.825 198.317ZM300.159 189.685C324.078 211.873 360.74 216.355 389.825 198.317L378.712 180.399C357.904 193.305 331.635 190.124 314.498 174.227L300.159 189.685ZM289.346 171.396L162.169 250.27L173.282 268.188L300.459 189.314L289.346 171.396ZM152.238 311.583C167.287 302.25 174.952 285.546 173.508 269.076L152.504 270.917C153.28 279.77 149.155 288.686 141.126 293.665L152.238 311.583ZM89.8255 296.952C103.02 318.228 130.963 324.778 152.238 311.583L141.126 293.665C129.747 300.723 114.801 297.219 107.744 285.84L89.8255 296.952ZM104.456 234.54C83.1814 247.734 76.6309 275.677 89.8255 296.952L107.744 285.84C100.686 274.461 104.19 259.515 115.569 252.458L104.456 234.54ZM151.987 234.376C137.875 225.764 119.505 225.207 104.456 234.54L115.569 252.458C123.598 247.478 133.418 247.745 141.004 252.374L151.987 234.376ZM163.794 252.892L290.972 174.017L279.859 156.099L152.682 234.974L163.794 252.892ZM311.511 72.0435C282.427 90.0813 270.148 124.915 279.394 156.204L299.614 150.228C292.99 127.812 301.815 102.867 322.624 89.9615L311.511 72.0435ZM290.972 174.017C299.6 168.666 302.041 158.442 299.614 150.228L279.394 156.204C279.422 156.297 279.433 156.388 279.432 156.467C279.431 156.546 279.418 156.585 279.42 156.579C279.422 156.572 279.446 156.503 279.524 156.402C279.607 156.293 279.724 156.183 279.859 156.099L290.972 174.017ZM162.169 250.27C154.241 255.188 151.902 264.037 152.504 270.917L173.508 269.076C173.484 268.802 173.493 268.546 173.524 268.327C173.555 268.107 173.603 267.961 173.633 267.886C173.663 267.815 173.666 267.835 173.605 267.91C173.538 267.992 173.428 268.098 173.282 268.188L162.169 250.27ZM141.004 252.374C146.9 255.972 155.866 257.809 163.794 252.892L152.682 234.974C152.828 234.883 152.972 234.831 153.075 234.808C153.169 234.787 153.186 234.798 153.109 234.793C153.029 234.787 152.877 234.765 152.666 234.695C152.456 234.625 152.222 234.52 151.987 234.376L141.004 252.374ZM314.498 174.227C308.218 168.402 297.975 166.045 289.346 171.396L300.459 189.314C300.323 189.399 300.173 189.454 300.039 189.48C299.913 189.505 299.841 189.496 299.833 189.495C299.828 189.494 299.868 189.5 299.94 189.534C300.01 189.568 300.087 189.619 300.159 189.685L314.498 174.227Z" fill="#F9F9F9" mask="url(#path-11-outside-4_468_1757)"/>
<g filter="url(#filter4_i_468_1757)">
<path fill-rule="evenodd" clip-rule="evenodd" d="M317.067 81.0025C346.989 62.4454 386.288 71.6581 404.845 101.58C423.403 131.501 414.19 170.801 384.268 189.358C359.322 204.83 327.856 200.999 307.328 181.956C303.93 178.804 298.84 177.913 294.902 180.355L167.725 259.229C164.145 261.45 162.638 265.8 163.006 269.997C164.115 282.658 158.221 295.468 146.681 302.624C130.354 312.75 108.91 307.723 98.7841 291.396C88.6581 275.069 93.6852 253.625 110.012 243.499C121.551 236.342 135.646 236.755 146.495 243.375C150.091 245.57 154.657 246.153 158.238 243.933L285.415 165.058C289.354 162.616 290.817 157.66 289.504 153.216C281.569 126.364 292.121 96.4741 317.067 81.0025Z" fill="#CC03DF"/>
</g>
<g filter="url(#filter5_i_468_1757)">
<circle cx="198.162" cy="96.3629" r="37.2076" transform="rotate(90 198.162 96.3629)" fill="#0C869D"/>
</g>
<mask id="path-15-outside-5_468_1757" maskUnits="userSpaceOnUse" x="160.916" y="42.2752" width="248.98" height="152.066" fill="black">
<rect fill="white" x="160.916" y="42.2752" width="248.98" height="152.066"/>
<path fill-rule="evenodd" clip-rule="evenodd" d="M310.001 115.19C314.489 116.329 319.073 114.157 322.08 110.637C330.959 100.244 345.269 95.1771 359.414 98.7675C379.26 103.805 391.265 123.977 386.228 143.823C381.19 163.669 361.018 175.674 341.172 170.637C327.027 167.046 316.866 155.768 314.018 142.399C313.054 137.87 310.061 133.776 305.573 132.637L213.507 109.268C210.426 108.486 207.222 109.415 204.231 110.492C201.505 111.474 198.466 111.681 195.446 110.914C187.395 108.871 182.525 100.687 184.569 92.6365C186.612 84.5856 194.795 79.7157 202.846 81.7593C205.867 82.5259 208.439 84.1567 210.367 86.3204C212.482 88.6941 214.855 91.039 217.937 91.8212L310.001 115.19Z"/>
</mask>
<g filter="url(#filter6_i_468_1757)">
<path fill-rule="evenodd" clip-rule="evenodd" d="M310.001 115.19C314.489 116.329 319.073 114.157 322.08 110.637C330.959 100.244 345.269 95.1771 359.414 98.7675C379.26 103.805 391.265 123.977 386.228 143.823C381.19 163.669 361.018 175.674 341.172 170.637C327.027 167.046 316.866 155.768 314.018 142.399C313.054 137.87 310.061 133.776 305.573 132.637L213.507 109.268C210.426 108.486 207.222 109.415 204.231 110.492C201.505 111.474 198.466 111.681 195.446 110.914C187.395 108.871 182.525 100.687 184.569 92.6365C186.612 84.5856 194.795 79.7157 202.846 81.7593C205.867 82.5259 208.439 84.1567 210.367 86.3204C212.482 88.6941 214.855 91.039 217.937 91.8212L310.001 115.19Z" fill="#D866FD"/>
</g>
<path d="M210.367 86.3204L218.902 78.716L210.367 86.3204ZM314.018 142.399L302.838 144.78L314.018 142.399ZM204.231 110.492L200.357 99.7378L204.231 110.492ZM322.08 110.637L330.772 118.062L322.08 110.637ZM313.389 103.212C324.985 89.6379 343.704 82.9863 362.227 87.6878L356.602 109.847C346.835 107.368 336.933 110.85 330.772 118.062L313.389 103.212ZM362.227 87.6878C388.192 94.2786 403.898 120.67 397.307 146.636L375.148 141.011C378.632 127.284 370.329 113.332 356.602 109.847L362.227 87.6878ZM397.307 146.636C390.717 172.601 364.325 188.307 338.36 181.716L343.984 159.557C357.711 163.041 371.664 154.738 375.148 141.011L397.307 146.636ZM338.36 181.716C319.837 177.015 306.557 162.241 302.838 144.78L325.199 140.018C327.175 149.295 334.217 157.078 343.984 159.557L338.36 181.716ZM216.32 98.188L308.385 121.557L302.761 143.716L210.695 120.347L216.32 98.188ZM208.106 121.247C203.3 122.978 197.934 123.339 192.633 121.994L198.258 99.8345C198.998 100.022 199.709 99.9711 200.357 99.7378L208.106 121.247ZM192.633 121.994C178.463 118.397 169.892 103.994 173.489 89.8242L195.648 95.4489C195.158 97.3806 196.326 99.3441 198.258 99.8345L192.633 121.994ZM173.489 89.8242C177.086 75.6541 191.488 67.0828 205.659 70.6796L200.034 92.839C198.102 92.3487 196.139 93.5172 195.648 95.4489L173.489 89.8242ZM205.659 70.6796C210.959 72.025 215.504 74.9024 218.902 78.716L201.832 93.9249C201.375 93.4111 200.774 93.0269 200.034 92.839L205.659 70.6796ZM307.189 126.27L215.124 102.901L220.749 80.7415L312.813 104.11L307.189 126.27ZM218.902 78.716C219.845 79.7751 220.433 80.3491 220.87 80.6939C221.262 81.003 221.198 80.8556 220.749 80.7415L215.124 102.901C208.323 101.175 203.913 96.2603 201.832 93.9249L218.902 78.716ZM302.838 144.78C302.773 144.476 302.678 144.201 302.571 143.971C302.463 143.742 302.362 143.597 302.301 143.524C302.243 143.453 302.244 143.473 302.331 143.531C302.427 143.595 302.577 143.67 302.761 143.716L308.385 121.557C318.33 124.081 323.629 132.647 325.199 140.018L302.838 144.78ZM210.695 120.347C211.145 120.462 211.271 120.362 210.779 120.447C210.231 120.542 209.44 120.766 208.106 121.247L200.357 99.7378C203.299 98.6777 209.519 96.4619 216.32 98.188L210.695 120.347ZM330.772 118.062C325.876 123.792 317.134 128.794 307.189 126.27L312.813 104.11C312.63 104.064 312.462 104.058 312.348 104.068C312.243 104.077 312.233 104.095 312.318 104.06C312.406 104.025 312.564 103.946 312.768 103.795C312.972 103.645 313.187 103.448 313.389 103.212L330.772 118.062Z" fill="#F9F9F9" mask="url(#path-15-outside-5_468_1757)"/>
<g filter="url(#filter7_i_468_1757)">
<path fill-rule="evenodd" clip-rule="evenodd" d="M310.001 115.19C314.489 116.329 319.073 114.157 322.08 110.637C330.959 100.244 345.269 95.1771 359.414 98.7675C379.26 103.805 391.265 123.977 386.228 143.823C381.19 163.669 361.018 175.674 341.172 170.637C327.027 167.046 316.866 155.768 314.018 142.399C313.054 137.87 310.061 133.776 305.573 132.637L213.507 109.268C210.426 108.486 207.222 109.415 204.231 110.492C201.505 111.474 198.466 111.681 195.446 110.914C187.395 108.871 182.525 100.687 184.569 92.6365C186.612 84.5856 194.795 79.7157 202.846 81.7593C205.867 82.5259 208.439 84.1567 210.367 86.3204C212.482 88.6941 214.855 91.039 217.937 91.8212L310.001 115.19Z" fill="#D866FD"/>
</g>
<g filter="url(#filter8_d_468_1757)">
<path d="M358.483 138.988C356.229 142.347 352.284 144.151 348.272 143.677C347.438 141.13 344.688 139.732 342.141 140.566C342.073 140.589 342.005 140.612 341.915 140.634C338.196 136.982 337.632 131.189 340.54 126.883L358.483 138.988Z" stroke="#F9F9F9" stroke-width="0.976905" stroke-miterlimit="10"/>
<path d="M349.084 128.688L353.637 131.753L352.668 135.067L346.379 130.829L349.084 128.688Z" stroke="#F9F9F9" stroke-width="0.976905" stroke-miterlimit="10"/>
<path d="M354.562 127.109C355.47 127.109 356.207 126.372 356.207 125.463C356.207 124.554 355.47 123.817 354.562 123.817C353.653 123.817 352.916 124.554 352.916 125.463C352.916 126.372 353.653 127.109 354.562 127.109Z" stroke="#F9F9F9" stroke-width="0.976905" stroke-miterlimit="10"/>
<path d="M345.995 119.962C349.128 115.296 355.462 114.078 360.106 117.212C364.749 120.345 365.989 126.68 362.856 131.324" stroke="#F9F9F9" stroke-width="0.976905" stroke-linecap="round" stroke-linejoin="round"/>
<path d="M349.827 122.533C351.54 119.986 354.989 119.31 357.536 121.023C360.083 122.736 360.76 126.185 359.046 128.733" stroke="#F9F9F9" stroke-width="0.976905" stroke-linecap="round" stroke-linejoin="round"/>
<path d="M353.637 126.838L351.36 130.219" stroke="#F9F9F9" stroke-width="0.976905" stroke-miterlimit="10"/>
<path d="M349.715 149.65C343.449 149.695 335.537 149.627 337.611 149.65L337.724 149.222L338.851 144.623C339.166 141.963 341.578 140.047 344.26 140.362C346.154 140.588 347.732 141.873 348.318 143.676C348.408 143.992 348.476 144.285 348.521 144.623L349.648 149.222L349.715 149.65Z" stroke="#F9F9F9" stroke-width="0.976905" stroke-miterlimit="10"/>
<path d="M343.65 146.563C344.559 146.563 345.296 145.826 345.296 144.917C345.296 144.008 344.559 143.271 343.65 143.271C342.742 143.271 342.005 144.008 342.005 144.917C342.005 145.826 342.742 146.563 343.65 146.563Z" stroke="#F9F9F9" stroke-width="0.976905" stroke-miterlimit="10"/>
<path d="M339.774 128.213L357.424 140.341" stroke="#F9F9F9" stroke-width="0.976905" stroke-miterlimit="10"/>
<path d="M332.516 149.65H354.448" stroke="#F9F9F9" stroke-width="0.976905" stroke-linecap="round" stroke-linejoin="round"/>
</g>
<g filter="url(#filter9_d_468_1757)">
<path d="M145.315 288.304H109.098C109.338 287.148 109.687 286.035 110.167 284.944C114.159 275.54 125.025 271.132 134.428 275.125C139.424 277.242 143.264 281.475 144.879 286.646C145.053 287.213 145.184 287.759 145.315 288.304Z" stroke="#F9F9F9" stroke-width="0.976905" stroke-miterlimit="10"/>
<path d="M110.167 284.966C112.152 280.253 116.014 276.588 120.792 274.82C121.599 276.413 120.421 279.512 117.89 282.152C115.054 285.076 111.607 286.341 110.167 284.966Z" stroke="#F9F9F9" stroke-width="0.976905" stroke-miterlimit="10"/>
<path d="M133.184 288.304C132.006 286.318 129.061 285.009 125.657 285.14C122.603 285.271 120.006 286.536 118.763 288.304H133.184Z" stroke="#F9F9F9" stroke-width="0.976905" stroke-miterlimit="10"/>
<path d="M139.544 284.419C140.372 283.323 139.531 281.292 137.665 279.884C135.8 278.475 133.617 278.221 132.789 279.318C131.961 280.414 132.802 282.445 134.668 283.854C136.533 285.262 138.716 285.516 139.544 284.419Z" stroke="#F9F9F9" stroke-width="0.976905" stroke-miterlimit="10"/>
<path d="M125.962 275.844V260.33" stroke="#F9F9F9" stroke-width="0.976905" stroke-linecap="round" stroke-linejoin="round"/>
<path d="M125.962 261.62C130.107 264.566 134.253 258.674 138.398 261.62C137.176 262.056 135.933 263.278 134.711 264.827C136.194 266.093 137.46 267.642 138.398 269.344C134.253 266.398 130.107 272.29 125.962 269.344V261.62Z" stroke="#F9F9F9" stroke-width="0.976905" stroke-linecap="round" stroke-linejoin="round"/>
<path d="M118.567 269.846L115.731 269.257L113.636 271.242L113.331 268.362L110.8 266.987L113.44 265.809L113.963 262.973L115.905 265.111L118.763 264.718L117.323 267.227L118.567 269.846Z" stroke="#F9F9F9" stroke-width="0.976905" stroke-linecap="round" stroke-linejoin="round"/>
<path d="M146.166 272.333L145.228 270.871L143.504 270.805L144.595 269.474L144.115 267.816L145.729 268.449L147.147 267.467L147.06 269.191L148.435 270.26L146.755 270.696L146.166 272.333Z" stroke="#F9F9F9" stroke-width="0.976905" stroke-linecap="round" stroke-linejoin="round"/>
<path d="M130.784 257.124L129.803 256.623L128.821 257.124L129.017 256.033L128.21 255.27L129.323 255.117L129.803 254.113L130.304 255.117L131.395 255.27L130.61 256.033L130.784 257.124Z" stroke="#F9F9F9" stroke-width="0.976905" stroke-linecap="round" stroke-linejoin="round"/>
</g>
<g filter="url(#filter10_d_468_1757)">
<path d="M344.635 435.712L342.575 434.626L340.493 435.712L340.892 433.408L339.23 431.769L341.534 431.436L342.575 429.332L343.616 431.436L345.92 431.769L344.236 433.408L344.635 435.712Z" stroke="#F9F9F9" stroke-width="0.976905" stroke-linecap="round" stroke-linejoin="round"/>
<path d="M360.096 426.983L360.429 428.91L359.498 428.423L358.347 427.825L356.287 428.91L356.685 426.607L355.002 424.989L357.306 424.657L358.347 422.553L359.388 424.657L361.691 424.989L360.03 426.607L360.096 426.983Z" stroke="#F9F9F9" stroke-width="0.976905" stroke-linecap="round" stroke-linejoin="round"/>
<path d="M381.493 419.739L379.411 418.654L377.351 419.739L377.75 417.435L376.066 415.796L378.392 415.464L379.411 413.359L380.452 415.464L382.756 415.796L381.094 417.435L381.493 419.739Z" stroke="#F9F9F9" stroke-width="0.976905" stroke-linecap="round" stroke-linejoin="round"/>
<path d="M375.424 431.788L373.364 430.703L371.282 431.788L371.68 429.484L369.997 427.845L372.323 427.513L373.364 425.408L374.383 427.513L376.709 427.845L375.025 429.484L375.424 431.788Z" stroke="#F9F9F9" stroke-width="0.976905" stroke-linecap="round" stroke-linejoin="round"/>
<path d="M351.834 452.436L349.774 451.351L347.692 452.436L348.091 450.133L346.43 448.493L348.733 448.161L349.774 446.057L350.815 448.161L353.119 448.493L351.436 450.133L351.834 452.436Z" stroke="#F9F9F9" stroke-width="0.976905" stroke-linecap="round" stroke-linejoin="round"/>
<path d="M367.649 445.701L365.567 444.616L363.507 445.701L363.884 443.398L362.223 441.78L364.526 441.448L365.567 439.344L366.608 441.448L368.912 441.78L367.251 443.398L367.649 445.701Z" stroke="#F9F9F9" stroke-width="0.976905" stroke-linecap="round" stroke-linejoin="round"/>
<path d="M374.737 427.359L379.234 419.008" stroke="#F9F9F9" stroke-width="0.976905" stroke-linecap="round" stroke-linejoin="round"/>
<path d="M371.304 429.109L360.096 426.982" stroke="#F9F9F9" stroke-width="0.976905" stroke-linecap="round" stroke-linejoin="round"/>
<path d="M364.992 440.519L359.499 428.424" stroke="#F9F9F9" stroke-width="0.976905" stroke-linecap="round" stroke-linejoin="round"/>
<path d="M352.831 448.605L363.862 443.576" stroke="#F9F9F9" stroke-width="0.976905" stroke-linecap="round" stroke-linejoin="round"/>
<path d="M343.307 435.002L349.021 447.584" stroke="#F9F9F9" stroke-width="0.976905" stroke-linecap="round" stroke-linejoin="round"/>
<path d="M348.379 428.998L352.543 427.07" stroke="#F9F9F9" stroke-width="0.976905" stroke-linecap="round" stroke-linejoin="round"/>
</g>
<g filter="url(#filter11_d_468_1757)">
<path d="M110.556 610.87H79.123L85.9755 593.091C93.7058 593.676 101.363 593.7 103.704 592.969L110.556 610.87Z" stroke="#F9F9F9" stroke-width="0.976905" stroke-miterlimit="10"/>
<path d="M111.044 590.091C111.044 591.993 103.801 593.529 94.8514 593.529C85.9018 593.529 78.6592 591.993 78.6592 590.091C78.6592 588.945 81.2441 587.945 85.2434 587.311C85.0727 588.067 84.9751 588.823 84.9751 589.603C90.9497 591.237 99.1677 590.749 104.752 589.603C104.752 588.823 104.655 588.067 104.484 587.311C108.434 587.945 111.044 588.945 111.044 590.091Z" stroke="#F9F9F9" stroke-width="0.976905" stroke-miterlimit="10"/>
<path d="M104.728 589.603C99.1681 590.749 90.9501 591.237 84.9512 589.603C84.9512 584.14 89.365 579.726 94.8275 579.701C100.29 579.701 104.704 584.14 104.728 589.603Z" stroke="#F9F9F9" stroke-width="0.976905" stroke-miterlimit="10"/>
<path d="M103.679 593.235C102.459 595.016 98.9723 596.308 94.8267 596.308C90.6811 596.308 87.1451 595.016 85.9502 593.211" stroke="#F9F9F9" stroke-width="0.976905" stroke-miterlimit="10"/>
<path d="M94.8268 589.433C95.9043 589.433 96.7777 588.56 96.7777 587.482C96.7777 586.405 95.9043 585.531 94.8268 585.531C93.7494 585.531 92.876 586.405 92.876 587.482C92.876 588.56 93.7494 589.433 94.8268 589.433Z" stroke="#F9F9F9" stroke-width="0.976905" stroke-miterlimit="10"/>
<path d="M100.704 588.945C101.781 588.945 102.655 588.072 102.655 586.994C102.655 585.916 101.781 585.043 100.704 585.043C99.6264 585.043 98.7529 585.916 98.7529 586.994C98.7529 588.072 99.6264 588.945 100.704 588.945Z" stroke="#F9F9F9" stroke-width="0.976905" stroke-miterlimit="10"/>
<path d="M89.0231 588.945C90.1006 588.945 90.974 588.072 90.974 586.994C90.974 585.916 90.1006 585.043 89.0231 585.043C87.9457 585.043 87.0723 585.916 87.0723 586.994C87.0723 588.072 87.9457 588.945 89.0231 588.945Z" stroke="#F9F9F9" stroke-width="0.976905" stroke-miterlimit="10"/>
<path d="M86.487 598.994L82.8535 608.652" stroke="#F9F9F9" stroke-width="0.976905" stroke-linecap="round" stroke-linejoin="round"/>
<path d="M102.581 598.725L105.166 605.675" stroke="#F9F9F9" stroke-width="0.976905" stroke-linecap="round" stroke-linejoin="round"/>
<path d="M89.4623 598.602L87.2188 604.674" stroke="#F9F9F9" stroke-width="0.976905" stroke-linecap="round" stroke-linejoin="round"/>
<path d="M87.1201 578.922L89.0222 581.483" stroke="#F9F9F9" stroke-width="0.976905" stroke-linecap="round" stroke-linejoin="round"/>
<path d="M86.3902 579.165C87.077 579.165 87.6338 578.608 87.6338 577.922C87.6338 577.235 87.077 576.678 86.3902 576.678C85.7033 576.678 85.1465 577.235 85.1465 577.922C85.1465 578.608 85.7033 579.165 86.3902 579.165Z" stroke="#F9F9F9" stroke-width="0.976905" stroke-linecap="round" stroke-linejoin="round"/>
<path d="M102.728 578.922L100.826 581.483" stroke="#F9F9F9" stroke-width="0.976905" stroke-linecap="round" stroke-linejoin="round"/>
<path d="M103.485 579.165C104.172 579.165 104.729 578.608 104.729 577.922C104.729 577.235 104.172 576.678 103.485 576.678C102.798 576.678 102.241 577.235 102.241 577.922C102.241 578.608 102.798 579.165 103.485 579.165Z" stroke="#F9F9F9" stroke-width="0.976905" stroke-linecap="round" stroke-linejoin="round"/>
</g>
<g filter="url(#filter12_d_468_1757)">
<path d="M404.004 780.7C404.004 782.58 403.61 784.461 402.852 786.19C400.516 791.317 395.39 794.624 389.748 794.593C381.861 794.593 375.491 788.375 375.491 780.73C375.491 773.085 381.861 766.836 389.748 766.836C395.056 766.806 399.94 769.718 402.427 774.39C403.458 776.301 404.004 778.485 404.004 780.7Z" stroke="#F9F9F9" stroke-width="0.976905" stroke-linecap="round" stroke-linejoin="round"/>
<path d="M398.24 775.995C393.326 773.963 387.047 774.266 381.648 775.54C378.645 775.419 378.069 788.463 381.072 788.585C385.986 790.617 392.265 790.314 397.664 789.04C400.697 788.797 401.061 776.572 398.24 775.995Z" stroke="#F9F9F9" stroke-width="0.976905" stroke-linecap="round" stroke-linejoin="round"/>
<path d="M404.641 766.41V773.63" stroke="#F9F9F9" stroke-width="0.976905" stroke-linecap="round" stroke-linejoin="round"/>
<path d="M404.641 766.41C405.428 766.41 406.066 765.772 406.066 764.984C406.066 764.197 405.428 763.559 404.641 763.559C403.853 763.559 403.215 764.197 403.215 764.984C403.215 765.772 403.853 766.41 404.641 766.41Z" stroke="#F9F9F9" stroke-width="0.976905" stroke-linecap="round" stroke-linejoin="round"/>
<path d="M384.104 767.957C384.104 767.957 384.772 771.992 389.686 771.931C394.6 771.871 394.964 767.775 394.964 767.775" stroke="#F9F9F9" stroke-width="0.976905" stroke-linecap="round" stroke-linejoin="round"/>
<path d="M400.546 781.973C401.668 781.609 402.821 781.185 404.004 780.699" stroke="#F9F9F9" stroke-width="0.976905" stroke-linecap="round" stroke-linejoin="round"/>
<path d="M375.461 781.033C376.523 781.549 377.615 781.974 378.737 782.307" stroke="#F9F9F9" stroke-width="0.976905" stroke-linecap="round" stroke-linejoin="round"/>
<path d="M402.275 797.96V802.298H377.189V797.96C377.189 796.383 378.281 795.017 379.828 794.684C380.071 794.623 380.283 794.623 380.526 794.623H398.908C400.789 794.623 402.275 796.11 402.275 797.96Z" stroke="#F9F9F9" stroke-width="0.976905" stroke-linecap="round" stroke-linejoin="round"/>
<path d="M379.828 794.685C378.281 795.018 377.189 796.384 377.189 797.961V802.299H371.001C371.001 802.299 370.455 795.2 375.733 794.594H379.131C379.373 794.624 379.616 794.654 379.828 794.685Z" stroke="#F9F9F9" stroke-width="0.976905" stroke-linecap="round" stroke-linejoin="round"/>
<path d="M399.575 794.685C401.122 795.018 402.214 796.384 402.214 797.961V802.299H408.402C408.402 802.299 408.948 795.2 403.67 794.594H400.273C400.03 794.624 399.818 794.654 399.575 794.685Z" stroke="#F9F9F9" stroke-width="0.976905" stroke-linecap="round" stroke-linejoin="round"/>
<path d="M408.524 780.123C408.524 783.702 406.643 786.615 404.338 786.615C403.792 786.615 403.276 786.463 402.821 786.19C404.489 782.398 404.338 778.03 402.396 774.359C402.942 773.904 403.61 773.631 404.307 773.631C406.643 773.631 408.524 776.543 408.524 780.123Z" stroke="#F9F9F9" stroke-width="0.976905" stroke-linecap="round" stroke-linejoin="round"/>
<path d="M374.884 766.41V773.63" stroke="#F9F9F9" stroke-width="0.976905" stroke-linecap="round" stroke-linejoin="round"/>
<path d="M376.245 765.413C376.473 764.659 376.047 763.863 375.293 763.635C374.54 763.407 373.744 763.833 373.516 764.587C373.288 765.34 373.713 766.136 374.467 766.364C375.221 766.593 376.017 766.167 376.245 765.413Z" stroke="#F9F9F9" stroke-width="0.976905" stroke-linecap="round" stroke-linejoin="round"/>
<path d="M371.001 780.123C371.001 783.702 372.882 786.615 375.187 786.615C375.733 786.615 376.249 786.463 376.704 786.19C375.035 782.398 375.187 778.03 377.128 774.359C376.582 773.904 375.915 773.631 375.217 773.631C372.882 773.631 371.001 776.543 371.001 780.123Z" stroke="#F9F9F9" stroke-width="0.976905" stroke-linecap="round" stroke-linejoin="round"/>
<path d="M389.748 797.475V802.298" stroke="#F9F9F9" stroke-width="0.976905" stroke-linecap="round" stroke-linejoin="round"/>
</g>
<defs>
<filter id="filter0_i_468_1757" x="299.15" y="694.549" width="182.424" height="184.904" filterUnits="userSpaceOnUse" color-interpolation-filters="sRGB">
<feFlood flood-opacity="0" result="BackgroundImageFix"/>
<feBlend mode="normal" in="SourceGraphic" in2="BackgroundImageFix" result="shape"/>
<feColorMatrix in="SourceAlpha" type="matrix" values="0 0 0 0 0 0 0 0 0 0 0 0 0 0 0 0 0 0 127 0" result="hardAlpha"/>
<feOffset dy="2.48051"/>
<feGaussianBlur stdDeviation="1.24025"/>
<feComposite in2="hardAlpha" operator="arithmetic" k2="-1" k3="1"/>
<feColorMatrix type="matrix" values="0 0 0 0 0 0 0 0 0 0 0 0 0 0 0 0 0 0 0.25 0"/>
<feBlend mode="normal" in2="shape" result="effect1_innerShadow_468_1757"/>
</filter>
<filter id="filter1_i_468_1757" x="27.0518" y="528.457" width="417.464" height="315.697" filterUnits="userSpaceOnUse" color-interpolation-filters="sRGB">
<feFlood flood-opacity="0" result="BackgroundImageFix"/>
<feBlend mode="normal" in="SourceGraphic" in2="BackgroundImageFix" result="shape"/>
<feColorMatrix in="SourceAlpha" type="matrix" values="0 0 0 0 0 0 0 0 0 0 0 0 0 0 0 0 0 0 127 0" result="hardAlpha"/>
<feOffset dy="4"/>
<feGaussianBlur stdDeviation="2"/>
<feComposite in2="hardAlpha" operator="arithmetic" k2="-1" k3="1"/>
<feColorMatrix type="matrix" values="0 0 0 0 0 0 0 0 0 0 0 0 0 0 0 0 0 0 0.25 0"/>
<feBlend mode="normal" in2="shape" result="effect1_innerShadow_468_1757"/>
</filter>
<filter id="filter2_i_468_1757" x="57.0889" y="355.916" width="385.25" height="281.877" filterUnits="userSpaceOnUse" color-interpolation-filters="sRGB">
<feFlood flood-opacity="0" result="BackgroundImageFix"/>
<feBlend mode="normal" in="SourceGraphic" in2="BackgroundImageFix" result="shape"/>
<feColorMatrix in="SourceAlpha" type="matrix" values="0 0 0 0 0 0 0 0 0 0 0 0 0 0 0 0 0 0 127 0" result="hardAlpha"/>
<feOffset dy="4"/>
<feGaussianBlur stdDeviation="2"/>
<feComposite in2="hardAlpha" operator="arithmetic" k2="-1" k3="1"/>
<feColorMatrix type="matrix" values="0 0 0 0 0 0 0 0 0 0 0 0 0 0 0 0 0 0 0.25 0"/>
<feBlend mode="normal" in2="shape" result="effect1_innerShadow_468_1757"/>
</filter>
<filter id="filter3_i_468_1757" x="63.4497" y="208.955" width="345.048" height="276.982" filterUnits="userSpaceOnUse" color-interpolation-filters="sRGB">
<feFlood flood-opacity="0" result="BackgroundImageFix"/>
<feBlend mode="normal" in="SourceGraphic" in2="BackgroundImageFix" result="shape"/>
<feColorMatrix in="SourceAlpha" type="matrix" values="0 0 0 0 0 0 0 0 0 0 0 0 0 0 0 0 0 0 127 0" result="hardAlpha"/>
<feOffset dy="4"/>
<feGaussianBlur stdDeviation="2"/>
<feComposite in2="hardAlpha" operator="arithmetic" k2="-1" k3="1"/>
<feColorMatrix type="matrix" values="0 0 0 0 0 0 0 0 0 0 0 0 0 0 0 0 0 0 0.25 0"/>
<feBlend mode="normal" in2="shape" result="effect1_innerShadow_468_1757"/>
</filter>
<filter id="filter4_i_468_1757" x="93.5552" y="71.4199" width="320.873" height="240.434" filterUnits="userSpaceOnUse" color-interpolation-filters="sRGB">
<feFlood flood-opacity="0" result="BackgroundImageFix"/>
<feBlend mode="normal" in="SourceGraphic" in2="BackgroundImageFix" result="shape"/>
<feColorMatrix in="SourceAlpha" type="matrix" values="0 0 0 0 0 0 0 0 0 0 0 0 0 0 0 0 0 0 127 0" result="hardAlpha"/>
<feOffset dy="4"/>
<feGaussianBlur stdDeviation="2"/>
<feComposite in2="hardAlpha" operator="arithmetic" k2="-1" k3="1"/>
<feColorMatrix type="matrix" values="0 0 0 0 0 0 0 0 0 0 0 0 0 0 0 0 0 0 0.25 0"/>
<feBlend mode="normal" in2="shape" result="effect1_innerShadow_468_1757"/>
</filter>
<filter id="filter5_i_468_1757" x="160.954" y="59.1553" width="74.415" height="76.8955" filterUnits="userSpaceOnUse" color-interpolation-filters="sRGB">
<feFlood flood-opacity="0" result="BackgroundImageFix"/>
<feBlend mode="normal" in="SourceGraphic" in2="BackgroundImageFix" result="shape"/>
<feColorMatrix in="SourceAlpha" type="matrix" values="0 0 0 0 0 0 0 0 0 0 0 0 0 0 0 0 0 0 127 0" result="hardAlpha"/>
<feOffset dy="2.48051"/>
<feGaussianBlur stdDeviation="1.24025"/>
<feComposite in2="hardAlpha" operator="arithmetic" k2="-1" k3="1"/>
<feColorMatrix type="matrix" values="0 0 0 0 0 0 0 0 0 0 0 0 0 0 0 0 0 0 0.25 0"/>
<feBlend mode="normal" in2="shape" result="effect1_innerShadow_468_1757"/>
</filter>
<filter id="filter6_i_468_1757" x="172.669" y="69.8594" width="226.141" height="116.049" filterUnits="userSpaceOnUse" color-interpolation-filters="sRGB">
<feFlood flood-opacity="0" result="BackgroundImageFix"/>
<feBlend mode="normal" in="SourceGraphic" in2="BackgroundImageFix" result="shape"/>
<feColorMatrix in="SourceAlpha" type="matrix" values="0 0 0 0 0 0 0 0 0 0 0 0 0 0 0 0 0 0 127 0" result="hardAlpha"/>
<feOffset dy="2.68966"/>
<feGaussianBlur stdDeviation="1.34483"/>
<feComposite in2="hardAlpha" operator="arithmetic" k2="-1" k3="1"/>
<feColorMatrix type="matrix" values="0 0 0 0 0 0 0 0 0 0 0 0 0 0 0 0 0 0 0.25 0"/>
<feBlend mode="normal" in2="shape" result="effect1_innerShadow_468_1757"/>
</filter>
<filter id="filter7_i_468_1757" x="184.103" y="81.293" width="203.273" height="93.1818" filterUnits="userSpaceOnUse" color-interpolation-filters="sRGB">
<feFlood flood-opacity="0" result="BackgroundImageFix"/>
<feBlend mode="normal" in="SourceGraphic" in2="BackgroundImageFix" result="shape"/>
<feColorMatrix in="SourceAlpha" type="matrix" values="0 0 0 0 0 0 0 0 0 0 0 0 0 0 0 0 0 0 127 0" result="hardAlpha"/>
<feOffset dy="2.68966"/>
<feGaussianBlur stdDeviation="1.34483"/>
<feComposite in2="hardAlpha" operator="arithmetic" k2="-1" k3="1"/>
<feColorMatrix type="matrix" values="0 0 0 0 0 0 0 0 0 0 0 0 0 0 0 0 0 0 0.25 0"/>
<feBlend mode="normal" in2="shape" result="effect1_innerShadow_468_1757"/>
</filter>
<filter id="filter8_d_468_1757" x="332.027" y="114.986" width="34.1819" height="36.3015" filterUnits="userSpaceOnUse" color-interpolation-filters="sRGB">
<feFlood flood-opacity="0" result="BackgroundImageFix"/>
<feColorMatrix in="SourceAlpha" type="matrix" values="0 0 0 0 0 0 0 0 0 0 0 0 0 0 0 0 0 0 127 0" result="hardAlpha"/>
<feOffset dx="0.680146" dy="0.680146"/>
<feGaussianBlur stdDeviation="0.226715"/>
<feComposite in2="hardAlpha" operator="out"/>
<feColorMatrix type="matrix" values="0 0 0 0 0.215686 0 0 0 0 0.172549 0 0 0 0 0.305882 0 0 0 0.3 0"/>
<feBlend mode="normal" in2="BackgroundImageFix" result="effect1_dropShadow_468_1757"/>
<feBlend mode="normal" in="SourceGraphic" in2="effect1_dropShadow_468_1757" result="shape"/>
</filter>
<filter id="filter9_d_468_1757" x="108.498" y="253.625" width="41.8817" height="36.6239" filterUnits="userSpaceOnUse" color-interpolation-filters="sRGB">
<feFlood flood-opacity="0" result="BackgroundImageFix"/>
<feColorMatrix in="SourceAlpha" type="matrix" values="0 0 0 0 0 0 0 0 0 0 0 0 0 0 0 0 0 0 127 0" result="hardAlpha"/>
<feOffset dx="0.873572" dy="0.873572"/>
<feGaussianBlur stdDeviation="0.291191"/>
<feComposite in2="hardAlpha" operator="out"/>
<feColorMatrix type="matrix" values="0 0 0 0 0.215686 0 0 0 0 0.172549 0 0 0 0 0.305882 0 0 0 0.3 0"/>
<feBlend mode="normal" in2="BackgroundImageFix" result="effect1_dropShadow_468_1757"/>
<feBlend mode="normal" in="SourceGraphic" in2="effect1_dropShadow_468_1757" result="shape"/>
</filter>
<filter id="filter10_d_468_1757" x="338.742" y="412.871" width="45.9579" height="41.5106" filterUnits="userSpaceOnUse" color-interpolation-filters="sRGB">
<feFlood flood-opacity="0" result="BackgroundImageFix"/>
<feColorMatrix in="SourceAlpha" type="matrix" values="0 0 0 0 0 0 0 0 0 0 0 0 0 0 0 0 0 0 127 0" result="hardAlpha"/>
<feOffset dx="0.873572" dy="0.873572"/>
<feGaussianBlur stdDeviation="0.291191"/>
<feComposite in2="hardAlpha" operator="out"/>
<feColorMatrix type="matrix" values="0 0 0 0 0.215686 0 0 0 0 0.172549 0 0 0 0 0.305882 0 0 0 0.3 0"/>
<feBlend mode="normal" in2="BackgroundImageFix" result="effect1_dropShadow_468_1757"/>
<feBlend mode="normal" in="SourceGraphic" in2="effect1_dropShadow_468_1757" result="shape"/>
</filter>
<filter id="filter11_d_468_1757" x="78.1709" y="576.189" width="34.8173" height="36.6239" filterUnits="userSpaceOnUse" color-interpolation-filters="sRGB">
<feFlood flood-opacity="0" result="BackgroundImageFix"/>
<feColorMatrix in="SourceAlpha" type="matrix" values="0 0 0 0 0 0 0 0 0 0 0 0 0 0 0 0 0 0 127 0" result="hardAlpha"/>
<feOffset dx="0.873572" dy="0.873572"/>
<feGaussianBlur stdDeviation="0.291191"/>
<feComposite in2="hardAlpha" operator="out"/>
<feColorMatrix type="matrix" values="0 0 0 0 0.215686 0 0 0 0 0.172549 0 0 0 0 0.305882 0 0 0 0.3 0"/>
<feBlend mode="normal" in2="BackgroundImageFix" result="effect1_dropShadow_468_1757"/>
<feBlend mode="normal" in="SourceGraphic" in2="effect1_dropShadow_468_1757" result="shape"/>
</filter>
<filter id="filter12_d_468_1757" x="370.497" y="763.07" width="39.9711" height="41.1727" filterUnits="userSpaceOnUse" color-interpolation-filters="sRGB">
<feFlood flood-opacity="0" result="BackgroundImageFix"/>
<feColorMatrix in="SourceAlpha" type="matrix" values="0 0 0 0 0 0 0 0 0 0 0 0 0 0 0 0 0 0 127 0" result="hardAlpha"/>
<feOffset dx="0.873572" dy="0.873572"/>
<feGaussianBlur stdDeviation="0.291191"/>
<feComposite in2="hardAlpha" operator="out"/>
<feColorMatrix type="matrix" values="0 0 0 0 0.215686 0 0 0 0 0.172549 0 0 0 0 0.305882 0 0 0 0.3 0"/>
<feBlend mode="normal" in2="BackgroundImageFix" result="effect1_dropShadow_468_1757"/>
<feBlend mode="normal" in="SourceGraphic" in2="effect1_dropShadow_468_1757" result="shape"/>
</filter>
</defs>
</svg>
