<svg width="115" height="115" viewBox="0 0 115 115" fill="none" xmlns="http://www.w3.org/2000/svg">
<rect width="115" height="115" fill=""/>
<g filter="url(#filter0_dd_403_337)">
<path d="M-375 -1079C-375 -1095.57 -361.569 -1109 -345 -1109H455C471.569 -1109 485 -1095.57 485 -1079V1415C485 1431.57 471.569 1445 455 1445H-345C-361.569 1445 -375 1431.57 -375 1415V-1079Z" fill="#ECECEC"/>
</g>
<g filter="url(#filter1_ii_403_337)">
<path d="M-123.174 71.2303C-120.695 73.7203 -117.747 75.7004 -114.501 77.0504C-111.256 78.4004 -107.781 79.0903 -104.276 79.0903H38.018L38.7648 78.8904C39.5912 78.6504 40.3479 78.1903 40.9553 77.5703L41.3735 77.1404C41.9709 76.5304 42.1302 75.4503 41.6822 74.7203L41.1544 73.9204C34.4933 68.4604 30.2318 60.1603 30.2318 50.8503C30.2318 34.4203 43.4943 21.0905 59.8634 21.0905C76.2226 21.0905 89.4951 34.4103 89.4951 50.8503C89.4951 60.0803 85.3132 68.3304 78.7417 73.7804L78.1542 74.6804C77.7061 75.4104 77.8655 76.4904 78.4629 77.1003L78.8811 77.5304C79.4884 78.1504 80.2452 78.6104 81.0716 78.8503L81.9876 79.0903H223.276C226.79 79.0903 230.265 78.4004 233.501 77.0504C236.747 75.7004 239.695 73.7203 242.174 71.2303C244.653 68.7404 246.625 65.7804 247.969 62.5204C249.313 59.2604 250 55.7704 250 52.2504V-422.11C250 -429.23 247.182 -436.06 242.174 -441.09C237.166 -446.12 230.365 -448.95 223.276 -448.95H73.5043L71.2342 -449.55C70.4078 -449.79 69.651 -450.25 69.0437 -450.87L68.6255 -451.3C68.0281 -451.91 67.8687 -452.99 68.3168 -453.72L68.8445 -454.52C75.5057 -459.98 79.7672 -468.28 79.7672 -477.59C79.7672 -494.02 66.5047 -507.35 50.1356 -507.35C33.7764 -507.35 20.5039 -494.03 20.5039 -477.59C20.5039 -468.36 24.6858 -460.11 31.2573 -454.66L31.8448 -453.76C32.2928 -453.03 32.1335 -451.95 31.5361 -451.34L31.1179 -450.91C30.5106 -450.29 29.7538 -449.83 28.9274 -449.59L26.488 -448.94H-104.266C-111.355 -448.94 -118.156 -446.11 -123.164 -441.08C-128.182 -436.07 -131 -429.24 -131 -422.12V52.2404C-131 55.7704 -130.313 59.2604 -128.969 62.5104C-127.625 65.7804 -125.653 68.7404 -123.174 71.2303Z" fill="#ECECEC"/>
</g>

<g filter="url(#filter2_ii_403_337)">
<path d="M250 106.73C250 99.6102 247.182 92.7802 242.175 87.7502C237.167 82.7202 230.367 79.8902 223.278 79.8902H81.9211L81.0948 79.6702C80.2684 79.4302 79.5118 78.9702 78.9044 78.3502L78.4863 77.9202C77.8889 77.3102 77.7296 76.2302 78.1777 75.5002L78.7651 74.6002C85.3261 69.1402 89.5177 60.8902 89.5177 51.6702C89.5177 35.2402 76.2561 21.9102 59.8883 21.9102C43.5304 21.9102 30.2589 35.2302 30.2589 51.6702C30.2589 60.9802 34.5202 69.2802 41.1808 74.7402L41.7085 75.5402C42.1565 76.2702 41.9972 77.3501 41.3998 77.9601L40.9817 78.3902C40.3743 79.0102 39.6177 79.4701 38.7913 79.7101L38.1342 79.8902H-104.268C-111.357 79.8902 -118.157 82.7202 -123.165 87.7502C-128.172 92.7802 -131 99.6102 -131 106.73V106.84V343.75V581.09V581.2C-131 588.32 -128.182 595.15 -123.175 600.18C-118.167 605.21 -111.367 608.04 -104.278 608.04H37.0789L37.9052 608.26C38.7316 608.5 39.4883 608.96 40.0956 609.58L40.5137 610.01C41.1111 610.62 41.2704 611.7 40.8224 612.43L40.235 613.33C33.6739 618.79 29.4824 627.04 29.4824 636.26C29.4824 652.69 42.7439 666.02 59.1117 666.02C75.4795 666.02 88.7411 652.7 88.7411 636.26C88.7411 626.95 84.4799 618.65 77.8192 613.19L77.2916 612.39C76.8435 611.66 77.0028 610.58 77.6002 609.97L78.0184 609.54C78.6257 608.92 79.3823 608.46 80.2087 608.22L80.8658 608.04H223.228C230.317 608.04 237.117 605.21 242.125 600.18C247.133 595.15 249.95 588.32 249.95 581.2V343.75L250 106.73Z" fill="#ECECEC"/>
</g>
<defs>
<filter id="filter0_dd_403_337" x="-408" y="-1142" width="928" height="2622" filterUnits="userSpaceOnUse" color-interpolation-filters="sRGB">
<feFlood flood-opacity="0" result="BackgroundImageFix"/>
<feColorMatrix in="SourceAlpha" type="matrix" values="0 0 0 0 0 0 0 0 0 0 0 0 0 0 0 0 0 0 127 0" result="hardAlpha"/>
<feOffset dx="10" dy="10"/>
<feGaussianBlur stdDeviation="12.5"/>
<feComposite in2="hardAlpha" operator="out"/>
<feColorMatrix type="matrix" values="0 0 0 0 0.0784314 0 0 0 0 0.121569 0 0 0 0 0.219608 0 0 0 0.2 0"/>
<feBlend mode="normal" in2="BackgroundImageFix" result="effect1_dropShadow_403_337"/>
<feColorMatrix in="SourceAlpha" type="matrix" values="0 0 0 0 0 0 0 0 0 0 0 0 0 0 0 0 0 0 127 0" result="hardAlpha"/>
<feOffset dx="-8" dy="-8"/>
<feGaussianBlur stdDeviation="12.5"/>
<feComposite in2="hardAlpha" operator="out"/>
<feColorMatrix type="matrix" values="0 0 0 0 1 0 0 0 0 1 0 0 0 0 1 0 0 0 1 0"/>
<feBlend mode="normal" in2="effect1_dropShadow_403_337" result="effect2_dropShadow_403_337"/>
<feBlend mode="normal" in="SourceGraphic" in2="effect2_dropShadow_403_337" result="shape"/>
</filter>
<filter id="filter1_ii_403_337" x="-136" y="-512.35" width="390" height="595.44" filterUnits="userSpaceOnUse" color-interpolation-filters="sRGB">
<feFlood flood-opacity="0" result="BackgroundImageFix"/>
<feBlend mode="normal" in="SourceGraphic" in2="BackgroundImageFix" result="shape"/>
<feColorMatrix in="SourceAlpha" type="matrix" values="0 0 0 0 0 0 0 0 0 0 0 0 0 0 0 0 0 0 127 0" result="hardAlpha"/>
<feOffset dx="4" dy="4"/>
<feGaussianBlur stdDeviation="10"/>
<feComposite in2="hardAlpha" operator="arithmetic" k2="-1" k3="1"/>
<feColorMatrix type="matrix" values="0 0 0 0 0.0784314 0 0 0 0 0.121569 0 0 0 0 0.219608 0 0 0 0.15 0"/>
<feBlend mode="normal" in2="shape" result="effect1_innerShadow_403_337"/>
<feColorMatrix in="SourceAlpha" type="matrix" values="0 0 0 0 0 0 0 0 0 0 0 0 0 0 0 0 0 0 127 0" result="hardAlpha"/>
<feOffset dx="-5" dy="-5"/>
<feGaussianBlur stdDeviation="10"/>
<feComposite in2="hardAlpha" operator="arithmetic" k2="-1" k3="1"/>
<feColorMatrix type="matrix" values="0 0 0 0 1 0 0 0 0 1 0 0 0 0 1 0 0 0 1 0"/>
<feBlend mode="normal" in2="effect1_innerShadow_403_337" result="effect2_innerShadow_403_337"/>
</filter>
<filter id="filter2_ii_403_337" x="-136" y="16.9102" width="390" height="653.11" filterUnits="userSpaceOnUse" color-interpolation-filters="sRGB">
<feFlood flood-opacity="0" result="BackgroundImageFix"/>
<feBlend mode="normal" in="SourceGraphic" in2="BackgroundImageFix" result="shape"/>
<feColorMatrix in="SourceAlpha" type="matrix" values="0 0 0 0 0 0 0 0 0 0 0 0 0 0 0 0 0 0 127 0" result="hardAlpha"/>
<feOffset dx="4" dy="4"/>
<feGaussianBlur stdDeviation="10"/>
<feComposite in2="hardAlpha" operator="arithmetic" k2="-1" k3="1"/>
<feColorMatrix type="matrix" values="0 0 0 0 0.0784314 0 0 0 0 0.121569 0 0 0 0 0.219608 0 0 0 0.15 0"/>
<feBlend mode="normal" in2="shape" result="effect1_innerShadow_403_337"/>
<feColorMatrix in="SourceAlpha" type="matrix" values="0 0 0 0 0 0 0 0 0 0 0 0 0 0 0 0 0 0 127 0" result="hardAlpha"/>
<feOffset dx="-5" dy="-5"/>
<feGaussianBlur stdDeviation="10"/>
<feComposite in2="hardAlpha" operator="arithmetic" k2="-1" k3="1"/>
<feColorMatrix type="matrix" values="0 0 0 0 1 0 0 0 0 1 0 0 0 0 1 0 0 0 1 0"/>
<feBlend mode="normal" in2="effect1_innerShadow_403_337" result="effect2_innerShadow_403_337"/>
</filter>
</defs>
</svg>
