<?xml version="1.0" encoding="UTF-8"?>
<svg fill="none" viewBox="0 0 115 115" xmlns="http://www.w3.org/2000/svg">
<rect width="115" height="115" fill=""/>
<g filter="url(#c)">
<path d="m-359-554c0-16.569 13.431-30 30-30h800c16.569 0 30 13.431 30 30v2494c0 16.57-13.431 30-30 30h-800c-16.569 0-30-13.43-30-30v-2494z" fill="#232A34"/>
</g>
<g filter="url(#b)">
<path d="m260-424.15c0-7.12-2.818-13.95-7.825-18.98-5.018-5.04-11.818-7.87-18.907-7.87h-327.54c-7.0891 0-13.889 2.83-18.907 7.86-5.017 5.03-7.825 11.87-7.825 18.99v474.36c0 7.12 2.818 13.95 7.825 18.98 5.008 5.03 11.808 7.86 18.897 7.86h134.82c0.1593-0.13 0.3186-0.27 0.458-0.41l0.4181-0.43c0.5974-0.61 0.7567-1.69 0.3087-2.42l-0.5874-0.9c-6.5611-5.46-10.753-13.71-10.753-22.93 0-16.43 13.262-29.76 29.629-29.76 16.368 0 29.629 13.32 29.629 29.76 0 9.31-4.2612 17.61-10.922 23.07l-0.5277 0.8c-0.448 0.73-0.2887 1.81 0.3086 2.42l0.4182 0.43c0.1294 0.13 0.2688 0.25 0.4082 0.37h153.91c7.089 0 13.889-2.83 18.897-7.86s7.825-11.86 7.825-18.98l0.04-474.36z" fill="#232A34"/>
</g>
<g filter="url(#a)">
<path d="m-113.17 596.23c2.479 2.49 5.427 4.47 8.673 5.82 3.245 1.35 6.7204 2.04 10.225 2.04h142.29l0.7468-0.2c0.8264-0.24 1.5831-0.7 2.1905-1.32l0.4182-0.43c0.5974-0.61 0.7567-1.69 0.3087-2.42l-0.5278-0.8c-6.6611-5.46-10.923-13.76-10.923-23.07 0-16.43 13.262-29.76 29.632-29.76 16.359 0 29.632 13.32 29.632 29.76 0 9.23-4.1819 17.48-10.753 22.93l-0.5875 0.9c-0.4481 0.73-0.2887 1.81 0.3087 2.42l0.4182 0.43c0.6073 0.62 1.3641 1.08 2.1905 1.32l0.916 0.24h141.29c3.514 0 6.989-0.69 10.225-2.04 3.246-1.35 6.194-3.33 8.673-5.82s4.451-5.45 5.795-8.71 2.031-6.75 2.031-10.27v-474.36c0-7.1196-2.818-13.95-7.826-18.98s-11.809-7.86-18.898-7.86h-149.77l-2.2701-0.6c-0.8264-0.24-1.5832-0.7-2.1905-1.32l-0.4182-0.43c-0.5974-0.61-0.7568-1.69-0.3087-2.42l0.5277-0.8c6.6612-5.46 10.923-13.76 10.923-23.07 0-16.43-13.262-29.76-29.632-29.76-16.359 0-29.632 13.32-29.632 29.76 0 9.23 4.1819 17.48 10.753 22.93l0.5875 0.9c0.448 0.73 0.2887 1.81-0.3087 2.42l-0.4182 0.43c-0.6073 0.62-1.3641 1.08-2.1905 1.32l-2.4394 0.65h-130.75c-7.0892 0-13.89 2.83-18.898 7.86-5.018 5.01-7.836 11.84-7.836 18.96v474.36c0 3.53 0.687 7.02 2.031 10.27 1.344 3.27 3.316 6.23 5.795 8.72z" fill="#232A34"/>
</g>
<defs>
<filter id="c" x="-392" y="-617" width="928" height="2622" color-interpolation-filters="sRGB" filterUnits="userSpaceOnUse">
<feFlood flood-opacity="0" result="BackgroundImageFix"/>
<feColorMatrix in="SourceAlpha" result="hardAlpha" values="0 0 0 0 0 0 0 0 0 0 0 0 0 0 0 0 0 0 127 0"/>
<feOffset dx="10" dy="10"/>
<feGaussianBlur stdDeviation="12.5"/>
<feComposite in2="hardAlpha" operator="out"/>
<feColorMatrix values="0 0 0 0 0.0784314 0 0 0 0 0.0784314 0 0 0 0 0.0784314 0 0 0 1 0"/>
<feBlend in2="BackgroundImageFix" result="effect1_dropShadow_403_337"/>
<feColorMatrix in="SourceAlpha" result="hardAlpha" values="0 0 0 0 0 0 0 0 0 0 0 0 0 0 0 0 0 0 127 0"/>
<feOffset dx="-8" dy="-8"/>
<feGaussianBlur stdDeviation="12.5"/>
<feComposite in2="hardAlpha" operator="out"/>
<feColorMatrix values="0 0 0 0 0.207843 0 0 0 0 0.254902 0 0 0 0 0.32549 0 0 0 1 0"/>
<feBlend in2="effect1_dropShadow_403_337" result="effect2_dropShadow_403_337"/>
<feBlend in="SourceGraphic" in2="effect2_dropShadow_403_337" result="shape"/>
</filter>
<filter id="b" x="-126" y="-456" width="390" height="537.05" color-interpolation-filters="sRGB" filterUnits="userSpaceOnUse">
<feFlood flood-opacity="0" result="BackgroundImageFix"/>
<feBlend in="SourceGraphic" in2="BackgroundImageFix" result="shape"/>
<feColorMatrix in="SourceAlpha" result="hardAlpha" values="0 0 0 0 0 0 0 0 0 0 0 0 0 0 0 0 0 0 127 0"/>
<feOffset dx="4" dy="4"/>
<feGaussianBlur stdDeviation="10"/>
<feComposite in2="hardAlpha" k2="-1" k3="1" operator="arithmetic"/>
<feColorMatrix values="0 0 0 0 0.0784314 0 0 0 0 0.0784314 0 0 0 0 0.0784314 0 0 0 1 0"/>
<feBlend in2="shape" result="effect1_innerShadow_403_337"/>
<feColorMatrix in="SourceAlpha" result="hardAlpha" values="0 0 0 0 0 0 0 0 0 0 0 0 0 0 0 0 0 0 127 0"/>
<feOffset dx="-5" dy="-5"/>
<feGaussianBlur stdDeviation="10"/>
<feComposite in2="hardAlpha" k2="-1" k3="1" operator="arithmetic"/>
<feColorMatrix values="0 0 0 0 0.207843 0 0 0 0 0.254902 0 0 0 0 0.32549 0 0 0 1 0"/>
<feBlend in2="effect1_innerShadow_403_337" result="effect2_innerShadow_403_337"/>
</filter>
<filter id="a" x="-126" y="12.65" width="390" height="595.44" color-interpolation-filters="sRGB" filterUnits="userSpaceOnUse">
<feFlood flood-opacity="0" result="BackgroundImageFix"/>
<feBlend in="SourceGraphic" in2="BackgroundImageFix" result="shape"/>
<feColorMatrix in="SourceAlpha" result="hardAlpha" values="0 0 0 0 0 0 0 0 0 0 0 0 0 0 0 0 0 0 127 0"/>
<feOffset dx="4" dy="4"/>
<feGaussianBlur stdDeviation="10"/>
<feComposite in2="hardAlpha" k2="-1" k3="1" operator="arithmetic"/>
<feColorMatrix values="0 0 0 0 0.0784314 0 0 0 0 0.0784314 0 0 0 0 0.0784314 0 0 0 1 0"/>
<feBlend in2="shape" result="effect1_innerShadow_403_337"/>
<feColorMatrix in="SourceAlpha" result="hardAlpha" values="0 0 0 0 0 0 0 0 0 0 0 0 0 0 0 0 0 0 127 0"/>
<feOffset dx="-5" dy="-5"/>
<feGaussianBlur stdDeviation="10"/>
<feComposite in2="hardAlpha" k2="-1" k3="1" operator="arithmetic"/>
<feColorMatrix values="0 0 0 0 0.207843 0 0 0 0 0.254902 0 0 0 0 0.32549 0 0 0 1 0"/>
<feBlend in2="effect1_innerShadow_403_337" result="effect2_innerShadow_403_337"/>
</filter>
</defs>
</svg>