<?xml version="1.0" encoding="UTF-8"?>
<svg fill="none" viewBox="0 0 115 115" xmlns="http://www.w3.org/2000/svg">
<rect width="115" height="115" fill=""/>
<g filter="url(#c)">
<path d="m-371-1656c0-16.57 13.431-30 30-30h800c16.569 0 30 13.43 30 30v2494c0 16.569-13.431 30-30 30h-800c-16.569 0-30-13.431-30-30v-2494z" fill="#232A34"/>
</g>
<g filter="url(#b)">
<path d="m229.44 106.07c-6.066-3.671-13.332-4.787-20.193-3.086l-140.82 34.862c-0.2003 0.226-0.3765 0.465-0.5358 0.732l-0.3018 0.518c-0.432 0.737-0.3277 1.813 0.286 2.423l0.6959 0.651c7.7716 3.679 13.89 10.687 16.138 19.701 3.9675 15.913-5.6632 32.021-21.506 35.971-15.843 3.951-31.909-5.751-35.876-21.664-2.2281-8.936-0.1715-17.931 4.8665-24.804l0.3426-1.013c0.2581-0.817-0.1553-1.816-0.8849-2.273l-0.5098-0.316c-0.314-0.19-0.6498-0.343-0.988-0.465l-138.22 34.215c-3.403 0.838-6.598 2.346-9.423 4.431-2.815 2.083-5.198 4.707-7.004 7.713-1.805 3.006-3.004 6.346-3.522 9.824-0.518 3.479-0.352 7.024 0.49 10.442l113.8 459.54c0.8419 3.417 2.3503 6.628 4.4335 9.468 2.0832 2.841 4.6999 5.229 7.698 7.047 2.9982 1.819 6.327 3.03 9.7932 3.557 3.4662 0.527 6.9974 0.368 10.4-0.47l317.29-78.543c3.403-0.838 6.598-2.346 9.423-4.432 2.816-2.083 5.199-4.707 7.004-7.713s3.005-6.345 3.522-9.824c0.518-3.479 0.353-7.024-0.489-10.442l-113.76-459.52c-1.713-6.911-6.078-12.852-12.147-16.533z" fill="#232A34"/>
</g>
<g filter="url(#a)">
<path d="m248-470.27c0-7.12-2.818-13.95-7.825-18.98-5.008-5.03-11.808-7.86-18.897-7.86h-141.36l-0.8263-0.22c-0.8264-0.24-1.583-0.7-2.1904-1.32l-0.4181-0.43c-0.5974-0.61-0.7567-1.69-0.3086-2.42l0.5874-0.9c6.561-5.46 10.753-13.71 10.753-22.93 0-16.43-13.262-29.76-29.629-29.76-16.358 0-29.629 13.32-29.629 29.76 0 9.31 4.2613 17.61 10.922 23.07l0.5277 0.8c0.448 0.73 0.2887 1.81-0.3087 2.42l-0.4181 0.43c-0.6074 0.62-1.364 1.08-2.1904 1.32l-0.6571 0.18h-142.4c-7.089 0-13.889 2.83-18.897 7.86-5.007 5.03-7.835 11.86-7.835 18.98v474.47c0 7.12 2.818 13.95 7.825 18.98 5.008 5.0301 11.808 7.86 18.897 7.86h141.36l0.8263 0.22c0.8264 0.24 1.5831 0.6999 2.1904 1.3199l0.4181 0.4301c0.5974 0.61 0.7567 1.6901 0.3087 2.42l-0.5874 0.8999c-6.5611 5.4601-10.753 13.71-10.753 22.93 0 16.43 13.262 29.76 29.629 29.76s29.629-13.32 29.629-29.76c0-9.31-4.2612-17.61-10.922-23.07l-0.5276-0.7999c-0.4481-0.73-0.2888-1.8101 0.3086-2.42l0.4182-0.43c0.6073-0.62 1.3639-1.0801 2.1903-1.32l0.6571-0.18h142.36c7.089 0 13.889-2.8299 18.897-7.86 5.008-5.03 7.825-11.86 7.825-18.98v-237.45l0.05-237.02z" fill="#232A34"/>
</g>
<defs>
<filter id="c" x="-404" y="-1719" width="928" height="2622" color-interpolation-filters="sRGB" filterUnits="userSpaceOnUse">
<feFlood flood-opacity="0" result="BackgroundImageFix"/>
<feColorMatrix in="SourceAlpha" result="hardAlpha" values="0 0 0 0 0 0 0 0 0 0 0 0 0 0 0 0 0 0 127 0"/>
<feOffset dx="10" dy="10"/>
<feGaussianBlur stdDeviation="12.5"/>
<feComposite in2="hardAlpha" operator="out"/>
<feColorMatrix values="0 0 0 0 0.0784314 0 0 0 0 0.0784314 0 0 0 0 0.0784314 0 0 0 1 0"/>
<feBlend in2="BackgroundImageFix" result="effect1_dropShadow_403_337"/>
<feColorMatrix in="SourceAlpha" result="hardAlpha" values="0 0 0 0 0 0 0 0 0 0 0 0 0 0 0 0 0 0 127 0"/>
<feOffset dx="-8" dy="-8"/>
<feGaussianBlur stdDeviation="12.5"/>
<feComposite in2="hardAlpha" operator="out"/>
<feColorMatrix values="0 0 0 0 0.207843 0 0 0 0 0.254902 0 0 0 0 0.32549 0 0 0 1 0"/>
<feBlend in2="effect1_dropShadow_403_337" result="effect2_dropShadow_403_337"/>
<feBlend in="SourceGraphic" in2="effect2_dropShadow_403_337" result="shape"/>
</filter>
<filter id="b" x="-133.31" y="97.209" width="493.44" height="600.64" color-interpolation-filters="sRGB" filterUnits="userSpaceOnUse">
<feFlood flood-opacity="0" result="BackgroundImageFix"/>
<feBlend in="SourceGraphic" in2="BackgroundImageFix" result="shape"/>
<feColorMatrix in="SourceAlpha" result="hardAlpha" values="0 0 0 0 0 0 0 0 0 0 0 0 0 0 0 0 0 0 127 0"/>
<feOffset dx="4" dy="4"/>
<feGaussianBlur stdDeviation="10"/>
<feComposite in2="hardAlpha" k2="-1" k3="1" operator="arithmetic"/>
<feColorMatrix values="0 0 0 0 0.0784314 0 0 0 0 0.0784314 0 0 0 0 0.0784314 0 0 0 1 0"/>
<feBlend in2="shape" result="effect1_innerShadow_403_337"/>
<feColorMatrix in="SourceAlpha" result="hardAlpha" values="0 0 0 0 0 0 0 0 0 0 0 0 0 0 0 0 0 0 127 0"/>
<feOffset dx="-5" dy="-5"/>
<feGaussianBlur stdDeviation="10"/>
<feComposite in2="hardAlpha" k2="-1" k3="1" operator="arithmetic"/>
<feColorMatrix values="0 0 0 0 0.207843 0 0 0 0 0.254902 0 0 0 0 0.32549 0 0 0 1 0"/>
<feBlend in2="effect1_innerShadow_403_337" result="effect2_innerShadow_403_337"/>
</filter>
<filter id="a" x="-138" y="-560.09" width="390" height="653.11" color-interpolation-filters="sRGB" filterUnits="userSpaceOnUse">
<feFlood flood-opacity="0" result="BackgroundImageFix"/>
<feBlend in="SourceGraphic" in2="BackgroundImageFix" result="shape"/>
<feColorMatrix in="SourceAlpha" result="hardAlpha" values="0 0 0 0 0 0 0 0 0 0 0 0 0 0 0 0 0 0 127 0"/>
<feOffset dx="4" dy="4"/>
<feGaussianBlur stdDeviation="10"/>
<feComposite in2="hardAlpha" k2="-1" k3="1" operator="arithmetic"/>
<feColorMatrix values="0 0 0 0 0.0784314 0 0 0 0 0.0784314 0 0 0 0 0.0784314 0 0 0 1 0"/>
<feBlend in2="shape" result="effect1_innerShadow_403_337"/>
<feColorMatrix in="SourceAlpha" result="hardAlpha" values="0 0 0 0 0 0 0 0 0 0 0 0 0 0 0 0 0 0 127 0"/>
<feOffset dx="-5" dy="-5"/>
<feGaussianBlur stdDeviation="10"/>
<feComposite in2="hardAlpha" k2="-1" k3="1" operator="arithmetic"/>
<feColorMatrix values="0 0 0 0 0.207843 0 0 0 0 0.254902 0 0 0 0 0.32549 0 0 0 1 0"/>
<feBlend in2="effect1_innerShadow_403_337" result="effect2_innerShadow_403_337"/>
</filter>
</defs>
</svg>
