<svg width="25" height="24" viewBox="0 0 25 24" fill="none" xmlns="http://www.w3.org/2000/svg">
<path d="M20.5809 21C18.4309 21 16.3352 20.525 14.2939 19.575C12.2525 18.625 10.4442 17.3583 8.86886 15.775C7.29353 14.1917 6.02686 12.379 5.06886 10.337C4.11086 8.295 3.63153 6.19933 3.63086 4.05V3.525C3.63086 3.34167 3.64753 3.16667 3.68086 3H9.53086L10.4559 8.025L7.60586 10.9C8.30586 12.1 9.18519 13.225 10.2439 14.275C11.3025 15.325 12.4649 16.2333 13.7309 17L16.6309 14.1L21.6309 15.1V20.95C21.4642 20.9667 21.2892 20.9793 21.1059 20.988C20.9225 20.9967 20.7475 21.0007 20.5809 21Z" fill="white"/>
</svg>
