<svg width="61" height="58" viewBox="0 0 61 58" fill="none" xmlns="http://www.w3.org/2000/svg">
<g id="Group 553">
<path id="Vector" d="M42.5258 29.8927C40.6294 29.8931 38.7553 29.5052 37.0326 28.7556C35.3099 28.006 33.7795 26.9126 32.5466 25.5505C31.3138 24.1885 30.4078 22.5902 29.891 20.8655C29.3741 19.1409 29.2588 17.3309 29.5528 15.5601C29.8468 13.7893 30.5433 12.0997 31.5942 10.6076C32.6451 9.11555 34.0256 7.85637 35.6406 6.91674C37.2556 5.97712 39.0669 5.37936 40.9497 5.16459C42.8325 4.94982 44.7422 5.12314 46.5474 5.67263L48.4984 6.26608L47.0818 7.08112C48.1632 9.24476 50.8997 12.2601 53.4907 13.2213L54.3868 11.8294L55.0143 13.6756C55.6517 15.5366 55.8141 17.5138 55.4884 19.4455C55.1626 21.3773 54.3579 23.2088 53.14 24.7903C51.922 26.3719 50.3255 27.6586 48.4807 28.5454C46.636 29.4322 44.5955 29.8939 42.5258 29.8927ZM42.5229 6.84984C41.718 6.84982 40.9154 6.93083 40.1286 7.09151C37.9479 7.53979 35.9574 8.59087 34.4103 10.1111C32.8632 11.6314 31.8294 13.5521 31.4402 15.6291C31.051 17.7061 31.3242 19.8456 32.2248 21.7756C33.1255 23.7055 34.613 25.3387 36.4982 26.4676C38.3835 27.5964 40.5813 28.1699 42.8123 28.115C45.0433 28.0602 47.2066 27.3796 49.0273 26.1597C50.8479 24.9398 52.2437 23.2358 53.037 21.2642C53.8303 19.2927 53.9855 17.1426 53.4827 15.0875C49.8033 14.1032 46.1085 9.80671 45.0685 7.12406C44.2337 6.94175 43.3797 6.84976 42.5229 6.84984Z" fill="#D75EFF"/>
<path id="Vector_2" d="M42.5437 29.8688C40.1271 29.8681 37.7574 29.2377 35.6953 28.0468C33.6331 26.8559 31.9583 25.1507 30.855 23.1185L32.524 22.309C33.6756 24.4339 35.55 26.1309 37.8457 27.1269C40.1413 28.123 42.7247 28.3602 45.1803 27.8005C47.6359 27.2407 49.8209 25.9166 51.3838 24.041C52.9467 22.1654 53.7967 19.8474 53.7969 17.4599C53.7963 15.0726 52.9462 12.7549 51.3832 10.8795C49.8202 9.00408 47.6353 7.68006 45.1799 7.12036C42.7244 6.56067 40.1412 6.79782 37.8456 7.79369C35.55 8.78956 33.6755 10.4863 32.5236 12.6109L30.8554 11.8007C31.9184 9.83685 33.5159 8.17622 35.4835 6.98969C37.451 5.80317 39.7176 5.13362 42.0498 5.04995C44.3821 4.96628 46.6958 5.47151 48.7529 6.51365C50.8099 7.55578 52.536 9.09718 53.7535 10.9792C54.971 12.8612 55.6359 15.0159 55.6798 17.2214C55.7237 19.427 55.145 21.6038 54.0032 23.5277C52.8615 25.4517 51.1979 27.0533 49.1838 28.1679C47.1697 29.2824 44.8777 29.8695 42.5437 29.8688Z" fill="#D75EFF"/>
<path id="Vector_3" d="M42.5255 29.8929C40.0163 29.8956 37.5588 29.2189 35.4437 27.9429L34.7437 27.5188L35.1056 26.811C35.8221 25.4102 38.2175 24.6858 41.0617 25.0054C44.3114 25.3731 46.6082 26.9533 46.446 28.6956V29.018L45.9866 29.458L45.7357 29.5179C44.686 29.7672 43.6078 29.8932 42.5255 29.8929ZM37.5841 27.0489C39.6506 27.9965 41.9732 28.327 44.2432 27.9966C43.7018 27.5149 42.5241 26.9561 40.8393 26.7657C39.7459 26.6129 38.6297 26.71 37.5841 27.0489Z" fill="#D75EFF"/>
<path id="Vector_4" d="M33.705 11.9324C33.1337 11.9511 32.569 11.8128 32.0792 11.5342L31.2612 11.0291L31.8287 10.2774C33.7255 7.76633 36.5433 6.01256 39.7333 5.35768L40.6806 5.16516L40.8535 6.06607C41.1209 7.46002 39.8633 9.28781 37.7243 10.6142C36.5425 11.4024 35.1493 11.8593 33.705 11.9324ZM38.5222 7.53897C37.0341 8.07256 35.6831 8.8992 34.5589 9.96402C34.5183 10.0025 34.478 10.0416 34.4377 10.0807C35.2436 9.8937 36.008 9.5727 36.695 9.1327L36.6957 9.13235C37.4008 8.70912 38.0195 8.16939 38.5222 7.53897Z" fill="#D75EFF"/>
<path id="Vector_5" d="M44.1485 21.3242C43.3974 21.317 42.6612 21.1253 42.0121 20.7678C40.8939 20.1481 40.0362 19.1825 39.5841 18.0342C38.5628 15.5313 39.5698 12.8247 41.8293 12.0011C42.4035 11.7992 43.0185 11.7225 43.6284 11.7766C44.2383 11.8307 44.8275 12.0141 45.3519 12.3134C46.4703 12.933 47.3279 13.8986 47.78 15.0469C48.2608 16.1846 48.3111 17.4444 47.9225 18.6132C47.7463 19.1677 47.4401 19.6775 47.0266 20.1046C46.6131 20.5318 46.1031 20.8654 45.5344 21.0805C45.0923 21.2419 44.6224 21.3245 44.1485 21.3242ZM43.2122 13.5318C42.9703 13.5311 42.7303 13.5728 42.5045 13.6547C41.2099 14.1269 40.6849 15.8052 41.3344 17.3965C41.63 18.1623 42.1961 18.8082 42.9371 19.2253C43.2171 19.4019 43.5379 19.5124 43.8725 19.5474C44.2071 19.5824 44.5457 19.5409 44.8598 19.4264C45.1739 19.3119 45.4543 19.1277 45.6774 18.8894C45.9005 18.6512 46.0597 18.3657 46.1417 18.0571C46.3943 17.2777 46.3547 16.4397 46.0296 15.6847C45.7342 14.9187 45.1681 14.2726 44.427 13.8555C44.0585 13.6501 43.6399 13.5385 43.2122 13.5318Z" fill="#D75EFF"/>
<path id="Vector_6" d="M48.9662 25.9005C48.5606 25.9064 48.1642 25.7852 47.839 25.556C46.7851 24.8012 46.8558 23.1528 48.0031 21.7217C48.4491 21.1465 49.0445 20.6898 49.7318 20.3957C50.0681 20.2366 50.4433 20.1657 50.8184 20.1903C51.1935 20.2149 51.5548 20.3341 51.8646 20.5355C52.9185 21.2907 52.8474 22.9391 51.7001 24.3701C51.2542 24.9452 50.6589 25.4018 49.9718 25.6959C49.6544 25.8267 49.3125 25.8963 48.9662 25.9005ZM50.7213 21.9613C50.2344 22.1158 49.808 22.4053 49.4978 22.7922C49.1876 23.1791 49.008 23.6454 48.9823 24.1302C49.487 24.0104 49.9244 23.7134 50.2055 23.2996C50.5512 22.9317 50.7356 22.4532 50.7213 21.9613Z" fill="#D75EFF"/>
<path id="Vector_7" d="M35.0837 21.6444C33.7496 21.6444 32.5869 20.4415 32.3799 18.7896C32.2757 18.0506 32.4075 17.299 32.7583 16.6312C32.9147 16.2924 33.1621 15.9982 33.4761 15.7778C33.7901 15.5574 34.1596 15.4186 34.548 15.3751C34.9364 15.3316 35.33 15.3849 35.6898 15.5297C36.0496 15.6746 36.363 15.906 36.5988 16.2008C37.1051 16.7726 37.4191 17.4743 37.5007 18.2159C37.6049 18.955 37.4731 19.7066 37.1223 20.3744C36.9562 20.7066 36.7059 20.9951 36.3937 21.2142C36.0815 21.4333 35.717 21.5763 35.3325 21.6305C35.2499 21.6398 35.1669 21.6444 35.0837 21.6444ZM34.791 17.1343C34.7837 17.1343 34.7764 17.1346 34.7691 17.1353C34.6551 17.1481 34.5214 17.27 34.4196 17.4539C34.2456 17.8053 34.184 18.1971 34.2423 18.5812C34.3489 19.4295 34.8639 19.8979 35.1119 19.8702C35.2255 19.8574 35.3592 19.7356 35.4611 19.5517C35.6253 19.1976 35.6865 18.8084 35.6384 18.4244C35.5902 18.0405 35.4344 17.6756 35.187 17.3676C35.0924 17.2439 34.9502 17.1602 34.791 17.1343Z" fill="#D75EFF"/>
<path id="Vector_8" d="M18.4572 52.6349C16.1647 52.6322 13.9129 52.0628 11.9253 50.9831C9.93762 49.9035 8.28337 48.3512 7.12677 46.4804C5.97016 44.6096 5.35143 42.4854 5.33201 40.3187C5.3126 38.152 5.89318 36.0182 7.0161 34.1292V34.1226L7.14798 33.9097C7.71286 33.0136 8.39333 32.1872 9.17377 31.4497C11.298 29.4416 14.0867 28.1829 17.0744 27.8836C20.062 27.5843 23.0679 28.2625 25.5903 29.8051C28.1128 31.3477 29.9991 33.6613 30.9346 36.3598C31.8701 39.0582 31.7981 41.9783 30.7306 44.6327C30.3221 45.658 29.7682 46.6262 29.084 47.5106C28.6778 48.0388 28.2286 48.5361 27.7403 48.998C26.5245 50.1546 25.0779 51.0716 23.4844 51.6959C21.8909 52.3202 20.1822 52.6393 18.4572 52.6349ZM8.82026 34.7216L8.76128 34.8175C7.59302 36.6843 7.06132 38.8458 7.23846 41.0083C7.43519 43.5509 8.59291 45.9419 10.5002 47.7447C11.5447 48.733 12.7851 49.517 14.1503 50.0519C15.5156 50.5868 16.979 50.8622 18.457 50.8622C19.9349 50.8622 21.3983 50.587 22.7636 50.0521C24.1289 49.5172 25.3693 48.7333 26.4138 47.745C26.8331 47.348 27.219 46.9207 27.5681 46.4671C28.1528 45.7113 28.6262 44.8839 28.9752 44.0077L28.977 44.0032C29.8917 41.7281 29.9531 39.2254 29.1512 36.9126C28.3493 34.5999 26.7325 32.6169 24.5706 31.2948C22.4087 29.9726 19.8325 29.3912 17.2718 29.6475C14.7111 29.9037 12.3209 30.9823 10.4999 32.7031C9.85727 33.3106 9.29343 33.9882 8.82026 34.7216Z" fill="#D75EFF"/>
<path id="Vector_9" d="M18.4522 57.1971C16.0979 57.2012 13.7659 56.7655 11.5902 55.915C9.41461 55.0646 7.43825 53.8161 5.77473 52.2414L5.7436 52.212C4.07793 50.6377 2.75664 48.7688 1.85518 46.7119C0.953722 44.655 0.489746 42.4504 0.489746 40.224C0.489746 37.9976 0.953722 35.7931 1.85518 33.7362C2.75664 31.6793 4.07793 29.8103 5.7436 28.2361L5.77473 28.2066C9.14113 25.0319 13.7025 23.2489 18.4581 23.2489C23.2136 23.2489 27.775 25.0319 31.1414 28.2066L31.1725 28.2361C34.1847 31.083 38.2701 32.6825 42.5299 32.6825C46.7898 32.6825 50.8752 31.083 53.8873 28.2361L53.9185 28.2066C55.4099 26.797 56.593 25.1235 57.4002 23.2817C58.2074 21.4399 58.6228 19.4658 58.6228 17.4722C58.6228 15.4787 58.2074 13.5046 57.4002 11.6628C56.593 9.82099 55.4099 8.14748 53.9185 6.73782L53.8873 6.7084C50.8752 3.86142 46.7898 2.26201 42.5299 2.26201C38.2701 2.26201 34.1847 3.86142 31.1725 6.7084L29.8464 5.455C31.512 3.88067 33.4894 2.63184 35.6656 1.77981C37.8419 0.927789 40.1744 0.489258 42.5299 0.489258C44.8855 0.489258 47.218 0.927789 49.3942 1.77981C51.5705 2.63184 53.5478 3.88067 55.2134 5.455L55.2446 5.48442C58.6034 8.66629 60.4897 12.9775 60.4897 17.4722C60.4897 21.9669 58.6034 26.2781 55.2446 29.46L55.2134 29.4894C53.5478 31.0638 51.5705 32.3126 49.3942 33.1646C47.218 34.0166 44.8855 34.4552 42.5299 34.4552C40.1744 34.4552 37.8419 34.0166 35.6656 33.1646C33.4894 32.3126 31.512 31.0638 29.8464 29.4894L29.8153 29.46C26.8007 26.6174 22.7163 25.0211 18.4581 25.0211C14.1998 25.0211 10.1154 26.6174 7.10084 29.46L7.0697 29.4894C4.05755 32.3364 2.36533 36.1978 2.36533 40.224C2.36533 44.2503 4.05755 48.1116 7.0697 50.9586L7.10084 50.988C8.59228 52.3977 10.3629 53.5159 12.3116 54.2788C14.2602 55.0418 16.3488 55.4344 18.4581 55.4344C20.5673 55.4344 22.6559 55.0418 24.6046 54.2788C26.5532 53.5159 28.3239 52.3977 29.8153 50.988L31.1571 52.2265C29.4902 53.8051 27.5097 55.0569 25.3294 55.9099C23.149 56.7629 20.8119 57.2003 18.4522 57.1971Z" fill="#D75EFF"/>
<path id="Vector_10" d="M30.3254 8.53747C31.7512 8.53747 32.907 7.44499 32.907 6.09735C32.907 4.74971 31.7512 3.65723 30.3254 3.65723C28.8995 3.65723 27.7437 4.74971 27.7437 6.09735C27.7437 7.44499 28.8995 8.53747 30.3254 8.53747Z" fill="#D75EFF"/>
<path id="Vector_11" d="M52.9075 43.6162C55.521 43.6162 57.6396 41.6138 57.6396 39.1436C57.6396 36.6734 55.521 34.6709 52.9075 34.6709C50.294 34.6709 48.1753 36.6734 48.1753 39.1436C48.1753 41.6138 50.294 43.6162 52.9075 43.6162Z" fill="#D75EFF"/>
<path id="Vector_12" d="M5.07763 23.8369C7.09369 23.8369 8.72802 22.2922 8.72802 20.3867C8.72802 18.4812 7.09369 16.9365 5.07763 16.9365C3.06158 16.9365 1.42725 18.4812 1.42725 20.3867C1.42725 22.2922 3.06158 23.8369 5.07763 23.8369Z" fill="#D75EFF"/>
<path id="Vector_13" d="M31.6906 53.3793C33.1164 53.3793 34.2723 52.2868 34.2723 50.9391C34.2723 49.5915 33.1164 48.499 31.6906 48.499C30.2648 48.499 29.1089 49.5915 29.1089 50.9391C29.1089 52.2868 30.2648 53.3793 31.6906 53.3793Z" fill="#D75EFF"/>
<path id="Vector_14" d="M25.6072 37.1166C25.1973 37.1166 24.7998 37.1069 24.4203 37.0937C22.4854 37.0789 20.5636 36.7913 18.7184 36.2403C18.251 36.0872 17.7979 35.9089 17.3601 35.7365C16.7748 35.4909 16.1733 35.2816 15.5592 35.1098C13.8485 34.6729 11.9073 34.8598 10.1944 35.0264C9.48444 35.0935 8.77269 35.1638 8.0609 35.2414L6.17725 35.447L7.14728 33.9073C7.71216 33.0112 8.39263 32.1849 9.17307 31.4473C10.6928 30.0118 12.5619 28.9506 14.6165 28.3569C16.6712 27.7631 18.8486 27.6549 20.9578 28.0417C23.0669 28.4285 25.0435 29.2985 26.7141 30.5754C28.3848 31.8523 29.6984 33.4972 30.5398 35.3657L30.9435 36.2662L29.9555 36.5578C29.7075 36.6308 29.4592 36.6997 29.2075 36.7575C28.027 37.0136 26.8182 37.1341 25.6072 37.1166ZM13.1092 33.0656C14.1004 33.0535 15.089 33.1655 16.049 33.3987C16.7421 33.5899 17.4211 33.8243 18.0814 34.1002C18.5122 34.2698 18.9192 34.4301 19.3331 34.5655C21.003 35.0566 22.7404 35.3116 24.4892 35.3224C25.7754 35.3962 27.0662 35.3299 28.3364 35.1247C27.4979 33.674 26.3133 32.428 24.8766 31.4854C23.4399 30.5427 21.7906 29.9295 20.0595 29.6942C18.3284 29.459 16.5631 29.6082 14.9036 30.13C13.2441 30.6519 11.7361 31.5321 10.4992 32.7007C10.3058 32.8838 10.1193 33.0732 9.9398 33.2689L10.0054 33.2626C11.0357 33.1467 12.0717 33.0809 13.1092 33.0656Z" fill="#D75EFF"/>
<path id="Vector_15" d="M18.4575 52.6346C15.1429 52.635 11.9508 51.4498 9.52277 49.3171C7.0947 47.1844 5.61048 44.2623 5.3683 41.1377L5.31006 40.3719L6.10389 40.2084C6.36801 40.1541 6.6314 40.1001 6.89918 40.0492C9.19312 39.6036 11.6578 39.239 14.1012 39.5918C15.6123 39.8551 17.0925 40.2582 18.5202 40.7953C18.8411 40.9047 19.162 41.0145 19.4836 41.1204C22.8921 42.2233 26.409 43.0006 29.9814 43.4406L31.1438 43.5915L30.7317 44.6299C30.3231 45.6561 29.7689 46.6251 29.0843 47.5103C28.6781 48.0384 28.2289 48.5358 27.7406 48.9977C26.5248 50.1542 25.0782 51.0712 23.4847 51.6955C21.8912 52.3198 20.1825 52.639 18.4575 52.6346ZM7.32632 41.7758C7.67916 44.0357 8.79195 46.1283 10.5002 47.7443C11.5447 48.7326 12.7851 49.5166 14.1504 50.0515C15.5157 50.5864 16.9791 50.8618 18.4571 50.8618C19.935 50.8619 21.3985 50.5866 22.7638 50.0517C24.1292 49.5168 25.3696 48.7329 26.4141 47.7447C26.8334 47.3476 27.2194 46.9203 27.5684 46.4667C27.9201 46.0113 28.2322 45.5299 28.5018 45.027C25.2247 44.5606 21.9994 43.8133 18.8656 42.7941C18.537 42.6858 18.2099 42.5743 17.8828 42.4625C16.5699 41.9654 15.2087 41.591 13.8187 41.3444C11.6834 41.0363 9.43819 41.3676 7.32632 41.7758Z" fill="#D75EFF"/>
<path id="Vector_16" d="M18.4579 52.6356C15.9067 52.635 13.4109 51.932 11.2756 50.6124C9.14027 49.2927 7.45799 47.4137 6.43437 45.205L5.91162 44.0679L7.21904 43.9679C14.3635 43.4128 21.5546 44.1319 28.418 46.0875L29.854 46.512L29.0854 47.5106C28.679 48.039 28.2295 48.5365 27.741 48.9987C26.5252 50.1552 25.0786 51.0722 23.4851 51.6965C21.8916 52.3208 20.1829 52.64 18.4579 52.6356ZM8.77337 45.644C9.64716 47.0398 10.8472 48.2282 12.2816 49.1183C13.716 50.0084 15.3468 50.5765 17.0493 50.7794C18.7517 50.9822 20.4807 50.8143 22.1039 50.2885C23.7272 49.7626 25.2016 48.8929 26.4146 47.7457C26.512 47.6532 26.6079 47.5592 26.7021 47.4635C20.8716 45.9333 14.8147 45.3186 8.77337 45.644Z" fill="#D75EFF"/>
</g>
</svg>
