<svg width="61" height="61" viewBox="0 0 61 61" fill="none" xmlns="http://www.w3.org/2000/svg">
<g id="Group 551">
<path id="Vector" d="M17.9036 25.9298C17.5665 25.9304 17.2325 25.8645 16.921 25.7357C16.6094 25.607 16.3263 25.418 16.088 25.1796L16.0878 25.1792L1.24056 10.3317C0.759614 9.84984 0.489502 9.19681 0.489502 8.51598C0.489502 7.83515 0.759614 7.18212 1.24056 6.70022L6.34705 1.59354C6.82904 1.11276 7.48203 0.842773 8.16281 0.842773C8.84358 0.842773 9.49657 1.11276 9.97856 1.59354L24.8258 16.441C25.3068 16.9229 25.5769 17.5759 25.5769 18.2568C25.5769 18.9376 25.3068 19.5906 24.8258 20.0725L19.7193 25.1792C19.481 25.4177 19.1979 25.6068 18.8863 25.7356C18.5747 25.8644 18.2408 25.9304 17.9036 25.9298ZM17.4911 23.7754C17.6006 23.8845 17.749 23.9458 17.9036 23.9458C18.0582 23.9458 18.2065 23.8845 18.3161 23.7754L23.4224 18.6691C23.5316 18.5596 23.593 18.4114 23.593 18.2568C23.593 18.1021 23.5316 17.9539 23.4224 17.8444L8.57511 2.99698C8.46564 2.88787 8.31737 2.82659 8.16281 2.82659C8.00824 2.82659 7.85997 2.88787 7.75049 2.99698L2.644 8.10367C2.53477 8.21308 2.47342 8.36137 2.47342 8.51598C2.47342 8.67059 2.53477 8.81888 2.644 8.92829L17.4911 23.7754Z" fill="#0C869D"/>
<path id="Vector_2" d="M4.25504 15.9875C4.05877 15.9875 3.86691 15.9293 3.70372 15.8202C3.54053 15.7112 3.41334 15.5562 3.33824 15.3748C3.26313 15.1935 3.24347 14.994 3.28176 14.8015C3.32004 14.609 3.41454 14.4321 3.55332 14.2933L13.9411 3.90551C14.0332 3.81307 14.1426 3.7397 14.2631 3.6896C14.3836 3.6395 14.5128 3.61365 14.6432 3.61353C14.7737 3.6134 14.903 3.63901 15.0235 3.68889C15.1441 3.73877 15.2536 3.81193 15.3459 3.90419C15.4382 3.99645 15.5113 4.106 15.5612 4.22657C15.6111 4.34714 15.6367 4.47637 15.6366 4.60685C15.6364 4.73732 15.6106 4.8665 15.5605 4.98697C15.5104 5.10745 15.437 5.21687 15.3446 5.30895L4.95676 15.6968C4.86473 15.7891 4.75536 15.8623 4.63493 15.9122C4.5145 15.9621 4.3854 15.9877 4.25504 15.9875Z" fill="#0C869D"/>
<path id="Vector_3" d="M11.1581 22.8907C10.9619 22.8907 10.77 22.8324 10.6068 22.7234C10.4436 22.6143 10.3164 22.4593 10.2413 22.278C10.1662 22.0966 10.1466 21.8971 10.1848 21.7046C10.2231 21.5121 10.3176 21.3353 10.4564 21.1965L20.8442 10.8086C21.0304 10.6231 21.2827 10.519 21.5456 10.5193C21.8084 10.5195 22.0605 10.6241 22.2463 10.81C22.4322 10.9958 22.5368 11.2479 22.537 11.5107C22.5373 11.7736 22.4332 12.0259 22.2477 12.2121L11.8598 22.5999C11.7678 22.6922 11.6584 22.7654 11.538 22.8153C11.4176 22.8652 11.2885 22.8908 11.1581 22.8907Z" fill="#0C869D"/>
<path id="Vector_4" d="M25.7787 45.5903C25.6484 45.5905 25.5193 45.5649 25.3988 45.515C25.2784 45.4651 25.169 45.3919 25.077 45.2996L16.0327 36.2555C15.9405 36.1633 15.8674 36.0539 15.8175 35.9335C15.7676 35.8131 15.7419 35.6841 15.7419 35.5538C15.7419 35.4234 15.7676 35.2944 15.8175 35.174C15.8674 35.0536 15.9405 34.9442 16.0327 34.852L30.9143 19.9705C31.0064 19.8783 31.1158 19.8051 31.2362 19.7553C31.3566 19.7054 31.4857 19.6797 31.616 19.6797C31.7463 19.6797 31.8754 19.7054 31.9958 19.7553C32.1162 19.8051 32.2256 19.8783 32.3177 19.9705L41.362 29.0145C41.4542 29.1067 41.5273 29.2161 41.5772 29.3365C41.6271 29.4569 41.6528 29.5859 41.6528 29.7163C41.6528 29.8466 41.6271 29.9757 41.5772 30.0961C41.5273 30.2165 41.4542 30.3259 41.362 30.418L26.4804 45.2996C26.3884 45.3919 26.279 45.4651 26.1586 45.515C26.0382 45.5649 25.9091 45.5905 25.7787 45.5903ZM18.1381 35.5538L25.7787 43.1944L39.2567 29.7163L31.616 22.0756L18.1381 35.5538Z" fill="#0C869D"/>
<path id="Vector_5" d="M40.6598 30.7095C40.5295 30.7097 40.4004 30.6841 40.2799 30.6342C40.1595 30.5843 40.0501 30.5111 39.9581 30.4187L30.9138 21.3747C30.8216 21.2825 30.7485 21.1731 30.6986 21.0527C30.6487 20.9323 30.623 20.8033 30.623 20.6729C30.623 20.5426 30.6487 20.4135 30.6986 20.2931C30.7485 20.1727 30.8216 20.0633 30.9138 19.9712C33.6172 17.2674 37.5333 17.5505 40.6577 20.6749C43.7823 23.7993 44.0653 27.7154 41.3616 30.4187C41.2695 30.5111 41.1602 30.5843 41.0397 30.6342C40.9193 30.6841 40.7902 30.7097 40.6598 30.7095ZM33.0872 20.7412L40.5918 28.2453C41.995 26.1181 40.899 23.7233 39.2542 22.0783C37.6091 20.4333 35.2147 19.3381 33.0872 20.7412Z" fill="#0C869D"/>
<path id="Vector_6" d="M30.7154 35.5035C29.5852 35.5026 28.4902 35.1099 27.617 34.3923C26.7439 33.6746 26.1465 32.6765 25.9268 31.5678C25.707 30.4592 25.8784 29.3086 26.4118 28.3121C26.9452 27.3157 27.8075 26.535 28.852 26.103C29.8964 25.6711 31.0583 25.6146 32.1397 25.9433C33.2211 26.2719 34.1551 26.9653 34.7826 27.9053C35.4101 28.8453 35.6923 29.9739 35.5811 31.0986C35.4699 32.2233 34.9721 33.2747 34.1727 34.0737C33.719 34.528 33.18 34.8882 32.5867 35.1335C31.9934 35.3789 31.3575 35.5046 30.7154 35.5035ZM30.7154 27.7116C30.2377 27.7116 29.7675 27.8294 29.3462 28.0546C28.9249 28.2798 28.5657 28.6053 28.3003 29.0025C28.0349 29.3997 27.8716 29.8561 27.8248 30.3315C27.7779 30.8069 27.8491 31.2864 28.0319 31.7277C28.2146 32.1691 28.5034 32.5585 28.8727 32.8615C29.2419 33.1645 29.6802 33.3718 30.1487 33.465C30.6171 33.5582 31.1014 33.5345 31.5585 33.3958C32.0156 33.2572 32.4314 33.008 32.7692 32.6702C33.1754 32.264 33.452 31.7464 33.564 31.183C33.6761 30.6196 33.6185 30.0356 33.3987 29.5048C33.1789 28.9741 32.8066 28.5205 32.329 28.2013C31.8514 27.8821 31.2899 27.7117 30.7154 27.7116Z" fill="#0C869D"/>
<path id="Vector_7" d="M29.2451 42.1248C29.1148 42.125 28.9857 42.0994 28.8652 42.0495C28.7448 41.9996 28.6354 41.9263 28.5434 41.834L19.4991 32.7895C19.3134 32.6034 19.2091 32.3511 19.2092 32.088C19.2094 31.825 19.3139 31.5728 19.4999 31.3869C19.6859 31.2009 19.9381 31.0963 20.2011 31.0962C20.4641 31.096 20.7164 31.2003 20.9026 31.3861L29.9469 40.4306C30.0856 40.5694 30.1801 40.7462 30.2184 40.9387C30.2567 41.1312 30.237 41.3308 30.1619 41.5121C30.0868 41.6934 29.9596 41.8484 29.7965 41.9575C29.6333 42.0665 29.4414 42.1248 29.2451 42.1248Z" fill="#0C869D"/>
<path id="Vector_8" d="M44.5826 19.6102C43.9206 19.6099 43.2791 19.38 42.7675 18.9597C42.256 18.5394 41.906 17.9548 41.7771 17.3054C41.6483 16.656 41.7486 15.982 42.061 15.3982C42.3733 14.8145 42.8785 14.3571 43.4902 14.1041C44.102 13.851 44.7826 13.8178 45.4161 14.0103C46.0496 14.2028 46.5967 14.6089 46.9643 15.1596C47.3319 15.7102 47.4972 16.3713 47.432 17.0301C47.3669 17.689 47.0753 18.3048 46.607 18.7728C46.3413 19.0389 46.0258 19.2498 45.6784 19.3935C45.331 19.5372 44.9586 19.6109 44.5826 19.6102ZM44.5826 15.8709C44.3796 15.8711 44.1829 15.9417 44.0261 16.0706C43.8693 16.1995 43.762 16.3788 43.7226 16.578C43.6831 16.7771 43.7139 16.9838 43.8098 17.1627C43.9056 17.3417 44.0605 17.4819 44.2482 17.5595C44.4358 17.637 44.6445 17.6471 44.8387 17.5881C45.0329 17.529 45.2007 17.4044 45.3134 17.2355C45.426 17.0667 45.4767 16.8639 45.4566 16.6619C45.4366 16.4599 45.3472 16.2711 45.2035 16.1276C45.122 16.046 45.0252 15.9814 44.9187 15.9374C44.8121 15.8933 44.6979 15.8707 44.5826 15.8709Z" fill="#0C869D"/>
<path id="Vector_9" d="M52.5951 26.0951C52.3988 26.095 52.2069 26.0368 52.0437 25.9278C51.8806 25.8187 51.7534 25.6637 51.6783 25.4824C51.6032 25.301 51.5835 25.1015 51.6218 24.909C51.6601 24.7165 51.7546 24.5397 51.8933 24.4009C53.8762 22.4168 54.9899 19.7264 54.9895 16.9213C54.989 14.1162 53.8745 11.4262 51.891 9.44272C49.9075 7.45925 47.2174 6.34477 44.4124 6.34437C41.6073 6.34397 38.9169 7.45768 36.9329 9.44058C36.8407 9.53273 36.7313 9.60583 36.6109 9.6557C36.4905 9.70557 36.3615 9.73124 36.2312 9.73124C36.1008 9.73124 35.9718 9.70557 35.8514 9.6557C35.731 9.60582 35.6216 9.53273 35.5294 9.44058C35.4373 9.34842 35.3642 9.23902 35.3143 9.11862C35.2644 8.99822 35.2388 8.86917 35.2388 8.73885C35.2388 8.60853 35.2644 8.47948 35.3143 8.35908C35.3642 8.23868 35.4373 8.12928 35.5294 8.03713C36.6954 6.86758 38.0805 5.93938 39.6055 5.30563C41.1306 4.67188 42.7656 4.34503 44.417 4.34375C46.0685 4.34248 47.704 4.66682 49.23 5.29822C50.756 5.92961 52.1425 6.85567 53.3103 8.02343C54.4781 9.19118 55.4041 10.5777 56.0356 12.1037C56.667 13.6297 56.9913 15.2652 56.9901 16.9167C56.9888 18.5681 56.662 20.2031 56.0282 21.7282C55.3945 23.2532 54.4663 24.6383 53.2968 25.8043C53.2048 25.8966 53.0954 25.9698 52.975 26.0197C52.8545 26.0696 52.7254 26.0952 52.5951 26.0951Z" fill="#0C869D"/>
<path id="Vector_10" d="M48.8855 22.3835C48.6892 22.3835 48.4973 22.3253 48.3342 22.2162C48.171 22.1072 48.0438 21.9522 47.9687 21.7708C47.8936 21.5895 47.8739 21.39 47.9122 21.1975C47.9505 21.005 48.045 20.8281 48.1837 20.6893C49.1837 19.6893 49.7456 18.3331 49.7456 16.9189C49.7456 15.5047 49.1838 14.1484 48.1838 13.1484C47.1839 12.1484 45.8276 11.5866 44.4134 11.5866C42.9992 11.5866 41.6429 12.1483 40.6429 13.1483C40.5508 13.2407 40.4414 13.3141 40.321 13.3642C40.2005 13.4143 40.0713 13.4402 39.9408 13.4403C39.8103 13.4404 39.6811 13.4148 39.5606 13.3649C39.44 13.3151 39.3304 13.2419 39.2382 13.1496C39.1459 13.0574 39.0727 12.9478 39.0229 12.8272C38.973 12.7067 38.9474 12.5775 38.9475 12.447C38.9476 12.3165 38.9735 12.1873 39.0236 12.0668C39.0737 11.9464 39.1471 11.837 39.2395 11.7449C39.9189 11.0654 40.7256 10.5265 41.6133 10.1588C42.5011 9.79105 43.4525 9.6018 44.4134 9.60181C45.3743 9.60181 46.3258 9.79108 47.2135 10.1588C48.1012 10.5265 48.9079 11.0655 49.5873 11.745C50.2667 12.4244 50.8057 13.231 51.1734 14.1188C51.5411 15.0065 51.7304 15.958 51.7304 16.9189C51.7304 17.8798 51.5411 18.8312 51.1734 19.719C50.8056 20.6067 50.2667 21.4133 49.5872 22.0928C49.4952 22.1851 49.3858 22.2583 49.2654 22.3082C49.1449 22.3581 49.0158 22.3837 48.8855 22.3835Z" fill="#0C869D"/>
<path id="Vector_11" d="M42.5604 17.3696L39.2827 20.6472L40.6862 22.0507L43.9638 18.773L42.5604 17.3696Z" fill="#0C869D"/>
<path id="Vector_12" d="M25.9678 27.3141C25.8375 27.3142 25.7084 27.2886 25.5879 27.2387C25.4675 27.1888 25.3581 27.1156 25.2661 27.0233L20.8697 22.6269C20.6841 22.4407 20.5801 22.1884 20.5803 21.9255C20.5806 21.6627 20.6851 21.4106 20.871 21.2247C21.0569 21.0389 21.3089 20.9343 21.5718 20.9341C21.8347 20.9338 22.0869 21.0379 22.2731 21.2234L26.6695 25.6198C26.8083 25.7586 26.9028 25.9355 26.9411 26.128C26.9794 26.3205 26.9597 26.52 26.8846 26.7014C26.8095 26.8827 26.6823 27.0377 26.5191 27.1467C26.356 27.2558 26.1641 27.314 25.9678 27.3141Z" fill="#0C869D"/>
<path id="Vector_13" d="M52.8167 60.8432C52.4795 60.8439 52.1455 60.7779 51.8339 60.649C51.5222 60.5202 51.2392 60.3309 51.0009 60.0923L36.1535 45.2448C35.915 45.0064 35.7259 44.7234 35.5968 44.4119C35.4678 44.1003 35.4014 43.7664 35.4014 43.4293C35.4014 43.0921 35.4678 42.7582 35.5968 42.4467C35.7259 42.1351 35.915 41.8521 36.1535 41.6137L41.2602 36.507C41.4986 36.2686 41.7817 36.0794 42.0932 35.9504C42.4047 35.8213 42.7386 35.7549 43.0758 35.7549C43.413 35.7549 43.747 35.8213 44.0585 35.9504C44.37 36.0794 44.6531 36.2686 44.8915 36.507L59.739 51.3545C60.2199 51.8364 60.49 52.4894 60.49 53.1702C60.49 53.8511 60.2199 54.5041 59.739 54.986L54.6323 60.0923C54.394 60.3308 54.111 60.52 53.7994 60.6489C53.4878 60.7777 53.1539 60.8438 52.8167 60.8432ZM43.0757 37.7399C42.9992 37.7396 42.9234 37.7546 42.8527 37.7839C42.782 37.8131 42.7178 37.8562 42.6638 37.9105L37.5569 43.0171C37.4477 43.1264 37.3864 43.2745 37.3864 43.429C37.3863 43.5835 37.4476 43.7317 37.5567 43.841L52.4044 58.6888C52.5138 58.798 52.6621 58.8592 52.8166 58.8592C52.9711 58.8592 53.1194 58.798 53.2288 58.6888L58.3355 53.5825C58.4446 53.4731 58.5059 53.3248 58.5059 53.1702C58.5059 53.0157 58.4446 52.8674 58.3355 52.7579L43.488 37.9104C43.434 37.8562 43.3697 37.8131 43.299 37.7839C43.2282 37.7546 43.1523 37.7396 43.0757 37.7399Z" fill="#0C869D"/>
<path id="Vector_14" d="M46.3359 58.0685C46.1396 58.0684 45.9477 58.0102 45.7845 57.9012C45.6213 57.7921 45.4942 57.6371 45.419 57.4558C45.3439 57.2744 45.3243 57.0749 45.3626 56.8824C45.4009 56.6899 45.4954 56.5131 45.6341 56.3743L56.022 45.9864C56.2081 45.8007 56.4604 45.6964 56.7235 45.6965C56.9865 45.6967 57.2387 45.8012 57.4246 45.9872C57.6106 46.1732 57.7152 46.4254 57.7153 46.6884C57.7154 46.9514 57.6112 47.2037 57.4254 47.3899L47.0376 57.7777C46.9455 57.87 46.8362 57.9432 46.7157 57.9931C46.5953 58.0431 46.4662 58.0686 46.3359 58.0685Z" fill="#0C869D"/>
<path id="Vector_15" d="M39.432 51.1666C39.2358 51.1666 39.0439 51.1084 38.8807 50.9993C38.7175 50.8902 38.5903 50.7353 38.5152 50.5539C38.4401 50.3726 38.4205 50.173 38.4588 49.9805C38.497 49.788 38.5915 49.6112 38.7303 49.4724L49.1181 39.0846C49.3043 38.8988 49.5566 38.7945 49.8196 38.7947C50.0827 38.7948 50.3349 38.8994 50.5208 39.0853C50.7068 39.2713 50.8114 39.5235 50.8115 39.7865C50.8116 40.0495 50.7074 40.3018 50.5216 40.488L40.1338 50.8758C40.0417 50.9682 39.9324 51.0414 39.8119 51.0913C39.6915 51.1412 39.5624 51.1668 39.432 51.1666Z" fill="#0C869D"/>
<path id="Vector_16" d="M39.4088 40.7536C39.2785 40.7538 39.1494 40.7282 39.0289 40.6783C38.9085 40.6284 38.7991 40.5552 38.7071 40.4629L34.3107 36.0664C34.1246 35.8803 34.02 35.6279 34.02 35.3647C34.02 35.1015 34.1246 34.8491 34.3107 34.663C34.4968 34.4769 34.7492 34.3723 35.0124 34.3723C35.2756 34.3723 35.528 34.4769 35.7141 34.663L40.1106 39.0594C40.2493 39.1982 40.3438 39.375 40.3821 39.5675C40.4204 39.76 40.4007 39.9596 40.3256 40.1409C40.2505 40.3223 40.1233 40.4773 39.9602 40.5863C39.797 40.6954 39.6051 40.7536 39.4088 40.7536Z" fill="#0C869D"/>
<path id="Vector_17" d="M22.1866 46.7926C22.0562 46.7927 21.9271 46.7671 21.8067 46.7172C21.6863 46.6673 21.5769 46.5941 21.4849 46.5018L14.8294 39.8463C14.7372 39.7542 14.6641 39.6448 14.6142 39.5244C14.5643 39.404 14.5386 39.2749 14.5386 39.1446C14.5386 39.0143 14.5642 38.8852 14.6141 38.7648C14.6639 38.6444 14.737 38.535 14.8292 38.4428L17.2261 36.0457C17.4158 35.8665 17.6669 35.7666 17.9279 35.7666C18.1889 35.7666 18.44 35.8665 18.6297 36.0457L25.2852 42.7016C25.3774 42.7938 25.4505 42.9032 25.5004 43.0236C25.5503 43.144 25.576 43.273 25.576 43.4034C25.576 43.5337 25.5503 43.6628 25.5004 43.7832C25.4505 43.9036 25.3774 44.013 25.2852 44.1051L22.8883 46.5018C22.7963 46.5941 22.6869 46.6673 22.5665 46.7172C22.4461 46.7671 22.317 46.7927 22.1866 46.7926ZM16.9347 39.1446L22.1866 44.3966L23.1799 43.4033L17.928 38.1513L16.9347 39.1446Z" fill="#0C869D"/>
</g>
</svg>
