<svg width="226" height="623" viewBox="0 0 226 623" fill="none" xmlns="http://www.w3.org/2000/svg">
<g filter="url(#filter0_i_1073_1003)">
<circle cx="113.097" cy="106.301" r="105.859" fill="#702F8A"/>
</g>
<mask id="path-2-outside-1_1073_1003" maskUnits="userSpaceOnUse" x="-0.224609" y="26.2361" width="227" height="596" fill="black">
<rect fill="white" x="-0.224609" y="26.2361" width="227" height="596"/>
<path fill-rule="evenodd" clip-rule="evenodd" d="M124.045 186.186C124.045 180.042 128.561 174.925 134.402 173.018C161.846 164.056 181.674 138.25 181.674 107.814C181.674 69.9395 150.97 39.2361 113.096 39.2361C75.221 39.2361 44.5176 69.9395 44.5176 107.814C44.5176 138.252 64.3472 164.058 91.7925 173.019C97.634 174.926 102.15 180.043 102.15 186.188L102.15 254.68C102.15 259.901 98.7437 264.387 94.543 267.487C86.8246 273.183 81.8184 282.342 81.8184 292.671C81.8184 302.999 86.8246 312.159 94.543 317.854C98.7437 320.954 102.15 325.441 102.15 330.662L102.15 398.312C102.15 404.7 97.3083 409.977 91.0753 411.373C46.2625 421.41 12.7754 461.429 12.7754 509.27C12.7754 564.676 57.6906 609.591 113.096 609.591C168.502 609.591 213.417 564.676 213.417 509.27C213.417 461.43 179.931 421.412 135.12 411.374C128.887 409.978 124.045 404.7 124.045 398.313L124.045 330.66C124.045 325.44 127.451 320.953 131.652 317.853C139.369 312.158 144.375 302.999 144.375 292.671C144.375 282.343 139.369 273.184 131.652 267.488C127.451 264.388 124.045 259.902 124.045 254.681L124.045 186.186Z"/>
</mask>
<path fill-rule="evenodd" clip-rule="evenodd" d="M124.045 186.186C124.045 180.042 128.561 174.925 134.402 173.018C161.846 164.056 181.674 138.25 181.674 107.814C181.674 69.9395 150.97 39.2361 113.096 39.2361C75.221 39.2361 44.5176 69.9395 44.5176 107.814C44.5176 138.252 64.3472 164.058 91.7925 173.019C97.634 174.926 102.15 180.043 102.15 186.188L102.15 254.68C102.15 259.901 98.7437 264.387 94.543 267.487C86.8246 273.183 81.8184 282.342 81.8184 292.671C81.8184 302.999 86.8246 312.159 94.543 317.854C98.7437 320.954 102.15 325.441 102.15 330.662L102.15 398.312C102.15 404.7 97.3083 409.977 91.0753 411.373C46.2625 421.41 12.7754 461.429 12.7754 509.27C12.7754 564.676 57.6906 609.591 113.096 609.591C168.502 609.591 213.417 564.676 213.417 509.27C213.417 461.43 179.931 421.412 135.12 411.374C128.887 409.978 124.045 404.7 124.045 398.313L124.045 330.66C124.045 325.44 127.451 320.953 131.652 317.853C139.369 312.158 144.375 302.999 144.375 292.671C144.375 282.343 139.369 273.184 131.652 267.488C127.451 264.388 124.045 259.902 124.045 254.681L124.045 186.186Z" fill="#D75EFF"/>
<path d="M124.045 330.66L111.534 330.66L124.045 330.66ZM131.652 317.853L124.222 307.787L131.652 317.853ZM102.15 398.312L89.6391 398.312L102.15 398.312ZM91.0753 411.373L93.8097 423.582L91.0753 411.373ZM94.543 317.854L101.972 307.788L94.543 317.854ZM102.15 330.662L89.6391 330.662L102.15 330.662ZM94.543 267.487L87.1139 257.42L94.543 267.487ZM131.652 267.488L124.222 277.554L131.652 267.488ZM135.12 411.374L132.385 423.583L135.12 411.374ZM124.045 398.313L111.534 398.313L124.045 398.313ZM134.402 173.018L138.286 184.911L134.402 173.018ZM169.162 107.814C169.162 132.678 152.968 153.793 130.518 161.124L138.286 184.911C170.723 174.318 194.185 143.822 194.185 107.814L169.162 107.814ZM113.096 51.7474C144.06 51.7474 169.162 76.8493 169.162 107.814L194.185 107.814C194.185 63.0297 157.88 26.7247 113.096 26.7247L113.096 51.7474ZM57.0289 107.814C57.0289 76.8493 82.1308 51.7474 113.096 51.7474L113.096 26.7247C68.3112 26.7247 32.0062 63.0297 32.0062 107.814L57.0289 107.814ZM95.6757 161.125C73.2244 153.795 57.0289 132.68 57.0289 107.814L32.0062 107.814C32.0062 143.824 55.47 174.321 87.9093 184.912L95.6757 161.125ZM114.662 254.68L114.662 186.188L89.6391 186.188L89.6391 254.68L114.662 254.68ZM87.1139 257.42C76.3371 265.373 69.307 278.202 69.307 292.671L94.3297 292.671C94.3297 286.482 97.3121 280.993 101.972 277.554L87.1139 257.42ZM69.307 292.671C69.307 307.139 76.3371 319.968 87.114 327.921L101.972 307.788C97.3121 304.349 94.3297 298.859 94.3297 292.671L69.307 292.671ZM114.662 398.312L114.662 330.662L89.6391 330.662L89.6391 398.312L114.662 398.312ZM25.2867 509.27C25.2867 467.411 54.5879 432.367 93.8097 423.582L88.3409 399.165C37.937 410.453 0.264052 455.447 0.264052 509.27L25.2867 509.27ZM113.096 597.079C64.6004 597.079 25.2867 557.766 25.2867 509.27L0.264052 509.27C0.264052 571.585 50.7808 622.102 113.096 622.102L113.096 597.079ZM200.906 509.27C200.906 557.766 161.592 597.079 113.096 597.079L113.096 622.102C175.412 622.102 225.929 571.585 225.929 509.27L200.906 509.27ZM132.385 423.583C171.606 432.368 200.906 467.412 200.906 509.27L225.929 509.27C225.929 455.448 188.257 410.455 137.855 399.165L132.385 423.583ZM111.534 330.66L111.534 398.313L136.557 398.313L136.557 330.66L111.534 330.66ZM139.081 327.92C149.857 319.967 156.886 307.139 156.886 292.671L131.864 292.671C131.864 298.859 128.882 304.348 124.222 307.787L139.081 327.92ZM156.886 292.671C156.886 278.203 149.857 265.374 139.081 257.421L124.222 277.554C128.882 280.993 131.864 286.483 131.864 292.671L156.886 292.671ZM111.534 186.186L111.534 254.681L136.557 254.681L136.557 186.186L111.534 186.186ZM136.557 330.66C136.557 330.865 136.474 330.736 136.826 330.182C137.211 329.579 137.944 328.759 139.081 327.92L124.222 307.787C118.468 312.034 111.534 319.793 111.534 330.66L136.557 330.66ZM89.6391 398.312C89.6391 398.318 89.6387 398.314 89.6402 398.307C89.6415 398.3 89.6423 398.3 89.6389 398.309C89.6322 398.326 89.5993 398.401 89.5014 398.514C89.285 398.763 88.8797 399.044 88.3409 399.165L93.8097 423.582C104.912 421.096 114.662 411.38 114.662 398.312L89.6391 398.312ZM87.114 327.921C88.2514 328.761 88.9848 329.58 89.3692 330.184C89.7217 330.737 89.6391 330.866 89.6391 330.662L114.662 330.662C114.662 319.794 107.726 312.034 101.972 307.788L87.114 327.921ZM89.6391 254.68C89.6391 254.475 89.7217 254.604 89.3691 255.158C88.9848 255.761 88.2514 256.581 87.1139 257.42L101.972 277.554C107.726 273.307 114.662 265.547 114.662 254.68L89.6391 254.68ZM139.081 257.421C137.944 256.582 137.211 255.763 136.826 255.159C136.474 254.606 136.557 254.477 136.557 254.681L111.534 254.681C111.534 265.548 118.468 273.308 124.222 277.554L139.081 257.421ZM87.9093 184.912C88.6457 185.153 89.1786 185.568 89.4562 185.909C89.5827 186.065 89.6268 186.167 89.6375 186.196C89.6429 186.21 89.6424 186.212 89.6409 186.204C89.6403 186.201 89.6397 186.197 89.6394 186.193C89.639 186.189 89.6391 186.187 89.6391 186.188L114.662 186.188C114.662 173.534 105.54 164.346 95.6757 161.125L87.9093 184.912ZM137.855 399.165C137.316 399.045 136.911 398.764 136.694 398.514C136.596 398.402 136.563 398.327 136.557 398.309C136.553 398.301 136.554 398.301 136.555 398.308C136.557 398.315 136.557 398.318 136.557 398.313L111.534 398.313C111.534 411.381 121.283 421.096 132.385 423.583L137.855 399.165ZM130.518 161.124C120.655 164.345 111.534 173.533 111.534 186.186L136.557 186.186C136.557 186.186 136.557 186.188 136.556 186.192C136.556 186.195 136.555 186.199 136.555 186.203C136.553 186.211 136.553 186.209 136.558 186.194C136.569 186.166 136.613 186.063 136.739 185.908C137.017 185.567 137.55 185.151 138.286 184.911L130.518 161.124Z" fill="#1B233C" mask="url(#path-2-outside-1_1073_1003)"/>
<g filter="url(#filter1_i_1073_1003)">
<path fill-rule="evenodd" clip-rule="evenodd" d="M124.045 186.186C124.045 180.041 128.561 174.924 134.402 173.017C161.846 164.055 181.674 138.25 181.674 107.813C181.674 69.9388 150.97 39.2354 113.096 39.2354C75.221 39.2354 44.5176 69.9388 44.5176 107.813C44.5176 138.251 64.3472 164.057 91.7925 173.018C97.634 174.925 102.15 180.042 102.15 186.187L102.15 254.679C102.15 259.9 98.7437 264.386 94.543 267.486C86.8246 273.182 81.8184 282.341 81.8184 292.67C81.8184 302.999 86.8246 312.158 94.543 317.854C98.7437 320.954 102.15 325.44 102.15 330.661L102.15 398.311C102.15 404.699 97.3083 409.977 91.0753 411.373C46.2625 421.409 12.7754 461.429 12.7754 509.269C12.7754 564.675 57.6906 609.59 113.096 609.59C168.502 609.59 213.417 564.675 213.417 509.269C213.417 461.429 179.931 421.411 135.12 411.373C128.887 409.977 124.045 404.699 124.045 398.312L124.045 330.659C124.045 325.439 127.451 320.953 131.652 317.853C139.369 312.157 144.375 302.998 144.375 292.67C144.375 282.342 139.369 273.183 131.652 267.487C127.451 264.387 124.045 259.901 124.045 254.681L124.045 186.186Z" fill="#D75EFF"/>
</g>
<path d="M68.9678 499.961H71.2402V518.433H68.9805V504.277H68.9424L62.9248 514.713H61.3887L55.3711 504.277H55.333V518.433H53.0732V499.961H55.3457L62.125 511.907H62.2012L68.9678 499.961ZM85.4082 505.775H87.5156V518.433H85.4971V516.427H85.459C84.9385 517.112 84.3037 517.646 83.542 518.026C82.7803 518.407 81.9424 518.598 81.0283 518.598C80.165 518.598 79.3525 518.445 78.5908 518.141C77.8291 517.836 77.1689 517.404 76.6104 516.846C76.0518 516.3 75.6201 515.627 75.3027 514.814C74.9727 514.015 74.8203 513.139 74.8203 512.187C74.8203 510.955 75.0742 509.838 75.6074 508.835C76.1406 507.845 76.877 507.058 77.8291 506.486C78.7686 505.915 79.835 505.623 81.0156 505.623C81.8789 505.623 82.6914 505.801 83.4404 506.144C84.1895 506.499 84.8242 506.994 85.3574 507.654H85.4082V505.775ZM81.2314 516.668C81.79 516.668 82.3359 516.566 82.8564 516.351C83.3643 516.135 83.8213 515.83 84.2148 515.449C84.5957 515.068 84.9131 514.586 85.1416 514.027C85.3701 513.469 85.4844 512.859 85.4844 512.199C85.4844 511.564 85.3701 510.955 85.1543 510.384C84.9385 509.812 84.6465 509.317 84.2783 508.898C83.8975 508.492 83.4531 508.162 82.9326 507.921C82.3994 507.68 81.8408 507.553 81.2568 507.553C80.0254 507.553 78.9971 507.984 78.1846 508.835C77.3721 509.698 76.9658 510.815 76.9658 512.199C76.9658 513.494 77.3594 514.573 78.1465 515.411C78.9336 516.249 79.9619 516.668 81.2314 516.668ZM92.6572 503.427C92.2256 503.427 91.8701 503.287 91.5908 502.995C91.2988 502.716 91.1592 502.36 91.1592 501.954C91.1592 501.548 91.2988 501.192 91.5908 500.9C91.8701 500.621 92.2256 500.469 92.6572 500.469C92.9238 500.469 93.1777 500.545 93.4062 500.672C93.6348 500.799 93.8125 500.977 93.9521 501.205C94.0791 501.434 94.1553 501.688 94.1553 501.954C94.1553 502.36 94.0029 502.716 93.7109 502.995C93.4189 503.287 93.0635 503.427 92.6572 503.427ZM91.5908 518.433V505.775H93.6855V518.433H91.5908ZM98.0908 518.433V499.288H100.186V518.433H98.0908ZM115.56 511.907C115.56 512.237 115.534 512.517 115.496 512.771H105.771C105.898 513.951 106.355 514.891 107.13 515.602C107.892 516.312 108.844 516.655 109.986 516.655C110.735 516.655 111.408 516.503 112.018 516.198C112.614 515.894 113.122 515.475 113.554 514.954L115.026 516.211C114.455 516.947 113.731 517.531 112.868 517.963C112.005 518.395 111.015 518.598 109.91 518.598C109.021 518.598 108.184 518.445 107.409 518.128C106.635 517.811 105.975 517.366 105.416 516.808C104.857 516.249 104.413 515.563 104.096 514.751C103.766 513.938 103.613 513.062 103.613 512.11C103.613 511.171 103.766 510.308 104.083 509.495C104.388 508.683 104.819 507.997 105.353 507.438C105.886 506.88 106.533 506.436 107.282 506.105C108.019 505.788 108.818 505.623 109.669 505.623C110.824 505.623 111.853 505.902 112.754 506.436C113.643 506.981 114.341 507.73 114.823 508.683C115.306 509.635 115.56 510.714 115.56 511.907ZM109.783 507.565C108.78 507.565 107.917 507.883 107.193 508.505C106.47 509.127 106.013 509.965 105.822 511.019H113.465C113.287 509.978 112.881 509.14 112.233 508.505C111.586 507.883 110.773 507.565 109.783 507.565ZM125.018 505.623C125.259 505.623 125.437 505.636 125.538 505.648V507.972C125.233 507.946 124.954 507.934 124.7 507.934C123.913 507.934 123.228 508.124 122.644 508.505C122.06 508.886 121.615 509.406 121.311 510.066C121.006 510.727 120.854 511.488 120.854 512.326V518.433H118.746V505.775H120.854V507.984H120.904C121.374 507.235 121.958 506.651 122.669 506.245C123.38 505.839 124.154 505.623 125.018 505.623ZM128.382 518.433V499.961H130.642V516.351H139.782V518.433H128.382ZM143.921 503.427C143.489 503.427 143.134 503.287 142.854 502.995C142.562 502.716 142.423 502.36 142.423 501.954C142.423 501.548 142.562 501.192 142.854 500.9C143.134 500.621 143.489 500.469 143.921 500.469C144.188 500.469 144.441 500.545 144.67 500.672C144.898 500.799 145.076 500.977 145.216 501.205C145.343 501.434 145.419 501.688 145.419 501.954C145.419 502.36 145.267 502.716 144.975 502.995C144.683 503.287 144.327 503.427 143.921 503.427ZM142.854 518.433V505.775H144.949V518.433H142.854ZM152.617 518.598C150.421 518.598 149.329 517.29 149.329 514.662V507.604H147.717V505.775H149.329V501.446L151.437 501.218V505.775H155.626V507.604H151.437V514.345C151.437 515.145 151.551 515.729 151.779 516.084C152.008 516.439 152.401 516.617 152.985 516.617C153.646 516.617 154.356 516.401 155.118 515.97L155.677 517.811C155.397 517.963 155.144 518.103 154.902 518.204C154.648 518.306 154.331 518.407 153.925 518.483C153.519 518.56 153.074 518.598 152.617 518.598ZM169.083 511.907C169.083 512.237 169.058 512.517 169.02 512.771H159.295C159.422 513.951 159.879 514.891 160.653 515.602C161.415 516.312 162.367 516.655 163.51 516.655C164.259 516.655 164.932 516.503 165.541 516.198C166.138 515.894 166.646 515.475 167.077 514.954L168.55 516.211C167.979 516.947 167.255 517.531 166.392 517.963C165.528 518.395 164.538 518.598 163.434 518.598C162.545 518.598 161.707 518.445 160.933 518.128C160.158 517.811 159.498 517.366 158.939 516.808C158.381 516.249 157.937 515.563 157.619 514.751C157.289 513.938 157.137 513.062 157.137 512.11C157.137 511.171 157.289 510.308 157.606 509.495C157.911 508.683 158.343 507.997 158.876 507.438C159.409 506.88 160.057 506.436 160.806 506.105C161.542 505.788 162.342 505.623 163.192 505.623C164.348 505.623 165.376 505.902 166.277 506.436C167.166 506.981 167.864 507.73 168.347 508.683C168.829 509.635 169.083 510.714 169.083 511.907ZM163.307 507.565C162.304 507.565 161.44 507.883 160.717 508.505C159.993 509.127 159.536 509.965 159.346 511.019H166.988C166.811 509.978 166.404 509.14 165.757 508.505C165.109 507.883 164.297 507.565 163.307 507.565Z" fill="white"/>
<path d="M107.273 313.407C107.15 313.407 107.028 313.377 106.919 313.319L102.712 311.107L98.4995 313.32C98.3739 313.386 98.2324 313.415 98.0909 313.405C97.9495 313.394 97.8137 313.345 97.6991 313.261C97.5844 313.178 97.4953 313.064 97.442 312.933C97.3886 312.801 97.3731 312.657 97.3971 312.518L98.2033 307.833L94.798 304.513C94.6964 304.414 94.6246 304.289 94.5906 304.151C94.5565 304.013 94.5617 303.869 94.6055 303.734C94.6493 303.599 94.7299 303.479 94.8383 303.388C94.9468 303.296 95.0786 303.237 95.2189 303.217L99.9225 302.532L102.031 298.27C102.094 298.143 102.191 298.036 102.311 297.961C102.432 297.886 102.57 297.847 102.712 297.847C102.854 297.847 102.993 297.886 103.114 297.961C103.234 298.036 103.331 298.143 103.394 298.27L105.498 302.532L110.201 303.217C110.341 303.237 110.473 303.296 110.581 303.388C110.689 303.479 110.77 303.599 110.814 303.734C110.858 303.869 110.863 304.013 110.829 304.151C110.795 304.288 110.723 304.414 110.622 304.513L107.221 307.833L107.294 308.259L107.295 308.26L108.022 312.519C108.041 312.628 108.036 312.74 108.007 312.846C107.977 312.953 107.925 313.052 107.854 313.137C107.783 313.221 107.694 313.289 107.593 313.336C107.493 313.382 107.384 313.407 107.273 313.407ZM96.9616 304.499L99.5509 307.023C99.6392 307.11 99.7052 307.216 99.7433 307.333C99.7814 307.45 99.7903 307.575 99.7693 307.697L99.1567 311.257L102.359 309.576C102.468 309.519 102.589 309.489 102.712 309.489C102.835 309.489 102.957 309.519 103.065 309.576L106.264 311.257L105.655 307.697C105.634 307.576 105.643 307.451 105.681 307.334C105.719 307.216 105.785 307.11 105.873 307.024L108.459 304.499L104.883 303.979C104.761 303.961 104.646 303.914 104.546 303.841C104.446 303.769 104.366 303.673 104.311 303.563L102.711 300.323L101.108 303.564C101.054 303.674 100.973 303.769 100.873 303.842C100.774 303.914 100.658 303.961 100.536 303.979L96.9616 304.499Z" fill="#F9F9F9"/>
<path d="M101.12 290.959L101.595 293.735L100.264 293.035L98.6208 292.172L95.6439 293.735L96.2137 290.424L93.8066 288.077L97.1307 287.593L98.6208 284.581L100.108 287.593L103.432 288.077L101.028 290.424L101.12 290.959Z" fill="#F9F9F9"/>
<path d="M123.755 303.685L124.038 305.343L123.244 304.925L122.263 304.409L120.486 305.343L120.826 303.366L119.389 301.965L121.373 301.676L122.263 299.878L123.15 301.676L125.135 301.965L123.7 303.366L123.755 303.685Z" fill="#F9F9F9"/>
<path d="M106.276 294.556C106.125 294.556 105.978 294.511 105.853 294.428C105.728 294.344 105.631 294.226 105.573 294.087C105.516 293.948 105.501 293.795 105.53 293.648C105.56 293.5 105.632 293.365 105.738 293.258L124.56 274.436C124.703 274.294 124.896 274.214 125.098 274.214C125.299 274.214 125.493 274.294 125.635 274.436C125.778 274.579 125.858 274.772 125.858 274.974C125.858 275.176 125.778 275.369 125.635 275.511L106.813 294.333C106.743 294.404 106.659 294.46 106.567 294.498C106.474 294.537 106.375 294.556 106.276 294.556Z" fill="#F9F9F9"/>
<path d="M113.549 301.191C113.4 301.191 113.254 301.147 113.129 301.065C113.005 300.982 112.907 300.865 112.849 300.727C112.791 300.589 112.775 300.438 112.802 300.291C112.83 300.144 112.9 300.008 113.004 299.901L130.429 281.995C130.498 281.923 130.581 281.866 130.673 281.826C130.765 281.786 130.864 281.764 130.964 281.763C131.064 281.761 131.163 281.779 131.257 281.816C131.35 281.853 131.435 281.908 131.506 281.978C131.578 282.048 131.635 282.131 131.675 282.223C131.714 282.315 131.735 282.414 131.736 282.514C131.737 282.614 131.719 282.714 131.681 282.807C131.644 282.899 131.589 282.984 131.519 283.056L114.094 300.961C114.023 301.034 113.939 301.092 113.845 301.132C113.751 301.171 113.651 301.191 113.549 301.191Z" fill="#F9F9F9"/>
<path d="M128.899 278.225C128.749 278.225 128.603 278.181 128.478 278.098C128.353 278.015 128.256 277.897 128.198 277.759C128.14 277.621 128.124 277.469 128.152 277.322C128.18 277.175 128.251 277.04 128.356 276.933L131.59 273.635C131.732 273.491 131.924 273.409 132.126 273.407C132.327 273.405 132.521 273.484 132.665 273.625C132.809 273.766 132.891 273.958 132.893 274.16C132.895 274.362 132.817 274.556 132.676 274.7L129.441 277.997C129.371 278.069 129.286 278.127 129.193 278.166C129.1 278.205 129 278.225 128.899 278.225Z" fill="#F9F9F9"/>
<path d="M126.141 299.973C125.991 299.973 125.845 299.929 125.72 299.846C125.596 299.763 125.498 299.645 125.44 299.507C125.382 299.369 125.366 299.217 125.394 299.07C125.423 298.923 125.493 298.788 125.598 298.681L128.833 295.383C128.974 295.239 129.166 295.157 129.368 295.155C129.569 295.153 129.764 295.232 129.907 295.373C130.051 295.514 130.133 295.706 130.135 295.908C130.137 296.11 130.059 296.304 129.918 296.448L126.684 299.745C126.613 299.817 126.528 299.875 126.435 299.914C126.342 299.953 126.242 299.973 126.141 299.973Z" fill="#F9F9F9"/>
<path d="M105.539 288.441C105.39 288.441 105.243 288.397 105.119 288.314C104.994 288.231 104.897 288.113 104.839 287.975C104.781 287.837 104.765 287.685 104.793 287.538C104.821 287.391 104.892 287.256 104.997 287.149L108.231 283.851C108.372 283.708 108.564 283.626 108.766 283.624C108.967 283.622 109.161 283.7 109.305 283.841C109.449 283.983 109.531 284.175 109.533 284.376C109.535 284.578 109.457 284.772 109.316 284.916L106.082 288.213C106.011 288.286 105.927 288.343 105.834 288.382C105.741 288.421 105.64 288.441 105.539 288.441Z" fill="#F9F9F9"/>
<path d="M111.348 295.773C111.198 295.773 111.051 295.729 110.926 295.645C110.801 295.562 110.703 295.443 110.646 295.304C110.588 295.165 110.573 295.013 110.602 294.865C110.632 294.718 110.704 294.582 110.81 294.476L124.675 280.612C124.818 280.469 125.011 280.39 125.212 280.39C125.414 280.39 125.607 280.47 125.749 280.612C125.892 280.755 125.972 280.948 125.972 281.149C125.972 281.351 125.892 281.544 125.75 281.686L111.885 295.551C111.815 295.621 111.731 295.678 111.639 295.716C111.547 295.754 111.448 295.774 111.348 295.773Z" fill="#F9F9F9"/>
<path d="M102.268 285.83C102.118 285.83 101.971 285.785 101.846 285.702C101.721 285.618 101.623 285.499 101.566 285.36C101.508 285.222 101.493 285.069 101.522 284.921C101.552 284.774 101.624 284.638 101.73 284.532L108.681 277.581C108.824 277.438 109.017 277.358 109.219 277.358C109.42 277.358 109.614 277.438 109.756 277.581C109.899 277.724 109.979 277.917 109.979 278.118C109.979 278.32 109.899 278.513 109.756 278.656L102.805 285.607C102.735 285.678 102.651 285.734 102.559 285.772C102.467 285.81 102.368 285.83 102.268 285.83Z" fill="#F9F9F9"/>
<path d="M79.2344 115.94C78.2314 115.94 77.2793 115.813 76.3652 115.56C75.4512 115.306 74.6006 114.925 73.8389 114.404C73.0645 113.896 72.3916 113.274 71.833 112.538C71.2617 111.802 70.8174 110.938 70.5 109.923C70.1826 108.92 70.0303 107.828 70.0303 106.647C70.0303 105.606 70.1572 104.604 70.4111 103.651C70.665 102.699 71.0459 101.823 71.5664 101.036C72.0742 100.249 72.6963 99.5762 73.4326 98.9922C74.1562 98.4209 75.0195 97.9766 76.0098 97.6465C77 97.3291 78.0664 97.1641 79.2344 97.1641C80.0977 97.1641 80.9482 97.291 81.7734 97.5195C82.5986 97.7607 83.4238 98.1543 84.2363 98.6875C85.0488 99.2207 85.7725 99.8936 86.4326 100.693L84.7441 102.103C84.0332 101.214 83.1953 100.528 82.2432 100.046C81.291 99.5635 80.2881 99.3223 79.2344 99.3223C77.8506 99.3223 76.6445 99.6396 75.6035 100.262C74.5625 100.896 73.7627 101.76 73.2168 102.864C72.6582 103.969 72.3916 105.226 72.3916 106.647C72.3916 107.511 72.4932 108.323 72.7217 109.072C72.9502 109.834 73.2676 110.494 73.6738 111.065C74.0801 111.637 74.5752 112.132 75.1338 112.538C75.6924 112.944 76.3271 113.262 77.0254 113.465C77.7109 113.681 78.4473 113.782 79.2344 113.782C81.418 113.782 83.2461 112.868 84.7441 111.027L86.4326 112.449C85.5693 113.528 84.5283 114.379 83.335 115.001C82.1416 115.636 80.7705 115.94 79.2344 115.94ZM89.6318 115.801V96.6562H91.7266V115.801H89.6318ZM97.1982 100.795C96.7666 100.795 96.4111 100.655 96.1318 100.363C95.8398 100.084 95.7002 99.7285 95.7002 99.3223C95.7002 98.916 95.8398 98.5605 96.1318 98.2686C96.4111 97.9893 96.7666 97.8369 97.1982 97.8369C97.4648 97.8369 97.7188 97.9131 97.9473 98.04C98.1758 98.167 98.3535 98.3447 98.4932 98.5732C98.6201 98.8018 98.6963 99.0557 98.6963 99.3223C98.6963 99.7285 98.5439 100.084 98.252 100.363C97.96 100.655 97.6045 100.795 97.1982 100.795ZM96.1318 115.801V103.144H98.2266V115.801H96.1318ZM107.926 115.966C106.72 115.966 105.641 115.699 104.688 115.153C103.736 114.62 103 113.858 102.467 112.868C101.934 111.878 101.667 110.761 101.667 109.491C101.667 108.234 101.934 107.104 102.467 106.114C103 105.124 103.749 104.362 104.714 103.804C105.679 103.258 106.771 102.979 108.002 102.979C108.967 102.979 109.906 103.182 110.82 103.562C111.734 103.956 112.496 104.515 113.105 105.238L111.646 106.508C111.239 106.025 110.719 105.632 110.109 105.353C109.5 105.073 108.827 104.921 108.104 104.921C106.834 104.921 105.793 105.353 104.993 106.19C104.193 107.041 103.8 108.133 103.8 109.479C103.8 110.824 104.193 111.929 104.993 112.767C105.793 113.604 106.834 114.023 108.104 114.023C108.814 114.023 109.5 113.896 110.135 113.617C110.77 113.338 111.29 112.97 111.696 112.513L113.156 113.82C112.585 114.455 111.836 114.976 110.922 115.369C110.008 115.775 109.005 115.966 107.926 115.966ZM120.824 109.999H120.786L118.133 112.944V115.801H116.038V96.6562H118.133V110.05H118.171L124.404 103.144H126.956L122.233 108.387L126.981 115.801H124.582L120.824 109.999ZM136.77 115.966C135.703 115.966 134.738 115.801 133.862 115.445C132.986 115.103 132.237 114.607 131.615 113.96C130.98 113.325 130.498 112.513 130.155 111.548C129.8 110.583 129.635 109.491 129.635 108.285V97.3291H131.895V108.12C131.895 109.847 132.326 111.218 133.215 112.259C134.104 113.3 135.284 113.808 136.77 113.808C138.229 113.808 139.41 113.3 140.324 112.284C141.226 111.269 141.683 109.885 141.683 108.12V97.3291H143.942V108.285C143.942 110.659 143.295 112.538 142 113.909C140.705 115.28 138.966 115.966 136.77 115.966ZM154.518 102.991C155.686 102.991 156.752 103.283 157.704 103.854C158.644 104.426 159.38 105.213 159.913 106.203C160.446 107.206 160.713 108.323 160.713 109.555C160.713 110.507 160.548 111.383 160.23 112.183C159.9 112.995 159.469 113.668 158.91 114.214C158.352 114.772 157.704 115.204 156.942 115.509C156.181 115.813 155.368 115.966 154.505 115.966C153.616 115.966 152.816 115.788 152.08 115.433C151.344 115.077 150.709 114.582 150.201 113.922H150.15V120.942H148.056V103.144H150.163V105.01H150.214C150.734 104.362 151.369 103.867 152.105 103.512C152.842 103.169 153.654 102.991 154.518 102.991ZM154.302 114.036C155.571 114.036 156.6 113.617 157.387 112.779C158.174 111.941 158.567 110.862 158.567 109.567C158.567 108.184 158.148 107.066 157.336 106.203C156.523 105.353 155.495 104.921 154.276 104.921C153.489 104.921 152.778 105.137 152.144 105.543C151.496 105.949 150.988 106.508 150.633 107.219C150.265 107.93 150.087 108.717 150.087 109.567C150.087 110.228 150.201 110.837 150.43 111.396C150.658 111.954 150.963 112.437 151.356 112.817C151.737 113.198 152.194 113.503 152.702 113.719C153.21 113.935 153.743 114.036 154.302 114.036Z" fill="white"/>
<defs>
<filter id="filter0_i_1073_1003" x="7.23828" y="0.442383" width="214.846" height="214.845" filterUnits="userSpaceOnUse" color-interpolation-filters="sRGB">
<feFlood flood-opacity="0" result="BackgroundImageFix"/>
<feBlend mode="normal" in="SourceGraphic" in2="BackgroundImageFix" result="shape"/>
<feColorMatrix in="SourceAlpha" type="matrix" values="0 0 0 0 0 0 0 0 0 0 0 0 0 0 0 0 0 0 127 0" result="hardAlpha"/>
<feOffset dx="3.12783" dy="3.12783"/>
<feGaussianBlur stdDeviation="1.56392"/>
<feComposite in2="hardAlpha" operator="arithmetic" k2="-1" k3="1"/>
<feColorMatrix type="matrix" values="0 0 0 0 0 0 0 0 0 0 0 0 0 0 0 0 0 0 0.25 0"/>
<feBlend mode="normal" in2="shape" result="effect1_innerShadow_1073_1003"/>
</filter>
<filter id="filter1_i_1073_1003" x="12.7754" y="39.2354" width="205.642" height="575.355" filterUnits="userSpaceOnUse" color-interpolation-filters="sRGB">
<feFlood flood-opacity="0" result="BackgroundImageFix"/>
<feBlend mode="normal" in="SourceGraphic" in2="BackgroundImageFix" result="shape"/>
<feColorMatrix in="SourceAlpha" type="matrix" values="0 0 0 0 0 0 0 0 0 0 0 0 0 0 0 0 0 0 127 0" result="hardAlpha"/>
<feOffset dx="5" dy="5"/>
<feGaussianBlur stdDeviation="2.5"/>
<feComposite in2="hardAlpha" operator="arithmetic" k2="-1" k3="1"/>
<feColorMatrix type="matrix" values="0 0 0 0 0 0 0 0 0 0 0 0 0 0 0 0 0 0 0.25 0"/>
<feBlend mode="normal" in2="shape" result="effect1_innerShadow_1073_1003"/>
</filter>
</defs>
</svg>
