<svg width="226" height="623" viewBox="0 0 226 623" fill="none" xmlns="http://www.w3.org/2000/svg">
<g filter="url(#filter0_i_1073_968)">
<circle cx="112.902" cy="106.291" r="105.859" fill="#CC03DF"/>
</g>
<mask id="path-2-outside-1_1073_968" maskUnits="userSpaceOnUse" x="-0.419922" y="26.2275" width="227" height="596" fill="black">
<rect fill="white" x="-0.419922" y="26.2275" width="227" height="596"/>
<path fill-rule="evenodd" clip-rule="evenodd" d="M123.85 186.178C123.85 180.033 128.366 174.917 134.207 173.009C161.65 164.047 181.478 138.242 181.478 107.806C181.478 69.9309 150.775 39.2275 112.9 39.2275C75.0257 39.2275 44.3223 69.9309 44.3223 107.806C44.3223 138.243 64.1519 164.049 91.5972 173.01C97.4387 174.918 101.955 180.034 101.955 186.179L101.955 254.671C101.955 259.892 98.5484 264.378 94.3477 267.478C86.6293 273.174 81.623 282.334 81.623 292.662C81.623 302.991 86.6293 312.15 94.3477 317.846C98.5484 320.946 101.955 325.432 101.955 330.653L101.955 398.304C101.955 404.691 97.113 409.969 90.88 411.365C46.0672 421.401 12.5801 461.421 12.5801 509.261C12.5801 564.667 57.4953 609.582 112.901 609.582C168.307 609.582 213.222 564.667 213.222 509.261C213.222 461.422 179.736 421.403 134.925 411.365C128.692 409.969 123.85 404.691 123.85 398.304L123.85 330.652C123.85 325.431 127.256 320.945 131.456 317.845C139.174 312.149 144.18 302.99 144.18 292.662C144.18 282.334 139.174 273.175 131.456 267.479C127.256 264.379 123.85 259.893 123.85 254.673L123.85 186.178Z"/>
</mask>
<path fill-rule="evenodd" clip-rule="evenodd" d="M123.85 186.178C123.85 180.033 128.366 174.917 134.207 173.009C161.65 164.047 181.478 138.242 181.478 107.806C181.478 69.9309 150.775 39.2275 112.9 39.2275C75.0257 39.2275 44.3223 69.9309 44.3223 107.806C44.3223 138.243 64.1519 164.049 91.5972 173.01C97.4387 174.918 101.955 180.034 101.955 186.179L101.955 254.671C101.955 259.892 98.5484 264.378 94.3477 267.478C86.6293 273.174 81.623 282.334 81.623 292.662C81.623 302.991 86.6293 312.15 94.3477 317.846C98.5484 320.946 101.955 325.432 101.955 330.653L101.955 398.304C101.955 404.691 97.113 409.969 90.88 411.365C46.0672 421.401 12.5801 461.421 12.5801 509.261C12.5801 564.667 57.4953 609.582 112.901 609.582C168.307 609.582 213.222 564.667 213.222 509.261C213.222 461.422 179.736 421.403 134.925 411.365C128.692 409.969 123.85 404.691 123.85 398.304L123.85 330.652C123.85 325.431 127.256 320.945 131.456 317.845C139.174 312.149 144.18 302.99 144.18 292.662C144.18 282.334 139.174 273.175 131.456 267.479C127.256 264.379 123.85 259.893 123.85 254.673L123.85 186.178Z" fill="#702F8A"/>
<path d="M123.85 330.652L111.339 330.652L123.85 330.652ZM131.456 317.845L124.027 307.778L131.456 317.845ZM101.955 398.304L89.4437 398.304L101.955 398.304ZM94.3477 317.846L101.777 307.779L94.3477 317.846ZM101.955 330.653L89.4437 330.653L101.955 330.653ZM94.3477 267.478L86.9186 257.411L94.3477 267.478ZM131.456 267.479L124.027 277.546L131.456 267.479ZM91.5972 173.01L87.714 184.904L91.5972 173.01ZM134.925 411.365L132.19 423.574L134.925 411.365ZM123.85 398.304L111.339 398.304L123.85 398.304ZM168.967 107.806C168.967 132.67 152.773 153.785 130.323 161.116L138.091 184.902C170.528 174.31 193.99 143.814 193.99 107.806L168.967 107.806ZM112.9 51.7389C143.865 51.7389 168.967 76.8408 168.967 107.806L193.99 107.806C193.99 63.0211 157.685 26.7162 112.9 26.7162L112.9 51.7389ZM56.8336 107.806C56.8336 76.8408 81.9355 51.7389 112.9 51.7389L112.9 26.7162C68.1158 26.7162 31.8109 63.0211 31.8109 107.806L56.8336 107.806ZM95.4804 161.117C73.0291 153.786 56.8336 132.671 56.8336 107.806L31.8109 107.806C31.8109 143.815 55.2747 174.312 87.714 184.904L95.4804 161.117ZM114.466 254.671L114.466 186.179L89.4437 186.179L89.4437 254.671L114.466 254.671ZM86.9186 257.411C76.1418 265.364 69.1117 278.193 69.1117 292.662L94.1344 292.662C94.1344 286.474 97.1168 280.984 101.777 277.545L86.9186 257.411ZM69.1117 292.662C69.1117 307.131 76.1418 319.96 86.9186 327.913L101.777 307.779C97.1168 304.34 94.1344 298.851 94.1344 292.662L69.1117 292.662ZM114.466 398.304L114.466 330.653L89.4437 330.653L89.4437 398.304L114.466 398.304ZM25.0914 509.261C25.0914 467.403 54.3926 432.358 93.6144 423.574L88.1456 399.156C37.7417 410.445 0.0687399 455.439 0.0687399 509.261L25.0914 509.261ZM112.901 597.071C64.4051 597.071 25.0914 557.757 25.0914 509.261L0.0687399 509.261C0.0687399 571.577 50.5855 622.094 112.901 622.094L112.901 597.071ZM200.711 509.261C200.711 557.757 161.397 597.071 112.901 597.071L112.901 622.094C175.217 622.094 225.733 571.577 225.733 509.261L200.711 509.261ZM132.19 423.574C171.41 432.36 200.711 467.404 200.711 509.261L225.733 509.261C225.733 455.44 188.062 410.447 137.659 399.157L132.19 423.574ZM111.339 330.652L111.339 398.304L136.361 398.304L136.361 330.652L111.339 330.652ZM138.886 327.911C149.662 319.958 156.691 307.13 156.691 292.662L131.668 292.662C131.668 298.85 128.686 304.34 124.027 307.778L138.886 327.911ZM156.691 292.662C156.691 278.194 149.662 265.366 138.886 257.413L124.027 277.546C128.686 280.985 131.668 286.474 131.668 292.662L156.691 292.662ZM111.339 186.178L111.339 254.673L136.361 254.673L136.361 186.178L111.339 186.178ZM136.361 330.652C136.361 330.856 136.279 330.727 136.631 330.174C137.015 329.57 137.749 328.751 138.886 327.911L124.027 307.778C118.273 312.025 111.339 319.785 111.339 330.652L136.361 330.652ZM89.4437 398.304C89.4437 398.309 89.4434 398.306 89.4449 398.298C89.4462 398.292 89.447 398.291 89.4436 398.3C89.4369 398.317 89.404 398.392 89.3061 398.505C89.0897 398.754 88.6844 399.035 88.1456 399.156L93.6144 423.574C104.717 421.087 114.466 411.372 114.466 398.304L89.4437 398.304ZM86.9186 327.913C88.0561 328.752 88.7895 329.572 89.1738 330.175C89.5264 330.729 89.4437 330.857 89.4437 330.653L114.466 330.653C114.466 319.786 107.531 312.026 101.777 307.779L86.9186 327.913ZM89.4437 254.671C89.4437 254.467 89.5264 254.595 89.1738 255.149C88.7895 255.753 88.0561 256.572 86.9186 257.411L101.777 277.545C107.531 273.299 114.466 265.539 114.466 254.671L89.4437 254.671ZM138.886 257.413C137.749 256.573 137.015 255.754 136.631 255.151C136.279 254.597 136.361 254.468 136.361 254.673L111.339 254.673C111.339 265.539 118.273 273.299 124.027 277.546L138.886 257.413ZM87.714 184.904C88.4503 185.144 88.9833 185.559 89.2609 185.901C89.3874 186.056 89.4315 186.159 89.4422 186.187C89.4476 186.202 89.4471 186.204 89.4456 186.196C89.445 186.192 89.4444 186.188 89.4441 186.185C89.4437 186.181 89.4437 186.179 89.4437 186.179L114.466 186.179C114.466 173.526 105.345 164.337 95.4804 161.117L87.714 184.904ZM137.659 399.157C137.121 399.036 136.715 398.755 136.499 398.506C136.401 398.393 136.368 398.318 136.361 398.301C136.358 398.292 136.359 398.292 136.36 398.299C136.362 398.307 136.361 398.31 136.361 398.304L111.339 398.304C111.339 411.372 121.088 421.088 132.19 423.574L137.659 399.157ZM130.323 161.116C120.459 164.337 111.339 173.525 111.339 186.178L136.361 186.178C136.361 186.177 136.361 186.179 136.361 186.183C136.361 186.187 136.36 186.191 136.359 186.194C136.358 186.202 136.357 186.2 136.363 186.186C136.374 186.157 136.418 186.055 136.544 185.899C136.822 185.558 137.355 185.143 138.091 184.902L130.323 161.116Z" fill="#1B233C" mask="url(#path-2-outside-1_1073_968)"/>
<g filter="url(#filter1_i_1073_968)">
<path fill-rule="evenodd" clip-rule="evenodd" d="M123.85 186.178C123.85 180.033 128.366 174.917 134.207 173.009C161.65 164.047 181.478 138.242 181.478 107.806C181.478 69.9309 150.775 39.2275 112.9 39.2275C75.0257 39.2275 44.3223 69.9309 44.3223 107.806C44.3223 138.243 64.1519 164.049 91.5972 173.01C97.4387 174.918 101.955 180.034 101.955 186.179L101.955 254.671C101.955 259.892 98.5484 264.378 94.3477 267.478C86.6293 273.174 81.623 282.334 81.623 292.662C81.623 302.991 86.6293 312.15 94.3477 317.846C98.5484 320.946 101.955 325.432 101.955 330.653L101.955 398.304C101.955 404.691 97.113 409.969 90.88 411.365C46.0672 421.401 12.5801 461.421 12.5801 509.261C12.5801 564.667 57.4953 609.582 112.901 609.582C168.307 609.582 213.222 564.667 213.222 509.261C213.222 461.422 179.736 421.403 134.925 411.365C128.692 409.969 123.85 404.691 123.85 398.304L123.85 330.652C123.85 325.431 127.256 320.945 131.456 317.845C139.174 312.149 144.18 302.99 144.18 292.662C144.18 282.334 139.174 273.175 131.456 267.479C127.256 264.379 123.85 259.893 123.85 254.673L123.85 186.178Z" fill="#702F8A"/>
</g>
<path d="M79.541 520.598C78.5381 520.598 77.5859 520.471 76.6719 520.217C75.7578 519.963 74.9072 519.582 74.1455 519.062C73.3711 518.554 72.6982 517.932 72.1396 517.195C71.5684 516.459 71.124 515.596 70.8066 514.58C70.4893 513.577 70.3369 512.485 70.3369 511.305C70.3369 510.264 70.4639 509.261 70.7178 508.309C70.9717 507.356 71.3525 506.48 71.873 505.693C72.3809 504.906 73.0029 504.233 73.7393 503.649C74.4629 503.078 75.3262 502.634 76.3164 502.304C77.3066 501.986 78.373 501.821 79.541 501.821C80.4043 501.821 81.2549 501.948 82.0801 502.177C82.9053 502.418 83.7305 502.812 84.543 503.345C85.3555 503.878 86.0791 504.551 86.7393 505.351L85.0508 506.76C84.3398 505.871 83.502 505.186 82.5498 504.703C81.5977 504.221 80.5947 503.979 79.541 503.979C78.1572 503.979 76.9512 504.297 75.9102 504.919C74.8691 505.554 74.0693 506.417 73.5234 507.521C72.9648 508.626 72.6982 509.883 72.6982 511.305C72.6982 512.168 72.7998 512.98 73.0283 513.729C73.2568 514.491 73.5742 515.151 73.9805 515.723C74.3867 516.294 74.8818 516.789 75.4404 517.195C75.999 517.602 76.6338 517.919 77.332 518.122C78.0176 518.338 78.7539 518.439 79.541 518.439C81.7246 518.439 83.5527 517.525 85.0508 515.685L86.7393 517.106C85.876 518.186 84.835 519.036 83.6416 519.658C82.4482 520.293 81.0771 520.598 79.541 520.598ZM89.9385 520.458V501.313H92.0332V520.458H89.9385ZM97.5049 505.452C97.0732 505.452 96.7178 505.312 96.4385 505.021C96.1465 504.741 96.0068 504.386 96.0068 503.979C96.0068 503.573 96.1465 503.218 96.4385 502.926C96.7178 502.646 97.0732 502.494 97.5049 502.494C97.7715 502.494 98.0254 502.57 98.2539 502.697C98.4824 502.824 98.6602 503.002 98.7998 503.23C98.9268 503.459 99.0029 503.713 99.0029 503.979C99.0029 504.386 98.8506 504.741 98.5586 505.021C98.2666 505.312 97.9111 505.452 97.5049 505.452ZM96.4385 520.458V507.801H98.5332V520.458H96.4385ZM108.232 520.623C107.026 520.623 105.947 520.356 104.995 519.811C104.043 519.277 103.307 518.516 102.773 517.525C102.24 516.535 101.974 515.418 101.974 514.148C101.974 512.892 102.24 511.762 102.773 510.771C103.307 509.781 104.056 509.02 105.021 508.461C105.985 507.915 107.077 507.636 108.309 507.636C109.273 507.636 110.213 507.839 111.127 508.22C112.041 508.613 112.803 509.172 113.412 509.896L111.952 511.165C111.546 510.683 111.025 510.289 110.416 510.01C109.807 509.73 109.134 509.578 108.41 509.578C107.141 509.578 106.1 510.01 105.3 510.848C104.5 511.698 104.106 512.79 104.106 514.136C104.106 515.481 104.5 516.586 105.3 517.424C106.1 518.262 107.141 518.681 108.41 518.681C109.121 518.681 109.807 518.554 110.441 518.274C111.076 517.995 111.597 517.627 112.003 517.17L113.463 518.478C112.892 519.112 112.143 519.633 111.229 520.026C110.314 520.433 109.312 520.623 108.232 520.623ZM121.131 514.656H121.093L118.439 517.602V520.458H116.345V501.313H118.439V514.707H118.478L124.711 507.801H127.263L122.54 513.044L127.288 520.458H124.889L121.131 514.656ZM137.076 520.623C136.01 520.623 135.045 520.458 134.169 520.103C133.293 519.76 132.544 519.265 131.922 518.617C131.287 517.982 130.805 517.17 130.462 516.205C130.106 515.24 129.941 514.148 129.941 512.942V501.986H132.201V512.777C132.201 514.504 132.633 515.875 133.521 516.916C134.41 517.957 135.591 518.465 137.076 518.465C138.536 518.465 139.717 517.957 140.631 516.941C141.532 515.926 141.989 514.542 141.989 512.777V501.986H144.249V512.942C144.249 515.316 143.602 517.195 142.307 518.566C141.012 519.938 139.272 520.623 137.076 520.623ZM154.824 507.648C155.992 507.648 157.059 507.94 158.011 508.512C158.95 509.083 159.687 509.87 160.22 510.86C160.753 511.863 161.02 512.98 161.02 514.212C161.02 515.164 160.854 516.04 160.537 516.84C160.207 517.652 159.775 518.325 159.217 518.871C158.658 519.43 158.011 519.861 157.249 520.166C156.487 520.471 155.675 520.623 154.812 520.623C153.923 520.623 153.123 520.445 152.387 520.09C151.65 519.734 151.016 519.239 150.508 518.579H150.457V525.6H148.362V507.801H150.47V509.667H150.521C151.041 509.02 151.676 508.524 152.412 508.169C153.148 507.826 153.961 507.648 154.824 507.648ZM154.608 518.693C155.878 518.693 156.906 518.274 157.693 517.437C158.48 516.599 158.874 515.52 158.874 514.225C158.874 512.841 158.455 511.724 157.643 510.86C156.83 510.01 155.802 509.578 154.583 509.578C153.796 509.578 153.085 509.794 152.45 510.2C151.803 510.606 151.295 511.165 150.939 511.876C150.571 512.587 150.394 513.374 150.394 514.225C150.394 514.885 150.508 515.494 150.736 516.053C150.965 516.611 151.27 517.094 151.663 517.475C152.044 517.855 152.501 518.16 153.009 518.376C153.517 518.592 154.05 518.693 154.608 518.693Z" fill="white"/>
<path d="M104.093 290.227C103.868 290.23 103.645 290.189 103.436 290.105C103.228 290.022 103.038 289.898 102.877 289.741L102.877 289.741L92.8673 279.956C92.5431 279.638 92.3581 279.205 92.3529 278.751C92.3478 278.297 92.5229 277.86 92.8399 277.535L96.2053 274.092C96.523 273.768 96.9562 273.583 97.41 273.578C97.8638 273.573 98.3012 273.748 98.6261 274.064L108.636 283.85C108.96 284.167 109.145 284.601 109.15 285.055C109.155 285.508 108.98 285.946 108.663 286.271L105.298 289.713C105.141 289.874 104.953 290.002 104.747 290.091C104.54 290.179 104.318 290.225 104.093 290.227ZM103.802 288.794C103.876 288.866 103.975 288.906 104.078 288.905C104.181 288.904 104.279 288.862 104.352 288.788L107.717 285.346C107.789 285.272 107.829 285.173 107.828 285.069C107.826 284.966 107.784 284.868 107.711 284.796L97.7012 275.011C97.6274 274.939 97.5281 274.899 97.425 274.9C97.322 274.901 97.2236 274.943 97.1515 275.017L93.786 278.46C93.714 278.533 93.6742 278.633 93.6754 278.736C93.6766 278.839 93.7186 278.937 93.7922 279.009L103.802 288.794Z" fill="#F9F9F9"/>
<path d="M94.9191 283.701C94.7883 283.703 94.6599 283.665 94.5503 283.594C94.4407 283.522 94.3547 283.42 94.3033 283.3C94.2519 283.179 94.2373 283.046 94.2613 282.918C94.2854 282.789 94.347 282.671 94.4385 282.577L101.285 275.574C101.345 275.512 101.418 275.462 101.498 275.428C101.578 275.393 101.663 275.375 101.75 275.374C101.837 275.373 101.924 275.389 102.005 275.421C102.085 275.454 102.159 275.502 102.221 275.562C102.283 275.623 102.333 275.696 102.367 275.776C102.401 275.856 102.419 275.942 102.42 276.029C102.421 276.116 102.405 276.202 102.372 276.283C102.34 276.363 102.292 276.437 102.231 276.499L95.3847 283.502C95.324 283.564 95.2517 283.614 95.1718 283.648C95.0919 283.682 95.006 283.7 94.9191 283.701Z" fill="#F9F9F9"/>
<path d="M99.5734 288.252C99.4425 288.254 99.3142 288.216 99.2046 288.145C99.095 288.073 99.009 287.971 98.9576 287.851C98.9061 287.73 98.8915 287.597 98.9156 287.469C98.9397 287.34 99.0013 287.222 99.0928 287.128L105.939 280.125C106.062 280 106.229 279.929 106.404 279.927C106.579 279.925 106.748 279.993 106.874 280.115C106.999 280.238 107.071 280.405 107.073 280.58C107.075 280.755 107.007 280.924 106.885 281.05L100.039 288.053C99.9783 288.115 99.9059 288.165 99.826 288.199C99.7461 288.233 99.6603 288.251 99.5734 288.252Z" fill="#F9F9F9"/>
<path d="M109.492 303.274C109.405 303.275 109.319 303.259 109.238 303.226C109.157 303.194 109.084 303.146 109.022 303.085L102.925 297.125C102.862 297.064 102.813 296.991 102.779 296.912C102.745 296.832 102.726 296.746 102.725 296.659C102.724 296.572 102.741 296.486 102.773 296.405C102.805 296.325 102.853 296.251 102.914 296.189L112.722 286.156C112.782 286.094 112.855 286.045 112.935 286.01C113.015 285.976 113.1 285.958 113.187 285.957C113.274 285.956 113.36 285.972 113.441 286.005C113.522 286.037 113.595 286.085 113.657 286.146L119.755 292.106C119.817 292.167 119.866 292.239 119.901 292.319C119.935 292.399 119.953 292.485 119.954 292.572C119.955 292.659 119.939 292.745 119.906 292.826C119.874 292.906 119.826 292.98 119.765 293.042L109.958 303.075C109.897 303.137 109.824 303.186 109.745 303.221C109.665 303.255 109.579 303.273 109.492 303.274ZM104.323 296.641L109.474 301.676L118.357 292.59L113.205 287.554L104.323 296.641Z" fill="#F9F9F9"/>
<path d="M119.297 293.242C119.211 293.243 119.124 293.227 119.044 293.195C118.963 293.162 118.89 293.114 118.828 293.053L112.73 287.093C112.668 287.032 112.618 286.96 112.584 286.88C112.55 286.8 112.532 286.714 112.531 286.627C112.53 286.54 112.546 286.454 112.579 286.374C112.611 286.293 112.659 286.219 112.72 286.157C114.501 284.335 117.114 284.494 119.22 286.553C121.327 288.612 121.545 291.22 119.763 293.043C119.702 293.105 119.63 293.155 119.55 293.189C119.47 293.223 119.384 293.241 119.297 293.242ZM114.174 286.654L119.234 291.6C120.153 290.171 119.404 288.583 118.295 287.499C117.186 286.415 115.582 285.703 114.174 286.654Z" fill="#F9F9F9"/>
<path d="M112.707 296.513C111.954 296.521 111.221 296.267 110.633 295.796C110.046 295.324 109.64 294.663 109.485 293.926C109.33 293.188 109.436 292.42 109.784 291.752C110.132 291.083 110.701 290.556 111.394 290.261C112.087 289.965 112.861 289.918 113.584 290.129C114.308 290.34 114.936 290.795 115.361 291.417C115.786 292.039 115.983 292.789 115.917 293.54C115.852 294.29 115.528 294.995 115.001 295.534C114.702 295.84 114.345 296.084 113.952 296.252C113.558 296.42 113.135 296.509 112.707 296.513ZM112.648 291.319C112.33 291.322 112.017 291.404 111.738 291.558C111.459 291.711 111.222 291.931 111.048 292.198C110.874 292.464 110.769 292.77 110.741 293.087C110.713 293.404 110.764 293.723 110.89 294.016C111.015 294.309 111.21 294.566 111.459 294.766C111.707 294.965 112.001 295.1 112.314 295.158C112.627 295.217 112.95 295.197 113.253 295.102C113.557 295.006 113.832 294.836 114.055 294.609C114.322 294.335 114.503 293.988 114.573 293.611C114.644 293.235 114.601 292.846 114.45 292.494C114.3 292.142 114.048 291.842 113.728 291.633C113.407 291.424 113.031 291.314 112.648 291.319Z" fill="#F9F9F9"/>
<path d="M111.777 300.937C111.69 300.938 111.604 300.922 111.524 300.89C111.443 300.857 111.369 300.809 111.307 300.749L105.21 294.788C105.085 294.665 105.013 294.498 105.011 294.322C105.01 294.147 105.077 293.978 105.2 293.853C105.322 293.727 105.49 293.656 105.665 293.654C105.84 293.652 106.009 293.719 106.135 293.842L112.232 299.802C112.326 299.894 112.39 300.011 112.417 300.139C112.444 300.267 112.433 300.4 112.384 300.522C112.335 300.643 112.252 300.747 112.144 300.821C112.036 300.895 111.908 300.936 111.777 300.937Z" fill="#F9F9F9"/>
<path d="M121.829 285.812C121.387 285.817 120.958 285.669 120.614 285.392C120.27 285.116 120.032 284.729 119.941 284.297C119.85 283.865 119.912 283.415 120.116 283.024C120.32 282.632 120.653 282.323 121.059 282.15C121.465 281.977 121.918 281.95 122.342 282.073C122.766 282.197 123.134 282.463 123.383 282.827C123.632 283.192 123.747 283.631 123.709 284.071C123.67 284.511 123.481 284.923 123.172 285.239C122.997 285.418 122.788 285.561 122.558 285.66C122.327 285.758 122.079 285.81 121.829 285.812ZM121.801 283.32C121.665 283.321 121.535 283.37 121.431 283.457C121.328 283.544 121.257 283.664 121.233 283.797C121.208 283.931 121.23 284.068 121.295 284.187C121.36 284.305 121.465 284.397 121.59 284.448C121.716 284.498 121.855 284.503 121.984 284.462C122.113 284.422 122.224 284.337 122.298 284.224C122.372 284.11 122.404 283.975 122.389 283.84C122.374 283.706 122.313 283.581 122.216 283.486C122.161 283.432 122.096 283.39 122.025 283.361C121.954 283.333 121.877 283.319 121.801 283.32Z" fill="#F9F9F9"/>
<path d="M127.221 290.075C127.09 290.076 126.961 290.039 126.852 289.967C126.742 289.896 126.656 289.793 126.605 289.673C126.553 289.553 126.539 289.42 126.563 289.291C126.587 289.163 126.649 289.044 126.74 288.95C128.047 287.613 128.769 285.811 128.747 283.941C128.726 282.071 127.963 280.286 126.625 278.979C125.288 277.672 123.487 276.949 121.617 276.97C119.747 276.991 117.962 277.754 116.654 279.091C116.593 279.153 116.521 279.203 116.441 279.237C116.361 279.271 116.275 279.289 116.189 279.29C116.102 279.291 116.015 279.275 115.935 279.242C115.854 279.21 115.781 279.162 115.719 279.101C115.656 279.041 115.607 278.968 115.573 278.888C115.539 278.809 115.521 278.723 115.52 278.636C115.519 278.549 115.535 278.463 115.567 278.382C115.599 278.302 115.647 278.228 115.708 278.166C116.476 277.377 117.393 276.748 118.405 276.314C119.416 275.88 120.504 275.65 121.605 275.637C122.706 275.623 123.798 275.827 124.82 276.237C125.842 276.646 126.774 277.253 127.561 278.022C128.348 278.792 128.976 279.709 129.408 280.722C129.841 281.734 130.069 282.822 130.081 283.923C130.093 285.024 129.887 286.116 129.476 287.138C129.065 288.159 128.457 289.089 127.686 289.875C127.626 289.938 127.553 289.987 127.473 290.021C127.393 290.056 127.308 290.074 127.221 290.075Z" fill="#F9F9F9"/>
<path d="M124.719 287.63C124.589 287.631 124.46 287.594 124.351 287.523C124.241 287.451 124.155 287.349 124.104 287.228C124.052 287.108 124.038 286.975 124.062 286.847C124.086 286.718 124.147 286.599 124.239 286.506C124.898 285.832 125.262 284.923 125.251 283.981C125.241 283.038 124.856 282.138 124.182 281.479C123.508 280.82 122.599 280.456 121.657 280.466C120.714 280.477 119.814 280.862 119.155 281.536C119.094 281.598 119.022 281.648 118.942 281.682C118.862 281.717 118.776 281.735 118.689 281.736C118.602 281.737 118.516 281.721 118.435 281.688C118.354 281.656 118.281 281.608 118.219 281.547C118.156 281.487 118.107 281.414 118.073 281.334C118.039 281.254 118.02 281.168 118.02 281.081C118.019 280.994 118.035 280.908 118.067 280.827C118.1 280.747 118.148 280.673 118.209 280.611C118.657 280.153 119.19 279.788 119.779 279.536C120.368 279.284 121.001 279.151 121.642 279.143C122.282 279.136 122.918 279.255 123.512 279.493C124.107 279.732 124.649 280.085 125.107 280.533C125.565 280.981 125.93 281.514 126.182 282.103C126.434 282.692 126.567 283.325 126.575 283.966C126.582 284.606 126.463 285.242 126.224 285.836C125.986 286.431 125.633 286.973 125.185 287.431C125.124 287.493 125.052 287.543 124.972 287.577C124.892 287.611 124.806 287.629 124.719 287.63Z" fill="#F9F9F9"/>
<path d="M120.465 284.334L118.305 286.544L119.251 287.469L121.411 285.259L120.465 284.334Z" fill="#F9F9F9"/>
<path d="M109.479 291.09C109.393 291.091 109.306 291.075 109.226 291.043C109.145 291.01 109.072 290.963 109.009 290.902L106.046 288.004C105.92 287.881 105.849 287.714 105.847 287.539C105.846 287.364 105.913 287.195 106.036 287.069C106.158 286.944 106.326 286.873 106.501 286.87C106.676 286.868 106.845 286.936 106.97 287.058L109.934 289.955C110.028 290.047 110.092 290.164 110.119 290.292C110.146 290.42 110.135 290.553 110.086 290.675C110.037 290.796 109.954 290.901 109.846 290.974C109.738 291.048 109.61 291.089 109.479 291.09Z" fill="#F9F9F9"/>
<path d="M127.629 313.236C127.404 313.239 127.181 313.198 126.972 313.114C126.764 313.031 126.573 312.907 126.413 312.749L116.403 302.964C116.242 302.807 116.114 302.62 116.026 302.413C115.937 302.206 115.891 301.984 115.888 301.759C115.886 301.535 115.927 301.312 116.011 301.103C116.095 300.894 116.219 300.704 116.376 300.543L119.741 297.101C119.898 296.94 120.086 296.812 120.292 296.723C120.499 296.635 120.721 296.588 120.946 296.586C121.171 296.583 121.394 296.625 121.602 296.708C121.811 296.792 122.001 296.916 122.162 297.073L132.172 306.858C132.496 307.176 132.681 307.609 132.686 308.063C132.691 308.517 132.516 308.954 132.199 309.279L128.834 312.722C128.677 312.883 128.489 313.011 128.283 313.099C128.076 313.187 127.854 313.234 127.629 313.236ZM120.961 297.909C120.91 297.909 120.859 297.92 120.813 297.94C120.766 297.96 120.723 297.989 120.688 298.026L117.322 301.468C117.25 301.542 117.21 301.641 117.211 301.744C117.212 301.847 117.254 301.946 117.328 302.018L127.338 311.803C127.412 311.875 127.511 311.915 127.614 311.914C127.717 311.912 127.815 311.87 127.887 311.797L131.253 308.354C131.325 308.281 131.365 308.181 131.363 308.078C131.362 307.975 131.32 307.877 131.247 307.805L121.237 298.019C121.201 297.984 121.157 297.955 121.11 297.936C121.063 297.917 121.012 297.908 120.961 297.909Z" fill="#F9F9F9"/>
<path d="M123.29 311.436C123.159 311.438 123.031 311.4 122.921 311.329C122.812 311.257 122.726 311.155 122.674 311.035C122.623 310.914 122.608 310.781 122.632 310.653C122.656 310.524 122.718 310.406 122.81 310.312L129.656 303.309C129.778 303.184 129.946 303.112 130.121 303.11C130.296 303.108 130.465 303.176 130.591 303.299C130.716 303.421 130.788 303.589 130.79 303.764C130.792 303.939 130.724 304.108 130.602 304.234L123.756 311.237C123.695 311.299 123.623 311.349 123.543 311.383C123.463 311.417 123.377 311.435 123.29 311.436Z" fill="#F9F9F9"/>
<path d="M118.636 306.887C118.505 306.889 118.377 306.851 118.267 306.78C118.157 306.708 118.072 306.606 118.02 306.486C117.969 306.365 117.954 306.233 117.978 306.104C118.002 305.975 118.064 305.857 118.155 305.763L125.001 298.76C125.124 298.635 125.292 298.563 125.467 298.561C125.642 298.56 125.811 298.627 125.936 298.75C126.062 298.872 126.133 299.04 126.136 299.215C126.138 299.39 126.07 299.559 125.948 299.685L119.101 306.688C119.041 306.75 118.968 306.8 118.889 306.834C118.809 306.868 118.723 306.886 118.636 306.887Z" fill="#F9F9F9"/>
<path d="M118.541 299.947C118.454 299.948 118.368 299.932 118.287 299.899C118.206 299.867 118.133 299.819 118.071 299.758L115.107 296.861C114.981 296.738 114.91 296.57 114.908 296.395C114.906 296.219 114.974 296.05 115.096 295.925C115.219 295.799 115.386 295.728 115.562 295.726C115.737 295.724 115.906 295.792 116.032 295.914L118.996 298.812C119.089 298.903 119.154 299.02 119.181 299.149C119.208 299.277 119.196 299.41 119.147 299.531C119.099 299.653 119.015 299.757 118.907 299.831C118.799 299.905 118.672 299.945 118.541 299.947Z" fill="#F9F9F9"/>
<path d="M107.107 304.104C107.02 304.105 106.934 304.089 106.854 304.056C106.773 304.024 106.699 303.976 106.637 303.915L102.15 299.529C102.088 299.468 102.039 299.396 102.005 299.316C101.97 299.236 101.952 299.15 101.951 299.063C101.95 298.976 101.966 298.89 101.999 298.81C102.031 298.729 102.079 298.655 102.14 298.593L103.719 296.977C103.845 296.856 104.011 296.788 104.185 296.786C104.359 296.784 104.527 296.849 104.655 296.967L109.142 301.353C109.204 301.414 109.254 301.486 109.288 301.566C109.322 301.646 109.34 301.732 109.341 301.819C109.342 301.906 109.326 301.992 109.294 302.073C109.261 302.153 109.213 302.227 109.153 302.289L107.573 303.905C107.512 303.967 107.44 304.017 107.36 304.051C107.28 304.085 107.194 304.103 107.107 304.104ZM103.549 299.045L107.089 302.507L107.744 301.837L104.203 298.376L103.549 299.045Z" fill="#F9F9F9"/>
<path d="M90.6221 95.3203H93.0342L87.1309 113.792H84.9473L80.6816 98.6592H80.6309L76.3018 113.792H74.1182L68.2148 95.3203H70.6396L75.1846 110.072H75.2354L79.4121 95.3203H81.8623L86.0137 110.11H86.0645L90.6221 95.3203ZM105.514 107.267C105.514 107.597 105.488 107.876 105.45 108.13H95.7256C95.8525 109.311 96.3096 110.25 97.084 110.961C97.8457 111.672 98.7979 112.015 99.9404 112.015C100.689 112.015 101.362 111.862 101.972 111.558C102.568 111.253 103.076 110.834 103.508 110.313L104.98 111.57C104.409 112.307 103.686 112.891 102.822 113.322C101.959 113.754 100.969 113.957 99.8643 113.957C98.9756 113.957 98.1377 113.805 97.3633 113.487C96.5889 113.17 95.9287 112.726 95.3701 112.167C94.8115 111.608 94.3672 110.923 94.0498 110.11C93.7197 109.298 93.5674 108.422 93.5674 107.47C93.5674 106.53 93.7197 105.667 94.0371 104.854C94.3418 104.042 94.7734 103.356 95.3066 102.798C95.8398 102.239 96.4873 101.795 97.2363 101.465C97.9727 101.147 98.7725 100.982 99.623 100.982C100.778 100.982 101.807 101.262 102.708 101.795C103.597 102.341 104.295 103.09 104.777 104.042C105.26 104.994 105.514 106.073 105.514 107.267ZM99.7373 102.925C98.7344 102.925 97.8711 103.242 97.1475 103.864C96.4238 104.486 95.9668 105.324 95.7764 106.378H103.419C103.241 105.337 102.835 104.499 102.188 103.864C101.54 103.242 100.728 102.925 99.7373 102.925ZM115.213 100.982C116.381 100.982 117.447 101.274 118.399 101.846C119.339 102.417 120.075 103.204 120.608 104.194C121.142 105.197 121.408 106.314 121.408 107.546C121.408 108.498 121.243 109.374 120.926 110.174C120.596 110.986 120.164 111.659 119.605 112.205C119.047 112.764 118.399 113.195 117.638 113.5C116.876 113.805 116.063 113.957 115.2 113.957C114.273 113.957 113.436 113.779 112.674 113.398C111.912 113.018 111.277 112.484 110.77 111.786H110.731V113.792H108.713V94.6475H110.82V103.014H110.871C111.392 102.354 112.026 101.858 112.775 101.503C113.524 101.16 114.337 100.982 115.213 100.982ZM114.997 112.027C116.267 112.027 117.295 111.608 118.082 110.771C118.869 109.933 119.263 108.854 119.263 107.559C119.263 106.175 118.844 105.058 118.031 104.194C117.219 103.344 116.19 102.912 114.972 102.912C114.172 102.912 113.448 103.128 112.801 103.534C112.153 103.94 111.646 104.499 111.29 105.21C110.922 105.921 110.744 106.708 110.744 107.559C110.744 108.219 110.858 108.828 111.087 109.387C111.315 109.945 111.62 110.428 112.014 110.809C112.395 111.189 112.852 111.494 113.372 111.71C113.88 111.926 114.426 112.027 114.997 112.027ZM128.505 113.957C126.562 113.957 124.912 113.348 123.541 112.129L124.633 110.529C125.166 111.037 125.725 111.405 126.334 111.659C126.943 111.913 127.667 112.04 128.505 112.04C129.241 112.04 129.825 111.888 130.257 111.558C130.688 111.24 130.904 110.834 130.904 110.352C130.904 110.225 130.892 110.11 130.866 109.996C130.841 109.895 130.79 109.793 130.714 109.691C130.638 109.59 130.562 109.514 130.498 109.438C130.422 109.361 130.32 109.285 130.168 109.196C130.016 109.12 129.889 109.044 129.787 108.993C129.686 108.942 129.521 108.866 129.317 108.79C129.102 108.714 128.924 108.65 128.797 108.6C128.67 108.549 128.467 108.473 128.2 108.371C128.061 108.333 127.959 108.295 127.896 108.27C127.413 108.117 127.02 107.965 126.689 107.812C126.359 107.673 126.029 107.495 125.674 107.267C125.318 107.038 125.026 106.797 124.823 106.543C124.607 106.289 124.43 105.984 124.29 105.604C124.15 105.235 124.087 104.829 124.087 104.372C124.087 103.407 124.48 102.607 125.28 101.96C126.067 101.312 127.07 100.982 128.276 100.982C129.901 100.982 131.361 101.503 132.631 102.544L131.539 104.207C130.523 103.331 129.394 102.887 128.175 102.887C127.667 102.887 127.21 103.026 126.816 103.306C126.423 103.585 126.232 103.94 126.232 104.372C126.232 104.613 126.283 104.829 126.397 105.02C126.512 105.223 126.689 105.4 126.931 105.553C127.172 105.718 127.413 105.857 127.667 105.972C127.908 106.086 128.226 106.213 128.632 106.365C129.978 106.898 130.803 107.229 131.082 107.355C131.945 107.787 132.517 108.32 132.796 108.942C132.961 109.336 133.05 109.793 133.05 110.326C133.05 110.834 132.948 111.304 132.758 111.735C132.567 112.167 132.288 112.561 131.92 112.891C131.552 113.221 131.069 113.487 130.485 113.678C129.901 113.868 129.241 113.957 128.505 113.957ZM137.379 98.7861C136.947 98.7861 136.592 98.6465 136.312 98.3545C136.021 98.0752 135.881 97.7197 135.881 97.3135C135.881 96.9072 136.021 96.5518 136.312 96.2598C136.592 95.9805 136.947 95.8281 137.379 95.8281C137.646 95.8281 137.899 95.9043 138.128 96.0312C138.356 96.1582 138.534 96.3359 138.674 96.5645C138.801 96.793 138.877 97.0469 138.877 97.3135C138.877 97.7197 138.725 98.0752 138.433 98.3545C138.141 98.6465 137.785 98.7861 137.379 98.7861ZM136.312 113.792V101.135H138.407V113.792H136.312ZM146.075 113.957C143.879 113.957 142.787 112.649 142.787 110.021V102.963H141.175V101.135H142.787V96.8057L144.895 96.5771V101.135H149.084V102.963H144.895V109.704C144.895 110.504 145.009 111.088 145.237 111.443C145.466 111.799 145.859 111.977 146.443 111.977C147.104 111.977 147.814 111.761 148.576 111.329L149.135 113.17C148.855 113.322 148.602 113.462 148.36 113.563C148.106 113.665 147.789 113.767 147.383 113.843C146.977 113.919 146.532 113.957 146.075 113.957ZM162.541 107.267C162.541 107.597 162.516 107.876 162.478 108.13H152.753C152.88 109.311 153.337 110.25 154.111 110.961C154.873 111.672 155.825 112.015 156.968 112.015C157.717 112.015 158.39 111.862 158.999 111.558C159.596 111.253 160.104 110.834 160.535 110.313L162.008 111.57C161.437 112.307 160.713 112.891 159.85 113.322C158.986 113.754 157.996 113.957 156.892 113.957C156.003 113.957 155.165 113.805 154.391 113.487C153.616 113.17 152.956 112.726 152.397 112.167C151.839 111.608 151.395 110.923 151.077 110.11C150.747 109.298 150.595 108.422 150.595 107.47C150.595 106.53 150.747 105.667 151.064 104.854C151.369 104.042 151.801 103.356 152.334 102.798C152.867 102.239 153.515 101.795 154.264 101.465C155 101.147 155.8 100.982 156.65 100.982C157.806 100.982 158.834 101.262 159.735 101.795C160.624 102.341 161.322 103.09 161.805 104.042C162.287 104.994 162.541 106.073 162.541 107.267ZM156.765 102.925C155.762 102.925 154.898 103.242 154.175 103.864C153.451 104.486 152.994 105.324 152.804 106.378H160.446C160.269 105.337 159.862 104.499 159.215 103.864C158.567 103.242 157.755 102.925 156.765 102.925Z" fill="white"/>
<defs>
<filter id="filter0_i_1073_968" x="7.04297" y="0.432617" width="214.846" height="214.845" filterUnits="userSpaceOnUse" color-interpolation-filters="sRGB">
<feFlood flood-opacity="0" result="BackgroundImageFix"/>
<feBlend mode="normal" in="SourceGraphic" in2="BackgroundImageFix" result="shape"/>
<feColorMatrix in="SourceAlpha" type="matrix" values="0 0 0 0 0 0 0 0 0 0 0 0 0 0 0 0 0 0 127 0" result="hardAlpha"/>
<feOffset dx="3.12783" dy="3.12783"/>
<feGaussianBlur stdDeviation="1.56392"/>
<feComposite in2="hardAlpha" operator="arithmetic" k2="-1" k3="1"/>
<feColorMatrix type="matrix" values="0 0 0 0 0 0 0 0 0 0 0 0 0 0 0 0 0 0 0.25 0"/>
<feBlend mode="normal" in2="shape" result="effect1_innerShadow_1073_968"/>
</filter>
<filter id="filter1_i_1073_968" x="12.5801" y="39.2275" width="205.642" height="575.355" filterUnits="userSpaceOnUse" color-interpolation-filters="sRGB">
<feFlood flood-opacity="0" result="BackgroundImageFix"/>
<feBlend mode="normal" in="SourceGraphic" in2="BackgroundImageFix" result="shape"/>
<feColorMatrix in="SourceAlpha" type="matrix" values="0 0 0 0 0 0 0 0 0 0 0 0 0 0 0 0 0 0 127 0" result="hardAlpha"/>
<feOffset dx="5" dy="5"/>
<feGaussianBlur stdDeviation="2.5"/>
<feComposite in2="hardAlpha" operator="arithmetic" k2="-1" k3="1"/>
<feColorMatrix type="matrix" values="0 0 0 0 0 0 0 0 0 0 0 0 0 0 0 0 0 0 0.25 0"/>
<feBlend mode="normal" in2="shape" result="effect1_innerShadow_1073_968"/>
</filter>
</defs>
</svg>
