<svg width="227" height="623" viewBox="0 0 227 623" fill="none" xmlns="http://www.w3.org/2000/svg">
<g filter="url(#filter0_i_1073_871)">
<circle cx="105.859" cy="105.859" r="105.859" transform="matrix(1 0 0 -1 7.23828 622.149)" fill="#CC03DF"/>
</g>
<mask id="path-2-outside-1_1073_871" maskUnits="userSpaceOnUse" x="-0.0839844" y="0.354736" width="227" height="596" fill="black">
<rect fill="white" x="-0.0839844" y="0.354736" width="227" height="596"/>
<path fill-rule="evenodd" clip-rule="evenodd" d="M124.186 436.404C124.186 442.549 128.702 447.666 134.543 449.573C161.986 458.535 181.814 484.34 181.814 514.777C181.814 552.651 151.111 583.355 113.236 583.355C75.3616 583.355 44.6582 552.651 44.6582 514.777C44.6582 484.339 64.4878 458.533 91.9332 449.572C97.7746 447.665 102.291 442.548 102.291 436.403L102.291 367.911C102.291 362.69 98.8844 358.204 94.6836 355.104C86.9652 349.408 81.959 340.249 81.959 329.92C81.959 319.592 86.9652 310.432 94.6836 304.736C98.8844 301.636 102.291 297.15 102.291 291.929L102.291 224.279C102.291 217.891 97.4489 212.613 91.2159 211.217C46.4031 201.181 12.916 161.162 12.916 113.321C12.916 57.9152 57.8312 13.0001 113.237 13.0001C168.643 13.0001 213.558 57.9152 213.558 113.321C213.558 161.161 180.072 201.179 135.261 211.217C129.028 212.613 124.186 217.891 124.186 224.278L124.186 291.931C124.186 297.151 127.592 301.637 131.792 304.737C139.51 310.433 144.516 319.592 144.516 329.92C144.516 340.248 139.51 349.407 131.792 355.103C127.592 358.203 124.186 362.689 124.186 367.91L124.186 436.404Z"/>
</mask>
<path fill-rule="evenodd" clip-rule="evenodd" d="M124.186 436.404C124.186 442.549 128.702 447.666 134.543 449.573C161.986 458.535 181.814 484.34 181.814 514.777C181.814 552.651 151.111 583.355 113.236 583.355C75.3616 583.355 44.6582 552.651 44.6582 514.777C44.6582 484.339 64.4878 458.533 91.9332 449.572C97.7746 447.665 102.291 442.548 102.291 436.403L102.291 367.911C102.291 362.69 98.8844 358.204 94.6836 355.104C86.9652 349.408 81.959 340.249 81.959 329.92C81.959 319.592 86.9652 310.432 94.6836 304.736C98.8844 301.636 102.291 297.15 102.291 291.929L102.291 224.279C102.291 217.891 97.4489 212.613 91.2159 211.217C46.4031 201.181 12.916 161.162 12.916 113.321C12.916 57.9152 57.8312 13.0001 113.237 13.0001C168.643 13.0001 213.558 57.9152 213.558 113.321C213.558 161.161 180.072 201.179 135.261 211.217C129.028 212.613 124.186 217.891 124.186 224.278L124.186 291.931C124.186 297.151 127.592 301.637 131.792 304.737C139.51 310.433 144.516 319.592 144.516 329.92C144.516 340.248 139.51 349.407 131.792 355.103C127.592 358.203 124.186 362.689 124.186 367.91L124.186 436.404Z" fill="#0C869D"/>
<path d="M131.792 304.737L139.222 294.671L131.792 304.737ZM91.2159 211.217L93.9503 199.009L91.2159 211.217ZM94.6836 304.736L102.113 314.803L94.6836 304.736ZM94.6836 355.104L87.2546 365.171L94.6836 355.104ZM91.9332 449.572L88.05 437.679L91.9332 449.572ZM135.261 211.217L132.526 199.008L135.261 211.217ZM134.543 449.573L130.659 461.466L134.543 449.573ZM169.303 514.777C169.303 489.912 153.109 468.798 130.659 461.466L138.427 437.68C170.864 448.273 194.325 478.768 194.325 514.777L169.303 514.777ZM113.236 570.843C144.201 570.843 169.303 545.742 169.303 514.777L194.325 514.777C194.325 559.561 158.021 595.866 113.236 595.866L113.236 570.843ZM57.1695 514.777C57.1695 545.742 82.2714 570.843 113.236 570.843L113.236 595.866C68.4518 595.866 32.1469 559.561 32.1469 514.777L57.1695 514.777ZM95.8164 461.465C73.365 468.796 57.1695 489.911 57.1695 514.777L32.1469 514.777C32.1469 478.767 55.6107 448.27 88.05 437.679L95.8164 461.465ZM114.802 367.911L114.802 436.403L89.7797 436.403L89.7797 367.911L114.802 367.911ZM87.2546 365.171C76.4777 357.218 69.4476 344.389 69.4476 329.92L94.4703 329.92C94.4703 336.109 97.4528 341.598 102.113 345.037L87.2546 365.171ZM69.4476 329.92C69.4476 315.451 76.4777 302.622 87.2546 294.669L102.113 314.803C97.4528 318.242 94.4703 323.732 94.4703 329.92L69.4476 329.92ZM114.802 224.279L114.802 291.929L89.7797 291.929L89.7797 224.279L114.802 224.279ZM25.4274 113.321C25.4274 155.18 54.7286 190.224 93.9503 199.009L88.4816 223.426C38.0777 212.137 0.404677 167.144 0.404677 113.321L25.4274 113.321ZM113.237 25.5114C64.741 25.5114 25.4274 64.8251 25.4274 113.321L0.404677 113.321C0.404677 51.0054 50.9214 0.488708 113.237 0.488708L113.237 25.5114ZM201.046 113.321C201.046 64.8251 161.733 25.5114 113.237 25.5114L113.237 0.488708C175.552 0.488708 226.069 51.0054 226.069 113.321L201.046 113.321ZM132.526 199.008C171.746 190.223 201.046 155.179 201.046 113.321L226.069 113.321C226.069 167.143 188.398 212.136 137.995 223.426L132.526 199.008ZM111.675 291.931L111.675 224.278L136.697 224.278L136.697 291.931L111.675 291.931ZM139.222 294.671C149.998 302.624 157.027 315.452 157.027 329.92L132.004 329.92C132.004 323.732 129.022 318.243 124.363 314.804L139.222 294.671ZM157.027 329.92C157.027 344.388 149.998 357.216 139.222 365.169L124.363 345.036C129.022 341.598 132.004 336.108 132.004 329.92L157.027 329.92ZM111.675 436.404L111.675 367.91L136.697 367.91L136.697 436.404L111.675 436.404ZM136.697 291.931C136.697 291.726 136.615 291.855 136.967 292.409C137.351 293.012 138.085 293.831 139.222 294.671L124.363 314.804C118.609 310.557 111.675 302.797 111.675 291.931L136.697 291.931ZM89.7797 224.279C89.7797 224.273 89.7794 224.276 89.7808 224.284C89.7821 224.291 89.7829 224.291 89.7795 224.282C89.7728 224.265 89.7399 224.19 89.6421 224.077C89.4257 223.828 89.0204 223.547 88.4816 223.426L93.9503 199.009C105.052 201.495 114.802 211.21 114.802 224.279L89.7797 224.279ZM87.2546 294.669C88.392 293.83 89.1254 293.011 89.5098 292.407C89.8624 291.854 89.7797 291.725 89.7797 291.929L114.802 291.929C114.802 302.797 107.867 310.557 102.113 314.803L87.2546 294.669ZM89.7797 367.911C89.7797 368.115 89.8624 367.987 89.5098 367.433C89.1254 366.83 88.392 366.01 87.2546 365.171L102.113 345.037C107.867 349.284 114.802 357.044 114.802 367.911L89.7797 367.911ZM139.222 365.169C138.085 366.009 137.351 366.828 136.967 367.432C136.615 367.985 136.697 368.114 136.697 367.91L111.675 367.91C111.675 357.043 118.609 349.283 124.363 345.036L139.222 365.169ZM88.05 437.679C88.7863 437.438 89.3193 437.023 89.5968 436.682C89.7233 436.526 89.7674 436.424 89.7781 436.395C89.7835 436.381 89.783 436.379 89.7816 436.387C89.7809 436.39 89.7804 436.394 89.78 436.398C89.7797 436.402 89.7797 436.404 89.7797 436.403L114.802 436.403C114.802 449.057 105.681 458.245 95.8164 461.465L88.05 437.679ZM137.995 223.426C137.456 223.546 137.051 223.827 136.835 224.076C136.737 224.189 136.704 224.264 136.697 224.281C136.694 224.29 136.695 224.29 136.696 224.283C136.698 224.276 136.697 224.272 136.697 224.278L111.675 224.278C111.675 211.21 121.424 201.495 132.526 199.008L137.995 223.426ZM130.659 461.466C120.795 458.245 111.675 449.058 111.675 436.404L136.697 436.404C136.697 436.405 136.697 436.403 136.697 436.399C136.696 436.395 136.696 436.391 136.695 436.388C136.694 436.38 136.693 436.382 136.699 436.396C136.709 436.425 136.754 436.528 136.88 436.683C137.158 437.024 137.69 437.44 138.427 437.68L130.659 461.466Z" fill="#1B233C" mask="url(#path-2-outside-1_1073_871)"/>
<g filter="url(#filter1_i_1073_871)">
<path fill-rule="evenodd" clip-rule="evenodd" d="M124.186 436.404C124.186 442.549 128.702 447.665 134.543 449.573C161.986 458.535 181.814 484.34 181.814 514.777C181.814 552.651 151.111 583.354 113.236 583.354C75.3616 583.354 44.6582 552.651 44.6582 514.777C44.6582 484.339 64.4878 458.533 91.9332 449.572C97.7746 447.665 102.291 442.548 102.291 436.403L102.291 367.911C102.291 362.69 98.8844 358.204 94.6836 355.104C86.9652 349.408 81.959 340.248 81.959 329.92C81.959 319.591 86.9652 310.432 94.6836 304.736C98.8844 301.636 102.291 297.15 102.291 291.929L102.291 224.278C102.291 217.891 97.449 212.613 91.2159 211.217C46.4031 201.181 12.916 161.161 12.916 113.321C12.916 57.915 57.8312 12.9998 113.237 12.9998C168.643 12.9998 213.558 57.915 213.558 113.321C213.558 161.16 180.072 201.179 135.261 211.217C129.028 212.613 124.186 217.891 124.186 224.278L124.186 291.931C124.186 297.151 127.592 301.637 131.792 304.737C139.51 310.433 144.516 319.592 144.516 329.92C144.516 340.248 139.51 349.407 131.792 355.103C127.592 358.203 124.186 362.689 124.186 367.909L124.186 436.404Z" fill="#0C869D"/>
</g>
<path d="M88.3408 507.553H90.7529L84.8496 526.024H82.666L78.4004 510.892H78.3496L74.0205 526.024H71.8369L65.9336 507.553H68.3584L72.9033 522.305H72.9541L77.1309 507.553H79.5811L83.7324 522.343H83.7832L88.3408 507.553ZM103.232 519.499C103.232 519.829 103.207 520.108 103.169 520.362H93.4443C93.5713 521.543 94.0283 522.482 94.8027 523.193C95.5645 523.904 96.5166 524.247 97.6592 524.247C98.4082 524.247 99.0811 524.095 99.6904 523.79C100.287 523.485 100.795 523.066 101.227 522.546L102.699 523.803C102.128 524.539 101.404 525.123 100.541 525.555C99.6777 525.986 98.6875 526.189 97.583 526.189C96.6943 526.189 95.8564 526.037 95.082 525.72C94.3076 525.402 93.6475 524.958 93.0889 524.399C92.5303 523.841 92.0859 523.155 91.7686 522.343C91.4385 521.53 91.2861 520.654 91.2861 519.702C91.2861 518.763 91.4385 517.899 91.7559 517.087C92.0605 516.274 92.4922 515.589 93.0254 515.03C93.5586 514.472 94.2061 514.027 94.9551 513.697C95.6914 513.38 96.4912 513.215 97.3418 513.215C98.4971 513.215 99.5254 513.494 100.427 514.027C101.315 514.573 102.014 515.322 102.496 516.274C102.979 517.227 103.232 518.306 103.232 519.499ZM97.4561 515.157C96.4531 515.157 95.5898 515.475 94.8662 516.097C94.1426 516.719 93.6855 517.557 93.4951 518.61H101.138C100.96 517.569 100.554 516.731 99.9062 516.097C99.2588 515.475 98.4463 515.157 97.4561 515.157ZM112.932 513.215C114.1 513.215 115.166 513.507 116.118 514.078C117.058 514.649 117.794 515.437 118.327 516.427C118.86 517.43 119.127 518.547 119.127 519.778C119.127 520.73 118.962 521.606 118.645 522.406C118.314 523.219 117.883 523.892 117.324 524.438C116.766 524.996 116.118 525.428 115.356 525.732C114.595 526.037 113.782 526.189 112.919 526.189C111.992 526.189 111.154 526.012 110.393 525.631C109.631 525.25 108.996 524.717 108.488 524.019H108.45V526.024H106.432V506.88H108.539V515.246H108.59C109.11 514.586 109.745 514.091 110.494 513.735C111.243 513.393 112.056 513.215 112.932 513.215ZM112.716 524.26C113.985 524.26 115.014 523.841 115.801 523.003C116.588 522.165 116.981 521.086 116.981 519.791C116.981 518.407 116.562 517.29 115.75 516.427C114.938 515.576 113.909 515.145 112.69 515.145C111.891 515.145 111.167 515.36 110.52 515.767C109.872 516.173 109.364 516.731 109.009 517.442C108.641 518.153 108.463 518.94 108.463 519.791C108.463 520.451 108.577 521.061 108.806 521.619C109.034 522.178 109.339 522.66 109.732 523.041C110.113 523.422 110.57 523.727 111.091 523.942C111.599 524.158 112.145 524.26 112.716 524.26ZM126.224 526.189C124.281 526.189 122.631 525.58 121.26 524.361L122.352 522.762C122.885 523.27 123.443 523.638 124.053 523.892C124.662 524.146 125.386 524.272 126.224 524.272C126.96 524.272 127.544 524.12 127.976 523.79C128.407 523.473 128.623 523.066 128.623 522.584C128.623 522.457 128.61 522.343 128.585 522.229C128.56 522.127 128.509 522.025 128.433 521.924C128.356 521.822 128.28 521.746 128.217 521.67C128.141 521.594 128.039 521.518 127.887 521.429C127.734 521.353 127.607 521.276 127.506 521.226C127.404 521.175 127.239 521.099 127.036 521.022C126.82 520.946 126.643 520.883 126.516 520.832C126.389 520.781 126.186 520.705 125.919 520.604C125.779 520.565 125.678 520.527 125.614 520.502C125.132 520.35 124.738 520.197 124.408 520.045C124.078 519.905 123.748 519.728 123.393 519.499C123.037 519.271 122.745 519.029 122.542 518.775C122.326 518.521 122.148 518.217 122.009 517.836C121.869 517.468 121.806 517.062 121.806 516.604C121.806 515.64 122.199 514.84 122.999 514.192C123.786 513.545 124.789 513.215 125.995 513.215C127.62 513.215 129.08 513.735 130.35 514.776L129.258 516.439C128.242 515.563 127.112 515.119 125.894 515.119C125.386 515.119 124.929 515.259 124.535 515.538C124.142 515.817 123.951 516.173 123.951 516.604C123.951 516.846 124.002 517.062 124.116 517.252C124.23 517.455 124.408 517.633 124.649 517.785C124.891 517.95 125.132 518.09 125.386 518.204C125.627 518.318 125.944 518.445 126.351 518.598C127.696 519.131 128.521 519.461 128.801 519.588C129.664 520.02 130.235 520.553 130.515 521.175C130.68 521.568 130.769 522.025 130.769 522.559C130.769 523.066 130.667 523.536 130.477 523.968C130.286 524.399 130.007 524.793 129.639 525.123C129.271 525.453 128.788 525.72 128.204 525.91C127.62 526.101 126.96 526.189 126.224 526.189ZM135.098 511.019C134.666 511.019 134.311 510.879 134.031 510.587C133.739 510.308 133.6 509.952 133.6 509.546C133.6 509.14 133.739 508.784 134.031 508.492C134.311 508.213 134.666 508.061 135.098 508.061C135.364 508.061 135.618 508.137 135.847 508.264C136.075 508.391 136.253 508.568 136.393 508.797C136.52 509.025 136.596 509.279 136.596 509.546C136.596 509.952 136.443 510.308 136.151 510.587C135.859 510.879 135.504 511.019 135.098 511.019ZM134.031 526.024V513.367H136.126V526.024H134.031ZM143.794 526.189C141.598 526.189 140.506 524.882 140.506 522.254V515.195H138.894V513.367H140.506V509.038L142.613 508.81V513.367H146.803V515.195H142.613V521.937C142.613 522.736 142.728 523.32 142.956 523.676C143.185 524.031 143.578 524.209 144.162 524.209C144.822 524.209 145.533 523.993 146.295 523.562L146.854 525.402C146.574 525.555 146.32 525.694 146.079 525.796C145.825 525.897 145.508 525.999 145.102 526.075C144.695 526.151 144.251 526.189 143.794 526.189ZM160.26 519.499C160.26 519.829 160.234 520.108 160.196 520.362H150.472C150.599 521.543 151.056 522.482 151.83 523.193C152.592 523.904 153.544 524.247 154.687 524.247C155.436 524.247 156.108 524.095 156.718 523.79C157.314 523.485 157.822 523.066 158.254 522.546L159.727 523.803C159.155 524.539 158.432 525.123 157.568 525.555C156.705 525.986 155.715 526.189 154.61 526.189C153.722 526.189 152.884 526.037 152.109 525.72C151.335 525.402 150.675 524.958 150.116 524.399C149.558 523.841 149.113 523.155 148.796 522.343C148.466 521.53 148.313 520.654 148.313 519.702C148.313 518.763 148.466 517.899 148.783 517.087C149.088 516.274 149.52 515.589 150.053 515.03C150.586 514.472 151.233 514.027 151.982 513.697C152.719 513.38 153.519 513.215 154.369 513.215C155.524 513.215 156.553 513.494 157.454 514.027C158.343 514.573 159.041 515.322 159.523 516.274C160.006 517.227 160.26 518.306 160.26 519.499ZM154.483 515.157C153.48 515.157 152.617 515.475 151.894 516.097C151.17 516.719 150.713 517.557 150.522 518.61H158.165C157.987 517.569 157.581 516.731 156.934 516.097C156.286 515.475 155.474 515.157 154.483 515.157Z" fill="white"/>
<path d="M103.812 327.346C103.587 327.349 103.364 327.307 103.155 327.224C102.947 327.14 102.756 327.016 102.596 326.859L102.596 326.859L92.5861 317.074C92.2618 316.756 92.0768 316.323 92.0717 315.869C92.0665 315.415 92.2416 314.978 92.5586 314.653L95.9241 311.21C96.2417 310.886 96.675 310.701 97.1288 310.696C97.5826 310.691 98.0199 310.866 98.3449 311.183L108.354 320.968C108.679 321.286 108.864 321.719 108.869 322.173C108.874 322.627 108.699 323.064 108.382 323.389L105.016 326.832C104.859 326.992 104.672 327.121 104.465 327.209C104.259 327.297 104.036 327.343 103.812 327.346ZM103.52 325.913C103.594 325.984 103.694 326.024 103.797 326.023C103.9 326.022 103.998 325.98 104.07 325.906L107.436 322.464C107.508 322.39 107.547 322.291 107.546 322.188C107.545 322.085 107.503 321.986 107.429 321.914L97.4199 312.129C97.3461 312.057 97.2468 312.017 97.1438 312.018C97.0407 312.02 96.9424 312.061 96.8702 312.135L93.5048 315.578C93.4328 315.652 93.393 315.751 93.3942 315.854C93.3953 315.957 93.4374 316.055 93.511 316.128L103.52 325.913Z" fill="#F9F9F9"/>
<path d="M94.6378 320.82C94.507 320.822 94.3787 320.784 94.2691 320.713C94.1595 320.641 94.0735 320.539 94.0221 320.419C93.9706 320.298 93.956 320.166 93.9801 320.037C94.0041 319.908 94.0658 319.79 94.1573 319.696L101.003 312.693C101.064 312.631 101.136 312.581 101.216 312.547C101.296 312.512 101.382 312.494 101.469 312.493C101.556 312.492 101.643 312.508 101.723 312.54C101.804 312.573 101.878 312.621 101.94 312.682C102.002 312.742 102.052 312.815 102.086 312.895C102.12 312.975 102.138 313.061 102.139 313.148C102.14 313.235 102.124 313.321 102.091 313.402C102.059 313.482 102.01 313.556 101.95 313.618L95.1034 320.621C95.0428 320.683 94.9704 320.733 94.8905 320.767C94.8106 320.801 94.7247 320.819 94.6378 320.82Z" fill="#F9F9F9"/>
<path d="M99.2921 325.371C99.1613 325.373 99.033 325.335 98.9233 325.264C98.8137 325.192 98.7278 325.09 98.6763 324.97C98.6249 324.849 98.6103 324.717 98.6344 324.588C98.6584 324.459 98.7201 324.341 98.8115 324.247L105.658 317.244C105.78 317.119 105.948 317.048 106.123 317.046C106.298 317.044 106.467 317.112 106.592 317.234C106.718 317.357 106.789 317.524 106.791 317.699C106.794 317.874 106.726 318.043 106.604 318.169L99.7577 325.172C99.697 325.234 99.6247 325.284 99.5448 325.318C99.4649 325.352 99.379 325.37 99.2921 325.371Z" fill="#F9F9F9"/>
<path d="M109.211 340.392C109.124 340.393 109.038 340.377 108.957 340.344C108.876 340.312 108.803 340.264 108.741 340.203L102.643 334.243C102.581 334.182 102.532 334.11 102.497 334.03C102.463 333.95 102.445 333.864 102.444 333.777C102.443 333.69 102.459 333.604 102.492 333.523C102.524 333.443 102.572 333.369 102.633 333.307L112.44 323.274C112.501 323.212 112.574 323.163 112.653 323.129C112.733 323.094 112.819 323.076 112.906 323.075C112.993 323.074 113.079 323.09 113.16 323.123C113.24 323.155 113.314 323.203 113.376 323.264L119.473 329.224C119.536 329.285 119.585 329.358 119.619 329.437C119.653 329.517 119.672 329.603 119.673 329.69C119.674 329.777 119.657 329.863 119.625 329.944C119.593 330.024 119.545 330.098 119.484 330.16L109.676 340.193C109.616 340.255 109.543 340.305 109.463 340.339C109.383 340.373 109.298 340.391 109.211 340.392ZM104.041 333.759L109.193 338.795L118.075 329.708L112.924 324.673L104.041 333.759Z" fill="#F9F9F9"/>
<path d="M119.016 330.36C118.929 330.361 118.843 330.345 118.762 330.313C118.682 330.28 118.608 330.232 118.546 330.172L112.449 324.211C112.387 324.15 112.337 324.078 112.303 323.998C112.269 323.918 112.251 323.832 112.25 323.746C112.249 323.659 112.265 323.572 112.297 323.492C112.33 323.411 112.378 323.338 112.438 323.276C114.22 321.453 116.833 321.612 118.939 323.671C121.045 325.73 121.264 328.338 119.482 330.161C119.421 330.223 119.349 330.273 119.269 330.307C119.189 330.341 119.103 330.359 119.016 330.36ZM113.893 323.772L118.952 328.718C119.872 327.289 119.123 325.701 118.014 324.617C116.905 323.533 115.301 322.821 113.893 323.772Z" fill="#F9F9F9"/>
<path d="M112.426 333.63C111.672 333.638 110.94 333.385 110.352 332.913C109.765 332.441 109.359 331.78 109.204 331.043C109.049 330.305 109.155 329.537 109.503 328.869C109.851 328.201 110.42 327.674 111.113 327.378C111.806 327.082 112.58 327.035 113.303 327.246C114.026 327.457 114.654 327.912 115.08 328.534C115.505 329.156 115.702 329.906 115.636 330.657C115.57 331.408 115.247 332.112 114.72 332.651C114.421 332.957 114.064 333.201 113.67 333.369C113.277 333.537 112.854 333.626 112.426 333.63ZM112.367 328.436C112.049 328.44 111.736 328.522 111.457 328.675C111.178 328.828 110.941 329.048 110.767 329.315C110.593 329.581 110.487 329.887 110.46 330.204C110.432 330.521 110.483 330.841 110.608 331.133C110.734 331.426 110.929 331.684 111.177 331.883C111.426 332.082 111.72 332.217 112.033 332.276C112.346 332.334 112.668 332.315 112.972 332.219C113.276 332.123 113.551 331.954 113.774 331.726C114.041 331.452 114.222 331.105 114.292 330.728C114.363 330.352 114.32 329.963 114.169 329.611C114.019 329.259 113.767 328.959 113.446 328.75C113.126 328.541 112.75 328.432 112.367 328.436Z" fill="#F9F9F9"/>
<path d="M111.496 338.055C111.409 338.056 111.323 338.04 111.242 338.008C111.162 337.976 111.088 337.928 111.026 337.867L104.929 331.906C104.803 331.783 104.732 331.616 104.73 331.44C104.728 331.265 104.796 331.096 104.919 330.971C105.041 330.845 105.209 330.774 105.384 330.772C105.559 330.77 105.728 330.837 105.854 330.96L111.951 336.921C112.045 337.012 112.109 337.129 112.136 337.257C112.163 337.385 112.151 337.518 112.103 337.64C112.054 337.761 111.97 337.866 111.862 337.94C111.754 338.013 111.627 338.054 111.496 338.055Z" fill="#F9F9F9"/>
<path d="M121.548 322.93C121.106 322.935 120.677 322.787 120.333 322.511C119.989 322.234 119.751 321.847 119.66 321.415C119.569 320.983 119.631 320.533 119.835 320.142C120.039 319.75 120.372 319.442 120.778 319.268C121.184 319.095 121.637 319.068 122.061 319.191C122.485 319.315 122.852 319.581 123.102 319.946C123.351 320.31 123.466 320.749 123.428 321.189C123.389 321.629 123.199 322.041 122.891 322.357C122.716 322.536 122.507 322.679 122.276 322.778C122.046 322.876 121.798 322.928 121.548 322.93ZM121.519 320.438C121.384 320.439 121.253 320.488 121.15 320.575C121.046 320.662 120.976 320.783 120.951 320.916C120.927 321.049 120.949 321.186 121.014 321.305C121.079 321.423 121.183 321.516 121.309 321.566C121.435 321.616 121.574 321.621 121.703 321.581C121.832 321.54 121.943 321.455 122.017 321.342C122.091 321.229 122.123 321.093 122.108 320.958C122.093 320.824 122.032 320.699 121.935 320.604C121.88 320.55 121.815 320.508 121.744 320.48C121.672 320.451 121.596 320.437 121.519 320.438Z" fill="#F9F9F9"/>
<path d="M126.939 327.194C126.809 327.195 126.68 327.158 126.571 327.086C126.461 327.015 126.375 326.913 126.324 326.792C126.272 326.672 126.258 326.539 126.282 326.41C126.306 326.282 126.367 326.163 126.459 326.07C127.766 324.732 128.488 322.93 128.466 321.06C128.445 319.19 127.681 317.406 126.344 316.098C125.007 314.791 123.205 314.069 121.335 314.09C119.466 314.11 117.681 314.873 116.373 316.21C116.312 316.272 116.24 316.322 116.16 316.356C116.08 316.39 115.994 316.408 115.907 316.409C115.82 316.41 115.734 316.394 115.654 316.362C115.573 316.329 115.499 316.281 115.437 316.221C115.375 316.16 115.326 316.087 115.292 316.008C115.257 315.928 115.239 315.842 115.238 315.755C115.237 315.668 115.253 315.582 115.286 315.501C115.318 315.421 115.366 315.347 115.427 315.285C116.195 314.497 117.111 313.867 118.123 313.433C119.135 312.999 120.223 312.769 121.323 312.756C122.424 312.743 123.517 312.946 124.539 313.356C125.561 313.765 126.492 314.372 127.28 315.142C128.067 315.911 128.695 316.828 129.127 317.841C129.56 318.853 129.788 319.941 129.8 321.042C129.811 322.143 129.606 323.235 129.195 324.257C128.784 325.278 128.176 326.208 127.405 326.995C127.344 327.057 127.272 327.106 127.192 327.141C127.112 327.175 127.026 327.193 126.939 327.194Z" fill="#F9F9F9"/>
<path d="M124.438 324.748C124.307 324.75 124.179 324.712 124.069 324.641C123.96 324.569 123.874 324.467 123.822 324.347C123.771 324.226 123.756 324.093 123.78 323.965C123.804 323.836 123.866 323.718 123.958 323.624C124.617 322.95 124.981 322.041 124.97 321.099C124.96 320.156 124.575 319.256 123.901 318.597C123.226 317.938 122.318 317.574 121.375 317.585C120.433 317.595 119.533 317.98 118.874 318.654C118.813 318.716 118.741 318.766 118.661 318.8C118.581 318.835 118.495 318.853 118.408 318.854C118.321 318.855 118.235 318.839 118.154 318.807C118.073 318.774 118 318.726 117.937 318.666C117.875 318.605 117.826 318.532 117.791 318.452C117.757 318.372 117.739 318.286 117.738 318.199C117.737 318.112 117.754 318.026 117.786 317.945C117.819 317.865 117.867 317.791 117.928 317.729C118.375 317.271 118.909 316.906 119.498 316.654C120.087 316.402 120.72 316.269 121.36 316.261C122.001 316.254 122.637 316.373 123.231 316.612C123.826 316.85 124.368 317.203 124.826 317.651C125.284 318.099 125.649 318.632 125.901 319.221C126.153 319.81 126.286 320.443 126.293 321.084C126.301 321.724 126.182 322.36 125.943 322.955C125.705 323.549 125.352 324.091 124.904 324.549C124.843 324.611 124.771 324.661 124.691 324.695C124.611 324.729 124.525 324.747 124.438 324.748Z" fill="#F9F9F9"/>
<path d="M120.184 321.453L118.023 323.663L118.97 324.588L121.13 322.378L120.184 321.453Z" fill="#F9F9F9"/>
<path d="M109.198 328.208C109.111 328.209 109.025 328.193 108.944 328.161C108.864 328.129 108.79 328.081 108.728 328.02L105.764 325.122C105.639 325 105.568 324.832 105.566 324.657C105.564 324.482 105.632 324.313 105.755 324.188C105.877 324.062 106.044 323.991 106.22 323.989C106.395 323.986 106.564 324.054 106.689 324.176L109.653 327.074C109.747 327.165 109.811 327.282 109.838 327.41C109.865 327.538 109.853 327.672 109.805 327.793C109.756 327.914 109.672 328.019 109.564 328.093C109.456 328.167 109.329 328.207 109.198 328.208Z" fill="#F9F9F9"/>
<path d="M127.348 350.355C127.123 350.358 126.9 350.317 126.691 350.233C126.482 350.15 126.292 350.026 126.132 349.868L116.122 340.083C115.961 339.926 115.833 339.739 115.745 339.532C115.656 339.325 115.609 339.103 115.607 338.879C115.604 338.654 115.646 338.431 115.73 338.222C115.813 338.013 115.937 337.823 116.094 337.663L119.46 334.22C119.617 334.059 119.804 333.931 120.011 333.842C120.218 333.754 120.44 333.707 120.665 333.705C120.89 333.702 121.113 333.744 121.321 333.828C121.53 333.911 121.72 334.035 121.881 334.192L131.89 343.978C132.215 344.295 132.4 344.729 132.405 345.182C132.41 345.636 132.235 346.074 131.918 346.398L128.552 349.841C128.395 350.002 128.208 350.13 128.001 350.218C127.795 350.307 127.572 350.353 127.348 350.355ZM120.68 335.028C120.629 335.028 120.578 335.039 120.531 335.059C120.484 335.079 120.442 335.108 120.406 335.145L117.041 338.588C116.969 338.661 116.929 338.76 116.93 338.863C116.931 338.966 116.973 339.065 117.047 339.137L127.057 348.922C127.13 348.994 127.23 349.034 127.333 349.033C127.436 349.032 127.534 348.99 127.606 348.916L130.972 345.473C131.044 345.4 131.083 345.3 131.082 345.197C131.081 345.094 131.039 344.996 130.965 344.924L120.956 335.139C120.919 335.103 120.876 335.075 120.829 335.056C120.781 335.037 120.731 335.027 120.68 335.028Z" fill="#F9F9F9"/>
<path d="M123.009 348.555C122.878 348.557 122.75 348.519 122.64 348.448C122.531 348.376 122.445 348.274 122.393 348.154C122.342 348.033 122.327 347.901 122.351 347.772C122.375 347.643 122.437 347.525 122.528 347.431L129.374 340.428C129.497 340.303 129.665 340.231 129.84 340.229C130.015 340.228 130.184 340.295 130.31 340.418C130.435 340.54 130.507 340.708 130.509 340.883C130.511 341.058 130.443 341.227 130.321 341.353L123.474 348.356C123.414 348.418 123.341 348.468 123.262 348.502C123.182 348.536 123.096 348.554 123.009 348.555Z" fill="#F9F9F9"/>
<path d="M118.355 344.005C118.224 344.007 118.095 343.97 117.986 343.898C117.876 343.827 117.79 343.724 117.739 343.604C117.687 343.484 117.673 343.351 117.697 343.222C117.721 343.093 117.783 342.975 117.874 342.881L124.72 335.878C124.843 335.753 125.01 335.682 125.186 335.68C125.361 335.678 125.53 335.746 125.655 335.868C125.781 335.991 125.852 336.158 125.854 336.333C125.856 336.509 125.789 336.678 125.666 336.803L118.82 343.806C118.76 343.869 118.687 343.918 118.607 343.952C118.527 343.986 118.442 344.005 118.355 344.005Z" fill="#F9F9F9"/>
<path d="M118.26 337.065C118.173 337.066 118.086 337.05 118.006 337.017C117.925 336.985 117.852 336.937 117.79 336.876L114.826 333.979C114.7 333.856 114.629 333.689 114.627 333.513C114.625 333.338 114.692 333.169 114.815 333.043C114.938 332.918 115.105 332.846 115.281 332.844C115.456 332.842 115.625 332.91 115.751 333.033L118.715 335.93C118.808 336.021 118.872 336.139 118.899 336.267C118.926 336.395 118.915 336.528 118.866 336.649C118.817 336.771 118.734 336.875 118.626 336.949C118.518 337.023 118.39 337.063 118.26 337.065Z" fill="#F9F9F9"/>
<path d="M106.826 341.222C106.739 341.223 106.653 341.207 106.572 341.175C106.492 341.142 106.418 341.094 106.356 341.033L101.869 336.647C101.807 336.586 101.757 336.514 101.723 336.434C101.689 336.354 101.671 336.268 101.67 336.182C101.669 336.095 101.685 336.008 101.718 335.928C101.75 335.847 101.798 335.774 101.858 335.712L103.438 334.095C103.563 333.975 103.73 333.906 103.904 333.904C104.078 333.902 104.246 333.967 104.374 334.085L108.861 338.471C108.923 338.532 108.973 338.605 109.007 338.684C109.041 338.764 109.059 338.85 109.06 338.937C109.061 339.024 109.045 339.11 109.012 339.191C108.98 339.271 108.932 339.345 108.871 339.407L107.292 341.023C107.231 341.085 107.159 341.135 107.079 341.169C106.999 341.203 106.913 341.221 106.826 341.222ZM103.267 336.163L106.808 339.625L107.463 338.955L103.922 335.494L103.267 336.163Z" fill="#F9F9F9"/>
<path d="M71.71 98.1125H73.9824V116.584H71.7227V102.429H71.6846L65.667 112.865H64.1309L58.1133 102.429H58.0752V116.584H55.8154V98.1125H58.0879L64.8672 110.059H64.9434L71.71 98.1125ZM88.1504 103.927H90.2578V116.584H88.2393V114.578H88.2012C87.6807 115.264 87.0459 115.797 86.2842 116.178C85.5225 116.559 84.6846 116.749 83.7705 116.749C82.9072 116.749 82.0947 116.597 81.333 116.292C80.5713 115.988 79.9111 115.556 79.3525 114.997C78.7939 114.451 78.3623 113.779 78.0449 112.966C77.7148 112.166 77.5625 111.29 77.5625 110.338C77.5625 109.107 77.8164 107.99 78.3496 106.987C78.8828 105.996 79.6191 105.209 80.5713 104.638C81.5107 104.067 82.5771 103.775 83.7578 103.775C84.6211 103.775 85.4336 103.952 86.1826 104.295C86.9316 104.651 87.5664 105.146 88.0996 105.806H88.1504V103.927ZM83.9736 114.82C84.5322 114.82 85.0781 114.718 85.5986 114.502C86.1064 114.286 86.5635 113.982 86.957 113.601C87.3379 113.22 87.6553 112.738 87.8838 112.179C88.1123 111.62 88.2266 111.011 88.2266 110.351C88.2266 109.716 88.1123 109.107 87.8965 108.535C87.6807 107.964 87.3887 107.469 87.0205 107.05C86.6396 106.644 86.1953 106.314 85.6748 106.073C85.1416 105.831 84.583 105.704 83.999 105.704C82.7676 105.704 81.7393 106.136 80.9268 106.987C80.1143 107.85 79.708 108.967 79.708 110.351C79.708 111.646 80.1016 112.725 80.8887 113.563C81.6758 114.401 82.7041 114.82 83.9736 114.82ZM95.3994 101.578C94.9678 101.578 94.6123 101.439 94.333 101.147C94.041 100.867 93.9014 100.512 93.9014 100.106C93.9014 99.6995 94.041 99.344 94.333 99.052C94.6123 98.7727 94.9678 98.6204 95.3994 98.6204C95.666 98.6204 95.9199 98.6965 96.1484 98.8235C96.377 98.9504 96.5547 99.1282 96.6943 99.3567C96.8213 99.5852 96.8975 99.8391 96.8975 100.106C96.8975 100.512 96.7451 100.867 96.4531 101.147C96.1611 101.439 95.8057 101.578 95.3994 101.578ZM94.333 116.584V103.927H96.4277V116.584H94.333ZM100.833 116.584V97.4397H102.928V116.584H100.833ZM118.302 110.059C118.302 110.389 118.276 110.668 118.238 110.922H108.514C108.641 112.103 109.098 113.042 109.872 113.753C110.634 114.464 111.586 114.807 112.729 114.807C113.478 114.807 114.15 114.655 114.76 114.35C115.356 114.045 115.864 113.626 116.296 113.106L117.769 114.363C117.197 115.099 116.474 115.683 115.61 116.115C114.747 116.546 113.757 116.749 112.652 116.749C111.764 116.749 110.926 116.597 110.151 116.28C109.377 115.962 108.717 115.518 108.158 114.959C107.6 114.401 107.155 113.715 106.838 112.903C106.508 112.09 106.355 111.214 106.355 110.262C106.355 109.323 106.508 108.459 106.825 107.647C107.13 106.834 107.562 106.149 108.095 105.59C108.628 105.031 109.275 104.587 110.024 104.257C110.761 103.94 111.561 103.775 112.411 103.775C113.566 103.775 114.595 104.054 115.496 104.587C116.385 105.133 117.083 105.882 117.565 106.834C118.048 107.786 118.302 108.865 118.302 110.059ZM112.525 105.717C111.522 105.717 110.659 106.034 109.936 106.656C109.212 107.279 108.755 108.116 108.564 109.17H116.207C116.029 108.129 115.623 107.291 114.976 106.656C114.328 106.034 113.516 105.717 112.525 105.717ZM127.76 103.775C128.001 103.775 128.179 103.787 128.28 103.8V106.123C127.976 106.098 127.696 106.085 127.442 106.085C126.655 106.085 125.97 106.276 125.386 106.656C124.802 107.037 124.357 107.558 124.053 108.218C123.748 108.878 123.596 109.64 123.596 110.478V116.584H121.488V103.927H123.596V106.136H123.646C124.116 105.387 124.7 104.803 125.411 104.397C126.122 103.99 126.896 103.775 127.76 103.775ZM131.124 116.584V98.1125H133.384V114.502H142.524V116.584H131.124ZM146.663 101.578C146.231 101.578 145.876 101.439 145.597 101.147C145.305 100.867 145.165 100.512 145.165 100.106C145.165 99.6995 145.305 99.344 145.597 99.052C145.876 98.7727 146.231 98.6204 146.663 98.6204C146.93 98.6204 147.184 98.6965 147.412 98.8235C147.641 98.9504 147.818 99.1282 147.958 99.3567C148.085 99.5852 148.161 99.8391 148.161 100.106C148.161 100.512 148.009 100.867 147.717 101.147C147.425 101.439 147.069 101.578 146.663 101.578ZM145.597 116.584V103.927H147.691V116.584H145.597ZM155.359 116.749C153.163 116.749 152.071 115.442 152.071 112.814V105.755H150.459V103.927H152.071V99.5979L154.179 99.3694V103.927H158.368V105.755H154.179V112.496C154.179 113.296 154.293 113.88 154.521 114.236C154.75 114.591 155.144 114.769 155.728 114.769C156.388 114.769 157.099 114.553 157.86 114.121L158.419 115.962C158.14 116.115 157.886 116.254 157.645 116.356C157.391 116.457 157.073 116.559 156.667 116.635C156.261 116.711 155.816 116.749 155.359 116.749ZM171.825 110.059C171.825 110.389 171.8 110.668 171.762 110.922H162.037C162.164 112.103 162.621 113.042 163.396 113.753C164.157 114.464 165.109 114.807 166.252 114.807C167.001 114.807 167.674 114.655 168.283 114.35C168.88 114.045 169.388 113.626 169.819 113.106L171.292 114.363C170.721 115.099 169.997 115.683 169.134 116.115C168.271 116.546 167.28 116.749 166.176 116.749C165.287 116.749 164.449 116.597 163.675 116.28C162.9 115.962 162.24 115.518 161.682 114.959C161.123 114.401 160.679 113.715 160.361 112.903C160.031 112.09 159.879 111.214 159.879 110.262C159.879 109.323 160.031 108.459 160.349 107.647C160.653 106.834 161.085 106.149 161.618 105.59C162.151 105.031 162.799 104.587 163.548 104.257C164.284 103.94 165.084 103.775 165.935 103.775C167.09 103.775 168.118 104.054 169.02 104.587C169.908 105.133 170.606 105.882 171.089 106.834C171.571 107.786 171.825 108.865 171.825 110.059ZM166.049 105.717C165.046 105.717 164.183 106.034 163.459 106.656C162.735 107.279 162.278 108.116 162.088 109.17H169.73C169.553 108.129 169.146 107.291 168.499 106.656C167.852 106.034 167.039 105.717 166.049 105.717Z" fill="white"/>
<defs>
<filter id="filter0_i_1073_871" x="7.23828" y="410.432" width="214.846" height="214.845" filterUnits="userSpaceOnUse" color-interpolation-filters="sRGB">
<feFlood flood-opacity="0" result="BackgroundImageFix"/>
<feBlend mode="normal" in="SourceGraphic" in2="BackgroundImageFix" result="shape"/>
<feColorMatrix in="SourceAlpha" type="matrix" values="0 0 0 0 0 0 0 0 0 0 0 0 0 0 0 0 0 0 127 0" result="hardAlpha"/>
<feOffset dx="3.12783" dy="3.12783"/>
<feGaussianBlur stdDeviation="1.56392"/>
<feComposite in2="hardAlpha" operator="arithmetic" k2="-1" k3="1"/>
<feColorMatrix type="matrix" values="0 0 0 0 0 0 0 0 0 0 0 0 0 0 0 0 0 0 0.25 0"/>
<feBlend mode="normal" in2="shape" result="effect1_innerShadow_1073_871"/>
</filter>
<filter id="filter1_i_1073_871" x="12.916" y="12.9998" width="205.642" height="575.355" filterUnits="userSpaceOnUse" color-interpolation-filters="sRGB">
<feFlood flood-opacity="0" result="BackgroundImageFix"/>
<feBlend mode="normal" in="SourceGraphic" in2="BackgroundImageFix" result="shape"/>
<feColorMatrix in="SourceAlpha" type="matrix" values="0 0 0 0 0 0 0 0 0 0 0 0 0 0 0 0 0 0 127 0" result="hardAlpha"/>
<feOffset dx="5" dy="5"/>
<feGaussianBlur stdDeviation="2.5"/>
<feComposite in2="hardAlpha" operator="arithmetic" k2="-1" k3="1"/>
<feColorMatrix type="matrix" values="0 0 0 0 0 0 0 0 0 0 0 0 0 0 0 0 0 0 0.25 0"/>
<feBlend mode="normal" in2="shape" result="effect1_innerShadow_1073_871"/>
</filter>
</defs>
</svg>
