<svg width="226" height="623" viewBox="0 0 226 623" fill="none" xmlns="http://www.w3.org/2000/svg">
<g filter="url(#filter0_i_1073_1030)">
<circle cx="112.902" cy="106.44" r="105.859" fill="#0C869D"/>
</g>
<mask id="path-2-outside-1_1073_1030" maskUnits="userSpaceOnUse" x="-0.419922" y="26.374" width="227" height="596" fill="black">
<rect fill="white" x="-0.419922" y="26.374" width="227" height="596"/>
<path fill-rule="evenodd" clip-rule="evenodd" d="M123.85 186.324C123.85 180.18 128.366 175.063 134.207 173.156C161.65 164.194 181.478 138.388 181.478 107.952C181.478 70.0774 150.775 39.374 112.9 39.374C75.0257 39.374 44.3223 70.0774 44.3223 107.952C44.3223 138.39 64.1519 164.196 91.5972 173.157C97.4387 175.064 101.955 180.181 101.955 186.326L101.955 254.818C101.955 260.038 98.5484 264.525 94.3477 267.625C86.6293 273.321 81.623 282.48 81.623 292.809C81.623 303.137 86.6293 312.297 94.3477 317.992C98.5484 321.092 101.955 325.579 101.955 330.8L101.955 398.45C101.955 404.837 97.113 410.115 90.88 411.511C46.0672 421.548 12.5801 461.567 12.5801 509.408C12.5801 564.814 57.4953 609.729 112.901 609.729C168.307 609.729 213.222 564.814 213.222 509.408C213.222 461.568 179.736 421.55 134.925 411.512C128.692 410.116 123.85 404.838 123.85 398.451L123.85 330.798C123.85 325.578 127.256 321.091 131.456 317.991C139.174 312.295 144.18 303.137 144.18 292.809C144.18 282.481 139.174 273.322 131.456 267.626C127.256 264.526 123.85 260.04 123.85 254.819L123.85 186.324Z"/>
</mask>
<path fill-rule="evenodd" clip-rule="evenodd" d="M123.85 186.324C123.85 180.18 128.366 175.063 134.207 173.156C161.65 164.194 181.478 138.388 181.478 107.952C181.478 70.0774 150.775 39.374 112.9 39.374C75.0257 39.374 44.3223 70.0774 44.3223 107.952C44.3223 138.39 64.1519 164.196 91.5972 173.157C97.4387 175.064 101.955 180.181 101.955 186.326L101.955 254.818C101.955 260.038 98.5484 264.525 94.3477 267.625C86.6293 273.321 81.623 282.48 81.623 292.809C81.623 303.137 86.6293 312.297 94.3477 317.992C98.5484 321.092 101.955 325.579 101.955 330.8L101.955 398.45C101.955 404.837 97.113 410.115 90.88 411.511C46.0672 421.548 12.5801 461.567 12.5801 509.408C12.5801 564.814 57.4953 609.729 112.901 609.729C168.307 609.729 213.222 564.814 213.222 509.408C213.222 461.568 179.736 421.55 134.925 411.512C128.692 410.116 123.85 404.838 123.85 398.451L123.85 330.798C123.85 325.578 127.256 321.091 131.456 317.991C139.174 312.295 144.18 303.137 144.18 292.809C144.18 282.481 139.174 273.322 131.456 267.626C127.256 264.526 123.85 260.04 123.85 254.819L123.85 186.324Z" fill="#CC03DF"/>
<path d="M131.456 317.991L138.886 328.058L131.456 317.991ZM90.88 411.511L93.6144 423.72L90.88 411.511ZM94.3477 317.992L86.9186 328.059L94.3477 317.992ZM94.3477 267.625L86.9186 257.558L94.3477 267.625ZM131.456 267.626L124.027 277.692L131.456 267.626ZM91.5972 173.157L95.4804 161.263L91.5972 173.157ZM134.925 411.512L132.19 423.721L134.925 411.512ZM134.207 173.156L138.091 185.049L134.207 173.156ZM168.967 107.952C168.967 132.816 152.773 153.931 130.323 161.262L138.091 185.049C170.528 174.456 193.99 143.96 193.99 107.952L168.967 107.952ZM112.9 51.8854C143.865 51.8854 168.967 76.9872 168.967 107.952L193.99 107.952C193.99 63.1676 157.685 26.8627 112.9 26.8627L112.9 51.8854ZM56.8336 107.952C56.8336 76.9872 81.9355 51.8854 112.9 51.8854L112.9 26.8627C68.1158 26.8627 31.8109 63.1676 31.8109 107.952L56.8336 107.952ZM95.4804 161.263C73.0291 153.933 56.8336 132.817 56.8336 107.952L31.8109 107.952C31.8109 143.962 55.2747 174.459 87.714 185.05L95.4804 161.263ZM114.466 254.818L114.466 186.326L89.4437 186.326L89.4437 254.818L114.466 254.818ZM86.9186 257.558C76.1418 265.511 69.1117 278.34 69.1117 292.809L94.1344 292.809C94.1344 286.62 97.1168 281.131 101.777 277.692L86.9186 257.558ZM69.1117 292.809C69.1117 307.277 76.1418 320.106 86.9186 328.059L101.777 307.925C97.1168 304.487 94.1344 298.997 94.1344 292.809L69.1117 292.809ZM114.466 398.45L114.466 330.8L89.4437 330.8L89.4437 398.45L114.466 398.45ZM25.0914 509.408C25.0914 467.549 54.3926 432.505 93.6144 423.72L88.1456 399.302C37.7417 410.591 0.0687399 455.585 0.0687399 509.408L25.0914 509.408ZM112.901 597.217C64.4051 597.217 25.0914 557.904 25.0914 509.408L0.0687399 509.408C0.0687399 571.723 50.5855 622.24 112.901 622.24L112.901 597.217ZM200.711 509.408C200.711 557.904 161.397 597.217 112.901 597.217L112.901 622.24C175.217 622.24 225.733 571.723 225.733 509.408L200.711 509.408ZM132.19 423.721C171.41 432.506 200.711 467.55 200.711 509.408L225.733 509.408C225.733 455.586 188.062 410.593 137.659 399.303L132.19 423.721ZM111.339 330.798L111.339 398.451L136.361 398.451L136.361 330.798L111.339 330.798ZM138.886 328.058C149.662 320.105 156.691 307.276 156.691 292.809L131.668 292.809C131.668 298.997 128.686 304.486 124.027 307.925L138.886 328.058ZM156.691 292.809C156.691 278.341 149.662 265.512 138.886 257.559L124.027 277.692C128.686 281.131 131.668 286.621 131.668 292.809L156.691 292.809ZM111.339 186.324L111.339 254.819L136.361 254.819L136.361 186.324L111.339 186.324ZM136.361 330.798C136.361 331.002 136.279 330.874 136.631 330.32C137.015 329.717 137.749 328.897 138.886 328.058L124.027 307.925C118.273 312.172 111.339 319.931 111.339 330.798L136.361 330.798ZM89.4437 398.45C89.4437 398.456 89.4434 398.452 89.4449 398.445C89.4462 398.438 89.447 398.438 89.4436 398.447C89.4369 398.464 89.404 398.539 89.3061 398.652C89.0897 398.901 88.6844 399.182 88.1456 399.302L93.6144 423.72C104.717 421.234 114.466 411.518 114.466 398.45L89.4437 398.45ZM86.9186 328.059C88.0561 328.899 88.7895 329.718 89.1738 330.322C89.5264 330.875 89.4437 331.004 89.4437 330.8L114.466 330.8C114.466 319.932 107.531 312.172 101.777 307.925L86.9186 328.059ZM89.4437 254.818C89.4437 254.613 89.5264 254.742 89.1738 255.296C88.7895 255.899 88.0561 256.719 86.9186 257.558L101.777 277.692C107.531 273.445 114.466 265.685 114.466 254.818L89.4437 254.818ZM138.886 257.559C137.749 256.72 137.015 255.901 136.631 255.297C136.279 254.743 136.361 254.615 136.361 254.819L111.339 254.819C111.339 265.686 118.273 273.446 124.027 277.692L138.886 257.559ZM87.714 185.05C88.4503 185.291 88.9833 185.706 89.2609 186.047C89.3874 186.203 89.4315 186.305 89.4422 186.334C89.4476 186.348 89.4471 186.35 89.4456 186.342C89.445 186.339 89.4444 186.335 89.4441 186.331C89.4437 186.327 89.4437 186.325 89.4437 186.326L114.466 186.326C114.466 173.672 105.345 164.484 95.4804 161.263L87.714 185.05ZM137.659 399.303C137.121 399.182 136.715 398.902 136.499 398.652C136.401 398.54 136.368 398.464 136.361 398.447C136.358 398.439 136.359 398.439 136.36 398.446C136.362 398.453 136.361 398.456 136.361 398.451L111.339 398.451C111.339 411.519 121.088 421.234 132.19 423.721L137.659 399.303ZM130.323 161.262C120.459 164.483 111.339 173.671 111.339 186.324L136.361 186.324C136.361 186.324 136.361 186.326 136.361 186.33C136.361 186.333 136.36 186.337 136.359 186.341C136.358 186.349 136.357 186.347 136.363 186.332C136.374 186.304 136.418 186.201 136.544 186.046C136.822 185.704 137.355 185.289 138.091 185.049L130.323 161.262Z" fill="#1B233C" mask="url(#path-2-outside-1_1073_1030)"/>
<g filter="url(#filter1_i_1073_1030)">
<path fill-rule="evenodd" clip-rule="evenodd" d="M123.85 186.324C123.85 180.18 128.366 175.063 134.207 173.156C161.65 164.194 181.478 138.388 181.478 107.952C181.478 70.0774 150.775 39.374 112.9 39.374C75.0257 39.374 44.3223 70.0774 44.3223 107.952C44.3223 138.39 64.1519 164.196 91.5972 173.157C97.4387 175.064 101.955 180.181 101.955 186.326L101.955 254.818C101.955 260.038 98.5484 264.525 94.3477 267.625C86.6293 273.321 81.623 282.48 81.623 292.809C81.623 303.137 86.6293 312.297 94.3477 317.992C98.5484 321.092 101.955 325.579 101.955 330.8L101.955 398.45C101.955 404.837 97.113 410.115 90.88 411.511C46.0672 421.548 12.5801 461.567 12.5801 509.408C12.5801 564.814 57.4953 609.729 112.901 609.729C168.307 609.729 213.222 564.814 213.222 509.408C213.222 461.568 179.736 421.55 134.925 411.512C128.692 410.116 123.85 404.838 123.85 398.451L123.85 330.798C123.85 325.578 127.256 321.091 131.456 317.991C139.174 312.295 144.18 303.137 144.18 292.809C144.18 282.481 139.174 273.322 131.456 267.626C127.256 264.526 123.85 260.04 123.85 254.819L123.85 186.324Z" fill="#CC03DF"/>
</g>
<path d="M85.8955 491.721C86.4287 491.835 86.9365 492.013 87.3936 492.267C87.8506 492.521 88.2568 492.851 88.6123 493.231C88.9678 493.612 89.2471 494.082 89.4502 494.628C89.6533 495.174 89.7549 495.771 89.7549 496.431C89.7549 497.18 89.6279 497.853 89.374 498.462C89.1201 499.071 88.7393 499.592 88.2441 500.036C87.7363 500.48 87.0889 500.823 86.3018 501.064C85.5146 501.318 84.6006 501.433 83.585 501.433H76.8564V482.961H82.8867C83.8008 482.961 84.6133 483.05 85.3369 483.228C86.0605 483.405 86.6826 483.685 87.2158 484.04C87.7363 484.396 88.1426 484.865 88.4219 485.449C88.7012 486.033 88.8408 486.706 88.8408 487.468C88.8408 488.433 88.5869 489.283 88.0918 490.045C87.584 490.807 86.8604 491.353 85.8955 491.683V491.721ZM79.1162 485.043V490.896H82.8613C83.2168 490.896 83.5723 490.87 83.915 490.807C84.2578 490.743 84.5879 490.629 84.9053 490.477C85.2227 490.324 85.502 490.146 85.7432 489.918C85.9717 489.702 86.1621 489.423 86.3018 489.067C86.4414 488.725 86.5176 488.344 86.5176 487.912C86.5176 487.468 86.4287 487.074 86.2764 486.731C86.124 486.389 85.8828 486.084 85.5654 485.83C85.2354 485.576 84.8164 485.386 84.2832 485.246C83.75 485.119 83.1279 485.043 82.417 485.043H79.1162ZM82.9502 499.351C84.3086 499.351 85.3877 499.097 86.1875 498.563C86.9746 498.03 87.3809 497.256 87.3809 496.228C87.3809 495.542 87.2158 494.958 86.8857 494.463C86.5557 493.98 86.0732 493.6 85.4258 493.333C84.7656 493.066 83.9785 492.927 83.0518 492.927H79.1162V499.351H82.9502ZM104.304 494.907C104.304 495.237 104.278 495.517 104.24 495.771H94.5156C94.6426 496.951 95.0996 497.891 95.874 498.602C96.6357 499.312 97.5879 499.655 98.7305 499.655C99.4795 499.655 100.152 499.503 100.762 499.198C101.358 498.894 101.866 498.475 102.298 497.954L103.771 499.211C103.199 499.947 102.476 500.531 101.612 500.963C100.749 501.395 99.7588 501.598 98.6543 501.598C97.7656 501.598 96.9277 501.445 96.1533 501.128C95.3789 500.811 94.7188 500.366 94.1602 499.808C93.6016 499.249 93.1572 498.563 92.8398 497.751C92.5098 496.938 92.3574 496.062 92.3574 495.11C92.3574 494.171 92.5098 493.308 92.8271 492.495C93.1318 491.683 93.5635 490.997 94.0967 490.438C94.6299 489.88 95.2773 489.436 96.0264 489.105C96.7627 488.788 97.5625 488.623 98.4131 488.623C99.5684 488.623 100.597 488.902 101.498 489.436C102.387 489.981 103.085 490.73 103.567 491.683C104.05 492.635 104.304 493.714 104.304 494.907ZM98.5273 490.565C97.5244 490.565 96.6611 490.883 95.9375 491.505C95.2139 492.127 94.7568 492.965 94.5664 494.019H102.209C102.031 492.978 101.625 492.14 100.978 491.505C100.33 490.883 99.5176 490.565 98.5273 490.565ZM111.07 501.598C108.874 501.598 107.782 500.29 107.782 497.662V490.604H106.17V488.775H107.782V484.446L109.89 484.218V488.775H114.079V490.604H109.89V497.345C109.89 498.145 110.004 498.729 110.232 499.084C110.461 499.439 110.854 499.617 111.438 499.617C112.099 499.617 112.81 499.401 113.571 498.97L114.13 500.811C113.851 500.963 113.597 501.103 113.355 501.204C113.102 501.306 112.784 501.407 112.378 501.483C111.972 501.56 111.527 501.598 111.07 501.598ZM120.541 501.598C118.345 501.598 117.253 500.29 117.253 497.662V490.604H115.641V488.775H117.253V484.446L119.36 484.218V488.775H123.55V490.604H119.36V497.345C119.36 498.145 119.475 498.729 119.703 499.084C119.932 499.439 120.325 499.617 120.909 499.617C121.569 499.617 122.28 499.401 123.042 498.97L123.601 500.811C123.321 500.963 123.067 501.103 122.826 501.204C122.572 501.306 122.255 501.407 121.849 501.483C121.442 501.56 120.998 501.598 120.541 501.598ZM137.007 494.907C137.007 495.237 136.981 495.517 136.943 495.771H127.219C127.346 496.951 127.803 497.891 128.577 498.602C129.339 499.312 130.291 499.655 131.434 499.655C132.183 499.655 132.855 499.503 133.465 499.198C134.062 498.894 134.569 498.475 135.001 497.954L136.474 499.211C135.902 499.947 135.179 500.531 134.315 500.963C133.452 501.395 132.462 501.598 131.357 501.598C130.469 501.598 129.631 501.445 128.856 501.128C128.082 500.811 127.422 500.366 126.863 499.808C126.305 499.249 125.86 498.563 125.543 497.751C125.213 496.938 125.061 496.062 125.061 495.11C125.061 494.171 125.213 493.308 125.53 492.495C125.835 491.683 126.267 490.997 126.8 490.438C127.333 489.88 127.98 489.436 128.729 489.105C129.466 488.788 130.266 488.623 131.116 488.623C132.271 488.623 133.3 488.902 134.201 489.436C135.09 489.981 135.788 490.73 136.271 491.683C136.753 492.635 137.007 493.714 137.007 494.907ZM131.23 490.565C130.228 490.565 129.364 490.883 128.641 491.505C127.917 492.127 127.46 492.965 127.27 494.019H134.912C134.734 492.978 134.328 492.14 133.681 491.505C133.033 490.883 132.221 490.565 131.23 490.565ZM146.465 488.623C146.706 488.623 146.884 488.636 146.985 488.648V490.972C146.681 490.946 146.401 490.934 146.147 490.934C145.36 490.934 144.675 491.124 144.091 491.505C143.507 491.886 143.062 492.406 142.758 493.066C142.453 493.727 142.301 494.488 142.301 495.326V501.433H140.193V488.775H142.301V490.984H142.352C142.821 490.235 143.405 489.651 144.116 489.245C144.827 488.839 145.602 488.623 146.465 488.623ZM54.9443 528.433V509.961H61.4062C62.4473 509.961 63.374 510.113 64.1738 510.393C64.9609 510.685 65.5957 511.091 66.0781 511.611C66.5605 512.132 66.916 512.729 67.1572 513.414C67.3857 514.1 67.5127 514.849 67.5127 515.687C67.5127 516.651 67.3477 517.489 67.043 518.226C66.7256 518.962 66.2812 519.559 65.6973 520.016C65.1133 520.473 64.4404 520.815 63.6533 521.044C62.8662 521.272 61.9902 521.387 61.0127 521.387H57.2041V528.433H54.9443ZM57.2041 519.305H60.8096C61.5586 519.305 62.2188 519.216 62.79 519.038C63.3486 518.86 63.8057 518.594 64.1484 518.264C64.4785 517.934 64.7324 517.54 64.9102 517.108C65.0752 516.677 65.1641 516.182 65.1641 515.636C65.1641 514.493 64.8086 513.604 64.0977 512.982C63.3867 512.36 62.4092 512.043 61.165 512.043H57.2041V519.305ZM76.9453 515.623C77.1865 515.623 77.3643 515.636 77.4658 515.648V517.972C77.1611 517.946 76.8818 517.934 76.6279 517.934C75.8408 517.934 75.1553 518.124 74.5713 518.505C73.9873 518.886 73.543 519.406 73.2383 520.066C72.9336 520.727 72.7812 521.488 72.7812 522.326V528.433H70.6738V515.775H72.7812V517.984H72.832C73.3018 517.235 73.8857 516.651 74.5967 516.245C75.3076 515.839 76.082 515.623 76.9453 515.623ZM85.2988 528.598C84.334 528.598 83.4326 528.433 82.6201 528.103C81.7949 527.772 81.0967 527.315 80.5381 526.731C79.9795 526.147 79.5352 525.462 79.2178 524.675C78.9004 523.888 78.748 523.037 78.748 522.123C78.748 521.222 78.9004 520.371 79.2178 519.571C79.5352 518.771 79.9795 518.086 80.5381 517.502C81.0967 516.918 81.7949 516.461 82.6201 516.131C83.4326 515.801 84.334 515.623 85.2988 515.623C86.5303 515.623 87.6475 515.902 88.6377 516.436C89.6279 516.981 90.4023 517.756 90.9609 518.746C91.5195 519.736 91.8115 520.866 91.8115 522.123C91.8115 523.38 91.5195 524.497 90.9609 525.487C90.4023 526.478 89.6279 527.252 88.6377 527.785C87.6475 528.331 86.5303 528.598 85.2988 528.598ZM85.2988 526.655C86.0986 526.655 86.835 526.465 87.5078 526.084C88.168 525.703 88.7012 525.17 89.0947 524.472C89.4756 523.786 89.6787 522.999 89.6787 522.123C89.6787 521.247 89.4756 520.46 89.0947 519.762C88.7012 519.063 88.168 518.518 87.5078 518.137C86.8477 517.756 86.1113 517.565 85.2988 517.565C84.4355 517.565 83.6611 517.769 82.9883 518.175C82.3027 518.581 81.7822 519.14 81.4268 519.825C81.0586 520.523 80.8809 521.285 80.8809 522.123C80.8809 522.961 81.0586 523.723 81.4268 524.408C81.7949 525.094 82.3154 525.64 83.001 526.046C83.6738 526.452 84.4355 526.655 85.2988 526.655ZM101.523 515.623C102.691 515.623 103.758 515.915 104.71 516.486C105.649 517.058 106.386 517.845 106.919 518.835C107.452 519.838 107.719 520.955 107.719 522.187C107.719 523.139 107.554 524.015 107.236 524.814C106.906 525.627 106.475 526.3 105.916 526.846C105.357 527.404 104.71 527.836 103.948 528.141C103.187 528.445 102.374 528.598 101.511 528.598C100.622 528.598 99.8223 528.42 99.0859 528.064C98.3496 527.709 97.7148 527.214 97.207 526.554H97.1562V533.574H95.0615V515.775H97.1689V517.642H97.2197C97.7402 516.994 98.375 516.499 99.1113 516.144C99.8477 515.801 100.66 515.623 101.523 515.623ZM101.308 526.668C102.577 526.668 103.605 526.249 104.393 525.411C105.18 524.573 105.573 523.494 105.573 522.199C105.573 520.815 105.154 519.698 104.342 518.835C103.529 517.984 102.501 517.553 101.282 517.553C100.495 517.553 99.7842 517.769 99.1494 518.175C98.502 518.581 97.9941 519.14 97.6387 519.851C97.2705 520.562 97.0928 521.349 97.0928 522.199C97.0928 522.859 97.207 523.469 97.4355 524.027C97.6641 524.586 97.9688 525.068 98.3623 525.449C98.7432 525.83 99.2002 526.135 99.708 526.351C100.216 526.566 100.749 526.668 101.308 526.668ZM116.707 528.598C115.742 528.598 114.841 528.433 114.028 528.103C113.203 527.772 112.505 527.315 111.946 526.731C111.388 526.147 110.943 525.462 110.626 524.675C110.309 523.888 110.156 523.037 110.156 522.123C110.156 521.222 110.309 520.371 110.626 519.571C110.943 518.771 111.388 518.086 111.946 517.502C112.505 516.918 113.203 516.461 114.028 516.131C114.841 515.801 115.742 515.623 116.707 515.623C117.938 515.623 119.056 515.902 120.046 516.436C121.036 516.981 121.811 517.756 122.369 518.746C122.928 519.736 123.22 520.866 123.22 522.123C123.22 523.38 122.928 524.497 122.369 525.487C121.811 526.478 121.036 527.252 120.046 527.785C119.056 528.331 117.938 528.598 116.707 528.598ZM116.707 526.655C117.507 526.655 118.243 526.465 118.916 526.084C119.576 525.703 120.109 525.17 120.503 524.472C120.884 523.786 121.087 522.999 121.087 522.123C121.087 521.247 120.884 520.46 120.503 519.762C120.109 519.063 119.576 518.518 118.916 518.137C118.256 517.756 117.52 517.565 116.707 517.565C115.844 517.565 115.069 517.769 114.396 518.175C113.711 518.581 113.19 519.14 112.835 519.825C112.467 520.523 112.289 521.285 112.289 522.123C112.289 522.961 112.467 523.723 112.835 524.408C113.203 525.094 113.724 525.64 114.409 526.046C115.082 526.452 115.844 526.655 116.707 526.655ZM130.316 528.598C128.374 528.598 126.724 527.988 125.353 526.77L126.444 525.17C126.978 525.678 127.536 526.046 128.146 526.3C128.755 526.554 129.479 526.681 130.316 526.681C131.053 526.681 131.637 526.528 132.068 526.198C132.5 525.881 132.716 525.475 132.716 524.992C132.716 524.865 132.703 524.751 132.678 524.637C132.652 524.535 132.602 524.434 132.525 524.332C132.449 524.23 132.373 524.154 132.31 524.078C132.233 524.002 132.132 523.926 131.979 523.837C131.827 523.761 131.7 523.685 131.599 523.634C131.497 523.583 131.332 523.507 131.129 523.431C130.913 523.354 130.735 523.291 130.608 523.24C130.481 523.189 130.278 523.113 130.012 523.012C129.872 522.974 129.771 522.936 129.707 522.91C129.225 522.758 128.831 522.605 128.501 522.453C128.171 522.313 127.841 522.136 127.485 521.907C127.13 521.679 126.838 521.438 126.635 521.184C126.419 520.93 126.241 520.625 126.102 520.244C125.962 519.876 125.898 519.47 125.898 519.013C125.898 518.048 126.292 517.248 127.092 516.601C127.879 515.953 128.882 515.623 130.088 515.623C131.713 515.623 133.173 516.144 134.442 517.185L133.351 518.848C132.335 517.972 131.205 517.527 129.986 517.527C129.479 517.527 129.021 517.667 128.628 517.946C128.234 518.226 128.044 518.581 128.044 519.013C128.044 519.254 128.095 519.47 128.209 519.66C128.323 519.863 128.501 520.041 128.742 520.193C128.983 520.358 129.225 520.498 129.479 520.612C129.72 520.727 130.037 520.854 130.443 521.006C131.789 521.539 132.614 521.869 132.894 521.996C133.757 522.428 134.328 522.961 134.607 523.583C134.772 523.977 134.861 524.434 134.861 524.967C134.861 525.475 134.76 525.944 134.569 526.376C134.379 526.808 134.1 527.201 133.731 527.531C133.363 527.861 132.881 528.128 132.297 528.318C131.713 528.509 131.053 528.598 130.316 528.598ZM147.43 515.775H149.537V528.433H147.519V526.427H147.48C146.96 527.112 146.325 527.646 145.563 528.026C144.802 528.407 143.964 528.598 143.05 528.598C142.187 528.598 141.374 528.445 140.612 528.141C139.851 527.836 139.19 527.404 138.632 526.846C138.073 526.3 137.642 525.627 137.324 524.814C136.994 524.015 136.842 523.139 136.842 522.187C136.842 520.955 137.096 519.838 137.629 518.835C138.162 517.845 138.898 517.058 139.851 516.486C140.79 515.915 141.856 515.623 143.037 515.623C143.9 515.623 144.713 515.801 145.462 516.144C146.211 516.499 146.846 516.994 147.379 517.654H147.43V515.775ZM143.253 526.668C143.812 526.668 144.357 526.566 144.878 526.351C145.386 526.135 145.843 525.83 146.236 525.449C146.617 525.068 146.935 524.586 147.163 524.027C147.392 523.469 147.506 522.859 147.506 522.199C147.506 521.564 147.392 520.955 147.176 520.384C146.96 519.812 146.668 519.317 146.3 518.898C145.919 518.492 145.475 518.162 144.954 517.921C144.421 517.68 143.862 517.553 143.278 517.553C142.047 517.553 141.019 517.984 140.206 518.835C139.394 519.698 138.987 520.815 138.987 522.199C138.987 523.494 139.381 524.573 140.168 525.411C140.955 526.249 141.983 526.668 143.253 526.668ZM153.612 528.433V509.288H155.707V528.433H153.612ZM163.781 528.598C161.839 528.598 160.188 527.988 158.817 526.77L159.909 525.17C160.442 525.678 161.001 526.046 161.61 526.3C162.22 526.554 162.943 526.681 163.781 526.681C164.518 526.681 165.102 526.528 165.533 526.198C165.965 525.881 166.181 525.475 166.181 524.992C166.181 524.865 166.168 524.751 166.143 524.637C166.117 524.535 166.066 524.434 165.99 524.332C165.914 524.23 165.838 524.154 165.774 524.078C165.698 524.002 165.597 523.926 165.444 523.837C165.292 523.761 165.165 523.685 165.063 523.634C164.962 523.583 164.797 523.507 164.594 523.431C164.378 523.354 164.2 523.291 164.073 523.24C163.946 523.189 163.743 523.113 163.477 523.012C163.337 522.974 163.235 522.936 163.172 522.91C162.689 522.758 162.296 522.605 161.966 522.453C161.636 522.313 161.306 522.136 160.95 521.907C160.595 521.679 160.303 521.438 160.1 521.184C159.884 520.93 159.706 520.625 159.566 520.244C159.427 519.876 159.363 519.47 159.363 519.013C159.363 518.048 159.757 517.248 160.557 516.601C161.344 515.953 162.347 515.623 163.553 515.623C165.178 515.623 166.638 516.144 167.907 517.185L166.815 518.848C165.8 517.972 164.67 517.527 163.451 517.527C162.943 517.527 162.486 517.667 162.093 517.946C161.699 518.226 161.509 518.581 161.509 519.013C161.509 519.254 161.56 519.47 161.674 519.66C161.788 519.863 161.966 520.041 162.207 520.193C162.448 520.358 162.689 520.498 162.943 520.612C163.185 520.727 163.502 520.854 163.908 521.006C165.254 521.539 166.079 521.869 166.358 521.996C167.222 522.428 167.793 522.961 168.072 523.583C168.237 523.977 168.326 524.434 168.326 524.967C168.326 525.475 168.225 525.944 168.034 526.376C167.844 526.808 167.564 527.201 167.196 527.531C166.828 527.861 166.346 528.128 165.762 528.318C165.178 528.509 164.518 528.598 163.781 528.598Z" fill="white"/>
<path d="M107.078 313.545C106.955 313.545 106.833 313.515 106.724 313.458L102.517 311.246L98.3042 313.458C98.1786 313.524 98.0371 313.554 97.8956 313.543C97.7542 313.533 97.6184 313.483 97.5037 313.4C97.3891 313.316 97.3 313.203 97.2466 313.071C97.1933 312.94 97.1778 312.796 97.2018 312.656L98.008 307.972L94.6027 304.652C94.5011 304.553 94.4293 304.427 94.3952 304.29C94.3612 304.152 94.3664 304.008 94.4102 303.873C94.454 303.738 94.5346 303.618 94.643 303.526C94.7514 303.435 94.8833 303.376 95.0236 303.355L99.7272 302.67L101.835 298.408C101.898 298.281 101.995 298.175 102.116 298.1C102.236 298.025 102.375 297.985 102.517 297.985C102.659 297.985 102.798 298.025 102.918 298.1C103.039 298.175 103.136 298.282 103.199 298.409L105.302 302.671L110.005 303.355C110.146 303.376 110.277 303.435 110.386 303.526C110.494 303.618 110.575 303.738 110.619 303.872C110.662 304.007 110.668 304.152 110.634 304.289C110.6 304.427 110.528 304.552 110.427 304.651L107.026 307.971L107.099 308.398L107.099 308.399L107.827 312.657C107.846 312.766 107.84 312.878 107.811 312.985C107.782 313.092 107.73 313.191 107.659 313.275C107.587 313.36 107.498 313.428 107.398 313.475C107.298 313.521 107.189 313.545 107.078 313.545ZM96.7663 304.638L99.3555 307.162C99.4439 307.248 99.5099 307.354 99.548 307.472C99.5861 307.589 99.595 307.714 99.574 307.835L98.9614 311.396L102.163 309.715C102.272 309.657 102.394 309.627 102.517 309.627C102.64 309.627 102.761 309.657 102.87 309.715L106.069 311.395L105.46 307.836C105.439 307.714 105.448 307.589 105.486 307.472C105.523 307.355 105.589 307.249 105.678 307.163L108.264 304.638L104.688 304.117C104.566 304.1 104.45 304.052 104.351 303.98C104.251 303.908 104.17 303.812 104.116 303.702L102.516 300.461L100.913 303.702C100.858 303.813 100.778 303.908 100.678 303.98C100.579 304.053 100.463 304.1 100.341 304.117L96.7663 304.638Z" fill="#F9F9F9"/>
<path d="M100.925 291.097L101.399 293.874L100.068 293.173L98.4255 292.31L95.4486 293.874L96.0184 290.562L93.6113 288.216L96.9354 287.732L98.4255 284.72L99.9126 287.732L103.237 288.216L100.833 290.562L100.925 291.097Z" fill="#F9F9F9"/>
<path d="M123.56 303.824L123.843 305.481L123.048 305.063L122.067 304.548L120.29 305.481L120.63 303.505L119.193 302.104L121.178 301.815L122.067 300.017L122.955 301.815L124.939 302.104L123.504 303.505L123.56 303.824Z" fill="#F9F9F9"/>
<path d="M106.08 294.695C105.93 294.695 105.783 294.65 105.658 294.567C105.533 294.483 105.436 294.364 105.378 294.225C105.321 294.087 105.306 293.934 105.335 293.786C105.364 293.639 105.437 293.503 105.543 293.397L124.365 274.575C124.507 274.433 124.701 274.353 124.902 274.353C125.104 274.353 125.297 274.433 125.44 274.575C125.582 274.718 125.662 274.911 125.662 275.113C125.662 275.314 125.582 275.507 125.44 275.65L106.618 294.472C106.547 294.543 106.464 294.599 106.371 294.637C106.279 294.675 106.18 294.695 106.08 294.695Z" fill="#F9F9F9"/>
<path d="M113.354 301.33C113.204 301.33 113.058 301.286 112.934 301.203C112.809 301.121 112.712 301.003 112.654 300.866C112.595 300.728 112.579 300.576 112.607 300.429C112.634 300.283 112.705 300.147 112.809 300.04L130.233 282.134C130.303 282.062 130.386 282.004 130.478 281.964C130.57 281.924 130.668 281.903 130.769 281.901C130.869 281.9 130.968 281.918 131.061 281.955C131.154 281.992 131.239 282.047 131.311 282.117C131.383 282.186 131.44 282.27 131.48 282.362C131.519 282.454 131.54 282.553 131.541 282.653C131.542 282.753 131.524 282.852 131.486 282.945C131.449 283.038 131.393 283.123 131.323 283.194L113.899 301.1C113.828 301.173 113.743 301.231 113.65 301.27C113.556 301.31 113.455 301.33 113.354 301.33Z" fill="#F9F9F9"/>
<path d="M128.703 278.364C128.554 278.364 128.407 278.32 128.283 278.237C128.158 278.154 128.061 278.036 128.003 277.898C127.945 277.76 127.929 277.608 127.957 277.461C127.985 277.314 128.056 277.178 128.161 277.071L131.395 273.774C131.536 273.63 131.729 273.548 131.93 273.546C132.132 273.544 132.326 273.622 132.47 273.763C132.614 273.905 132.696 274.097 132.698 274.299C132.7 274.5 132.622 274.694 132.48 274.838L129.246 278.136C129.175 278.208 129.091 278.266 128.998 278.305C128.905 278.344 128.805 278.364 128.703 278.364Z" fill="#F9F9F9"/>
<path d="M125.946 300.112C125.796 300.112 125.65 300.068 125.525 299.985C125.4 299.902 125.303 299.784 125.245 299.646C125.187 299.508 125.171 299.356 125.199 299.209C125.227 299.062 125.298 298.926 125.403 298.819L128.637 295.522C128.778 295.378 128.971 295.296 129.173 295.294C129.374 295.292 129.568 295.37 129.712 295.511C129.856 295.653 129.938 295.845 129.94 296.047C129.942 296.248 129.864 296.442 129.723 296.586L126.488 299.884C126.418 299.956 126.333 300.014 126.24 300.053C126.147 300.092 126.047 300.112 125.946 300.112Z" fill="#F9F9F9"/>
<path d="M105.344 288.58C105.194 288.58 105.048 288.536 104.923 288.453C104.799 288.37 104.701 288.252 104.643 288.114C104.585 287.976 104.569 287.824 104.598 287.677C104.626 287.53 104.697 287.394 104.801 287.288L108.035 283.99C108.177 283.846 108.369 283.765 108.571 283.763C108.772 283.761 108.966 283.839 109.11 283.98C109.254 284.121 109.335 284.314 109.338 284.515C109.34 284.716 109.262 284.91 109.121 285.054L105.887 288.352C105.816 288.424 105.732 288.482 105.638 288.521C105.545 288.56 105.445 288.58 105.344 288.58Z" fill="#F9F9F9"/>
<path d="M111.153 295.912C111.002 295.912 110.855 295.868 110.73 295.784C110.605 295.7 110.508 295.582 110.45 295.443C110.393 295.304 110.378 295.151 110.407 295.004C110.436 294.856 110.509 294.721 110.615 294.615L124.48 280.75C124.622 280.608 124.816 280.528 125.017 280.528C125.218 280.528 125.412 280.609 125.554 280.751C125.696 280.893 125.776 281.086 125.777 281.288C125.777 281.489 125.697 281.683 125.555 281.825L111.69 295.689C111.62 295.76 111.536 295.816 111.444 295.854C111.351 295.893 111.252 295.912 111.153 295.912Z" fill="#F9F9F9"/>
<path d="M102.073 285.968C101.922 285.968 101.775 285.924 101.65 285.84C101.525 285.757 101.428 285.638 101.37 285.499C101.313 285.36 101.298 285.207 101.327 285.06C101.356 284.913 101.429 284.777 101.535 284.671L108.486 277.72C108.629 277.577 108.822 277.497 109.024 277.497C109.225 277.497 109.419 277.577 109.561 277.72C109.704 277.862 109.784 278.056 109.784 278.257C109.784 278.459 109.704 278.652 109.561 278.795L102.61 285.746C102.539 285.816 102.456 285.872 102.363 285.911C102.271 285.949 102.172 285.968 102.073 285.968Z" fill="#F9F9F9"/>
<path d="M77.0391 115.078C76.0361 115.078 75.084 114.951 74.1699 114.697C73.2559 114.443 72.4053 114.062 71.6436 113.542C70.8691 113.034 70.1963 112.412 69.6377 111.676C69.0664 110.939 68.6221 110.076 68.3047 109.061C67.9873 108.058 67.835 106.966 67.835 105.785C67.835 104.744 67.9619 103.741 68.2158 102.789C68.4697 101.837 68.8506 100.961 69.3711 100.174C69.8789 99.3867 70.501 98.7139 71.2373 98.1299C71.9609 97.5586 72.8242 97.1143 73.8145 96.7842C74.8047 96.4668 75.8711 96.3018 77.0391 96.3018C77.9023 96.3018 78.7529 96.4287 79.5781 96.6572C80.4033 96.8984 81.2285 97.292 82.041 97.8252C82.8535 98.3584 83.5771 99.0312 84.2373 99.8311L82.5488 101.24C81.8379 100.352 81 99.666 80.0479 99.1836C79.0957 98.7012 78.0928 98.46 77.0391 98.46C75.6553 98.46 74.4492 98.7773 73.4082 99.3994C72.3672 100.034 71.5674 100.897 71.0215 102.002C70.4629 103.106 70.1963 104.363 70.1963 105.785C70.1963 106.648 70.2979 107.461 70.5264 108.21C70.7549 108.972 71.0723 109.632 71.4785 110.203C71.8848 110.774 72.3799 111.27 72.9385 111.676C73.4971 112.082 74.1318 112.399 74.8301 112.603C75.5156 112.818 76.252 112.92 77.0391 112.92C79.2227 112.92 81.0508 112.006 82.5488 110.165L84.2373 111.587C83.374 112.666 82.333 113.517 81.1396 114.139C79.9463 114.773 78.5752 115.078 77.0391 115.078ZM87.4365 114.938V95.7939H89.5312V114.938H87.4365ZM95.0029 99.9326C94.5713 99.9326 94.2158 99.793 93.9365 99.501C93.6445 99.2217 93.5049 98.8662 93.5049 98.46C93.5049 98.0537 93.6445 97.6982 93.9365 97.4062C94.2158 97.127 94.5713 96.9746 95.0029 96.9746C95.2695 96.9746 95.5234 97.0508 95.752 97.1777C95.9805 97.3047 96.1582 97.4824 96.2979 97.7109C96.4248 97.9395 96.501 98.1934 96.501 98.46C96.501 98.8662 96.3486 99.2217 96.0566 99.501C95.7646 99.793 95.4092 99.9326 95.0029 99.9326ZM93.9365 114.938V102.281H96.0312V114.938H93.9365ZM105.73 115.104C104.524 115.104 103.445 114.837 102.493 114.291C101.541 113.758 100.805 112.996 100.271 112.006C99.7383 111.016 99.4717 109.898 99.4717 108.629C99.4717 107.372 99.7383 106.242 100.271 105.252C100.805 104.262 101.554 103.5 102.519 102.941C103.483 102.396 104.575 102.116 105.807 102.116C106.771 102.116 107.711 102.319 108.625 102.7C109.539 103.094 110.301 103.652 110.91 104.376L109.45 105.646C109.044 105.163 108.523 104.77 107.914 104.49C107.305 104.211 106.632 104.059 105.908 104.059C104.639 104.059 103.598 104.49 102.798 105.328C101.998 106.179 101.604 107.271 101.604 108.616C101.604 109.962 101.998 111.066 102.798 111.904C103.598 112.742 104.639 113.161 105.908 113.161C106.619 113.161 107.305 113.034 107.939 112.755C108.574 112.476 109.095 112.107 109.501 111.65L110.961 112.958C110.39 113.593 109.641 114.113 108.727 114.507C107.812 114.913 106.81 115.104 105.73 115.104ZM118.629 109.137H118.591L115.938 112.082V114.938H113.843V95.7939H115.938V109.188H115.976L122.209 102.281H124.761L120.038 107.524L124.786 114.938H122.387L118.629 109.137ZM134.574 115.104C133.508 115.104 132.543 114.938 131.667 114.583C130.791 114.24 130.042 113.745 129.42 113.098C128.785 112.463 128.303 111.65 127.96 110.686C127.604 109.721 127.439 108.629 127.439 107.423V96.4668H129.699V107.258C129.699 108.984 130.131 110.355 131.02 111.396C131.908 112.438 133.089 112.945 134.574 112.945C136.034 112.945 137.215 112.438 138.129 111.422C139.03 110.406 139.487 109.022 139.487 107.258V96.4668H141.747V107.423C141.747 109.797 141.1 111.676 139.805 113.047C138.51 114.418 136.771 115.104 134.574 115.104ZM152.322 102.129C153.49 102.129 154.557 102.421 155.509 102.992C156.448 103.563 157.185 104.351 157.718 105.341C158.251 106.344 158.518 107.461 158.518 108.692C158.518 109.645 158.353 110.521 158.035 111.32C157.705 112.133 157.273 112.806 156.715 113.352C156.156 113.91 155.509 114.342 154.747 114.646C153.985 114.951 153.173 115.104 152.31 115.104C151.421 115.104 150.621 114.926 149.885 114.57C149.148 114.215 148.514 113.72 148.006 113.06H147.955V120.08H145.86V102.281H147.968V104.147H148.019C148.539 103.5 149.174 103.005 149.91 102.649C150.646 102.307 151.459 102.129 152.322 102.129ZM152.106 113.174C153.376 113.174 154.404 112.755 155.191 111.917C155.979 111.079 156.372 110 156.372 108.705C156.372 107.321 155.953 106.204 155.141 105.341C154.328 104.49 153.3 104.059 152.081 104.059C151.294 104.059 150.583 104.274 149.948 104.681C149.301 105.087 148.793 105.646 148.438 106.356C148.069 107.067 147.892 107.854 147.892 108.705C147.892 109.365 148.006 109.975 148.234 110.533C148.463 111.092 148.768 111.574 149.161 111.955C149.542 112.336 149.999 112.641 150.507 112.856C151.015 113.072 151.548 113.174 152.106 113.174Z" fill="white"/>
<defs>
<filter id="filter0_i_1073_1030" x="7.04297" y="0.581055" width="214.846" height="214.845" filterUnits="userSpaceOnUse" color-interpolation-filters="sRGB">
<feFlood flood-opacity="0" result="BackgroundImageFix"/>
<feBlend mode="normal" in="SourceGraphic" in2="BackgroundImageFix" result="shape"/>
<feColorMatrix in="SourceAlpha" type="matrix" values="0 0 0 0 0 0 0 0 0 0 0 0 0 0 0 0 0 0 127 0" result="hardAlpha"/>
<feOffset dx="3.12783" dy="3.12783"/>
<feGaussianBlur stdDeviation="1.56392"/>
<feComposite in2="hardAlpha" operator="arithmetic" k2="-1" k3="1"/>
<feColorMatrix type="matrix" values="0 0 0 0 0 0 0 0 0 0 0 0 0 0 0 0 0 0 0.25 0"/>
<feBlend mode="normal" in2="shape" result="effect1_innerShadow_1073_1030"/>
</filter>
<filter id="filter1_i_1073_1030" x="12.5801" y="39.374" width="205.642" height="575.355" filterUnits="userSpaceOnUse" color-interpolation-filters="sRGB">
<feFlood flood-opacity="0" result="BackgroundImageFix"/>
<feBlend mode="normal" in="SourceGraphic" in2="BackgroundImageFix" result="shape"/>
<feColorMatrix in="SourceAlpha" type="matrix" values="0 0 0 0 0 0 0 0 0 0 0 0 0 0 0 0 0 0 127 0" result="hardAlpha"/>
<feOffset dx="5" dy="5"/>
<feGaussianBlur stdDeviation="2.5"/>
<feComposite in2="hardAlpha" operator="arithmetic" k2="-1" k3="1"/>
<feColorMatrix type="matrix" values="0 0 0 0 0 0 0 0 0 0 0 0 0 0 0 0 0 0 0.25 0"/>
<feBlend mode="normal" in2="shape" result="effect1_innerShadow_1073_1030"/>
</filter>
</defs>
</svg>
