<svg width="227" height="623" viewBox="0 0 227 623" fill="none" xmlns="http://www.w3.org/2000/svg">
<g filter="url(#filter0_i_1073_904)">
<circle cx="105.859" cy="105.859" r="105.859" transform="matrix(1 0 0 -1 7.23828 622.034)" fill="#CC03DF"/>
</g>
<mask id="path-2-outside-1_1073_904" maskUnits="userSpaceOnUse" x="-0.0839844" y="0.240417" width="227" height="596" fill="black">
<rect fill="white" x="-0.0839844" y="0.240417" width="227" height="596"/>
<path fill-rule="evenodd" clip-rule="evenodd" d="M124.186 436.29C124.186 442.435 128.702 447.551 134.543 449.459C161.986 458.421 181.814 484.226 181.814 514.662C181.814 552.537 151.111 583.24 113.236 583.24C75.3616 583.24 44.6582 552.537 44.6582 514.662C44.6582 484.225 64.4878 458.419 91.9332 449.458C97.7746 447.55 102.291 442.434 102.291 436.289L102.291 367.797C102.291 362.576 98.8844 358.09 94.6836 354.99C86.9652 349.294 81.959 340.134 81.959 329.806C81.959 319.477 86.9652 310.318 94.6836 304.622C98.8844 301.522 102.291 297.036 102.291 291.815L102.291 224.164C102.291 217.777 97.4489 212.499 91.2159 211.103C46.4031 201.066 12.916 161.047 12.916 113.207C12.916 57.8009 57.8312 12.8857 113.237 12.8857C168.643 12.8857 213.558 57.8009 213.558 113.207C213.558 161.046 180.072 201.065 135.261 211.102C129.028 212.499 124.186 217.776 124.186 224.164L124.186 291.816C124.186 297.037 127.592 301.523 131.792 304.623C139.51 310.319 144.516 319.478 144.516 329.806C144.516 340.134 139.51 349.293 131.792 354.989C127.592 358.089 124.186 362.575 124.186 367.795L124.186 436.29Z"/>
</mask>
<path fill-rule="evenodd" clip-rule="evenodd" d="M124.186 436.29C124.186 442.435 128.702 447.551 134.543 449.459C161.986 458.421 181.814 484.226 181.814 514.662C181.814 552.537 151.111 583.24 113.236 583.24C75.3616 583.24 44.6582 552.537 44.6582 514.662C44.6582 484.225 64.4878 458.419 91.9332 449.458C97.7746 447.55 102.291 442.434 102.291 436.289L102.291 367.797C102.291 362.576 98.8844 358.09 94.6836 354.99C86.9652 349.294 81.959 340.134 81.959 329.806C81.959 319.477 86.9652 310.318 94.6836 304.622C98.8844 301.522 102.291 297.036 102.291 291.815L102.291 224.164C102.291 217.777 97.4489 212.499 91.2159 211.103C46.4031 201.066 12.916 161.047 12.916 113.207C12.916 57.8009 57.8312 12.8857 113.237 12.8857C168.643 12.8857 213.558 57.8009 213.558 113.207C213.558 161.046 180.072 201.065 135.261 211.102C129.028 212.499 124.186 217.776 124.186 224.164L124.186 291.816C124.186 297.037 127.592 301.523 131.792 304.623C139.51 310.319 144.516 319.478 144.516 329.806C144.516 340.134 139.51 349.293 131.792 354.989C127.592 358.089 124.186 362.575 124.186 367.795L124.186 436.29Z" fill="#0C869D"/>
<path d="M124.186 291.816L111.675 291.816L124.186 291.816ZM131.792 304.623L139.222 294.557L131.792 304.623ZM102.291 224.164L89.7797 224.164L102.291 224.164ZM94.6836 304.622L87.2546 294.555L94.6836 304.622ZM102.291 291.815L89.7797 291.815L102.291 291.815ZM94.6836 354.99L87.2546 365.057L94.6836 354.99ZM131.792 354.989L124.363 344.922L131.792 354.989ZM135.261 211.102L132.526 198.894L135.261 211.102ZM124.186 224.164L111.675 224.164L124.186 224.164ZM134.543 449.459L130.659 461.352L134.543 449.459ZM169.303 514.662C169.303 489.798 153.109 468.683 130.659 461.352L138.427 437.566C170.864 448.158 194.325 478.654 194.325 514.662L169.303 514.662ZM113.236 570.729C144.201 570.729 169.303 545.627 169.303 514.662L194.325 514.662C194.325 559.447 158.021 595.752 113.236 595.752L113.236 570.729ZM57.1695 514.662C57.1695 545.627 82.2714 570.729 113.236 570.729L113.236 595.752C68.4518 595.752 32.1469 559.447 32.1469 514.662L57.1695 514.662ZM95.8164 461.351C73.365 468.681 57.1695 489.797 57.1695 514.662L32.1469 514.662C32.1469 478.653 55.6107 448.156 88.05 437.564L95.8164 461.351ZM114.802 367.797L114.802 436.289L89.7797 436.289L89.7797 367.797L114.802 367.797ZM87.2546 365.057C76.4777 357.104 69.4476 344.275 69.4476 329.806L94.4703 329.806C94.4703 335.994 97.4528 341.484 102.113 344.923L87.2546 365.057ZM69.4476 329.806C69.4476 315.337 76.4777 302.508 87.2546 294.555L102.113 314.689C97.4528 318.128 94.4703 323.617 94.4703 329.806L69.4476 329.806ZM114.802 224.164L114.802 291.815L89.7797 291.815L89.7797 224.164L114.802 224.164ZM25.4274 113.207C25.4274 155.065 54.7286 190.11 93.9503 198.894L88.4816 223.312C38.0777 212.023 0.404677 167.029 0.404677 113.207L25.4274 113.207ZM113.237 25.3971C64.741 25.3971 25.4274 64.7108 25.4274 113.207L0.404677 113.207C0.404677 50.8911 50.9214 0.37439 113.237 0.37439L113.237 25.3971ZM201.046 113.207C201.046 64.7108 161.733 25.3971 113.237 25.3971L113.237 0.37439C175.552 0.37439 226.069 50.8911 226.069 113.207L201.046 113.207ZM132.526 198.894C171.746 190.108 201.046 155.064 201.046 113.207L226.069 113.207C226.069 167.028 188.398 212.021 137.995 223.311L132.526 198.894ZM111.675 291.816L111.675 224.164L136.697 224.164L136.697 291.816L111.675 291.816ZM139.222 294.557C149.998 302.51 157.027 315.338 157.027 329.806L132.004 329.806C132.004 323.618 129.022 318.128 124.363 314.69L139.222 294.557ZM157.027 329.806C157.027 344.274 149.998 357.102 139.222 365.055L124.363 344.922C129.022 341.483 132.004 335.994 132.004 329.806L157.027 329.806ZM111.675 436.29L111.675 367.795L136.697 367.795L136.697 436.29L111.675 436.29ZM136.697 291.816C136.697 291.612 136.615 291.741 136.967 292.294C137.351 292.898 138.085 293.717 139.222 294.557L124.363 314.69C118.609 310.443 111.675 302.683 111.675 291.816L136.697 291.816ZM89.7797 224.164C89.7797 224.159 89.7794 224.162 89.7808 224.17C89.7821 224.176 89.7829 224.177 89.7795 224.168C89.7728 224.151 89.7399 224.076 89.6421 223.963C89.4257 223.713 89.0204 223.433 88.4816 223.312L93.9503 198.894C105.052 201.381 114.802 211.096 114.802 224.164L89.7797 224.164ZM87.2546 294.555C88.392 293.716 89.1254 292.896 89.5098 292.293C89.8624 291.739 89.7797 291.61 89.7797 291.815L114.802 291.815C114.802 302.682 107.867 310.442 102.113 314.689L87.2546 294.555ZM89.7797 367.797C89.7797 368.001 89.8624 367.872 89.5098 367.319C89.1254 366.715 88.392 365.896 87.2546 365.057L102.113 344.923C107.867 349.169 114.802 356.929 114.802 367.797L89.7797 367.797ZM139.222 365.055C138.085 365.895 137.351 366.714 136.967 367.317C136.615 367.871 136.697 368 136.697 367.795L111.675 367.795C111.675 356.929 118.609 349.169 124.363 344.922L139.222 365.055ZM88.05 437.564C88.7863 437.324 89.3193 436.909 89.5968 436.567C89.7233 436.412 89.7674 436.309 89.7781 436.281C89.7835 436.266 89.783 436.264 89.7816 436.272C89.7809 436.276 89.7804 436.28 89.78 436.283C89.7797 436.287 89.7797 436.289 89.7797 436.289L114.802 436.289C114.802 448.942 105.681 458.13 95.8164 461.351L88.05 437.564ZM137.995 223.311C137.456 223.432 137.051 223.713 136.835 223.962C136.737 224.075 136.704 224.15 136.697 224.167C136.694 224.176 136.695 224.176 136.696 224.169C136.698 224.161 136.697 224.158 136.697 224.164L111.675 224.164C111.675 211.096 121.424 201.38 132.526 198.894L137.995 223.311ZM130.659 461.352C120.795 458.131 111.675 448.943 111.675 436.29L136.697 436.29C136.697 436.291 136.697 436.289 136.697 436.285C136.696 436.281 136.696 436.277 136.695 436.274C136.694 436.266 136.693 436.268 136.699 436.282C136.709 436.311 136.754 436.413 136.88 436.569C137.158 436.91 137.69 437.325 138.427 437.566L130.659 461.352Z" fill="#1B233C" mask="url(#path-2-outside-1_1073_904)"/>
<g filter="url(#filter1_i_1073_904)">
<path fill-rule="evenodd" clip-rule="evenodd" d="M124.186 436.291C124.186 442.436 128.702 447.552 134.543 449.46C161.986 458.422 181.814 484.227 181.814 514.663C181.814 552.538 151.111 583.241 113.236 583.241C75.3616 583.241 44.6582 552.538 44.6582 514.663C44.6582 484.226 64.4878 458.419 91.9332 449.458C97.7746 447.551 102.291 442.434 102.291 436.289L102.291 367.798C102.291 362.577 98.8844 358.09 94.6836 354.99C86.9652 349.295 81.959 340.135 81.959 329.807C81.959 319.478 86.9652 310.319 94.6836 304.623C98.8844 301.523 102.291 297.036 102.291 291.816L102.291 224.165C102.291 217.778 97.4489 212.5 91.2159 211.104C46.4031 201.067 12.916 161.048 12.916 113.207C12.916 57.8017 57.8312 12.8865 113.237 12.8865C168.643 12.8865 213.558 57.8017 213.558 113.207C213.558 161.047 180.072 201.066 135.261 211.103C129.028 212.499 124.186 217.777 124.186 224.165L124.186 291.817C124.186 297.038 127.592 301.524 131.792 304.624C139.51 310.32 144.516 319.479 144.516 329.807C144.516 340.135 139.51 349.293 131.792 354.989C127.592 358.089 124.186 362.576 124.186 367.796L124.186 436.291Z" fill="#0C869D"/>
</g>
<path d="M98.835 521.91L93.7568 514.483H93.7188L88.6279 521.91H85.9492L92.2461 512.681L86.0254 503.438H88.6406L93.7061 510.903H93.7568L98.7969 503.438H101.425L95.2168 512.693L101.514 521.91H98.835ZM114.869 515.385C114.869 515.715 114.844 515.994 114.806 516.248H105.081C105.208 517.429 105.665 518.368 106.439 519.079C107.201 519.79 108.153 520.133 109.296 520.133C110.045 520.133 110.718 519.98 111.327 519.676C111.924 519.371 112.432 518.952 112.863 518.432L114.336 519.688C113.765 520.425 113.041 521.009 112.178 521.44C111.314 521.872 110.324 522.075 109.22 522.075C108.331 522.075 107.493 521.923 106.719 521.605C105.944 521.288 105.284 520.844 104.726 520.285C104.167 519.727 103.723 519.041 103.405 518.229C103.075 517.416 102.923 516.54 102.923 515.588C102.923 514.648 103.075 513.785 103.393 512.973C103.697 512.16 104.129 511.475 104.662 510.916C105.195 510.357 105.843 509.913 106.592 509.583C107.328 509.266 108.128 509.101 108.979 509.101C110.134 509.101 111.162 509.38 112.063 509.913C112.952 510.459 113.65 511.208 114.133 512.16C114.615 513.112 114.869 514.191 114.869 515.385ZM109.093 511.043C108.09 511.043 107.227 511.36 106.503 511.982C105.779 512.604 105.322 513.442 105.132 514.496H112.774C112.597 513.455 112.19 512.617 111.543 511.982C110.896 511.36 110.083 511.043 109.093 511.043ZM124.327 509.101C124.568 509.101 124.746 509.113 124.848 509.126V511.449C124.543 511.424 124.264 511.411 124.01 511.411C123.223 511.411 122.537 511.602 121.953 511.982C121.369 512.363 120.925 512.884 120.62 513.544C120.315 514.204 120.163 514.966 120.163 515.804V521.91H118.056V509.253H120.163V511.462H120.214C120.684 510.713 121.268 510.129 121.979 509.723C122.689 509.316 123.464 509.101 124.327 509.101ZM132.681 522.075C131.716 522.075 130.814 521.91 130.002 521.58C129.177 521.25 128.479 520.793 127.92 520.209C127.361 519.625 126.917 518.939 126.6 518.152C126.282 517.365 126.13 516.515 126.13 515.601C126.13 514.699 126.282 513.849 126.6 513.049C126.917 512.249 127.361 511.563 127.92 510.979C128.479 510.396 129.177 509.938 130.002 509.608C130.814 509.278 131.716 509.101 132.681 509.101C133.912 509.101 135.029 509.38 136.02 509.913C137.01 510.459 137.784 511.233 138.343 512.224C138.901 513.214 139.193 514.344 139.193 515.601C139.193 516.857 138.901 517.975 138.343 518.965C137.784 519.955 137.01 520.729 136.02 521.263C135.029 521.809 133.912 522.075 132.681 522.075ZM132.681 520.133C133.48 520.133 134.217 519.942 134.89 519.562C135.55 519.181 136.083 518.647 136.477 517.949C136.857 517.264 137.061 516.477 137.061 515.601C137.061 514.725 136.857 513.938 136.477 513.239C136.083 512.541 135.55 511.995 134.89 511.614C134.229 511.233 133.493 511.043 132.681 511.043C131.817 511.043 131.043 511.246 130.37 511.652C129.685 512.059 129.164 512.617 128.809 513.303C128.44 514.001 128.263 514.763 128.263 515.601C128.263 516.438 128.44 517.2 128.809 517.886C129.177 518.571 129.697 519.117 130.383 519.523C131.056 519.93 131.817 520.133 132.681 520.133Z" fill="white"/>
<path d="M120.76 330.015C119.496 330.015 118.247 329.742 117.098 329.213C115.95 328.684 114.929 327.913 114.108 326.952C113.286 325.991 112.682 324.864 112.337 323.648C111.993 322.431 111.916 321.154 112.112 319.905C112.308 318.656 112.772 317.465 113.473 316.412C114.173 315.36 115.094 314.472 116.17 313.809C117.247 313.146 118.454 312.724 119.71 312.573C120.965 312.422 122.238 312.544 123.441 312.931L124.742 313.35L123.798 313.925C124.519 315.451 126.343 317.578 128.07 318.256L128.668 317.274L129.086 318.576C129.511 319.889 129.619 321.283 129.402 322.646C129.185 324.009 128.648 325.3 127.836 326.416C127.025 327.531 125.96 328.439 124.73 329.065C123.501 329.69 122.14 330.016 120.76 330.015ZM120.758 313.762C120.222 313.762 119.687 313.819 119.162 313.932C117.708 314.248 116.381 314.99 115.35 316.062C114.319 317.134 113.629 318.489 113.37 319.954C113.111 321.419 113.293 322.928 113.893 324.29C114.493 325.651 115.485 326.803 116.742 327.599C117.999 328.395 119.464 328.8 120.951 328.761C122.439 328.722 123.881 328.242 125.095 327.382C126.308 326.521 127.239 325.319 127.768 323.929C128.297 322.538 128.4 321.022 128.065 319.572C125.612 318.878 123.149 315.847 122.456 313.955C121.899 313.827 121.33 313.762 120.758 313.762Z" fill="#F9F9F9"/>
<path d="M120.773 329.999C119.162 329.998 117.582 329.554 116.207 328.714C114.833 327.874 113.716 326.671 112.98 325.237L114.093 324.666C114.861 326.165 116.111 327.362 117.641 328.065C119.171 328.767 120.894 328.935 122.531 328.54C124.168 328.145 125.624 327.211 126.666 325.888C127.708 324.565 128.275 322.93 128.275 321.246C128.275 319.562 127.708 317.927 126.666 316.605C125.624 315.282 124.167 314.348 122.53 313.953C120.893 313.558 119.171 313.726 117.641 314.428C116.11 315.131 114.861 316.327 114.093 317.826L112.981 317.254C113.689 315.869 114.754 314.698 116.066 313.861C117.378 313.024 118.889 312.552 120.444 312.493C121.999 312.434 123.541 312.79 124.912 313.525C126.284 314.26 127.434 315.348 128.246 316.675C129.058 318.002 129.501 319.522 129.53 321.078C129.56 322.634 129.174 324.169 128.413 325.526C127.651 326.883 126.542 328.013 125.2 328.799C123.857 329.585 122.329 329.999 120.773 329.999Z" fill="#F9F9F9"/>
<path d="M120.762 330.016C119.089 330.018 117.451 329.541 116.041 328.64L115.574 328.341L115.816 327.842C116.293 326.854 117.89 326.343 119.786 326.569C121.953 326.828 123.484 327.943 123.376 329.171V329.399L123.07 329.709L122.902 329.751C122.202 329.927 121.484 330.016 120.762 330.016ZM117.468 328.01C118.845 328.678 120.394 328.911 121.907 328.678C121.546 328.339 120.761 327.944 119.638 327.81C118.909 327.702 118.165 327.771 117.468 328.01Z" fill="#F9F9F9"/>
<path d="M114.879 317.348C114.498 317.361 114.122 317.263 113.795 317.067L113.25 316.71L113.628 316.18C114.893 314.409 116.771 313.172 118.898 312.71L119.53 312.574L119.645 313.21C119.823 314.193 118.985 315.482 117.559 316.418C116.771 316.974 115.842 317.296 114.879 317.348ZM118.091 314.249C117.099 314.625 116.198 315.208 115.448 315.959C115.421 315.986 115.394 316.014 115.368 316.042C115.905 315.91 116.414 315.683 116.872 315.373L116.873 315.373C117.343 315.074 117.756 314.693 118.091 314.249Z" fill="#F9F9F9"/>
<path d="M121.842 323.971C121.341 323.966 120.851 323.831 120.418 323.579C119.672 323.141 119.101 322.46 118.799 321.65C118.118 319.885 118.79 317.976 120.296 317.395C120.679 317.253 121.089 317.199 121.495 317.237C121.902 317.275 122.295 317.404 122.644 317.615C123.39 318.052 123.962 318.733 124.263 319.543C124.584 320.346 124.617 321.234 124.358 322.059C124.241 322.45 124.037 322.81 123.761 323.111C123.485 323.412 123.145 323.647 122.766 323.799C122.471 323.913 122.158 323.971 121.842 323.971ZM121.218 318.475C121.057 318.474 120.897 318.504 120.746 318.561C119.883 318.894 119.533 320.078 119.966 321.201C120.163 321.741 120.541 322.196 121.035 322.491C121.221 322.615 121.435 322.693 121.658 322.718C121.881 322.742 122.107 322.713 122.316 322.632C122.526 322.552 122.713 322.422 122.861 322.254C123.01 322.086 123.116 321.884 123.171 321.667C123.339 321.117 123.313 320.526 123.096 319.993C122.899 319.453 122.522 318.997 122.028 318.703C121.782 318.558 121.503 318.479 121.218 318.475Z" fill="#F9F9F9"/>
<path d="M125.053 327.199C124.783 327.203 124.519 327.118 124.302 326.956C123.599 326.424 123.646 325.261 124.411 324.252C124.709 323.846 125.106 323.524 125.564 323.316C125.788 323.204 126.038 323.154 126.288 323.172C126.538 323.189 126.779 323.273 126.986 323.415C127.688 323.948 127.641 325.11 126.876 326.12C126.579 326.525 126.182 326.847 125.724 327.055C125.512 327.147 125.284 327.196 125.053 327.199ZM126.223 324.421C125.899 324.53 125.615 324.734 125.408 325.007C125.201 325.28 125.081 325.609 125.064 325.95C125.401 325.866 125.692 325.657 125.88 325.365C126.11 325.105 126.233 324.768 126.223 324.421Z" fill="#F9F9F9"/>
<path d="M115.798 324.198C114.909 324.198 114.134 323.35 113.996 322.185C113.926 321.663 114.014 321.133 114.248 320.662C114.352 320.423 114.517 320.216 114.727 320.06C114.936 319.905 115.182 319.807 115.441 319.776C115.7 319.746 115.963 319.783 116.202 319.885C116.442 319.987 116.651 320.151 116.808 320.359C117.146 320.762 117.355 321.257 117.41 321.78C117.479 322.301 117.391 322.831 117.157 323.302C117.047 323.537 116.88 323.74 116.672 323.895C116.464 324.049 116.221 324.15 115.964 324.188C115.909 324.195 115.854 324.198 115.798 324.198ZM115.603 321.017C115.598 321.017 115.593 321.017 115.589 321.018C115.513 321.027 115.423 321.113 115.356 321.242C115.24 321.49 115.199 321.767 115.237 322.038C115.308 322.636 115.652 322.966 115.817 322.947C115.893 322.938 115.982 322.852 116.05 322.722C116.159 322.472 116.2 322.198 116.168 321.927C116.136 321.656 116.032 321.399 115.867 321.182C115.804 321.094 115.709 321.035 115.603 321.017Z" fill="#F9F9F9"/>
<path d="M104.715 346.056C103.187 346.054 101.686 345.652 100.361 344.891C99.0356 344.129 97.9327 343.035 97.1617 341.715C96.3906 340.395 95.9781 338.897 95.9652 337.369C95.9522 335.841 96.3393 334.336 97.0879 333.003V332.998L97.1758 332.848C97.5524 332.216 98.006 331.633 98.5263 331.113C99.9425 329.697 101.802 328.809 103.793 328.598C105.785 328.387 107.789 328.865 109.471 329.953C111.152 331.041 112.41 332.673 113.034 334.576C113.657 336.48 113.609 338.539 112.898 340.412C112.625 341.135 112.256 341.818 111.8 342.442C111.529 342.814 111.23 343.165 110.904 343.491C110.093 344.307 109.129 344.953 108.067 345.394C107.004 345.834 105.865 346.059 104.715 346.056ZM98.2907 333.421L98.2513 333.489C97.4725 334.805 97.118 336.33 97.2361 337.855C97.3673 339.649 98.1391 341.335 99.4106 342.607C100.107 343.304 100.934 343.857 101.844 344.234C102.754 344.611 103.73 344.806 104.715 344.806C105.7 344.806 106.676 344.612 107.586 344.234C108.496 343.857 109.323 343.304 110.02 342.607C110.299 342.327 110.557 342.026 110.789 341.706C111.179 341.172 111.495 340.589 111.727 339.971L111.729 339.968C112.338 338.363 112.379 336.598 111.845 334.966C111.31 333.335 110.232 331.936 108.791 331.004C107.35 330.071 105.632 329.661 103.925 329.842C102.218 330.023 100.624 330.783 99.4104 331.997C98.982 332.426 98.6061 332.904 98.2907 333.421Z" fill="#F9F9F9"/>
<path d="M104.711 349.274C103.142 349.277 101.587 348.97 100.137 348.37C98.6862 347.77 97.3687 346.89 96.2597 345.779L96.2389 345.758C95.1284 344.648 94.2476 343.329 93.6466 341.879C93.0456 340.428 92.7363 338.873 92.7363 337.302C92.7363 335.732 93.0456 334.177 93.6466 332.726C94.2476 331.275 95.1284 329.957 96.2389 328.847L96.2597 328.826C98.5039 326.587 101.545 325.329 104.715 325.329C107.886 325.329 110.926 326.587 113.171 328.826L113.192 328.847C115.2 330.855 117.923 331.983 120.763 331.983C123.603 331.983 126.327 330.855 128.335 328.847L128.355 328.826C129.35 327.832 130.139 326.651 130.677 325.352C131.215 324.053 131.492 322.661 131.492 321.254C131.492 319.848 131.215 318.456 130.677 317.157C130.139 315.858 129.35 314.677 128.355 313.683L128.335 313.662C126.327 311.654 123.603 310.526 120.763 310.526C117.923 310.526 115.2 311.654 113.192 313.662L112.307 312.778C113.418 311.668 114.736 310.787 116.187 310.186C117.638 309.585 119.193 309.276 120.763 309.276C122.333 309.276 123.888 309.585 125.339 310.186C126.79 310.787 128.108 311.668 129.219 312.778L129.24 312.799C131.479 315.043 132.736 318.084 132.736 321.254C132.736 324.425 131.479 327.466 129.24 329.71L129.219 329.731C128.108 330.841 126.79 331.722 125.339 332.323C123.888 332.924 122.333 333.233 120.763 333.233C119.193 333.233 117.638 332.924 116.187 332.323C114.736 331.722 113.418 330.841 112.307 329.731L112.287 329.71C110.277 327.705 107.554 326.579 104.715 326.579C101.876 326.579 99.1534 327.705 97.1437 329.71L97.123 329.731C95.1149 331.739 93.9867 334.462 93.9867 337.302C93.9867 340.142 95.1149 342.866 97.123 344.874L97.1437 344.895C98.138 345.889 99.3184 346.678 100.618 347.216C101.917 347.754 103.309 348.031 104.715 348.031C106.121 348.031 107.514 347.754 108.813 347.216C110.112 346.678 111.292 345.889 112.287 344.895L113.181 345.768C112.07 346.882 110.75 347.765 109.296 348.366C107.843 348.968 106.284 349.277 104.711 349.274Z" fill="#F9F9F9"/>
<path d="M112.627 314.952C113.578 314.952 114.349 314.182 114.349 313.231C114.349 312.281 113.578 311.51 112.627 311.51C111.677 311.51 110.906 312.281 110.906 313.231C110.906 314.182 111.677 314.952 112.627 314.952Z" fill="#F9F9F9"/>
<path d="M127.682 339.695C129.424 339.695 130.837 338.282 130.837 336.54C130.837 334.797 129.424 333.385 127.682 333.385C125.94 333.385 124.527 334.797 124.527 336.54C124.527 338.282 125.94 339.695 127.682 339.695Z" fill="#F9F9F9"/>
<path d="M95.7949 325.742C97.139 325.742 98.2285 324.653 98.2285 323.309C98.2285 321.965 97.139 320.875 95.7949 320.875C94.4509 320.875 93.3613 321.965 93.3613 323.309C93.3613 324.653 94.4509 325.742 95.7949 325.742Z" fill="#F9F9F9"/>
<path d="M113.538 346.581C114.488 346.581 115.259 345.811 115.259 344.86C115.259 343.909 114.488 343.139 113.538 343.139C112.587 343.139 111.816 343.909 111.816 344.86C111.816 345.811 112.587 346.581 113.538 346.581Z" fill="#F9F9F9"/>
<path d="M109.481 335.112C109.207 335.112 108.942 335.105 108.689 335.096C107.399 335.086 106.118 334.883 104.888 334.494C104.577 334.386 104.274 334.26 103.983 334.139C103.592 333.966 103.191 333.818 102.782 333.697C101.642 333.389 100.347 333.52 99.2054 333.638C98.7321 333.685 98.2576 333.735 97.7831 333.79L96.5273 333.935L97.174 332.849C97.5506 332.216 98.0043 331.634 98.5246 331.113C99.5377 330.101 100.784 329.352 102.154 328.934C103.523 328.515 104.975 328.438 106.381 328.711C107.787 328.984 109.105 329.598 110.219 330.498C111.332 331.399 112.208 332.559 112.769 333.877L113.038 334.512L112.38 334.718C112.214 334.77 112.049 334.818 111.881 334.859C111.094 335.04 110.288 335.125 109.481 335.112ZM101.149 332.255C101.809 332.246 102.468 332.325 103.109 332.49C103.571 332.625 104.023 332.79 104.463 332.985C104.751 333.104 105.022 333.217 105.298 333.313C106.411 333.659 107.569 333.839 108.735 333.847C109.593 333.899 110.453 333.852 111.3 333.707C110.741 332.684 109.951 331.805 108.994 331.14C108.036 330.475 106.936 330.043 105.782 329.877C104.628 329.711 103.451 329.816 102.345 330.184C101.239 330.552 100.233 331.173 99.4086 331.997C99.2797 332.127 99.1554 332.26 99.0357 332.398L99.0794 332.394C99.7663 332.312 100.457 332.266 101.149 332.255Z" fill="#F9F9F9"/>
<path d="M104.714 346.056C102.504 346.056 100.376 345.22 98.7577 343.716C97.139 342.211 96.1495 340.15 95.988 337.946L95.9492 337.406L96.4784 337.291C96.6545 337.253 96.8301 337.214 97.0086 337.179C98.5379 336.864 100.181 336.607 101.81 336.856C102.817 337.042 103.804 337.326 104.756 337.705C104.97 337.782 105.184 337.859 105.398 337.934C107.671 338.712 110.015 339.26 112.397 339.571L113.172 339.677L112.897 340.41C112.625 341.133 112.255 341.817 111.799 342.441C111.528 342.814 111.228 343.165 110.903 343.49C110.092 344.306 109.128 344.953 108.066 345.393C107.003 345.834 105.864 346.059 104.714 346.056ZM97.2934 338.396C97.5286 339.99 98.2705 341.466 99.4093 342.606C100.106 343.303 100.933 343.856 101.843 344.234C102.753 344.611 103.729 344.805 104.714 344.805C105.699 344.805 106.675 344.611 107.585 344.234C108.495 343.857 109.322 343.304 110.019 342.607C110.298 342.326 110.555 342.025 110.788 341.705C111.023 341.384 111.231 341.044 111.41 340.69C109.226 340.361 107.075 339.834 104.986 339.115C104.767 339.038 104.549 338.96 104.331 338.881C103.456 338.53 102.548 338.266 101.622 338.092C100.198 337.875 98.7013 338.109 97.2934 338.396Z" fill="#F9F9F9"/>
<path d="M104.714 346.057C103.013 346.056 101.349 345.56 99.9256 344.629C98.502 343.699 97.3805 342.373 96.6981 340.815L96.3496 340.013L97.2212 339.943C101.984 339.551 106.778 340.058 111.354 341.438L112.311 341.737L111.799 342.442C111.528 342.814 111.228 343.165 110.903 343.491C110.092 344.307 109.128 344.954 108.065 345.394C107.003 345.835 105.864 346.06 104.714 346.057ZM98.2574 341.125C98.84 342.11 99.64 342.948 100.596 343.576C101.553 344.203 102.64 344.604 103.775 344.747C104.91 344.89 106.062 344.772 107.144 344.401C108.227 344.03 109.21 343.417 110.018 342.607C110.083 342.542 110.147 342.476 110.21 342.408C106.323 341.329 102.285 340.896 98.2574 341.125Z" fill="#F9F9F9"/>
<path d="M77.5156 121.572C76.5127 121.572 75.5605 121.445 74.6465 121.191C73.7324 120.938 72.8818 120.557 72.1201 120.036C71.3457 119.528 70.6729 118.906 70.1143 118.17C69.543 117.434 69.0986 116.57 68.7812 115.555C68.4639 114.552 68.3115 113.46 68.3115 112.279C68.3115 111.238 68.4385 110.235 68.6924 109.283C68.9463 108.331 69.3271 107.455 69.8477 106.668C70.3555 105.881 70.9775 105.208 71.7139 104.624C72.4375 104.053 73.3008 103.608 74.291 103.278C75.2812 102.961 76.3477 102.796 77.5156 102.796C78.3789 102.796 79.2295 102.923 80.0547 103.151C80.8799 103.393 81.7051 103.786 82.5176 104.319C83.3301 104.853 84.0537 105.525 84.7139 106.325L83.0254 107.734C82.3145 106.846 81.4766 106.16 80.5244 105.678C79.5723 105.195 78.5693 104.954 77.5156 104.954C76.1318 104.954 74.9258 105.271 73.8848 105.894C72.8438 106.528 72.0439 107.392 71.498 108.496C70.9395 109.601 70.6729 110.857 70.6729 112.279C70.6729 113.143 70.7744 113.955 71.0029 114.704C71.2314 115.466 71.5488 116.126 71.9551 116.697C72.3613 117.269 72.8564 117.764 73.415 118.17C73.9736 118.576 74.6084 118.894 75.3066 119.097C75.9922 119.312 76.7285 119.414 77.5156 119.414C79.6992 119.414 81.5273 118.5 83.0254 116.659L84.7139 118.081C83.8506 119.16 82.8096 120.011 81.6162 120.633C80.4229 121.268 79.0518 121.572 77.5156 121.572ZM87.9131 121.433V102.288H90.0078V121.433H87.9131ZM95.4795 106.427C95.0479 106.427 94.6924 106.287 94.4131 105.995C94.1211 105.716 93.9814 105.36 93.9814 104.954C93.9814 104.548 94.1211 104.192 94.4131 103.9C94.6924 103.621 95.0479 103.469 95.4795 103.469C95.7461 103.469 96 103.545 96.2285 103.672C96.457 103.799 96.6348 103.977 96.7744 104.205C96.9014 104.434 96.9775 104.688 96.9775 104.954C96.9775 105.36 96.8252 105.716 96.5332 105.995C96.2412 106.287 95.8857 106.427 95.4795 106.427ZM94.4131 121.433V108.775H96.5078V121.433H94.4131ZM106.207 121.598C105.001 121.598 103.922 121.331 102.97 120.785C102.018 120.252 101.281 119.49 100.748 118.5C100.215 117.51 99.9482 116.393 99.9482 115.123C99.9482 113.866 100.215 112.736 100.748 111.746C101.281 110.756 102.03 109.994 102.995 109.436C103.96 108.89 105.052 108.61 106.283 108.61C107.248 108.61 108.188 108.813 109.102 109.194C110.016 109.588 110.777 110.146 111.387 110.87L109.927 112.14C109.521 111.657 109 111.264 108.391 110.984C107.781 110.705 107.108 110.553 106.385 110.553C105.115 110.553 104.074 110.984 103.274 111.822C102.475 112.673 102.081 113.765 102.081 115.11C102.081 116.456 102.475 117.561 103.274 118.398C104.074 119.236 105.115 119.655 106.385 119.655C107.096 119.655 107.781 119.528 108.416 119.249C109.051 118.97 109.571 118.602 109.978 118.145L111.438 119.452C110.866 120.087 110.117 120.607 109.203 121.001C108.289 121.407 107.286 121.598 106.207 121.598ZM119.105 115.631H119.067L116.414 118.576V121.433H114.319V102.288H116.414V115.682H116.452L122.686 108.775H125.237L120.515 114.019L125.263 121.433H122.863L119.105 115.631ZM135.051 121.598C133.984 121.598 133.02 121.433 132.144 121.077C131.268 120.734 130.519 120.239 129.896 119.592C129.262 118.957 128.779 118.145 128.437 117.18C128.081 116.215 127.916 115.123 127.916 113.917V102.961H130.176V113.752C130.176 115.479 130.607 116.85 131.496 117.891C132.385 118.932 133.565 119.439 135.051 119.439C136.511 119.439 137.691 118.932 138.605 117.916C139.507 116.9 139.964 115.517 139.964 113.752V102.961H142.224V113.917C142.224 116.291 141.576 118.17 140.281 119.541C138.986 120.912 137.247 121.598 135.051 121.598ZM152.799 108.623C153.967 108.623 155.033 108.915 155.985 109.486C156.925 110.058 157.661 110.845 158.194 111.835C158.728 112.838 158.994 113.955 158.994 115.187C158.994 116.139 158.829 117.015 158.512 117.814C158.182 118.627 157.75 119.3 157.191 119.846C156.633 120.404 155.985 120.836 155.224 121.141C154.462 121.445 153.649 121.598 152.786 121.598C151.897 121.598 151.098 121.42 150.361 121.064C149.625 120.709 148.99 120.214 148.482 119.554H148.432V126.574H146.337V108.775H148.444V110.642H148.495C149.016 109.994 149.65 109.499 150.387 109.144C151.123 108.801 151.936 108.623 152.799 108.623ZM152.583 119.668C153.853 119.668 154.881 119.249 155.668 118.411C156.455 117.573 156.849 116.494 156.849 115.199C156.849 113.815 156.43 112.698 155.617 111.835C154.805 110.984 153.776 110.553 152.558 110.553C151.771 110.553 151.06 110.769 150.425 111.175C149.777 111.581 149.27 112.14 148.914 112.851C148.546 113.562 148.368 114.349 148.368 115.199C148.368 115.859 148.482 116.469 148.711 117.027C148.939 117.586 149.244 118.068 149.638 118.449C150.019 118.83 150.476 119.135 150.983 119.351C151.491 119.566 152.024 119.668 152.583 119.668Z" fill="white"/>
<defs>
<filter id="filter0_i_1073_904" x="7.23828" y="410.316" width="214.846" height="214.845" filterUnits="userSpaceOnUse" color-interpolation-filters="sRGB">
<feFlood flood-opacity="0" result="BackgroundImageFix"/>
<feBlend mode="normal" in="SourceGraphic" in2="BackgroundImageFix" result="shape"/>
<feColorMatrix in="SourceAlpha" type="matrix" values="0 0 0 0 0 0 0 0 0 0 0 0 0 0 0 0 0 0 127 0" result="hardAlpha"/>
<feOffset dx="3.12783" dy="3.12783"/>
<feGaussianBlur stdDeviation="1.56392"/>
<feComposite in2="hardAlpha" operator="arithmetic" k2="-1" k3="1"/>
<feColorMatrix type="matrix" values="0 0 0 0 0 0 0 0 0 0 0 0 0 0 0 0 0 0 0.25 0"/>
<feBlend mode="normal" in2="shape" result="effect1_innerShadow_1073_904"/>
</filter>
<filter id="filter1_i_1073_904" x="12.916" y="12.8865" width="205.642" height="575.355" filterUnits="userSpaceOnUse" color-interpolation-filters="sRGB">
<feFlood flood-opacity="0" result="BackgroundImageFix"/>
<feBlend mode="normal" in="SourceGraphic" in2="BackgroundImageFix" result="shape"/>
<feColorMatrix in="SourceAlpha" type="matrix" values="0 0 0 0 0 0 0 0 0 0 0 0 0 0 0 0 0 0 127 0" result="hardAlpha"/>
<feOffset dx="5" dy="5"/>
<feGaussianBlur stdDeviation="2.5"/>
<feComposite in2="hardAlpha" operator="arithmetic" k2="-1" k3="1"/>
<feColorMatrix type="matrix" values="0 0 0 0 0 0 0 0 0 0 0 0 0 0 0 0 0 0 0.25 0"/>
<feBlend mode="normal" in2="shape" result="effect1_innerShadow_1073_904"/>
</filter>
</defs>
</svg>
