<svg width="226" height="622" viewBox="0 0 226 622" fill="none" xmlns="http://www.w3.org/2000/svg">
<g filter="url(#filter0_i_1073_936)">
<circle cx="105.859" cy="105.859" r="105.859" transform="matrix(1 0 0 -1 7.04297 621.877)" fill="#D75EFF"/>
</g>
<mask id="path-2-outside-1_1073_936" maskUnits="userSpaceOnUse" x="-0.279297" y="0.0841675" width="227" height="596" fill="black">
<rect fill="white" x="-0.279297" y="0.0841675" width="227" height="596"/>
<path fill-rule="evenodd" clip-rule="evenodd" d="M123.991 436.134C123.991 442.279 128.506 447.395 134.348 449.303C161.791 458.265 181.619 484.07 181.619 514.506C181.619 552.381 150.915 583.084 113.041 583.084C75.1663 583.084 44.4629 552.381 44.4629 514.506C44.4629 484.069 64.2925 458.262 91.7378 449.301C97.5793 447.394 102.096 442.277 102.096 436.132L102.096 367.64C102.096 362.42 98.689 357.933 94.4883 354.833C86.7699 349.137 81.7637 339.978 81.7637 329.65C81.7637 319.321 86.7699 310.162 94.4883 304.466C98.689 301.366 102.096 296.879 102.096 291.659L102.096 224.008C102.096 217.621 97.2536 212.343 91.0206 210.947C46.2078 200.91 12.7207 160.891 12.7207 113.05C12.7207 57.6447 57.6359 12.7295 113.042 12.7295C168.447 12.7295 213.363 57.6447 213.363 113.05C213.363 160.89 179.877 200.909 135.065 210.946C128.832 212.342 123.991 217.62 123.991 224.007L123.991 291.66C123.991 296.881 127.397 301.367 131.597 304.467C139.315 310.163 144.32 319.322 144.32 329.65C144.32 339.978 139.315 349.136 131.597 354.832C127.397 357.932 123.991 362.419 123.991 367.639L123.991 436.134Z"/>
</mask>
<path fill-rule="evenodd" clip-rule="evenodd" d="M123.991 436.134C123.991 442.279 128.506 447.395 134.348 449.303C161.791 458.265 181.619 484.07 181.619 514.506C181.619 552.381 150.915 583.084 113.041 583.084C75.1663 583.084 44.4629 552.381 44.4629 514.506C44.4629 484.069 64.2925 458.262 91.7378 449.301C97.5793 447.394 102.096 442.277 102.096 436.132L102.096 367.64C102.096 362.42 98.689 357.933 94.4883 354.833C86.7699 349.137 81.7637 339.978 81.7637 329.65C81.7637 319.321 86.7699 310.162 94.4883 304.466C98.689 301.366 102.096 296.879 102.096 291.659L102.096 224.008C102.096 217.621 97.2536 212.343 91.0206 210.947C46.2078 200.91 12.7207 160.891 12.7207 113.05C12.7207 57.6447 57.6359 12.7295 113.042 12.7295C168.447 12.7295 213.363 57.6447 213.363 113.05C213.363 160.89 179.877 200.909 135.065 210.946C128.832 212.342 123.991 217.62 123.991 224.007L123.991 291.66C123.991 296.881 127.397 301.367 131.597 304.467C139.315 310.163 144.32 319.322 144.32 329.65C144.32 339.978 139.315 349.136 131.597 354.832C127.397 357.932 123.991 362.419 123.991 367.639L123.991 436.134Z" fill="#9A3BA3"/>
<path d="M123.991 291.66L111.479 291.66L123.991 291.66ZM131.597 304.467L139.027 294.4L131.597 304.467ZM102.096 224.008L89.5844 224.008L102.096 224.008ZM91.0206 210.947L93.755 198.738L91.0206 210.947ZM94.4883 304.466L87.0593 294.399L94.4883 304.466ZM102.096 291.659L89.5844 291.659L102.096 291.659ZM94.4883 354.833L87.0593 364.9L94.4883 354.833ZM131.597 354.832L124.168 344.766L131.597 354.832ZM91.7378 449.301L87.8547 437.408L91.7378 449.301ZM135.065 210.946L132.331 198.737L135.065 210.946ZM123.991 224.007L111.479 224.007L123.991 224.007ZM134.348 449.303L130.464 461.196L134.348 449.303ZM169.107 514.506C169.107 489.642 152.913 468.527 130.464 461.196L138.231 437.409C170.668 448.002 194.13 478.498 194.13 514.506L169.107 514.506ZM113.041 570.573C144.006 570.573 169.107 545.471 169.107 514.506L194.13 514.506C194.13 559.291 157.825 595.596 113.041 595.596L113.041 570.573ZM56.9742 514.506C56.9742 545.471 82.0761 570.573 113.041 570.573L113.041 595.596C68.2565 595.596 31.9516 559.291 31.9516 514.506L56.9742 514.506ZM95.621 461.195C73.1697 468.525 56.9742 489.641 56.9742 514.506L31.9516 514.506C31.9516 478.496 55.4153 447.999 87.8547 437.408L95.621 461.195ZM114.607 367.64L114.607 436.132L89.5844 436.132L89.5844 367.64L114.607 367.64ZM87.0593 364.9C76.2824 356.947 69.2523 344.118 69.2523 329.65L94.275 329.65C94.275 335.838 97.2575 341.328 101.917 344.766L87.0593 364.9ZM69.2523 329.65C69.2523 315.181 76.2824 302.352 87.0593 294.399L101.917 314.533C97.2574 317.972 94.275 323.461 94.275 329.65L69.2523 329.65ZM114.607 224.008L114.607 291.659L89.5844 291.659L89.5844 224.008L114.607 224.008ZM25.232 113.05C25.232 154.909 54.5332 189.954 93.755 198.738L88.2862 223.156C37.8823 211.867 0.209365 166.873 0.209365 113.05L25.232 113.05ZM113.042 25.2408C64.5457 25.2408 25.232 64.5545 25.232 113.05L0.209365 113.05C0.209365 50.7348 50.7261 0.21814 113.042 0.21814L113.042 25.2408ZM200.851 113.05C200.851 64.5545 161.537 25.2408 113.042 25.2408L113.042 0.21814C175.357 0.21814 225.874 50.7348 225.874 113.05L200.851 113.05ZM132.331 198.737C171.551 189.952 200.851 154.908 200.851 113.05L225.874 113.05C225.874 166.872 188.202 211.865 137.8 223.155L132.331 198.737ZM111.479 291.66L111.479 224.007L136.502 224.007L136.502 291.66L111.479 291.66ZM139.027 294.4C149.802 302.353 156.832 315.182 156.832 329.65L131.809 329.65C131.809 323.461 128.827 317.972 124.168 314.533L139.027 294.4ZM156.832 329.65C156.832 344.117 149.802 356.946 139.027 364.899L124.168 344.766C128.827 341.327 131.809 335.838 131.809 329.65L156.832 329.65ZM111.479 436.134L111.479 367.639L136.502 367.639L136.502 436.134L111.479 436.134ZM136.502 291.66C136.502 291.456 136.419 291.584 136.772 292.138C137.156 292.741 137.889 293.561 139.027 294.4L124.168 314.533C118.414 310.287 111.479 302.527 111.479 291.66L136.502 291.66ZM89.5844 224.008C89.5844 224.003 89.5841 224.006 89.5855 224.013C89.5868 224.02 89.5876 224.02 89.5842 224.012C89.5775 223.994 89.5446 223.919 89.4468 223.807C89.2304 223.557 88.825 223.276 88.2862 223.156L93.755 198.738C104.857 201.224 114.607 210.94 114.607 224.008L89.5844 224.008ZM87.0593 294.399C88.1967 293.559 88.9301 292.74 89.3145 292.137C89.667 291.583 89.5844 291.454 89.5844 291.659L114.607 291.659C114.607 302.526 107.672 310.286 101.917 314.533L87.0593 294.399ZM89.5844 367.64C89.5844 367.845 89.6671 367.716 89.3145 367.163C88.9301 366.559 88.1967 365.74 87.0593 364.9L101.917 344.766C107.672 349.013 114.607 356.773 114.607 367.64L89.5844 367.64ZM139.027 364.899C137.889 365.738 137.156 366.558 136.772 367.161C136.419 367.715 136.502 367.843 136.502 367.639L111.479 367.639C111.479 356.772 118.414 349.012 124.168 344.766L139.027 364.899ZM87.8547 437.408C88.591 437.168 89.124 436.752 89.4015 436.411C89.528 436.256 89.5721 436.153 89.5828 436.124C89.5882 436.11 89.5877 436.108 89.5863 436.116C89.5856 436.119 89.5851 436.123 89.5847 436.127C89.5844 436.131 89.5844 436.133 89.5844 436.132L114.607 436.132C114.607 448.786 105.485 457.974 95.621 461.195L87.8547 437.408ZM137.8 223.155C137.261 223.276 136.856 223.557 136.639 223.806C136.542 223.919 136.509 223.994 136.502 224.011C136.499 224.02 136.499 224.019 136.501 224.013C136.502 224.005 136.502 224.002 136.502 224.007L111.479 224.007C111.479 210.939 121.229 201.224 132.331 198.737L137.8 223.155ZM130.464 461.196C120.6 457.975 111.479 448.787 111.479 436.134L136.502 436.134C136.502 436.134 136.502 436.132 136.502 436.129C136.501 436.125 136.501 436.121 136.5 436.117C136.499 436.109 136.498 436.112 136.503 436.126C136.514 436.155 136.558 436.257 136.685 436.413C136.962 436.754 137.495 437.169 138.231 437.409L130.464 461.196Z" fill="#1B233C" mask="url(#path-2-outside-1_1073_936)"/>
<g filter="url(#filter1_i_1073_936)">
<path fill-rule="evenodd" clip-rule="evenodd" d="M123.991 436.135C123.991 442.279 128.506 447.396 134.348 449.303C161.791 458.265 181.619 484.071 181.619 514.507C181.619 552.382 150.915 583.085 113.041 583.085C75.1663 583.085 44.4629 552.382 44.4629 514.507C44.4629 484.069 64.2925 458.263 91.7378 449.302C97.5793 447.395 102.096 442.278 102.096 436.133L102.096 367.641C102.096 362.421 98.689 357.934 94.4883 354.834C86.7699 349.138 81.7637 339.979 81.7637 329.65C81.7637 319.322 86.7699 310.162 94.4883 304.467C98.689 301.367 102.096 296.88 102.096 291.659L102.096 224.009C102.096 217.622 97.2536 212.344 91.0206 210.948C46.2078 200.911 12.7207 160.892 12.7207 113.051C12.7207 57.6454 57.6359 12.7303 113.042 12.7303C168.447 12.7303 213.363 57.6454 213.363 113.051C213.363 160.891 179.877 200.909 135.065 210.947C128.832 212.343 123.991 217.621 123.991 224.008L123.991 291.661C123.991 296.881 127.397 301.368 131.597 304.468C139.315 310.164 144.32 319.322 144.32 329.65C144.32 339.978 139.315 349.137 131.597 354.833C127.397 357.933 123.991 362.419 123.991 367.64L123.991 436.135Z" fill="#9A3BA3"/>
</g>
<path d="M87.8965 514.233H95.5137V521.533C94.6377 522.282 93.5713 522.866 92.3271 523.272C91.0703 523.691 89.7373 523.895 88.3281 523.895C87.0078 523.895 85.7764 523.679 84.6465 523.234C83.5166 522.803 82.5391 522.181 81.7266 521.381C80.9141 520.581 80.2666 519.591 79.8096 518.423C79.3398 517.255 79.1113 515.96 79.1113 514.551C79.1113 513.205 79.3271 511.948 79.7588 510.78C80.1904 509.612 80.7998 508.622 81.5869 507.784C82.374 506.946 83.3389 506.299 84.4814 505.829C85.624 505.359 86.8809 505.118 88.252 505.118C89.5723 505.118 90.8418 505.359 92.0605 505.829C93.2793 506.312 94.3584 507.035 95.2979 508.013L93.6855 509.409C92.2129 507.987 90.3975 507.276 88.2393 507.276C87.2744 507.276 86.373 507.454 85.5352 507.797C84.6973 508.152 83.9863 508.635 83.3896 509.257C82.793 509.879 82.3232 510.641 81.9805 511.555C81.6377 512.469 81.4727 513.472 81.4727 514.551C81.4727 515.935 81.752 517.179 82.3105 518.271C82.8691 519.362 83.6816 520.226 84.7227 520.848C85.7637 521.47 86.9697 521.774 88.3281 521.774C90.334 521.774 91.9717 521.305 93.2539 520.365V516.315H87.8965V514.233ZM114.493 510.945C115.953 510.945 117.058 511.39 117.807 512.266C118.543 513.154 118.924 514.513 118.924 516.341V523.755H116.829V516.912C116.829 515.516 116.588 514.487 116.105 513.84C115.623 513.205 114.887 512.875 113.871 512.875C112.855 512.875 112.005 513.294 111.332 514.132C110.646 514.97 110.316 516.087 110.316 517.471V523.755H108.222V516.887C108.222 515.973 108.107 515.211 107.879 514.602C107.65 514.005 107.308 513.573 106.876 513.294C106.432 513.015 105.873 512.875 105.213 512.875C104.146 512.875 103.271 513.294 102.585 514.132C101.887 514.97 101.544 516.074 101.544 517.471V523.755H99.4492V511.098H101.544V513.256H101.582C102.09 512.52 102.725 511.961 103.474 511.555C104.21 511.148 104.997 510.945 105.835 510.945C107.841 510.945 109.174 511.771 109.834 513.408H109.885C110.393 512.621 111.053 512.024 111.853 511.593C112.652 511.161 113.528 510.945 114.493 510.945ZM132.521 511.098H134.628V523.755H132.609V521.749H132.571C132.051 522.435 131.416 522.968 130.654 523.349C129.893 523.729 129.055 523.92 128.141 523.92C127.277 523.92 126.465 523.768 125.703 523.463C124.941 523.158 124.281 522.727 123.723 522.168C123.164 521.622 122.732 520.949 122.415 520.137C122.085 519.337 121.933 518.461 121.933 517.509C121.933 516.277 122.187 515.16 122.72 514.157C123.253 513.167 123.989 512.38 124.941 511.809C125.881 511.237 126.947 510.945 128.128 510.945C128.991 510.945 129.804 511.123 130.553 511.466C131.302 511.821 131.937 512.316 132.47 512.977H132.521V511.098ZM128.344 521.99C128.902 521.99 129.448 521.889 129.969 521.673C130.477 521.457 130.934 521.152 131.327 520.771C131.708 520.391 132.025 519.908 132.254 519.35C132.482 518.791 132.597 518.182 132.597 517.521C132.597 516.887 132.482 516.277 132.267 515.706C132.051 515.135 131.759 514.64 131.391 514.221C131.01 513.814 130.565 513.484 130.045 513.243C129.512 513.002 128.953 512.875 128.369 512.875C127.138 512.875 126.109 513.307 125.297 514.157C124.484 515.021 124.078 516.138 124.078 517.521C124.078 518.816 124.472 519.896 125.259 520.733C126.046 521.571 127.074 521.99 128.344 521.99ZM139.77 508.749C139.338 508.749 138.982 508.609 138.703 508.317C138.411 508.038 138.271 507.683 138.271 507.276C138.271 506.87 138.411 506.515 138.703 506.223C138.982 505.943 139.338 505.791 139.77 505.791C140.036 505.791 140.29 505.867 140.519 505.994C140.747 506.121 140.925 506.299 141.064 506.527C141.191 506.756 141.268 507.01 141.268 507.276C141.268 507.683 141.115 508.038 140.823 508.317C140.531 508.609 140.176 508.749 139.77 508.749ZM138.703 523.755V511.098H140.798V523.755H138.703ZM145.203 523.755V504.61H147.298V523.755H145.203Z" fill="white"/>
<path d="M120.565 329.859C119.301 329.859 118.051 329.585 116.903 329.057C115.754 328.528 114.734 327.757 113.912 326.796C113.09 325.835 112.486 324.708 112.142 323.491C111.797 322.275 111.72 320.998 111.916 319.749C112.112 318.5 112.577 317.308 113.277 316.256C113.978 315.204 114.898 314.315 115.975 313.653C117.052 312.99 118.259 312.568 119.514 312.417C120.77 312.265 122.043 312.388 123.246 312.775L124.547 313.194L123.602 313.769C124.323 315.295 126.148 317.422 127.875 318.1L128.472 317.118L128.891 318.42C129.316 319.733 129.424 321.127 129.207 322.49C128.99 323.852 128.453 325.144 127.641 326.26C126.829 327.375 125.765 328.283 124.535 328.908C123.305 329.534 121.945 329.859 120.565 329.859ZM120.563 313.605C120.027 313.605 119.491 313.663 118.967 313.776C117.513 314.092 116.186 314.833 115.155 315.906C114.123 316.978 113.434 318.333 113.175 319.798C112.915 321.263 113.097 322.772 113.698 324.133C114.298 325.495 115.29 326.647 116.547 327.443C117.804 328.239 119.269 328.643 120.756 328.605C122.243 328.566 123.686 328.086 124.899 327.226C126.113 326.365 127.044 325.163 127.573 323.773C128.101 322.382 128.205 320.865 127.87 319.416C125.417 318.722 122.954 315.691 122.26 313.799C121.704 313.67 121.134 313.605 120.563 313.605Z" fill="#F9F9F9"/>
<path d="M120.578 329.842C118.967 329.842 117.387 329.397 116.012 328.557C114.637 327.717 113.521 326.515 112.785 325.081L113.898 324.51C114.666 326.009 115.915 327.206 117.446 327.908C118.976 328.611 120.698 328.778 122.335 328.384C123.972 327.989 125.429 327.055 126.471 325.732C127.513 324.409 128.08 322.774 128.08 321.09C128.079 319.406 127.513 317.771 126.471 316.448C125.429 315.126 123.972 314.192 122.335 313.797C120.698 313.402 118.976 313.569 117.446 314.272C115.915 314.974 114.666 316.171 113.898 317.67L112.785 317.098C113.494 315.713 114.559 314.542 115.871 313.705C117.183 312.868 118.694 312.396 120.248 312.337C121.803 312.278 123.346 312.634 124.717 313.369C126.088 314.104 127.239 315.191 128.051 316.519C128.863 317.846 129.306 319.366 129.335 320.922C129.364 322.477 128.979 324.013 128.217 325.37C127.456 326.727 126.347 327.857 125.004 328.643C123.662 329.429 122.134 329.843 120.578 329.842Z" fill="#F9F9F9"/>
<path d="M120.567 329.86C118.894 329.862 117.256 329.384 115.846 328.484L115.379 328.185L115.62 327.686C116.098 326.698 117.695 326.187 119.591 326.412C121.757 326.672 123.289 327.786 123.18 329.015V329.243L122.874 329.553L122.707 329.595C122.007 329.771 121.288 329.86 120.567 329.86ZM117.273 327.854C118.65 328.522 120.199 328.755 121.712 328.522C121.351 328.182 120.566 327.788 119.443 327.654C118.714 327.546 117.97 327.615 117.273 327.854Z" fill="#F9F9F9"/>
<path d="M114.684 317.191C114.303 317.205 113.927 317.107 113.6 316.911L113.055 316.554L113.433 316.024C114.698 314.253 116.576 313.016 118.703 312.554L119.334 312.418L119.45 313.054C119.628 314.037 118.789 315.326 117.363 316.262C116.576 316.818 115.647 317.14 114.684 317.191ZM117.895 314.093C116.903 314.469 116.003 315.052 115.253 315.803C115.226 315.83 115.199 315.858 115.172 315.885C115.71 315.753 116.219 315.527 116.677 315.217L116.678 315.216C117.148 314.918 117.56 314.537 117.895 314.093Z" fill="#F9F9F9"/>
<path d="M121.647 323.815C121.146 323.81 120.655 323.674 120.223 323.422C119.477 322.985 118.905 322.304 118.604 321.494C117.923 319.729 118.594 317.82 120.101 317.239C120.484 317.096 120.894 317.042 121.3 317.08C121.707 317.119 122.1 317.248 122.449 317.459C123.195 317.896 123.766 318.577 124.068 319.387C124.388 320.19 124.422 321.078 124.163 321.903C124.045 322.294 123.841 322.653 123.566 322.955C123.29 323.256 122.95 323.491 122.571 323.643C122.276 323.757 121.963 323.815 121.647 323.815ZM121.023 318.318C120.861 318.318 120.701 318.347 120.551 318.405C119.688 318.738 119.338 319.922 119.771 321.044C119.968 321.585 120.345 322.04 120.839 322.334C121.026 322.459 121.24 322.537 121.463 322.562C121.686 322.586 121.912 322.557 122.121 322.476C122.33 322.395 122.517 322.266 122.666 322.097C122.815 321.929 122.921 321.728 122.976 321.51C123.144 320.961 123.118 320.37 122.901 319.837C122.704 319.297 122.327 318.841 121.832 318.547C121.587 318.402 121.308 318.323 121.023 318.318Z" fill="#F9F9F9"/>
<path d="M124.858 327.043C124.588 327.047 124.323 326.962 124.107 326.8C123.404 326.268 123.451 325.105 124.216 324.095C124.513 323.69 124.91 323.368 125.368 323.16C125.593 323.048 125.843 322.998 126.093 323.015C126.343 323.033 126.584 323.117 126.79 323.259C127.493 323.791 127.445 324.954 126.681 325.963C126.383 326.369 125.986 326.691 125.528 326.899C125.317 326.991 125.089 327.04 124.858 327.043ZM126.028 324.264C125.703 324.373 125.419 324.578 125.212 324.851C125.006 325.123 124.886 325.452 124.869 325.794C125.205 325.71 125.497 325.5 125.684 325.208C125.915 324.949 126.038 324.611 126.028 324.264Z" fill="#F9F9F9"/>
<path d="M115.603 324.042C114.714 324.042 113.938 323.194 113.8 322.028C113.731 321.507 113.819 320.977 114.053 320.506C114.157 320.267 114.322 320.059 114.531 319.904C114.741 319.749 114.987 319.651 115.246 319.62C115.505 319.589 115.767 319.627 116.007 319.729C116.247 319.831 116.456 319.994 116.613 320.202C116.951 320.606 117.16 321.101 117.214 321.624C117.284 322.145 117.196 322.675 116.962 323.146C116.851 323.381 116.684 323.584 116.476 323.739C116.268 323.893 116.025 323.994 115.769 324.032C115.714 324.039 115.658 324.042 115.603 324.042ZM115.408 320.861C115.403 320.861 115.398 320.861 115.393 320.862C115.317 320.871 115.228 320.957 115.16 321.086C115.044 321.334 115.003 321.61 115.042 321.881C115.113 322.48 115.456 322.81 115.622 322.791C115.698 322.782 115.787 322.696 115.855 322.566C115.964 322.316 116.005 322.042 115.973 321.771C115.941 321.5 115.837 321.243 115.672 321.025C115.609 320.938 115.514 320.879 115.408 320.861Z" fill="#F9F9F9"/>
<path d="M104.52 345.9C102.992 345.898 101.49 345.496 100.165 344.735C98.8403 343.973 97.7374 342.878 96.9663 341.559C96.1953 340.239 95.7828 338.741 95.7698 337.213C95.7569 335.684 96.144 334.179 96.8926 332.847V332.842L96.9805 332.692C97.3571 332.06 97.8107 331.477 98.331 330.957C99.7472 329.54 101.606 328.653 103.598 328.442C105.59 328.23 107.594 328.709 109.275 329.797C110.957 330.885 112.215 332.517 112.838 334.42C113.462 336.324 113.414 338.383 112.702 340.255C112.43 340.979 112.061 341.662 111.605 342.285C111.334 342.658 111.034 343.009 110.709 343.335C109.898 344.15 108.934 344.797 107.871 345.237C106.809 345.678 105.67 345.903 104.52 345.9ZM98.0953 333.265L98.056 333.332C97.2772 334.649 96.9227 336.174 97.0408 337.699C97.172 339.492 97.9438 341.179 99.2153 342.45C99.9117 343.148 100.739 343.701 101.649 344.078C102.559 344.455 103.535 344.649 104.52 344.649C105.505 344.649 106.481 344.455 107.391 344.078C108.301 343.701 109.128 343.148 109.824 342.451C110.104 342.171 110.361 341.869 110.594 341.549C110.984 341.016 111.299 340.433 111.532 339.815L111.533 339.811C112.143 338.207 112.184 336.441 111.649 334.81C111.115 333.179 110.037 331.78 108.596 330.848C107.154 329.915 105.437 329.505 103.73 329.686C102.023 329.866 100.429 330.627 99.2151 331.841C98.7867 332.269 98.4108 332.747 98.0953 333.265Z" fill="#F9F9F9"/>
<path d="M104.516 349.118C102.946 349.121 101.392 348.814 99.9413 348.214C98.4909 347.614 97.1734 346.733 96.0643 345.623L96.0436 345.602C94.9331 344.491 94.0523 343.173 93.4513 341.722C92.8503 340.271 92.541 338.717 92.541 337.146C92.541 335.576 92.8503 334.021 93.4513 332.57C94.0523 331.119 94.9331 329.801 96.0436 328.69L96.0643 328.67C98.3086 326.43 101.35 325.173 104.52 325.173C107.69 325.173 110.731 326.43 112.975 328.67L112.996 328.69C115.004 330.699 117.728 331.827 120.568 331.827C123.408 331.827 126.131 330.699 128.139 328.69L128.16 328.67C129.154 327.675 129.943 326.495 130.481 325.196C131.019 323.897 131.296 322.504 131.296 321.098C131.296 319.692 131.019 318.3 130.481 317.001C129.943 315.701 129.154 314.521 128.16 313.527L128.139 313.506C126.131 311.498 123.408 310.37 120.568 310.37C117.728 310.37 115.004 311.498 112.996 313.506L112.112 312.622C113.223 311.511 114.541 310.631 115.992 310.03C117.442 309.429 118.997 309.119 120.568 309.119C122.138 309.119 123.693 309.429 125.144 310.03C126.595 310.631 127.913 311.511 129.023 312.622L129.044 312.643C131.283 314.887 132.541 317.928 132.541 321.098C132.541 324.269 131.283 327.309 129.044 329.554L129.023 329.575C127.913 330.685 126.595 331.566 125.144 332.167C123.693 332.768 122.138 333.077 120.568 333.077C118.997 333.077 117.442 332.768 115.992 332.167C114.541 331.566 113.223 330.685 112.112 329.575L112.091 329.554C110.082 327.549 107.359 326.423 104.52 326.423C101.681 326.423 98.9581 327.549 96.9484 329.554L96.9277 329.575C94.9195 331.583 93.7914 334.306 93.7914 337.146C93.7914 339.986 94.9195 342.71 96.9277 344.718L96.9484 344.738C97.9427 345.733 99.1231 346.522 100.422 347.06C101.721 347.598 103.114 347.875 104.52 347.875C105.926 347.875 107.318 347.598 108.618 347.06C109.917 346.522 111.097 345.733 112.091 344.738L112.986 345.612C111.875 346.726 110.554 347.608 109.101 348.21C107.647 348.812 106.089 349.12 104.516 349.118Z" fill="#F9F9F9"/>
<path d="M112.432 314.796C113.383 314.796 114.153 314.025 114.153 313.075C114.153 312.124 113.383 311.354 112.432 311.354C111.482 311.354 110.711 312.124 110.711 313.075C110.711 314.025 111.482 314.796 112.432 314.796Z" fill="#F9F9F9"/>
<path d="M127.487 339.538C129.229 339.538 130.642 338.126 130.642 336.383C130.642 334.641 129.229 333.229 127.487 333.229C125.744 333.229 124.332 334.641 124.332 336.383C124.332 338.126 125.744 339.538 127.487 339.538Z" fill="#F9F9F9"/>
<path d="M95.5996 325.586C96.9436 325.586 98.0332 324.497 98.0332 323.153C98.0332 321.808 96.9436 320.719 95.5996 320.719C94.2556 320.719 93.166 321.808 93.166 323.153C93.166 324.497 94.2556 325.586 95.5996 325.586Z" fill="#F9F9F9"/>
<path d="M113.342 346.425C114.293 346.425 115.063 345.654 115.063 344.704C115.063 343.753 114.293 342.983 113.342 342.983C112.392 342.983 111.621 343.753 111.621 344.704C111.621 345.654 112.392 346.425 113.342 346.425Z" fill="#F9F9F9"/>
<path d="M109.285 334.956C109.012 334.956 108.747 334.949 108.494 334.94C107.204 334.929 105.923 334.726 104.693 334.338C104.381 334.23 104.079 334.104 103.787 333.983C103.397 333.809 102.996 333.662 102.587 333.54C101.446 333.232 100.152 333.364 99.0101 333.482C98.5368 333.529 98.0623 333.579 97.5878 333.633L96.332 333.778L96.9787 332.692C97.3553 332.06 97.809 331.477 98.3292 330.957C99.3424 329.945 100.588 329.196 101.958 328.777C103.328 328.359 104.78 328.282 106.186 328.555C107.592 328.828 108.91 329.441 110.023 330.342C111.137 331.243 112.013 332.403 112.574 333.721L112.843 334.356L112.184 334.562C112.019 334.613 111.853 334.662 111.686 334.703C110.899 334.883 110.093 334.968 109.285 334.956ZM100.953 332.099C101.614 332.09 102.273 332.169 102.913 332.334C103.375 332.468 103.828 332.634 104.268 332.828C104.555 332.948 104.827 333.061 105.103 333.157C106.216 333.503 107.374 333.683 108.54 333.69C109.397 333.742 110.258 333.696 111.105 333.551C110.546 332.528 109.756 331.649 108.798 330.984C107.84 330.319 106.741 329.887 105.587 329.721C104.433 329.555 103.256 329.66 102.15 330.028C101.043 330.396 100.038 331.017 99.2133 331.841C99.0844 331.97 98.9601 332.104 98.8404 332.242L98.8841 332.238C99.571 332.156 100.262 332.109 100.953 332.099Z" fill="#F9F9F9"/>
<path d="M104.519 345.899C102.309 345.9 100.181 345.064 98.5624 343.559C96.9437 342.055 95.9542 339.994 95.7927 337.79L95.7539 337.25L96.2831 337.135C96.4592 337.096 96.6348 337.058 96.8133 337.022C98.3426 336.708 99.9857 336.451 101.615 336.7C102.622 336.885 103.609 337.17 104.561 337.549C104.775 337.626 104.989 337.703 105.203 337.778C107.475 338.556 109.82 339.104 112.201 339.414L112.976 339.521L112.702 340.253C112.429 340.977 112.06 341.661 111.603 342.285C111.333 342.657 111.033 343.008 110.708 343.334C109.897 344.15 108.933 344.797 107.87 345.237C106.808 345.677 105.669 345.902 104.519 345.899ZM97.0981 338.24C97.3333 339.834 98.0752 341.31 99.214 342.45C99.9103 343.147 100.737 343.7 101.647 344.077C102.558 344.455 103.533 344.649 104.519 344.649C105.504 344.649 106.48 344.455 107.39 344.078C108.3 343.7 109.127 343.147 109.823 342.45C110.103 342.17 110.36 341.869 110.593 341.549C110.827 341.228 111.035 340.888 111.215 340.533C109.03 340.204 106.88 339.677 104.791 338.958C104.572 338.882 104.354 338.803 104.136 338.724C103.26 338.374 102.353 338.11 101.426 337.936C100.003 337.719 98.506 337.952 97.0981 338.24Z" fill="#F9F9F9"/>
<path d="M104.519 345.9C102.818 345.9 101.154 345.404 99.7303 344.473C98.3067 343.542 97.1852 342.217 96.5028 340.659L96.1543 339.857L97.0259 339.787C101.789 339.395 106.583 339.902 111.159 341.282L112.116 341.581L111.604 342.285C111.333 342.658 111.033 343.009 110.707 343.335C109.897 344.151 108.932 344.798 107.87 345.238C106.808 345.678 105.668 345.903 104.519 345.9ZM98.0621 340.969C98.6447 341.953 99.4447 342.792 100.401 343.419C101.357 344.047 102.444 344.448 103.579 344.591C104.714 344.734 105.867 344.616 106.949 344.245C108.031 343.874 109.014 343.26 109.823 342.451C109.888 342.386 109.952 342.32 110.015 342.252C106.128 341.173 102.09 340.739 98.0621 340.969Z" fill="#F9F9F9"/>
<path d="M99.5928 121.433L94.5146 114.006H94.4766L89.3857 121.433H86.707L93.0039 112.203L86.7832 102.961H89.3984L94.4639 110.426H94.5146L99.5547 102.961H102.183L95.9746 112.216L102.271 121.433H99.5928ZM115.627 114.907C115.627 115.237 115.602 115.517 115.563 115.771H105.839C105.966 116.951 106.423 117.891 107.197 118.602C107.959 119.312 108.911 119.655 110.054 119.655C110.803 119.655 111.476 119.503 112.085 119.198C112.682 118.894 113.189 118.475 113.621 117.954L115.094 119.211C114.522 119.947 113.799 120.531 112.936 120.963C112.072 121.395 111.082 121.598 109.978 121.598C109.089 121.598 108.251 121.445 107.477 121.128C106.702 120.811 106.042 120.366 105.483 119.808C104.925 119.249 104.48 118.563 104.163 117.751C103.833 116.938 103.681 116.062 103.681 115.11C103.681 114.171 103.833 113.308 104.15 112.495C104.455 111.683 104.887 110.997 105.42 110.438C105.953 109.88 106.601 109.436 107.35 109.105C108.086 108.788 108.886 108.623 109.736 108.623C110.892 108.623 111.92 108.902 112.821 109.436C113.71 109.981 114.408 110.73 114.891 111.683C115.373 112.635 115.627 113.714 115.627 114.907ZM109.851 110.565C108.848 110.565 107.984 110.883 107.261 111.505C106.537 112.127 106.08 112.965 105.89 114.019H113.532C113.354 112.978 112.948 112.14 112.301 111.505C111.653 110.883 110.841 110.565 109.851 110.565ZM125.085 108.623C125.326 108.623 125.504 108.636 125.605 108.648V110.972C125.301 110.946 125.021 110.934 124.768 110.934C123.98 110.934 123.295 111.124 122.711 111.505C122.127 111.886 121.683 112.406 121.378 113.066C121.073 113.727 120.921 114.488 120.921 115.326V121.433H118.813V108.775H120.921V110.984H120.972C121.441 110.235 122.025 109.651 122.736 109.245C123.447 108.839 124.222 108.623 125.085 108.623ZM133.438 121.598C132.474 121.598 131.572 121.433 130.76 121.103C129.935 120.772 129.236 120.315 128.678 119.731C128.119 119.147 127.675 118.462 127.357 117.675C127.04 116.888 126.888 116.037 126.888 115.123C126.888 114.222 127.04 113.371 127.357 112.571C127.675 111.771 128.119 111.086 128.678 110.502C129.236 109.918 129.935 109.461 130.76 109.131C131.572 108.801 132.474 108.623 133.438 108.623C134.67 108.623 135.787 108.902 136.777 109.436C137.768 109.981 138.542 110.756 139.101 111.746C139.659 112.736 139.951 113.866 139.951 115.123C139.951 116.38 139.659 117.497 139.101 118.487C138.542 119.478 137.768 120.252 136.777 120.785C135.787 121.331 134.67 121.598 133.438 121.598ZM133.438 119.655C134.238 119.655 134.975 119.465 135.647 119.084C136.308 118.703 136.841 118.17 137.234 117.472C137.615 116.786 137.818 115.999 137.818 115.123C137.818 114.247 137.615 113.46 137.234 112.762C136.841 112.063 136.308 111.518 135.647 111.137C134.987 110.756 134.251 110.565 133.438 110.565C132.575 110.565 131.801 110.769 131.128 111.175C130.442 111.581 129.922 112.14 129.566 112.825C129.198 113.523 129.021 114.285 129.021 115.123C129.021 115.961 129.198 116.723 129.566 117.408C129.935 118.094 130.455 118.64 131.141 119.046C131.813 119.452 132.575 119.655 133.438 119.655Z" fill="white"/>
<defs>
<filter id="filter0_i_1073_936" x="7.04297" y="410.16" width="214.846" height="214.845" filterUnits="userSpaceOnUse" color-interpolation-filters="sRGB">
<feFlood flood-opacity="0" result="BackgroundImageFix"/>
<feBlend mode="normal" in="SourceGraphic" in2="BackgroundImageFix" result="shape"/>
<feColorMatrix in="SourceAlpha" type="matrix" values="0 0 0 0 0 0 0 0 0 0 0 0 0 0 0 0 0 0 127 0" result="hardAlpha"/>
<feOffset dx="3.12783" dy="3.12783"/>
<feGaussianBlur stdDeviation="1.56392"/>
<feComposite in2="hardAlpha" operator="arithmetic" k2="-1" k3="1"/>
<feColorMatrix type="matrix" values="0 0 0 0 0 0 0 0 0 0 0 0 0 0 0 0 0 0 0.25 0"/>
<feBlend mode="normal" in2="shape" result="effect1_innerShadow_1073_936"/>
</filter>
<filter id="filter1_i_1073_936" x="12.7207" y="12.7303" width="205.642" height="575.355" filterUnits="userSpaceOnUse" color-interpolation-filters="sRGB">
<feFlood flood-opacity="0" result="BackgroundImageFix"/>
<feBlend mode="normal" in="SourceGraphic" in2="BackgroundImageFix" result="shape"/>
<feColorMatrix in="SourceAlpha" type="matrix" values="0 0 0 0 0 0 0 0 0 0 0 0 0 0 0 0 0 0 127 0" result="hardAlpha"/>
<feOffset dx="5" dy="5"/>
<feGaussianBlur stdDeviation="2.5"/>
<feComposite in2="hardAlpha" operator="arithmetic" k2="-1" k3="1"/>
<feColorMatrix type="matrix" values="0 0 0 0 0 0 0 0 0 0 0 0 0 0 0 0 0 0 0.25 0"/>
<feBlend mode="normal" in2="shape" result="effect1_innerShadow_1073_936"/>
</filter>
</defs>
</svg>
