<svg width="61" height="57" viewBox="0 0 61 57" fill="none" xmlns="http://www.w3.org/2000/svg">
<g id="Group 551">
<path id="Vector" d="M21.5944 56.6851C21.405 56.6852 21.2184 56.6426 21.0508 56.5611L14.5928 53.429L8.12593 56.5618C7.93316 56.6551 7.71592 56.6969 7.49878 56.6823C7.28165 56.6676 7.07327 56.5973 6.89721 56.4791C6.72116 56.361 6.58445 56.1997 6.50254 56.0136C6.42064 55.8276 6.3968 55.624 6.43373 55.4261L7.67126 48.792L2.44387 44.0904C2.28794 43.9502 2.17761 43.7726 2.12538 43.5776C2.07315 43.3826 2.0811 43.1781 2.14832 42.987C2.21554 42.796 2.33936 42.6261 2.50577 42.4966C2.67218 42.3671 2.87455 42.2831 3.08999 42.2542L10.3104 41.2842L13.5467 35.2486C13.6432 35.0688 13.7923 34.9174 13.9772 34.8115C14.162 34.7056 14.3752 34.6495 14.5928 34.6494C14.8104 34.6495 15.0241 34.7057 15.209 34.8117C15.3938 34.9177 15.5428 35.0693 15.6392 35.2493L18.8686 41.2846L26.0883 42.2542C26.3036 42.2832 26.5058 42.3671 26.6722 42.4966C26.8385 42.626 26.9623 42.7957 27.0296 42.9866C27.0968 43.1775 27.1049 43.382 27.0529 43.5769C27.0009 43.7718 26.8908 43.9494 26.7352 44.0897L21.5142 48.7913L21.627 49.3954L21.6274 49.3971L22.7445 55.4275C22.7731 55.5819 22.7647 55.7403 22.7201 55.8914C22.6755 56.0426 22.5956 56.183 22.4861 56.3027C22.3766 56.4225 22.24 56.5188 22.086 56.5848C21.932 56.6508 21.7642 56.6851 21.5944 56.6851ZM5.76522 44.0704L9.73989 47.6454C9.87548 47.7673 9.97687 47.9178 10.0353 48.0839C10.0937 48.25 10.1075 48.4268 10.0753 48.5989L9.13478 53.6414L14.0503 51.26C14.2176 51.1788 14.4038 51.1364 14.5927 51.1364C14.7817 51.1364 14.9679 51.1788 15.1352 51.26L20.0458 53.6403L19.1102 48.5992C19.078 48.4272 19.0916 48.2506 19.1499 48.0845C19.2082 47.9185 19.3094 47.768 19.4449 47.6461L23.415 44.0708L17.9255 43.3335C17.7384 43.3083 17.5607 43.2415 17.4077 43.139C17.2548 43.0364 17.1311 42.9012 17.0473 42.7448L14.5916 38.1557L12.1306 42.7455C12.0468 42.9017 11.9231 43.0368 11.7702 43.1392C11.6173 43.2416 11.4398 43.3083 11.2528 43.3335L5.76522 44.0704Z" fill="#D75EFF"/>
<path id="Vector_2" d="M12.1506 24.893L12.8788 28.8251L10.8356 27.8329L8.31355 26.6111L3.74368 28.8251L4.61845 24.1356L0.92334 20.8124L6.02609 20.1271L8.31355 15.8613L10.5963 20.1271L15.6991 20.8124L12.0087 24.1356L12.1506 24.893Z" fill="#D75EFF"/>
<path id="Vector_3" d="M46.8935 42.9171L47.3283 45.2646L46.1085 44.6725L44.6029 43.9427L41.8747 45.2646L42.3967 42.465L40.1909 40.4811L43.2372 40.072L44.6029 37.5254L45.9654 40.072L49.0117 40.4811L46.8087 42.465L46.8935 42.9171Z" fill="#D75EFF"/>
<path id="Vector_4" d="M20.0647 29.982C19.8339 29.9819 19.6083 29.9188 19.4165 29.8005C19.2246 29.6822 19.0751 29.5141 18.9868 29.3174C18.8985 29.1207 18.8754 28.9043 18.9204 28.6955C18.9654 28.4867 19.0765 28.2949 19.2396 28.1444L48.1331 1.48909C48.3519 1.28723 48.6487 1.17383 48.9581 1.17383C49.2676 1.17383 49.5643 1.28723 49.7831 1.48909C50.0019 1.69095 50.1249 1.96473 50.1249 2.2502C50.1249 2.53567 50.0019 2.80945 49.7831 3.01131L20.8897 29.6666C20.7815 29.7667 20.6529 29.8461 20.5113 29.9002C20.3697 29.9544 20.2179 29.9821 20.0647 29.982Z" fill="#D75EFF"/>
<path id="Vector_5" d="M31.2289 39.3836C30.9995 39.3836 30.7751 39.3212 30.584 39.2042C30.3928 39.0873 30.2432 38.9209 30.1539 38.7259C30.0647 38.5309 30.0397 38.316 30.0821 38.108C30.1246 37.9001 30.2325 37.7082 30.3925 37.5565L57.1406 12.1988C57.2472 12.0967 57.3747 12.015 57.5156 11.9584C57.6566 11.9019 57.8083 11.8716 57.962 11.8693C58.1157 11.867 58.2684 11.8927 58.4113 11.945C58.5541 11.9973 58.6844 12.0751 58.7946 12.174C58.9048 12.2729 58.9927 12.3909 59.0533 12.5212C59.1139 12.6515 59.146 12.7916 59.1478 12.9334C59.1495 13.0752 59.1209 13.2159 59.0635 13.3475C59.0061 13.479 58.9211 13.5988 58.8134 13.7L32.0653 39.0577C31.9566 39.1609 31.8266 39.243 31.6829 39.299C31.5393 39.355 31.3848 39.3837 31.2289 39.3836Z" fill="#D75EFF"/>
<path id="Vector_6" d="M54.7913 6.85907C54.5615 6.85905 54.3368 6.79643 54.1454 6.67906C53.954 6.56169 53.8045 6.3948 53.7155 6.19932C53.6265 6.00385 53.6021 5.78848 53.6453 5.58025C53.6885 5.37202 53.7974 5.18019 53.9583 5.02883L58.9232 0.358802C59.1399 0.154992 59.4355 0.0389429 59.7449 0.0361832C60.0544 0.0334235 60.3523 0.14418 60.5733 0.344087C60.7942 0.543995 60.92 0.816677 60.923 1.10215C60.926 1.38762 60.8059 1.6625 60.5892 1.86631L55.6243 6.53634C55.5158 6.63866 55.3862 6.71993 55.2431 6.77535C55.1001 6.83078 54.9464 6.85924 54.7913 6.85907Z" fill="#D75EFF"/>
<path id="Vector_7" d="M50.5589 37.6598C50.3291 37.6598 50.1044 37.5972 49.913 37.4798C49.7216 37.3625 49.572 37.1956 49.4831 37.0001C49.3941 36.8046 49.3697 36.5893 49.4129 36.381C49.4561 36.1728 49.565 35.981 49.7259 35.8296L54.6908 31.1596C54.9075 30.9558 55.2031 30.8397 55.5125 30.837C55.822 30.8342 56.1199 30.945 56.3408 31.1449C56.5618 31.3448 56.6876 31.6175 56.6905 31.9029C56.6935 32.1884 56.5735 32.4633 56.3568 32.6671L51.3919 37.3371C51.2834 37.4394 51.1538 37.5207 51.0107 37.5761C50.8677 37.6316 50.714 37.66 50.5589 37.6598Z" fill="#D75EFF"/>
<path id="Vector_8" d="M18.9339 21.3259C18.7041 21.3259 18.4794 21.2633 18.288 21.1459C18.0966 21.0286 17.947 20.8617 17.8581 20.6662C17.7691 20.4707 17.7447 20.2554 17.7879 20.0471C17.8311 19.8389 17.94 19.6471 18.1009 19.4957L23.0654 14.8257C23.2822 14.6223 23.5776 14.5065 23.8869 14.504C24.1961 14.5014 24.4937 14.6121 24.7145 14.8119C24.9353 15.0116 25.061 15.284 25.0642 15.5693C25.0674 15.8545 24.9477 16.1293 24.7314 16.3332L19.7669 21.0032C19.6584 21.1055 19.5288 21.1868 19.3857 21.2422C19.2427 21.2977 19.089 21.3261 18.9339 21.3259Z" fill="#D75EFF"/>
<path id="Vector_9" d="M27.8518 31.7101C27.621 31.71 27.3954 31.6469 27.2036 31.5286C27.0117 31.4103 26.8622 31.2422 26.7739 31.0455C26.6856 30.8488 26.6625 30.6324 26.7075 30.4236C26.7525 30.2148 26.8636 30.023 27.0267 29.8725L48.3101 10.2382C48.529 10.0367 48.8256 9.92365 49.1348 9.92383C49.444 9.924 49.7405 10.0374 49.9591 10.2391C50.1777 10.4408 50.3006 10.7143 50.3008 10.9995C50.301 11.2848 50.1785 11.5584 49.9601 11.7604L28.6768 31.3947C28.5686 31.4948 28.44 31.5742 28.2984 31.6283C28.1568 31.6825 28.005 31.7102 27.8518 31.7101Z" fill="#D75EFF"/>
<path id="Vector_10" d="M13.9123 17.6257C13.6815 17.6257 13.456 17.5625 13.2641 17.4442C13.0723 17.326 12.9227 17.1578 12.8344 16.9612C12.7461 16.7645 12.723 16.5481 12.768 16.3393C12.813 16.1305 12.9241 15.9387 13.0873 15.7881L23.7578 5.94417C23.9766 5.74231 24.2734 5.62891 24.5828 5.62891C24.8923 5.62891 25.189 5.74231 25.4079 5.94417C25.6267 6.14603 25.7496 6.41981 25.7496 6.70528C25.7496 6.99075 25.6267 7.26453 25.4079 7.46639L14.7373 17.3103C14.6291 17.4105 14.5005 17.4899 14.3589 17.544C14.2174 17.5981 14.0656 17.6259 13.9123 17.6257Z" fill="#D75EFF"/>
</g>
</svg>
