<svg width="549" height="140" viewBox="0 0 549 140" fill="none" xmlns="http://www.w3.org/2000/svg">
<g clip-path="url(#clip0_726_10612)">
<path d="M322.506 38.3569C336.526 24.4894 354.535 12.8969 374.5 12.2126C384.938 11.9604 395.115 16.9966 399.338 26.8519C400.818 30.5253 401.718 34.4067 402.005 38.3569H406.855C406.838 37.7268 406.817 37.096 406.78 36.4633C405.451 18.4907 392.496 6.61505 374.512 6.64459C350.856 7.05133 329.903 21.5051 314.328 38.2145C314.286 38.261 314.244 38.3102 314.202 38.3569H322.506Z" fill="#36A9E1"/>
<path d="M379.892 93.2979C379.121 94.2149 378.349 95.1114 377.578 95.9697C362.194 112.917 334.278 131.242 310.683 124.002C300.475 120.721 294.475 110.908 293.791 100.503C293.663 98.1022 293.69 95.6955 293.871 93.2979H288.27C287.898 99.9036 288.978 106.511 291.433 112.654C296.462 124.414 308.545 130.624 320.963 130.344C344.454 129.62 364.915 114.959 380.308 98.463C381.828 96.7895 383.316 95.0678 384.773 93.2979H379.892Z" fill="#36A9E1"/>
<path d="M321.171 139.177C329.353 139.177 335.985 132.544 335.985 124.362C335.985 116.18 329.353 109.547 321.171 109.547C312.989 109.547 306.356 116.18 306.356 124.362C306.356 132.544 312.989 139.177 321.171 139.177Z" fill="#36A9E1"/>
<path d="M378.58 20.9511C384.366 20.9511 389.056 16.2611 389.056 10.4756C389.056 4.69007 384.366 0 378.58 0C372.795 0 368.105 4.69007 368.105 10.4756C368.105 16.2611 372.795 20.9511 378.58 20.9511Z" fill="#36A9E1"/>
<path d="M4.77342 75.1093C4.77342 75.1093 9.48192 80.3413 15.8672 80.3413C19.3501 80.3413 22.4463 78.5351 22.4463 75.1093C22.4463 67.5727 0.903278 68.1958 0.903278 54.4301C0.903278 47.2675 7.35347 41.9731 16.1899 41.9731C21.5429 41.9731 29.7988 44.4023 29.7988 50.6934V54.8042H22.188V52.811C22.188 50.7553 19.1567 49.3852 16.125 49.3852C12.2554 49.3852 9.41748 51.3159 9.41748 54.1191C9.41748 61.6557 30.96 60.1606 30.96 74.6733C30.96 81.7119 25.3486 87.6914 15.7383 87.6914C12.7837 87.701 9.85922 87.097 7.15018 85.9176C4.44113 84.7382 2.00651 83.0091 0.000488281 80.8398L4.77342 75.1093Z" fill="white"/>
<path d="M39.0244 63.2751C39.0462 63.0856 39.0241 62.8936 38.9598 62.7141C38.8954 62.5345 38.7905 62.3721 38.6533 62.2396C38.5161 62.1071 38.3502 62.008 38.1684 61.95C37.9867 61.8919 37.7941 61.8766 37.6055 61.905H35.0254V55.178H42.5718C45.4741 55.178 46.8931 56.4861 46.8931 58.7283V59.6629C46.8931 60.3479 46.8286 61.033 46.8286 61.033H46.9575C47.9751 59.0782 49.5004 57.4335 51.3731 56.2718C53.2457 55.11 55.3967 54.4739 57.6001 54.4304C62.5664 54.4304 65.7915 56.6731 67.2105 60.9704H67.3394C68.453 58.9753 70.082 57.3158 72.0562 56.1654C74.0303 55.015 76.2772 54.4158 78.562 54.4304C85.3989 54.4304 89.3335 58.1677 89.3335 66.5144V78.909C89.317 79.0973 89.3428 79.287 89.409 79.4641C89.4751 79.6412 89.5801 79.8013 89.7161 79.9327C89.8521 80.0641 90.0157 80.1634 90.195 80.2234C90.3743 80.2834 90.5648 80.3026 90.7524 80.2796H93.2681V86.9441H85.5278C82.4321 86.9441 81.1421 85.6985 81.1421 82.7088V68.009C81.1421 64.3962 80.4326 61.656 76.627 61.656C72.564 61.656 69.6611 64.9568 68.7583 68.9431C68.3809 70.2585 68.2068 71.6239 68.2422 72.9919V86.9441H60.0508V68.009C60.0508 64.5832 59.5352 61.656 55.6006 61.656C51.4727 61.656 48.6992 64.9568 47.667 69.0056C47.3253 70.3069 47.152 71.6466 47.1514 72.9919V86.9441H39.0244V63.2751Z" fill="white"/>
<path d="M100.11 63.2749C100.132 63.0854 100.11 62.8934 100.045 62.7138C99.9809 62.5342 99.876 62.3719 99.7388 62.2394C99.6015 62.1069 99.4356 62.0078 99.2539 61.9497C99.0722 61.8917 98.8795 61.8763 98.6909 61.9048H96.1108V55.1778H103.916C106.947 55.1778 108.237 56.4859 108.237 59.4131V78.9087C108.22 79.0971 108.246 79.2868 108.312 79.4639C108.378 79.641 108.483 79.8011 108.619 79.9325C108.755 80.0638 108.919 80.1632 109.098 80.2232C109.278 80.2832 109.468 80.3024 109.656 80.2793H112.236V86.9439H104.431C101.4 86.9439 100.11 85.6983 100.11 82.7085V63.2749ZM100.497 42.7207H107.592V50.0078H100.497V42.7207Z" fill="white"/>
<path d="M119.268 61.4687H115.011V55.1777H119.461V46.52H127.459V55.1777H134.941V61.4687H127.459V74.2998C127.459 79.5317 131.716 80.2793 133.973 80.2793C134.471 80.2852 134.968 80.2435 135.457 80.1548V87.0683C134.625 87.1985 133.784 87.2611 132.941 87.2553C128.362 87.2553 119.268 85.9472 119.268 75.2963V61.4687Z" fill="white"/>
<path d="M142.36 50.8179C142.382 50.6283 142.36 50.4363 142.295 50.2566C142.231 50.077 142.126 49.9146 141.989 49.782C141.852 49.6494 141.686 49.5503 141.504 49.4922C141.322 49.4342 141.13 49.4188 140.941 49.4473H138.361V42.7207H146.166C149.197 42.7207 150.551 44.0283 150.551 46.8936V58.043C150.554 58.9373 150.511 59.8313 150.422 60.7212H150.551C151.692 58.7532 153.343 57.1297 155.329 56.0224C157.316 54.915 159.565 54.3649 161.839 54.4302C169.191 54.4302 173.319 58.1055 173.319 66.5142V78.9087C173.303 79.0971 173.329 79.2868 173.395 79.4639C173.461 79.641 173.566 79.8011 173.702 79.9325C173.838 80.0638 174.002 80.1631 174.181 80.2232C174.36 80.2832 174.551 80.3024 174.738 80.2793H177.318V86.9439H169.514C166.482 86.9439 165.193 85.6983 165.193 82.7085V68.1333C165.193 64.2715 164.096 61.6558 159.968 61.6558C157.969 61.64 156.019 62.2757 154.413 63.4669C152.807 64.6581 151.633 66.3398 151.067 68.2578C150.69 69.5945 150.516 70.9803 150.551 72.3687V86.9438H142.36L142.36 50.8179Z" fill="white"/>
<path d="M183.901 61.4686H179.837V55.1776H183.901V54.2434C183.901 43.8416 192.737 42.471 197.316 42.471C198.244 42.4625 199.171 42.525 200.09 42.658V49.385C199.47 49.2986 198.845 49.257 198.22 49.2605C195.897 49.2605 192.092 49.9455 192.092 54.5549V55.1775H209.571C212.603 55.1775 213.957 56.4856 213.957 59.4128V78.9084C213.941 79.0968 213.966 79.2865 214.033 79.4637C214.099 79.6408 214.204 79.8009 214.34 79.9323C214.476 80.0637 214.64 80.163 214.819 80.223C214.998 80.2829 215.189 80.3021 215.376 80.279H217.892V86.9436H210.152C207.056 86.9436 205.766 85.698 205.766 82.7082V62.8387C205.783 62.6503 205.757 62.4606 205.691 62.2835C205.624 62.1064 205.519 61.9463 205.383 61.815C205.247 61.6837 205.084 61.5844 204.904 61.5245C204.725 61.4645 204.534 61.4454 204.347 61.4686H192.092V86.9436H183.901V61.4686ZM206.153 42.7206H213.248V50.0077H206.153V42.7206Z" fill="white"/>
<path d="M238.212 54.4302C247.629 54.4302 252.789 61.0952 252.789 69.5034C252.789 70.438 252.595 72.4312 252.595 72.4312H229.892C230.537 78.0372 234.793 80.9644 239.76 80.9644C243.144 80.8412 246.39 79.5917 248.983 77.4141L252.402 82.8951C248.704 86.014 244.017 87.7144 239.18 87.6914C228.279 87.6914 221.507 80.0923 221.507 71.0611C221.507 61.2817 228.344 54.4302 238.212 54.4302ZM244.404 66.9497C244.275 63.1504 241.566 60.5347 238.212 60.5347C236.319 60.4447 234.457 61.0457 232.974 62.2258C231.491 63.4059 230.487 65.0847 230.15 66.9497H244.404Z" fill="white"/>
<path d="M260.531 50.8179C260.553 50.6283 260.531 50.4362 260.467 50.2566C260.402 50.0769 260.297 49.9145 260.16 49.7819C260.023 49.6494 259.857 49.5502 259.675 49.4922C259.493 49.4341 259.301 49.4188 259.112 49.4473H256.532V42.7207H264.336C267.368 42.7207 268.722 44.0283 268.722 46.9561V78.9087C268.706 79.0971 268.731 79.2867 268.798 79.4638C268.864 79.641 268.969 79.8011 269.105 79.9324C269.241 80.0638 269.404 80.1631 269.584 80.2231C269.763 80.2831 269.953 80.3023 270.141 80.2793H272.657V86.9438H264.917C261.821 86.9438 260.531 85.6982 260.531 82.7085V50.8179Z" fill="white"/>
<path d="M291.169 54.4302C298.328 54.4302 300.65 58.292 300.65 58.292H300.779C300.779 58.292 300.715 57.4824 300.715 56.4233V50.8179C300.737 50.6283 300.715 50.4363 300.65 50.2567C300.586 50.0771 300.481 49.9147 300.344 49.7822C300.207 49.6496 300.041 49.5505 299.859 49.4924C299.677 49.4343 299.485 49.4189 299.296 49.4473H296.716V42.7207H304.521C307.552 42.7207 308.906 44.0283 308.906 46.9561V78.9087C308.89 79.0971 308.915 79.2867 308.982 79.4639C309.048 79.641 309.153 79.8011 309.289 79.9325C309.425 80.0639 309.588 80.1632 309.768 80.2232C309.947 80.2832 310.138 80.3024 310.325 80.2793H312.841V86.9438H305.294C302.327 86.9438 301.23 85.5737 301.23 83.7051V82.5215H301.102C301.102 82.5215 298.393 87.6914 290.846 87.6914C281.945 87.6914 276.205 80.9019 276.205 71.061C276.205 60.9702 282.461 54.4302 291.169 54.4302ZM300.908 70.9985C300.908 66.0781 298.264 61.2197 292.781 61.2197C288.267 61.2197 284.525 64.77 284.525 71.061C284.525 77.1025 287.815 81.0269 292.652 81.0269C296.909 81.0269 300.908 78.0371 300.908 70.9985Z" fill="white"/>
<path d="M363.09 77.5386L371.346 86.9438H366.186L360.962 80.7773C359.537 83.0219 357.548 84.8532 355.194 86.0883C352.84 87.3234 350.202 87.9191 347.546 87.8159C339.419 87.8159 333.808 82.895 333.808 75.7944C333.808 69.3169 339.612 64.9565 345.159 62.2783C342.644 59.2886 339.548 55.5513 339.548 51.5649C339.548 46.333 343.74 42.6582 349.867 42.6582C355.673 42.6582 359.865 46.333 359.865 51.4404C359.865 56.9839 355.221 60.4097 350.835 63.0884L360.51 74.6113C361.406 72.2786 361.928 69.8192 362.058 67.3237H365.863C365.667 70.8857 364.722 74.3663 363.09 77.5386ZM337.871 75.7324C337.871 80.6528 342.321 84.5771 347.868 84.5771C352.576 84.5771 356.253 81.8984 358.64 78.1616L347.353 64.77C343.096 67.3857 337.871 70.189 337.871 75.7324ZM355.995 51.6899C355.981 50.8908 355.807 50.1026 355.482 49.3721C355.158 48.6416 354.69 47.9838 354.106 47.4377C353.523 46.8916 352.835 46.4683 352.085 46.193C351.335 45.9176 350.537 45.7959 349.738 45.8349C346.062 45.8349 343.353 48.2641 343.353 51.5029C343.353 55.3022 346.707 57.6694 348.643 60.5347C352.061 58.666 355.995 55.8628 355.995 51.6899Z" fill="#36A9E1"/>
<path d="M390.7 51.0044C390.442 49.9458 389.732 49.6343 388.637 49.6343H387.411V42.7207H392.894C396.118 42.7207 397.859 43.4678 398.569 46.333L404.825 72.6802C405.181 74.2196 405.439 75.7798 405.6 77.3516H405.729C405.946 75.7745 406.269 74.2138 406.696 72.6802L415.017 42.8452H422.176L430.045 72.6802C430.471 74.2105 430.773 75.7727 430.947 77.3516H431.076C431.237 75.7798 431.496 74.2197 431.851 72.6802L438.172 46.333C438.816 43.4678 440.558 42.7207 443.783 42.7207H449.33V49.6343H448.104C446.943 49.6343 446.299 49.9458 446.04 51.0044L436.494 86.9438H426.755L419.789 61.9048C419.301 60.1005 418.913 58.2705 418.628 56.4233H418.499C418.203 58.2738 417.794 60.1044 417.273 61.9048L409.985 86.9438H400.182L390.7 51.0044Z" fill="#36A9E1"/>
<path d="M465.718 54.4302C475.134 54.4302 480.294 61.0952 480.294 69.5034C480.294 70.438 480.101 72.4312 480.101 72.4312H457.397C458.042 78.0372 462.299 80.9644 467.266 80.9644C470.65 80.8414 473.895 79.5919 476.488 77.4141L479.907 82.8951C476.209 86.014 471.522 87.7143 466.685 87.6914C455.784 87.6914 449.012 80.0923 449.012 71.0611C449.012 61.2817 455.849 54.4302 465.718 54.4302ZM471.909 66.9497C471.78 63.1504 469.071 60.5347 465.718 60.5347C463.825 60.4446 461.963 61.0456 460.48 62.2257C458.997 63.4058 457.993 65.0846 457.655 66.9497H471.909Z" fill="#36A9E1"/>
<path d="M488.037 50.8179C488.059 50.6283 488.037 50.4363 487.973 50.2567C487.908 50.0771 487.803 49.9147 487.666 49.7822C487.529 49.6496 487.363 49.5505 487.181 49.4924C486.999 49.4343 486.807 49.4189 486.618 49.4473H484.038V42.7207H491.843C494.874 42.7207 496.229 44.0283 496.229 46.9561V78.9087C496.212 79.0971 496.238 79.2868 496.304 79.4639C496.37 79.641 496.475 79.8011 496.611 79.9325C496.747 80.0639 496.911 80.1632 497.09 80.2232C497.269 80.2832 497.46 80.3024 497.647 80.2793H500.163V86.9438H492.423C489.327 86.9438 488.037 85.6982 488.037 82.7085V50.8179Z" fill="#36A9E1"/>
<path d="M506.807 50.8179C506.828 50.6283 506.806 50.4363 506.742 50.2567C506.678 50.0771 506.573 49.9147 506.436 49.7822C506.298 49.6496 506.132 49.5505 505.951 49.4924C505.769 49.4343 505.576 49.4189 505.388 49.4473H502.808V42.7207H510.612C513.644 42.7207 514.998 44.0283 514.998 46.9561V78.9087C514.981 79.0971 515.007 79.2868 515.073 79.4639C515.14 79.641 515.245 79.8011 515.381 79.9325C515.517 80.0639 515.68 80.1632 515.859 80.2232C516.039 80.2832 516.229 80.3024 516.417 80.2793H518.933V86.9438H511.192C508.097 86.9438 506.807 85.6982 506.807 82.7085V50.8179Z" fill="#36A9E1"/>
<path d="M525.898 76.8535C525.898 76.8535 530.091 81.5249 535.702 81.5249C538.218 81.5249 540.152 80.5283 540.152 78.4106C540.152 73.9258 522.803 73.9883 522.803 63.7109C522.803 57.3579 528.736 54.4302 535.573 54.4302C540.023 54.4302 547.118 55.8628 547.118 61.0327V64.334H539.895V62.7769C539.895 61.2817 537.572 60.5347 535.767 60.5347C532.864 60.5347 530.865 61.5308 530.865 63.3994C530.865 68.3823 548.344 67.3857 548.344 77.9746C548.344 83.9541 542.861 87.6914 535.702 87.6914C533.154 87.753 530.62 87.2805 528.265 86.3044C525.91 85.3282 523.786 83.8699 522.028 82.0234L525.898 76.8535Z" fill="#36A9E1"/>
<path d="M400.1 105.431C400.446 104.745 400.977 104.17 401.633 103.771C402.289 103.372 403.044 103.165 403.812 103.173C404.513 103.116 405.211 103.3 405.792 103.695C406.373 104.09 406.801 104.672 407.005 105.344C407.351 104.665 407.885 104.1 408.543 103.715C409.201 103.33 409.956 103.142 410.718 103.173C411.192 103.129 411.67 103.189 412.118 103.348C412.567 103.506 412.976 103.761 413.316 104.093C413.657 104.426 413.922 104.828 414.091 105.273C414.261 105.718 414.332 106.194 414.3 106.669V114.638H412.933V107.038C412.983 106.684 412.951 106.323 412.84 105.984C412.729 105.644 412.541 105.334 412.292 105.078C412.042 104.823 411.737 104.627 411.4 104.508C411.063 104.388 410.704 104.348 410.349 104.389C408.329 104.389 407.243 105.757 407.243 107.798V114.638H405.897V107.146C405.897 105.453 405.246 104.389 403.443 104.389C401.164 104.389 400.186 106.126 400.186 108.297V114.638H398.818V103.477H400.1L400.1 105.431Z" fill="white"/>
<path d="M426.676 114.573C426.327 114.695 425.959 114.754 425.59 114.746C424.266 114.746 424.135 113.726 424.135 112.705C423.698 113.422 423.077 114.008 422.336 114.401C421.595 114.795 420.761 114.982 419.923 114.942C417.643 114.942 416.275 113.769 416.275 111.815C416.275 109.774 417.664 108.645 420.422 108.363C422.181 108.189 423.137 108.146 423.679 107.776C423.961 107.581 424.07 107.277 424.07 106.712C424.07 104.867 422.94 104.302 421.16 104.302C419.271 104.302 418.294 105.127 418.12 106.93H416.817C416.927 104.541 418.555 103.173 421.313 103.173C423.831 103.173 425.416 104.28 425.416 106.387V112.466C425.416 113.14 425.395 113.595 426.154 113.595C426.331 113.602 426.507 113.58 426.676 113.53L426.676 114.573ZM421.03 109.34C419.619 109.535 417.708 109.861 417.708 111.685C417.708 112.987 418.707 113.813 420.271 113.813C420.748 113.851 421.229 113.792 421.683 113.638C422.137 113.484 422.555 113.239 422.911 112.918C423.267 112.596 423.553 112.206 423.753 111.77C423.952 111.333 424.06 110.861 424.07 110.382V108.558C423.636 109.036 422.528 109.144 421.03 109.34Z" fill="white"/>
<path d="M433.862 104.693C433.71 104.693 433.58 104.671 433.493 104.671C432.69 104.655 431.903 104.906 431.259 105.386C430.614 105.865 430.147 106.546 429.932 107.32C429.718 108.223 429.631 109.151 429.671 110.078V114.638H428.325V103.477H429.606V106.148C430.54 104.107 431.603 103.347 433.862 103.303L433.862 104.693Z" fill="white"/>
<path d="M439.615 107.581L444.718 114.638H443.003L438.551 108.515L436.337 110.404V114.638H435.034V99.1777H436.337V108.927L442.568 103.477H444.393L439.615 107.581Z" fill="white"/>
<path d="M450.362 115.007C447.257 115.007 445.238 112.727 445.238 109.188C445.238 105.648 447.344 103.173 450.341 103.173C453.641 103.173 455.248 105.909 455.248 108.992V109.383H446.627C446.627 111.728 447.713 113.899 450.405 113.899C451.238 113.929 452.052 113.644 452.683 113.101C453.315 112.558 453.719 111.796 453.814 110.968H455.139C455 112.12 454.43 113.177 453.544 113.926C452.658 114.675 451.521 115.061 450.362 115.007ZM450.297 104.302C447.865 104.302 446.888 106.191 446.627 108.276H453.88C453.728 105.8 452.382 104.302 450.297 104.302Z" fill="white"/>
<path d="M461.565 104.584H459.264V111.663C459.264 112.792 459.221 113.53 460.676 113.53C460.973 113.525 461.27 113.503 461.565 113.465V114.638C461.17 114.698 460.771 114.727 460.371 114.725C459.395 114.725 458.309 114.529 458.048 113.443C457.905 112.634 457.861 111.81 457.918 110.99V104.584H455.941V103.477H457.918V100.068H459.264V103.477H461.565V104.584Z" fill="white"/>
<path d="M475.288 104.693C475.136 104.693 475.006 104.671 474.919 104.671C474.115 104.655 473.329 104.906 472.684 105.386C472.039 105.865 471.573 106.546 471.357 107.32C471.144 108.223 471.056 109.151 471.097 110.078V114.638H469.751V103.477H471.032V106.148C471.966 104.107 473.029 103.347 475.288 103.303V104.693Z" fill="white"/>
<path d="M480.542 115.007C477.436 115.007 475.418 112.727 475.418 109.188C475.418 105.648 477.523 103.173 480.52 103.173C483.82 103.173 485.428 105.909 485.428 108.992V109.383H476.807C476.807 111.728 477.893 113.899 480.585 113.899C481.418 113.929 482.231 113.644 482.863 113.101C483.495 112.558 483.899 111.796 483.994 110.968H485.318C485.18 112.12 484.61 113.177 483.724 113.926C482.838 114.675 481.701 115.061 480.542 115.007ZM480.477 104.302C478.045 104.302 477.067 106.191 476.807 108.276H484.06C483.907 105.8 482.561 104.302 480.477 104.302Z" fill="white"/>
<path d="M493.981 106.734C493.852 105.04 492.766 104.302 490.964 104.302C489.356 104.302 488.358 105.019 488.358 106.148C488.358 107.538 489.443 107.776 491.55 108.254C493.374 108.666 495.697 109.231 495.697 111.554C495.697 113.595 493.917 114.985 491.268 114.985C488.401 114.985 486.751 113.552 486.686 110.99H488.011C488.011 112.857 489.248 113.856 491.311 113.856C493.135 113.856 494.351 112.987 494.351 111.685C494.351 110.122 492.462 109.774 491.289 109.492C489.465 109.058 486.99 108.775 486.99 106.321C486.99 104.367 488.554 103.173 491.094 103.173C493.548 103.173 495.307 104.346 495.307 106.734L493.981 106.734Z" fill="white"/>
<path d="M502.253 115.007C499.147 115.007 497.129 112.727 497.129 109.188C497.129 105.648 499.234 103.173 502.231 103.173C505.531 103.173 507.139 105.909 507.139 108.992V109.383H498.518C498.518 111.728 499.604 113.899 502.296 113.899C503.129 113.929 503.942 113.644 504.574 113.101C505.206 112.558 505.61 111.796 505.705 110.968H507.029C506.89 112.12 506.321 113.177 505.435 113.926C504.549 114.675 503.412 115.061 502.253 115.007ZM502.188 104.302C499.756 104.302 498.778 106.191 498.518 108.276H505.771C505.618 105.8 504.272 104.302 502.188 104.302Z" fill="white"/>
<path d="M518.798 114.573C518.449 114.695 518.081 114.754 517.712 114.746C516.388 114.746 516.257 113.726 516.257 112.705C515.82 113.422 515.199 114.008 514.458 114.401C513.717 114.795 512.883 114.982 512.045 114.942C509.765 114.942 508.396 113.769 508.396 111.815C508.396 109.774 509.787 108.645 512.544 108.363C514.303 108.189 515.259 108.146 515.801 107.776C516.083 107.581 516.192 107.277 516.192 106.712C516.192 104.867 515.063 104.302 513.282 104.302C511.394 104.302 510.416 105.127 510.242 106.93H508.939C509.049 104.541 510.677 103.173 513.435 103.173C515.953 103.173 517.538 104.28 517.538 106.387V112.466C517.538 113.14 517.517 113.595 518.276 113.595C518.453 113.602 518.629 113.58 518.798 113.53L518.798 114.573ZM513.152 109.34C511.741 109.535 509.83 109.861 509.83 111.685C509.83 112.987 510.829 113.813 512.393 113.813C512.87 113.851 513.351 113.792 513.805 113.638C514.259 113.484 514.677 113.239 515.033 112.918C515.389 112.596 515.676 112.206 515.875 111.77C516.074 111.333 516.182 110.861 516.192 110.382V108.558C515.758 109.036 514.65 109.144 513.152 109.34Z" fill="white"/>
<path d="M525.984 104.693C525.832 104.693 525.702 104.671 525.615 104.671C524.812 104.655 524.025 104.906 523.381 105.386C522.736 105.865 522.269 106.546 522.054 107.32C521.84 108.223 521.753 109.151 521.793 110.078V114.638H520.447V103.477H521.729V106.148C522.662 104.107 523.726 103.347 525.984 103.303V104.693Z" fill="white"/>
<path d="M531.368 114.963C528.241 114.963 526.2 112.683 526.2 109.166C526.2 105.518 528.264 103.151 531.412 103.151C531.966 103.101 532.523 103.161 533.053 103.328C533.584 103.494 534.076 103.764 534.501 104.121C534.927 104.478 535.278 104.916 535.534 105.409C535.79 105.902 535.946 106.441 535.993 106.995H534.604C534.525 106.222 534.152 105.509 533.562 105.003C532.971 104.498 532.209 104.239 531.434 104.28C529.089 104.28 527.612 106.148 527.612 109.058C527.612 111.967 529.045 113.834 531.304 113.834C532.178 113.858 533.026 113.537 533.664 112.939C534.302 112.341 534.679 111.516 534.712 110.642H536.08C535.711 113.183 534.061 114.963 531.368 114.963Z" fill="white"/>
<path d="M539.314 105.584C539.635 104.836 540.178 104.206 540.87 103.778C541.561 103.351 542.368 103.147 543.18 103.195C545.785 103.195 547.088 104.693 547.088 107.255V114.638H545.721V107.429C545.721 105.518 544.83 104.346 542.854 104.346C540.313 104.346 539.337 106.343 539.337 108.753V114.638H537.99V99.1777H539.337C539.337 105.931 539.337 104.736 539.314 105.584Z" fill="white"/>
</g>
<defs>
<clipPath id="clip0_726_10612">
<rect width="548.343" height="139.177" fill="white" transform="translate(0.000488281)"/>
</clipPath>
</defs>
</svg>
