<svg width="75" height="85" viewBox="0 0 75 85" fill="none" xmlns="http://www.w3.org/2000/svg">
<g id="Light Mode" clip-path="url(#clip0_1435_3541)">
<rect width="1920" height="11022" transform="translate(-453 -3418)" fill="#ECECEC" style="fill:#ECECEC;fill:color(display-p3 0.9265 0.9265 0.9265);fill-opacity:1;"/>
<g id="Puzzles">
<g id="Rectangle 20" filter="url(#filter0_dd_1435_3541)">
<path d="M-363 -650.985C-363 -667.554 -349.569 -680.985 -333 -680.985H1346C1362.57 -680.985 1376 -667.554 1376 -650.985V974.015C1376 990.583 1362.57 1004.01 1346 1004.01H-333C-349.569 1004.01 -363 990.583 -363 974.015V-650.985Z" fill="#ECECEC" style="fill:#ECECEC;fill:color(display-p3 0.9265 0.9265 0.9265);fill-opacity:1;"/>
</g>
<g id="connecting_services_section">
</g>
<g id="Group 621">
<g id="Group 475">
<g id="Vector" filter="url(#filter1_ii_1435_3541)">
<path d="M483.619 12.0008C479.242 11.9966 474.919 12.9604 470.961 14.8228C467.003 16.6852 463.509 19.3998 460.731 22.7709C460.731 22.7709 456.448 27.0795 454.702 16.1286V-193.671C454.702 -200.732 451.888 -207.504 446.879 -212.497C441.871 -217.49 435.077 -220.295 427.994 -220.295H100.701C93.6175 -220.295 86.8241 -217.49 81.8153 -212.497C76.8064 -207.504 73.9925 -200.732 73.9925 -193.671V4.41589C73.9925 29.594 67.2343 22.77 67.2343 22.77C63.3524 18.0694 58.1087 14.6795 52.2203 13.0623C46.3319 11.4451 40.0861 11.6804 34.3369 13.7359C28.5877 15.7914 23.6157 19.5669 20.1007 24.5461C16.5857 29.5253 14.6992 35.4652 14.6992 41.5537C14.6992 47.6422 16.5857 53.5822 20.1007 58.5614C23.6157 63.5406 28.5877 67.316 34.3369 69.3715C40.0861 71.427 46.3319 71.6623 52.2203 70.0451C58.1087 68.4279 63.3524 65.0372 67.2343 60.3366C67.2343 60.3366 73.9925 53.5135 73.9925 78.6916V276.779C73.9925 280.275 74.6833 283.737 76.0256 286.967C77.3678 290.197 79.3351 293.132 81.8153 295.605C84.2954 298.077 87.2397 300.038 90.4802 301.376C93.7206 302.714 97.1937 303.403 100.701 303.403H427.994C431.501 303.403 434.974 302.714 438.215 301.376C441.455 300.038 444.399 298.077 446.879 295.605C449.36 293.132 451.327 290.197 452.669 286.967C454.011 283.737 454.702 280.275 454.702 276.779V66.9789C456.448 56.028 460.731 60.3375 460.731 60.3375C463.906 64.183 468.006 67.165 472.647 69.0084C477.289 70.8517 482.323 71.4956 487.282 70.8802C492.24 70.2649 496.962 68.4103 501.009 65.4887C505.056 62.567 508.296 58.6732 510.429 54.1689C512.562 49.6647 513.518 44.6961 513.209 39.7247C512.899 34.7534 511.335 29.9406 508.66 25.7336C505.985 21.5265 502.287 18.0616 497.909 15.6607C493.531 13.2598 488.616 12.0008 483.619 12.0008Z" fill="#ECECEC" style="fill:#ECECEC;fill:color(display-p3 0.9265 0.9265 0.9265);fill-opacity:1;"/>
</g>
</g>
<g id="Group 473">
<g id="Vector_2" filter="url(#filter2_ii_1435_3541)">
<path d="M68.0298 60.3374C64.1479 65.038 58.9042 68.4279 53.0158 70.0451C47.1274 71.6623 40.8817 71.427 35.1325 69.3715C29.3833 67.316 24.4113 63.5406 20.8963 58.5613C17.3813 53.5821 15.4948 47.6422 15.4948 41.5537C15.4948 35.4652 17.3813 29.5253 20.8963 24.5461C24.4113 19.5669 29.3833 15.7914 35.1325 13.7359C40.8817 11.6804 47.1274 11.4452 53.0158 13.0624C58.9042 14.6796 64.1479 18.0703 68.0298 22.7709C68.0298 22.7709 73.9592 28.7555 74.7098 8.81937V-193.671C74.7098 -200.732 71.8958 -207.504 66.887 -212.497C61.8782 -217.49 55.0847 -220.295 48.0012 -220.295H-279.291C-286.375 -220.295 -293.168 -217.49 -298.177 -212.497C-303.186 -207.504 -306 -200.732 -306 -193.671V276.779C-306 283.84 -303.186 290.612 -298.177 295.605C-293.168 300.598 -286.375 303.403 -279.291 303.403H48.0012C55.0847 303.403 61.8782 300.598 66.887 295.605C71.8958 290.612 74.7097 283.84 74.7097 276.779V74.2881C73.9592 54.3519 68.0298 60.3374 68.0298 60.3374Z" fill="#ECECEC" style="fill:#ECECEC;fill:color(display-p3 0.9265 0.9265 0.9265);fill-opacity:1;"/>
</g>
</g>
</g>
</g>
</g>
<defs>
<filter id="filter0_dd_1435_3541" x="-396" y="-713.985" width="1807" height="1753" filterUnits="userSpaceOnUse" color-interpolation-filters="sRGB">
<feFlood flood-opacity="0" result="BackgroundImageFix"/>
<feColorMatrix in="SourceAlpha" type="matrix" values="0 0 0 0 0 0 0 0 0 0 0 0 0 0 0 0 0 0 127 0" result="hardAlpha"/>
<feOffset dx="10" dy="10"/>
<feGaussianBlur stdDeviation="12.5"/>
<feComposite in2="hardAlpha" operator="out"/>
<feColorMatrix type="matrix" values="0 0 0 0 0.0784314 0 0 0 0 0.121569 0 0 0 0 0.219608 0 0 0 0.2 0"/>
<feBlend mode="normal" in2="BackgroundImageFix" result="effect1_dropShadow_1435_3541"/>
<feColorMatrix in="SourceAlpha" type="matrix" values="0 0 0 0 0 0 0 0 0 0 0 0 0 0 0 0 0 0 127 0" result="hardAlpha"/>
<feOffset dx="-8" dy="-8"/>
<feGaussianBlur stdDeviation="12.5"/>
<feComposite in2="hardAlpha" operator="out"/>
<feColorMatrix type="matrix" values="0 0 0 0 1 0 0 0 0 1 0 0 0 0 1 0 0 0 1 0"/>
<feBlend mode="normal" in2="effect1_dropShadow_1435_3541" result="effect2_dropShadow_1435_3541"/>
<feBlend mode="normal" in="SourceGraphic" in2="effect2_dropShadow_1435_3541" result="shape"/>
</filter>
<filter id="filter1_ii_1435_3541" x="9.69922" y="-225.295" width="507.566" height="532.698" filterUnits="userSpaceOnUse" color-interpolation-filters="sRGB">
<feFlood flood-opacity="0" result="BackgroundImageFix"/>
<feBlend mode="normal" in="SourceGraphic" in2="BackgroundImageFix" result="shape"/>
<feColorMatrix in="SourceAlpha" type="matrix" values="0 0 0 0 0 0 0 0 0 0 0 0 0 0 0 0 0 0 127 0" result="hardAlpha"/>
<feOffset dx="4" dy="4"/>
<feGaussianBlur stdDeviation="10"/>
<feComposite in2="hardAlpha" operator="arithmetic" k2="-1" k3="1"/>
<feColorMatrix type="matrix" values="0 0 0 0 0.0784314 0 0 0 0 0.121569 0 0 0 0 0.219608 0 0 0 0.15 0"/>
<feBlend mode="normal" in2="shape" result="effect1_innerShadow_1435_3541"/>
<feColorMatrix in="SourceAlpha" type="matrix" values="0 0 0 0 0 0 0 0 0 0 0 0 0 0 0 0 0 0 127 0" result="hardAlpha"/>
<feOffset dx="-5" dy="-5"/>
<feGaussianBlur stdDeviation="10"/>
<feComposite in2="hardAlpha" operator="arithmetic" k2="-1" k3="1"/>
<feColorMatrix type="matrix" values="0 0 0 0 1 0 0 0 0 1 0 0 0 0 1 0 0 0 1 0"/>
<feBlend mode="normal" in2="effect1_innerShadow_1435_3541" result="effect2_innerShadow_1435_3541"/>
</filter>
<filter id="filter2_ii_1435_3541" x="-311" y="-225.295" width="389.71" height="532.698" filterUnits="userSpaceOnUse" color-interpolation-filters="sRGB">
<feFlood flood-opacity="0" result="BackgroundImageFix"/>
<feBlend mode="normal" in="SourceGraphic" in2="BackgroundImageFix" result="shape"/>
<feColorMatrix in="SourceAlpha" type="matrix" values="0 0 0 0 0 0 0 0 0 0 0 0 0 0 0 0 0 0 127 0" result="hardAlpha"/>
<feOffset dx="4" dy="4"/>
<feGaussianBlur stdDeviation="10"/>
<feComposite in2="hardAlpha" operator="arithmetic" k2="-1" k3="1"/>
<feColorMatrix type="matrix" values="0 0 0 0 0.0784314 0 0 0 0 0.121569 0 0 0 0 0.219608 0 0 0 0.15 0"/>
<feBlend mode="normal" in2="shape" result="effect1_innerShadow_1435_3541"/>
<feColorMatrix in="SourceAlpha" type="matrix" values="0 0 0 0 0 0 0 0 0 0 0 0 0 0 0 0 0 0 127 0" result="hardAlpha"/>
<feOffset dx="-5" dy="-5"/>
<feGaussianBlur stdDeviation="10"/>
<feComposite in2="hardAlpha" operator="arithmetic" k2="-1" k3="1"/>
<feColorMatrix type="matrix" values="0 0 0 0 1 0 0 0 0 1 0 0 0 0 1 0 0 0 1 0"/>
<feBlend mode="normal" in2="effect1_innerShadow_1435_3541" result="effect2_innerShadow_1435_3541"/>
</filter>
<clipPath id="clip0_1435_3541">
<rect width="1920" height="11022" fill="white" style="fill:white;fill:white;fill-opacity:1;" transform="translate(-453 -3418)"/>
</clipPath>
</defs>
</svg>
