<svg width="75" height="100" viewBox="0 0 75 100" fill="none" xmlns="http://www.w3.org/2000/svg">
<g id="Light Mode" clip-path="url(#clip0_1435_3541)">
<rect width="1920" height="11022" transform="translate(-1281 -3380)" fill="#ECECEC" style="fill:#ECECEC;fill:color(display-p3 0.9265 0.9265 0.9265);fill-opacity:1;"/>
<g id="Group" style="mix-blend-mode:exclusion" opacity="0.45">
<g id="Group_2">
<g id="Group_3">
</g>
</g>
<g id="Group_4">
<g id="Group_5">
</g>
</g>
<g id="Group_6">
<g id="Group_7">
</g>
</g>
<g id="Group_8">
<g id="Group_9">
</g>
</g>
<g id="Group_10">
<g id="Group_11">
<path id="Vector" d="M71.5276 62.222L64.4035 52.9946C61.277 48.9415 63.4981 43.3027 69.3675 40.4232C75.237 37.5437 82.5554 38.4908 85.6819 42.5439L85.6868 42.567L85.7383 42.6528L92.7326 51.7385L92.7841 51.8243C95.9106 55.8774 93.6527 61.4997 87.7832 64.3792C81.9038 67.2125 74.6223 66.2818 71.5276 62.222Z" fill="#787777" style="fill:#787777;fill:color(display-p3 0.4706 0.4667 0.4667);fill-opacity:1;"/>
<path id="Vector_2" d="M44.7826 26.3085L38.2017 16.8219C35.2782 12.6295 37.8005 6.99987 43.8367 4.27858C49.8679 1.53416 57.1349 2.70947 60.0266 6.90859L60.0315 6.93174L60.0831 7.01746L66.534 16.3624L66.5856 16.4482C69.4772 20.6473 66.9499 26.2537 60.9138 28.975C54.9045 31.6665 47.6693 30.4845 44.7826 26.3085Z" fill="#787777" style="fill:#787777;fill:color(display-p3 0.4706 0.4667 0.4667);fill-opacity:1;"/>
</g>
</g>
<g id="Group_12">
<g id="Group_13">
<path id="Vector_3" d="M52.1316 101.228L44.2748 91.8404C40.8838 87.7946 42.9063 82.0044 48.8318 78.9198C54.7255 75.8418 62.2738 76.6197 65.6697 80.6886L65.6746 80.7118L65.7262 80.7975L73.4211 90.0498L73.4726 90.1357C76.8318 94.1881 74.8044 99.9552 68.9107 103.033C63.017 106.111 55.5226 105.274 52.1316 101.228Z" fill="#717170" style="fill:#717170;fill:color(display-p3 0.4431 0.4431 0.4392);fill-opacity:1;"/>
<path id="Vector_4" d="M22.6159 64.6448L15.3294 54.9684C12.1684 50.7535 14.5289 44.9888 20.5843 42.0459C26.6397 39.1031 34.1466 40.1554 37.3345 44.3405L37.3395 44.3637L37.3911 44.4495L44.5476 53.9841L44.5991 54.0699C47.7553 58.2617 45.363 64.0331 39.3026 66.9528C33.2055 69.8561 25.772 68.8366 22.6159 64.6448Z" fill="#717170" style="fill:#717170;fill:color(display-p3 0.4431 0.4431 0.4392);fill-opacity:1;"/>
<path id="Vector_5" d="M-4.70314 26.9695L-11.4146 17.0272C-14.3358 12.6894 -11.6791 6.91074 -5.42027 4.14255C0.838564 1.37436 8.25756 2.63846 11.1837 6.99942L11.1887 7.0225L11.2403 7.10829L17.8217 16.9089L17.8732 16.9947C20.7944 21.3326 18.101 27.0947 11.8422 29.8629C5.58336 32.6311 -1.78191 31.3074 -4.70314 26.9695Z" fill="#717170" style="fill:#717170;fill:color(display-p3 0.4431 0.4431 0.4392);fill-opacity:1;"/>
</g>
</g>
<g id="Group_14">
<g id="Group_15">
<path id="Vector_6" d="M3.98721 105.372L-4.09559 95.5486C-7.54802 91.3708 -5.39098 85.4315 0.720486 82.2836C6.80013 79.1423 14.5321 80.0023 17.9895 84.2032L17.9944 84.2263L18.0459 84.3121L25.935 94.0068L26.0184 94.0858C29.4391 98.2703 27.2821 104.21 21.1657 107.335C15.108 110.423 7.41275 109.579 3.98721 105.372Z" fill="#6A6A69" style="fill:#6A6A69;fill:color(display-p3 0.4157 0.4157 0.4118);fill-opacity:1;"/>
<path id="Vector_7" d="M-26.2574 67.0838L-33.7062 56.9584C-36.8969 52.6047 -34.407 46.6678 -28.1239 43.7012C-21.8408 40.7346 -14.1551 41.8459 -10.9645 46.1996L-10.9595 46.2227L-10.9079 46.3084L-3.62092 56.2989L-3.56931 56.3847C-0.378659 60.7383 -2.90537 66.6587 -9.16154 69.5955C-15.4177 72.5323 -23.0667 71.4374 -26.2574 67.0838Z" fill="#6A6A69" style="fill:#6A6A69;fill:color(display-p3 0.4157 0.4157 0.4118);fill-opacity:1;"/>
</g>
</g>
<g id="Group_16">
<g id="Group_17">
</g>
</g>
<g id="Group_18">
<g id="Group_19">
</g>
</g>
<g id="Group_20">
<g id="Group_21">
</g>
</g>
<g id="Group_22">
<g id="Group_23">
</g>
</g>
<g id="Group_24">
<g id="Group_25">
</g>
</g>
<g id="Group_26">
<g id="Group_27">
</g>
</g>
<g id="Group_28">
<g id="Group_29">
</g>
</g>
<g id="Group_30">
<g id="Group_31">
</g>
</g>
<g id="Group_32">
<g id="Group_33">
</g>
</g>
<g id="Group_34">
<g id="Group_35">
</g>
</g>
</g>
<g id="Puzzles">
<g id="Rectangle 20" filter="url(#filter0_dd_1435_3541)">
<path d="M-1191 -612.985C-1191 -629.554 -1177.57 -642.985 -1161 -642.985H518C534.568 -642.985 548 -629.554 548 -612.985V1012.01C548 1028.58 534.568 1042.01 518 1042.01H-1161C-1177.57 1042.01 -1191 1028.58 -1191 1012.01V-612.985Z" fill="#ECECEC" style="fill:#ECECEC;fill:color(display-p3 0.9265 0.9265 0.9265);fill-opacity:1;"/>
</g>
<g id="connecting_services_section">
</g>
<g id="Group 621">
<g id="Group 479">
<g id="Vector_8" filter="url(#filter1_ii_1435_3541)">
<path d="M427.238 -213.334L99.97 -213.49C96.4628 -213.492 92.9903 -212.805 89.7507 -211.468C86.5112 -210.131 83.568 -208.172 81.0892 -205.7C78.6104 -203.229 76.6446 -200.295 75.304 -197.065C73.9634 -193.835 73.2744 -190.373 73.276 -186.876L73.3685 6.56322C73.1909 8.11051 73.1174 9.66798 73.1482 11.2253C73.1603 36.4052 66.3992 29.5775 66.3992 29.5775C62.5154 24.8747 57.2705 21.4821 51.3818 19.862C45.493 18.2419 39.2477 18.4741 33.4999 20.527C27.7522 22.58 22.7824 26.3534 19.27 31.3313C15.7576 36.3092 13.8741 42.2486 13.877 48.3376C13.8799 54.4266 15.7691 60.3678 19.2863 65.3491C22.8034 70.3304 27.7768 74.1085 33.5265 76.1669C39.2763 78.2253 45.5218 78.4635 51.409 76.849C57.2962 75.2345 62.5378 71.846 66.4172 67.1469C66.4172 67.1469 73.1716 60.3265 73.1837 85.5065C73.1544 87.0635 73.2295 88.6207 73.4085 90.1679L73.5009 283.608C73.5026 287.105 74.195 290.568 75.5387 293.799C76.8823 297.03 78.8509 299.966 81.3321 302.44C83.8132 304.913 86.7583 306.876 89.9991 308.216C93.24 309.555 96.7131 310.246 100.22 310.247L427.488 310.403C430.996 310.405 434.468 309.718 437.708 308.381C440.947 307.045 443.89 305.085 446.369 302.614C448.848 300.142 450.814 297.208 452.154 293.978C453.495 290.748 454.184 287.286 454.182 283.79L453.957 -186.695C453.954 -193.757 451.137 -200.53 446.126 -205.526C441.116 -210.522 434.321 -213.331 427.238 -213.334Z" fill="#ECECEC" style="fill:#ECECEC;fill:color(display-p3 0.9265 0.9265 0.9265);fill-opacity:1;"/>
</g>
</g>
</g>
</g>
</g>
<defs>
<filter id="filter0_dd_1435_3541" x="-1224" y="-675.985" width="1807" height="1753" filterUnits="userSpaceOnUse" color-interpolation-filters="sRGB">
<feFlood flood-opacity="0" result="BackgroundImageFix"/>
<feColorMatrix in="SourceAlpha" type="matrix" values="0 0 0 0 0 0 0 0 0 0 0 0 0 0 0 0 0 0 127 0" result="hardAlpha"/>
<feOffset dx="10" dy="10"/>
<feGaussianBlur stdDeviation="12.5"/>
<feComposite in2="hardAlpha" operator="out"/>
<feColorMatrix type="matrix" values="0 0 0 0 0.0784314 0 0 0 0 0.121569 0 0 0 0 0.219608 0 0 0 0.2 0"/>
<feBlend mode="normal" in2="BackgroundImageFix" result="effect1_dropShadow_1435_3541"/>
<feColorMatrix in="SourceAlpha" type="matrix" values="0 0 0 0 0 0 0 0 0 0 0 0 0 0 0 0 0 0 127 0" result="hardAlpha"/>
<feOffset dx="-8" dy="-8"/>
<feGaussianBlur stdDeviation="12.5"/>
<feComposite in2="hardAlpha" operator="out"/>
<feColorMatrix type="matrix" values="0 0 0 0 1 0 0 0 0 1 0 0 0 0 1 0 0 0 1 0"/>
<feBlend mode="normal" in2="effect1_dropShadow_1435_3541" result="effect2_dropShadow_1435_3541"/>
<feBlend mode="normal" in="SourceGraphic" in2="effect2_dropShadow_1435_3541" result="shape"/>
</filter>
<filter id="filter1_ii_1435_3541" x="8.87695" y="-218.49" width="449.305" height="532.893" filterUnits="userSpaceOnUse" color-interpolation-filters="sRGB">
<feFlood flood-opacity="0" result="BackgroundImageFix"/>
<feBlend mode="normal" in="SourceGraphic" in2="BackgroundImageFix" result="shape"/>
<feColorMatrix in="SourceAlpha" type="matrix" values="0 0 0 0 0 0 0 0 0 0 0 0 0 0 0 0 0 0 127 0" result="hardAlpha"/>
<feOffset dx="-5" dy="-5"/>
<feGaussianBlur stdDeviation="10"/>
<feComposite in2="hardAlpha" operator="arithmetic" k2="-1" k3="1"/>
<feColorMatrix type="matrix" values="0 0 0 0 1 0 0 0 0 1 0 0 0 0 1 0 0 0 1 0"/>
<feBlend mode="normal" in2="shape" result="effect1_innerShadow_1435_3541"/>
<feColorMatrix in="SourceAlpha" type="matrix" values="0 0 0 0 0 0 0 0 0 0 0 0 0 0 0 0 0 0 127 0" result="hardAlpha"/>
<feOffset dx="4" dy="4"/>
<feGaussianBlur stdDeviation="10"/>
<feComposite in2="hardAlpha" operator="arithmetic" k2="-1" k3="1"/>
<feColorMatrix type="matrix" values="0 0 0 0 0.0784314 0 0 0 0 0.121569 0 0 0 0 0.219608 0 0 0 0.2 0"/>
<feBlend mode="normal" in2="effect1_innerShadow_1435_3541" result="effect2_innerShadow_1435_3541"/>
</filter>
<clipPath id="clip0_1435_3541">
<rect width="1920" height="11022" fill="white" style="fill:white;fill:white;fill-opacity:1;" transform="translate(-1281 -3380)"/>
</clipPath>
</defs>
</svg>
