<svg width="75" height="100" viewBox="0 0 75 100" fill="none" xmlns="http://www.w3.org/2000/svg">
<g id="Light Mode" clip-path="url(#clip0_1435_3541)">
<rect width="1920" height="11022" transform="translate(-1214 -3410)" fill="#ECECEC" style="fill:#ECECEC;fill:color(display-p3 0.9265 0.9265 0.9265);fill-opacity:1;"/>
<g id="Group" style="mix-blend-mode:exclusion" opacity="0.45">
<g id="Group_2">
<g id="Group_3">
</g>
</g>
<g id="Group_4">
<g id="Group_5">
</g>
</g>
<g id="Group_6">
<g id="Group_7">
</g>
</g>
<g id="Group_8">
<g id="Group_9">
<path id="Vector" d="M62.2969 -3.03048L55.5854 -12.9728C52.6642 -17.3106 55.3209 -23.0893 61.5797 -25.8575C67.8386 -28.6256 75.2576 -27.3615 78.1837 -23.0006L78.1887 -22.9775L78.2403 -22.8917L84.8217 -13.0911L84.8732 -13.0053C87.7944 -8.66744 85.101 -2.90525 78.8422 -0.13706C72.5834 2.63113 65.2181 1.30736 62.2969 -3.03048Z" fill="#717170" style="fill:#717170;fill:color(display-p3 0.4431 0.4431 0.4392);fill-opacity:1;"/>
</g>
</g>
<g id="Group_10">
<g id="Group_11">
<path id="Vector_2" d="M70.9872 75.3717L62.9044 65.5486C59.452 61.3708 61.609 55.4315 67.7205 52.2836C73.8001 49.1423 81.5321 50.0023 84.9895 54.2032L84.9944 54.2263L85.0459 54.3121L92.935 64.0068L93.0184 64.0858C96.4391 68.2703 94.2821 74.2097 88.1657 77.3345C82.108 80.4228 74.4127 79.5793 70.9872 75.3717Z" fill="#6A6A69" style="fill:#6A6A69;fill:color(display-p3 0.4157 0.4157 0.4118);fill-opacity:1;"/>
<path id="Vector_3" d="M40.7426 37.0838L33.2938 26.9584C30.1031 22.6047 32.593 16.6678 38.8761 13.7012C45.1592 10.7346 52.8449 11.8459 56.0355 16.1996L56.0405 16.2227L56.0921 16.3084L63.3791 26.2989L63.4307 26.3847C66.6213 30.7383 64.0946 36.6587 57.8385 39.5955C51.5823 42.5323 43.9333 41.4374 40.7426 37.0838Z" fill="#6A6A69" style="fill:#6A6A69;fill:color(display-p3 0.4157 0.4157 0.4118);fill-opacity:1;"/>
<path id="Vector_4" d="M12.8802 -2.35903L6.06516 -12.7869C3.10938 -17.2866 5.96906 -23.2045 12.3869 -26.0062C18.8366 -28.8146 26.4493 -27.4222 29.4001 -22.9456L29.4051 -22.9226L29.4567 -22.8368L36.1368 -12.5738L36.1883 -12.488C39.1122 -7.98162 36.2477 -2.08675 29.8249 0.691804C23.407 3.49348 15.8042 2.14734 12.8802 -2.35903Z" fill="#6A6A69" style="fill:#6A6A69;fill:color(display-p3 0.4157 0.4157 0.4118);fill-opacity:1;"/>
</g>
</g>
<g id="Group_12">
<g id="Group_13">
<path id="Vector_5" d="M56.2282 118.321L47.3224 108.382C43.6055 104.211 45.5002 98.1335 51.6041 94.7938C57.708 91.4541 65.6601 92.0987 69.377 96.2692L69.382 96.2923L69.4653 96.3714L78.1725 106.16L78.256 106.239C81.9729 110.409 80.0414 116.47 73.9375 119.81C67.8336 123.15 59.9451 122.492 56.2282 118.321Z" fill="#646363" style="fill:#646363;fill:color(display-p3 0.3922 0.3882 0.3882);fill-opacity:1;"/>
<path id="Vector_6" d="M22.8264 79.5908L14.5497 69.3255C11.0627 64.9859 13.3221 58.9041 19.6245 55.716C25.9268 52.5278 33.8376 53.4467 37.3246 57.7864L37.3296 57.8095L37.413 57.8886L45.4912 68.0025L45.5747 68.0816C49.0249 72.4048 46.7336 78.4932 40.4581 81.6515C34.1876 84.833 26.3085 83.9074 22.8264 79.5908Z" fill="#646363" style="fill:#646363;fill:color(display-p3 0.3922 0.3882 0.3882);fill-opacity:1;"/>
<path id="Vector_7" d="M-8.08845 39.5618L-15.7046 28.9643C-18.9248 24.4719 -16.3006 18.3859 -9.82669 15.3791C-3.35276 12.3723 4.51686 13.5657 7.73711 18.0581L7.74204 18.0812L7.79364 18.167L15.2379 28.5832L15.2895 28.669C18.5098 33.1614 15.8488 39.2309 9.37486 42.2377C2.93769 45.2609 -4.90001 44.0608 -8.08845 39.5618Z" fill="#646363" style="fill:#646363;fill:color(display-p3 0.3922 0.3882 0.3882);fill-opacity:1;"/>
</g>
</g>
<g id="Group_14">
<g id="Group_15">
<path id="Vector_8" d="M8.92083 124.219L-0.206098 113.867C-3.98446 109.565 -1.96024 103.315 4.29777 99.9185C10.5876 96.5155 18.7553 97.2354 22.5287 101.515L22.5337 101.538L22.6171 101.617L31.5453 111.818L31.6288 111.897C35.4071 116.199 33.3461 122.433 27.0832 125.806C20.7983 129.232 12.6992 128.522 8.92083 124.219Z" fill="#5D5D5C" style="fill:#5D5D5C;fill:color(display-p3 0.3647 0.3647 0.3608);fill-opacity:1;"/>
<path id="Vector_9" d="M-25.2987 83.8268L-33.7379 73.1124C-37.2544 68.6341 -34.8605 62.4032 -28.404 59.1584C-21.9475 55.9137 -13.8162 56.9311 -10.2728 61.3797L-10.2678 61.4028L-10.1796 61.505L-1.91214 72.038L-1.82374 72.1403C1.69283 76.6186 -0.737901 82.8331 -7.19932 86.0547C-13.6607 89.2764 -21.8139 88.3118 -25.2987 83.8268Z" fill="#5D5D5C" style="fill:#5D5D5C;fill:color(display-p3 0.3647 0.3647 0.3608);fill-opacity:1;"/>
</g>
</g>
<g id="Group_16">
<g id="Group_17">
</g>
</g>
<g id="Group_18">
<g id="Group_19">
</g>
</g>
<g id="Group_20">
<g id="Group_21">
</g>
</g>
<g id="Group_22">
<g id="Group_23">
</g>
</g>
<g id="Group_24">
<g id="Group_25">
</g>
</g>
<g id="Group_26">
<g id="Group_27">
</g>
</g>
<g id="Group_28">
<g id="Group_29">
</g>
</g>
<g id="Group_30">
<g id="Group_31">
</g>
</g>
</g>
<g id="Puzzles">
<g id="Rectangle 20" filter="url(#filter0_dd_1435_3541)">
<path d="M-1124 -642.985C-1124 -659.554 -1110.57 -672.985 -1094 -672.985H585C601.568 -672.985 615 -659.554 615 -642.985V982.015C615 998.583 601.568 1012.01 585 1012.01H-1094C-1110.57 1012.01 -1124 998.583 -1124 982.015V-642.985Z" fill="#ECECEC" style="fill:#ECECEC;fill:color(display-p3 0.9265 0.9265 0.9265);fill-opacity:1;"/>
</g>
<g id="connecting_services_section">
</g>
<g id="Group 621">
<g id="Group 479">
<g id="Vector_10" filter="url(#filter1_ii_1435_3541)">
<path d="M451.574 -269.997L128.194 -219.702C124.728 -219.163 121.403 -217.949 118.409 -216.129C115.414 -214.309 112.808 -211.919 110.74 -209.095C108.671 -206.271 107.181 -203.069 106.355 -199.671C105.528 -196.273 105.381 -192.746 105.922 -189.292L135.832 1.82165C135.895 3.37782 136.063 4.92802 136.333 6.46193C140.227 31.3391 132.494 25.6352 132.494 25.6352C127.932 21.5873 122.227 19.0438 116.158 18.3508C110.09 17.6578 103.956 18.85 98.5929 21.7644C93.2303 24.6789 88.9016 29.1733 86.1986 34.6331C83.4955 40.093 82.5501 46.2518 83.4916 52.2675C84.4331 58.2833 87.2156 63.8623 91.4586 68.2418C95.7016 72.6214 101.198 75.5876 107.196 76.7351C113.195 77.8825 119.402 77.1552 124.97 74.6524C130.538 72.1497 135.195 67.9937 138.303 62.7528C138.303 62.7528 143.926 54.9726 147.819 79.8498C148.03 81.3927 148.344 82.9198 148.76 84.4209L178.671 275.535C179.211 278.989 180.429 282.304 182.255 285.289C184.081 288.275 186.478 290.872 189.311 292.934C192.144 294.996 195.356 296.481 198.765 297.305C202.174 298.129 205.712 298.276 209.177 297.737L532.558 247.441C536.023 246.902 539.348 245.688 542.343 243.868C545.338 242.048 547.944 239.658 550.012 236.834C552.08 234.01 553.57 230.808 554.397 227.41C555.223 224.012 555.37 220.485 554.83 217.031L482.081 -247.796C480.989 -254.772 477.161 -261.031 471.44 -265.195C465.719 -269.358 458.573 -271.086 451.574 -269.997Z" fill="#ECECEC" style="fill:#ECECEC;fill:color(display-p3 0.9265 0.9265 0.9265);fill-opacity:1;"/>
</g>
</g>
<g id="Group 477">
<g id="Vector_11" filter="url(#filter2_ii_1435_3541)">
<path d="M73.4872 86.6916C73.4872 61.5135 66.729 68.3374 66.729 68.3374C62.8471 73.038 57.6034 76.4279 51.715 78.0451C45.8266 79.6623 39.5809 79.427 33.8317 77.3715C28.0825 75.316 23.1104 71.5406 19.5954 66.5613C16.0804 61.5821 14.194 55.6422 14.194 49.5537C14.194 43.4652 16.0804 37.5253 19.5954 32.5461C23.1104 27.5669 28.0825 23.7914 33.8317 21.7359C39.5809 19.6804 45.8266 19.4452 51.715 21.0624C57.6034 22.6796 62.8471 26.0703 66.729 30.7709C66.729 30.7709 73.4872 37.594 73.4872 12.4159C73.4571 10.8587 73.5314 9.30135 73.7097 7.75407V-185.671C73.7097 -192.732 70.8957 -199.504 65.8869 -204.497C60.8781 -209.49 54.0847 -212.295 47.0011 -212.295H-280.291C-287.375 -212.295 -294.168 -209.49 -299.177 -204.497C-304.186 -199.504 -307 -192.732 -307 -185.671V25.1923C-305.151 34.738 -301.173 30.77 -301.173 30.77C-297.291 26.0694 -292.047 22.6795 -286.159 21.0623C-280.27 19.4451 -274.025 19.6804 -268.275 21.7359C-262.526 23.7914 -257.554 27.5669 -254.039 32.5461C-250.524 37.5253 -248.638 43.4652 -248.638 49.5537C-248.638 55.6422 -250.524 61.5822 -254.039 66.5614C-257.554 71.5406 -262.526 75.316 -268.275 77.3716C-274.025 79.4271 -280.27 79.6623 -286.159 78.0451C-292.047 76.4279 -297.291 73.0372 -301.173 68.3366C-301.173 68.3366 -305.151 64.3694 -307 73.9151V284.779C-307 288.275 -306.309 291.737 -304.967 294.967C-303.625 298.197 -301.657 301.132 -299.177 303.605C-296.697 306.077 -293.753 308.038 -290.512 309.376C-287.272 310.714 -283.799 311.403 -280.291 311.403H47.0013C50.5087 311.403 53.9818 310.714 57.2222 309.376C60.4626 308.038 63.4069 306.077 65.887 303.605C68.3672 301.132 70.3345 298.197 71.6767 294.967C73.019 291.737 73.7099 288.275 73.7099 284.779V91.3525C73.5316 89.8056 73.4572 88.2484 73.4872 86.6916Z" fill="#ECECEC" style="fill:#ECECEC;fill:color(display-p3 0.9265 0.9265 0.9265);fill-opacity:1;"/>
</g>
</g>
</g>
</g>
</g>
<defs>
<filter id="filter0_dd_1435_3541" x="-1157" y="-705.985" width="1807" height="1753" filterUnits="userSpaceOnUse" color-interpolation-filters="sRGB">
<feFlood flood-opacity="0" result="BackgroundImageFix"/>
<feColorMatrix in="SourceAlpha" type="matrix" values="0 0 0 0 0 0 0 0 0 0 0 0 0 0 0 0 0 0 127 0" result="hardAlpha"/>
<feOffset dx="10" dy="10"/>
<feGaussianBlur stdDeviation="12.5"/>
<feComposite in2="hardAlpha" operator="out"/>
<feColorMatrix type="matrix" values="0 0 0 0 0.0784314 0 0 0 0 0.121569 0 0 0 0 0.219608 0 0 0 0.2 0"/>
<feBlend mode="normal" in2="BackgroundImageFix" result="effect1_dropShadow_1435_3541"/>
<feColorMatrix in="SourceAlpha" type="matrix" values="0 0 0 0 0 0 0 0 0 0 0 0 0 0 0 0 0 0 127 0" result="hardAlpha"/>
<feOffset dx="-8" dy="-8"/>
<feGaussianBlur stdDeviation="12.5"/>
<feComposite in2="hardAlpha" operator="out"/>
<feColorMatrix type="matrix" values="0 0 0 0 1 0 0 0 0 1 0 0 0 0 1 0 0 0 1 0"/>
<feBlend mode="normal" in2="effect1_dropShadow_1435_3541" result="effect2_dropShadow_1435_3541"/>
<feBlend mode="normal" in="SourceGraphic" in2="effect2_dropShadow_1435_3541" result="shape"/>
</filter>
<filter id="filter1_ii_1435_3541" x="78.1372" y="-275.316" width="481.012" height="577.37" filterUnits="userSpaceOnUse" color-interpolation-filters="sRGB">
<feFlood flood-opacity="0" result="BackgroundImageFix"/>
<feBlend mode="normal" in="SourceGraphic" in2="BackgroundImageFix" result="shape"/>
<feColorMatrix in="SourceAlpha" type="matrix" values="0 0 0 0 0 0 0 0 0 0 0 0 0 0 0 0 0 0 127 0" result="hardAlpha"/>
<feOffset dx="-5" dy="-5"/>
<feGaussianBlur stdDeviation="10"/>
<feComposite in2="hardAlpha" operator="arithmetic" k2="-1" k3="1"/>
<feColorMatrix type="matrix" values="0 0 0 0 1 0 0 0 0 1 0 0 0 0 1 0 0 0 1 0"/>
<feBlend mode="normal" in2="shape" result="effect1_innerShadow_1435_3541"/>
<feColorMatrix in="SourceAlpha" type="matrix" values="0 0 0 0 0 0 0 0 0 0 0 0 0 0 0 0 0 0 127 0" result="hardAlpha"/>
<feOffset dx="4" dy="4"/>
<feGaussianBlur stdDeviation="10"/>
<feComposite in2="hardAlpha" operator="arithmetic" k2="-1" k3="1"/>
<feColorMatrix type="matrix" values="0 0 0 0 0.0784314 0 0 0 0 0.121569 0 0 0 0 0.219608 0 0 0 0.2 0"/>
<feBlend mode="normal" in2="effect1_innerShadow_1435_3541" result="effect2_innerShadow_1435_3541"/>
</filter>
<filter id="filter2_ii_1435_3541" x="-312" y="-217.295" width="389.71" height="532.698" filterUnits="userSpaceOnUse" color-interpolation-filters="sRGB">
<feFlood flood-opacity="0" result="BackgroundImageFix"/>
<feBlend mode="normal" in="SourceGraphic" in2="BackgroundImageFix" result="shape"/>
<feColorMatrix in="SourceAlpha" type="matrix" values="0 0 0 0 0 0 0 0 0 0 0 0 0 0 0 0 0 0 127 0" result="hardAlpha"/>
<feOffset dx="4" dy="4"/>
<feGaussianBlur stdDeviation="10"/>
<feComposite in2="hardAlpha" operator="arithmetic" k2="-1" k3="1"/>
<feColorMatrix type="matrix" values="0 0 0 0 0.0784314 0 0 0 0 0.121569 0 0 0 0 0.219608 0 0 0 0.2 0"/>
<feBlend mode="normal" in2="shape" result="effect1_innerShadow_1435_3541"/>
<feColorMatrix in="SourceAlpha" type="matrix" values="0 0 0 0 0 0 0 0 0 0 0 0 0 0 0 0 0 0 127 0" result="hardAlpha"/>
<feOffset dx="-5" dy="-5"/>
<feGaussianBlur stdDeviation="10"/>
<feComposite in2="hardAlpha" operator="arithmetic" k2="-1" k3="1"/>
<feColorMatrix type="matrix" values="0 0 0 0 1 0 0 0 0 1 0 0 0 0 1 0 0 0 1 0"/>
<feBlend mode="normal" in2="effect1_innerShadow_1435_3541" result="effect2_innerShadow_1435_3541"/>
</filter>
<clipPath id="clip0_1435_3541">
<rect width="1920" height="11022" fill="white" style="fill:white;fill:white;fill-opacity:1;" transform="translate(-1214 -3410)"/>
</clipPath>
</defs>
</svg>
