<svg width="75" height="85" viewBox="0 0 75 85" fill="none" xmlns="http://www.w3.org/2000/svg">
<g id="Light Mode" clip-path="url(#clip0_1435_3541)">
<rect width="1920" height="11022" transform="translate(-907 -3418)" fill="#ECECEC" style="fill:#ECECEC;fill:color(display-p3 0.9265 0.9265 0.9265);fill-opacity:1;"/>
<g id="Group" style="mix-blend-mode:exclusion" opacity="0.45">
<g id="Group_2">
<g id="Group_3">
</g>
</g>
<g id="Group_4">
<g id="Group_5">
</g>
</g>
<g id="Group_6">
<g id="Group_7">
<path id="Vector" d="M73.8895 -6.5837L66.6934 -19.4194C63.7488 -24.6461 67.3956 -31.2372 74.8561 -34.1376C82.2848 -37.0314 90.7035 -35.1324 93.6531 -29.8826L93.7095 -29.7735L100.814 -17.2085L100.876 -17.0765C103.826 -11.8267 100.211 -5.24238 92.755 -2.31882C85.2945 0.581619 76.8809 -1.29431 73.8994 -6.53741L73.8895 -6.5837Z" fill="#474746" style="fill:#474746;fill:color(display-p3 0.2784 0.2784 0.2745);fill-opacity:1;"/>
</g>
</g>
<g id="Group_8">
<g id="Group_9">
<path id="Vector_2" d="M89.2462 93.2925L80.0939 80.7956C76.4271 75.7691 79.3169 68.9024 86.5688 65.4901C93.8206 62.0778 102.709 63.3707 106.376 68.3972L106.381 68.4204L106.474 68.5457L115.413 80.8218L115.506 80.9471C119.173 85.9736 116.246 92.824 108.989 96.2131C101.738 99.6254 92.8812 98.3257 89.2462 93.2925Z" fill="#3F3F3E" style="fill:#3F3F3E;fill:color(display-p3 0.2471 0.2471 0.2431);fill-opacity:1;"/>
<path id="Vector_3" d="M55.2468 44.5499L47.0049 31.6441C43.6586 26.4053 47.0234 19.5836 54.5203 16.3855C62.0172 13.1875 70.7834 14.8442 74.1297 20.0831L74.1347 20.1062L74.2278 20.2316L82.2564 32.9165L82.3495 33.0419C85.6591 38.2643 82.2942 45.086 74.8242 48.2542C67.2906 51.4359 58.5613 49.7954 55.2468 44.5499Z" fill="#3F3F3E" style="fill:#3F3F3E;fill:color(display-p3 0.2471 0.2471 0.2431);fill-opacity:1;"/>
<path id="Vector_4" d="M24.939 -5.77033L17.6761 -19.0752C14.7704 -24.4309 18.5614 -31.1248 26.154 -34.0289C33.7516 -36.9099 42.2905 -34.9153 45.228 -29.5663L45.2845 -29.4575L52.4562 -16.4233L52.5176 -16.2913C55.4601 -10.9192 51.669 -4.22531 44.0495 -1.29138C36.425 1.61942 27.8864 -0.375101 24.9121 -5.74048L24.939 -5.77033Z" fill="#3F3F3E" style="fill:#3F3F3E;fill:color(display-p3 0.2471 0.2471 0.2431);fill-opacity:1;"/>
</g>
</g>
<g id="Group_10">
<g id="Group_11">
<path id="Vector_5" d="M41.1386 97.7666L31.8239 84.8207C28.0957 79.6622 31.1201 72.6464 38.5897 69.1641C46.0274 65.6885 55.0992 67.0636 58.8324 72.2452L58.8373 72.2683L58.9307 72.3936L68.0318 85.1187L68.1251 85.244C71.8215 90.4092 68.7605 97.4087 61.3178 100.861C53.8384 104.297 44.835 102.932 41.1386 97.7666Z" fill="#383736" style="fill:#383736;fill:color(display-p3 0.2196 0.2157 0.2118);fill-opacity:1;"/>
<path id="Vector_6" d="M6.59624 47.2557L-1.71744 33.8578C-5.05661 28.4967 -1.52044 21.5423 6.14041 18.3339C13.8013 15.1254 22.7242 16.8941 26.0634 22.2553L26.1199 22.3642L34.3057 35.475L34.3989 35.6003C37.738 40.9614 34.2388 47.9322 26.578 51.1407C18.8952 54.402 9.97216 52.6333 6.59624 47.2557Z" fill="#383736" style="fill:#383736;fill:color(display-p3 0.2196 0.2157 0.2118);fill-opacity:1;"/>
<path id="Vector_7" d="M-23.9464 -4.9455L-31.2493 -18.7492C-34.1528 -24.2502 -30.1807 -31.0306 -22.4241 -33.945C-14.6308 -36.8431 -5.99892 -34.7232 -3.06856 -29.2519L-3.01203 -29.1431L4.19479 -15.6333L4.25629 -15.5011C7.19159 -10.0068 3.26125 -3.18702 -4.53212 -0.28897C-12.3255 2.60908 -21.0111 0.548853 -23.9146 -4.95221L-23.9464 -4.9455Z" fill="#383736" style="fill:#383736;fill:color(display-p3 0.2196 0.2157 0.2118);fill-opacity:1;"/>
</g>
</g>
<g id="Group_12">
<g id="Group_13">
<path id="Vector_8" d="M-6.96421 102.263L-16.4411 88.8686C-20.2038 83.5483 -17.0404 76.4065 -9.37991 72.884C-1.71944 69.3615 7.50441 70.8253 11.2672 76.1456L11.2721 76.1688L11.3654 76.2941L20.5971 89.4749L20.6904 89.6002C24.4164 94.9041 21.2527 102.046 13.5873 105.545C5.94881 109.015 -3.23819 107.567 -6.96421 102.263Z" fill="#2B2B2A" style="fill:#2B2B2A;fill:color(display-p3 0.1686 0.1686 0.1647);fill-opacity:1;"/>
</g>
</g>
<g id="Group_14">
<g id="Group_15">
</g>
</g>
<g id="Group_16">
<g id="Group_17">
</g>
</g>
</g>
<g id="Puzzles">
<g id="Rectangle 20" filter="url(#filter0_dd_1435_3541)">
<path d="M-817 -650.985C-817 -667.554 -803.569 -680.985 -787 -680.985H892C908.568 -680.985 922 -667.554 922 -650.985V974.015C922 990.583 908.568 1004.01 892 1004.01H-787C-803.569 1004.01 -817 990.583 -817 974.015V-650.985Z" fill="#ECECEC" style="fill:#ECECEC;fill:color(display-p3 0.9265 0.9265 0.9265);fill-opacity:1;"/>
</g>
<g id="connecting_services_section">
</g>
<g id="Group 621">
<g id="Group 477">
<g id="Vector_9" filter="url(#filter1_ii_1435_3541)">
<path d="M380.487 78.6916C380.487 53.5135 373.729 60.3374 373.729 60.3374C369.847 65.038 364.603 68.4279 358.715 70.0451C352.827 71.6623 346.581 71.427 340.832 69.3715C335.082 67.316 330.11 63.5406 326.595 58.5613C323.08 53.5821 321.194 47.6422 321.194 41.5537C321.194 35.4652 323.08 29.5253 326.595 24.5461C330.11 19.5669 335.082 15.7914 340.832 13.7359C346.581 11.6804 352.827 11.4452 358.715 13.0624C364.603 14.6796 369.847 18.0703 373.729 22.7709C373.729 22.7709 380.487 29.594 380.487 4.41589C380.457 2.85873 380.531 1.30135 380.71 -0.245926V-193.671C380.71 -200.732 377.896 -207.504 372.887 -212.497C367.878 -217.49 361.085 -220.295 354.001 -220.295H26.7086C19.6251 -220.295 12.8316 -217.49 7.82273 -212.497C2.81389 -207.504 6.23792e-06 -200.732 0 -193.671V17.1923C1.84888 26.738 5.82717 22.77 5.82717 22.77C9.70909 18.0694 14.9527 14.6795 20.8411 13.0623C26.7295 11.4451 32.9754 11.6804 38.7246 13.7359C44.4738 15.7914 49.4457 19.5669 52.9608 24.5461C56.4758 29.5253 58.3623 35.4652 58.3623 41.5537C58.3623 47.6422 56.4758 53.5822 52.9608 58.5614C49.4457 63.5406 44.4738 67.316 38.7246 69.3716C32.9754 71.4271 26.7295 71.6623 20.8411 70.0451C14.9527 68.4279 9.70909 65.0372 5.82717 60.3366C5.82717 60.3366 1.84888 56.3694 0 65.9151V276.779C-6.17736e-06 280.275 0.690789 283.737 2.03302 286.967C3.37525 290.197 5.3426 293.132 7.82273 295.605C10.3029 298.077 13.2472 300.038 16.4877 301.376C19.7281 302.714 23.2012 303.403 26.7086 303.403H354.001C357.509 303.403 360.982 302.714 364.222 301.376C367.463 300.038 370.407 298.077 372.887 295.605C375.367 293.132 377.335 290.197 378.677 286.967C380.019 283.737 380.71 280.275 380.71 276.779V83.3525C380.532 81.8056 380.457 80.2484 380.487 78.6916Z" fill="#ECECEC" style="fill:#ECECEC;fill:color(display-p3 0.9265 0.9265 0.9265);fill-opacity:1;"/>
</g>
</g>
<g id="Group 475">
<g id="Vector_10" filter="url(#filter2_ii_1435_3541)">
<path d="M29.619 12.0008C25.2422 11.9966 20.919 12.9604 16.9611 14.8228C13.0031 16.6852 9.50903 19.3998 6.73059 22.7709C6.73059 22.7709 2.44794 27.0795 0.70224 16.1286V-193.671C0.70224 -200.732 -2.11172 -207.504 -7.12057 -212.497C-12.1294 -217.49 -18.9229 -220.295 -26.0064 -220.295H-353.299C-360.382 -220.295 -367.176 -217.49 -372.185 -212.497C-377.194 -207.504 -380.008 -200.732 -380.008 -193.671V4.41589C-380.008 29.594 -386.766 22.77 -386.766 22.77C-390.648 18.0694 -395.891 14.6795 -401.78 13.0623C-407.668 11.4451 -413.914 11.6804 -419.663 13.7359C-425.412 15.7914 -430.384 19.5669 -433.899 24.5461C-437.414 29.5253 -439.301 35.4652 -439.301 41.5537C-439.301 47.6422 -437.414 53.5822 -433.899 58.5614C-430.384 63.5406 -425.412 67.316 -419.663 69.3715C-413.914 71.427 -407.668 71.6623 -401.78 70.0451C-395.891 68.4279 -390.648 65.0372 -386.766 60.3366C-386.766 60.3366 -380.008 53.5135 -380.008 78.6916V276.779C-380.008 280.275 -379.317 283.737 -377.974 286.967C-376.632 290.197 -374.665 293.132 -372.185 295.605C-369.705 298.077 -366.76 300.038 -363.52 301.376C-360.279 302.714 -356.806 303.403 -353.299 303.403H-26.0064C-22.499 303.403 -19.0259 302.714 -15.7855 301.376C-12.545 300.038 -9.60071 298.077 -7.12057 295.605C-4.64044 293.132 -2.6731 290.197 -1.33087 286.967C0.0113525 283.737 0.70224 280.275 0.70224 276.779V66.9789C2.44794 56.028 6.73059 60.3375 6.73059 60.3375C9.90631 64.183 14.0056 67.165 18.6474 69.0084C23.2893 70.8517 28.3232 71.4956 33.2816 70.8802C38.24 70.2649 42.9619 68.4103 47.0087 65.4887C51.0555 62.567 54.2959 58.6732 56.4288 54.1689C58.5617 49.6647 59.5179 44.6961 59.2086 39.7247C58.8994 34.7534 57.3347 29.9406 54.6599 25.7336C51.9851 21.5265 48.287 18.0616 43.9091 15.6607C39.5312 13.2598 34.6156 12.0008 29.619 12.0008Z" fill="#ECECEC" style="fill:#ECECEC;fill:color(display-p3 0.9265 0.9265 0.9265);fill-opacity:1;"/>
</g>
</g>
</g>
</g>
</g>
<defs>
<filter id="filter0_dd_1435_3541" x="-850" y="-713.985" width="1807" height="1753" filterUnits="userSpaceOnUse" color-interpolation-filters="sRGB">
<feFlood flood-opacity="0" result="BackgroundImageFix"/>
<feColorMatrix in="SourceAlpha" type="matrix" values="0 0 0 0 0 0 0 0 0 0 0 0 0 0 0 0 0 0 127 0" result="hardAlpha"/>
<feOffset dx="10" dy="10"/>
<feGaussianBlur stdDeviation="12.5"/>
<feComposite in2="hardAlpha" operator="out"/>
<feColorMatrix type="matrix" values="0 0 0 0 0.0784314 0 0 0 0 0.121569 0 0 0 0 0.219608 0 0 0 0.2 0"/>
<feBlend mode="normal" in2="BackgroundImageFix" result="effect1_dropShadow_1435_3541"/>
<feColorMatrix in="SourceAlpha" type="matrix" values="0 0 0 0 0 0 0 0 0 0 0 0 0 0 0 0 0 0 127 0" result="hardAlpha"/>
<feOffset dx="-8" dy="-8"/>
<feGaussianBlur stdDeviation="12.5"/>
<feComposite in2="hardAlpha" operator="out"/>
<feColorMatrix type="matrix" values="0 0 0 0 1 0 0 0 0 1 0 0 0 0 1 0 0 0 1 0"/>
<feBlend mode="normal" in2="effect1_dropShadow_1435_3541" result="effect2_dropShadow_1435_3541"/>
<feBlend mode="normal" in="SourceGraphic" in2="effect2_dropShadow_1435_3541" result="shape"/>
</filter>
<filter id="filter1_ii_1435_3541" x="-5" y="-225.295" width="389.71" height="532.698" filterUnits="userSpaceOnUse" color-interpolation-filters="sRGB">
<feFlood flood-opacity="0" result="BackgroundImageFix"/>
<feBlend mode="normal" in="SourceGraphic" in2="BackgroundImageFix" result="shape"/>
<feColorMatrix in="SourceAlpha" type="matrix" values="0 0 0 0 0 0 0 0 0 0 0 0 0 0 0 0 0 0 127 0" result="hardAlpha"/>
<feOffset dx="4" dy="4"/>
<feGaussianBlur stdDeviation="10"/>
<feComposite in2="hardAlpha" operator="arithmetic" k2="-1" k3="1"/>
<feColorMatrix type="matrix" values="0 0 0 0 0.0784314 0 0 0 0 0.121569 0 0 0 0 0.219608 0 0 0 0.2 0"/>
<feBlend mode="normal" in2="shape" result="effect1_innerShadow_1435_3541"/>
<feColorMatrix in="SourceAlpha" type="matrix" values="0 0 0 0 0 0 0 0 0 0 0 0 0 0 0 0 0 0 127 0" result="hardAlpha"/>
<feOffset dx="-5" dy="-5"/>
<feGaussianBlur stdDeviation="10"/>
<feComposite in2="hardAlpha" operator="arithmetic" k2="-1" k3="1"/>
<feColorMatrix type="matrix" values="0 0 0 0 1 0 0 0 0 1 0 0 0 0 1 0 0 0 1 0"/>
<feBlend mode="normal" in2="effect1_innerShadow_1435_3541" result="effect2_innerShadow_1435_3541"/>
</filter>
<filter id="filter2_ii_1435_3541" x="-444.301" y="-225.295" width="507.566" height="532.698" filterUnits="userSpaceOnUse" color-interpolation-filters="sRGB">
<feFlood flood-opacity="0" result="BackgroundImageFix"/>
<feBlend mode="normal" in="SourceGraphic" in2="BackgroundImageFix" result="shape"/>
<feColorMatrix in="SourceAlpha" type="matrix" values="0 0 0 0 0 0 0 0 0 0 0 0 0 0 0 0 0 0 127 0" result="hardAlpha"/>
<feOffset dx="4" dy="4"/>
<feGaussianBlur stdDeviation="10"/>
<feComposite in2="hardAlpha" operator="arithmetic" k2="-1" k3="1"/>
<feColorMatrix type="matrix" values="0 0 0 0 0.0784314 0 0 0 0 0.121569 0 0 0 0 0.219608 0 0 0 0.15 0"/>
<feBlend mode="normal" in2="shape" result="effect1_innerShadow_1435_3541"/>
<feColorMatrix in="SourceAlpha" type="matrix" values="0 0 0 0 0 0 0 0 0 0 0 0 0 0 0 0 0 0 127 0" result="hardAlpha"/>
<feOffset dx="-5" dy="-5"/>
<feGaussianBlur stdDeviation="10"/>
<feComposite in2="hardAlpha" operator="arithmetic" k2="-1" k3="1"/>
<feColorMatrix type="matrix" values="0 0 0 0 1 0 0 0 0 1 0 0 0 0 1 0 0 0 1 0"/>
<feBlend mode="normal" in2="effect1_innerShadow_1435_3541" result="effect2_innerShadow_1435_3541"/>
</filter>
<clipPath id="clip0_1435_3541">
<rect width="1920" height="11022" fill="white" style="fill:white;fill:white;fill-opacity:1;" transform="translate(-907 -3418)"/>
</clipPath>
</defs>
</svg>
